G04 #@! TF.FileFunction,Copper,L1,Top,Signal*
%FSLAX46Y46*%
G04 Gerber Fmt 4.6, Leading zero omitted, Abs format (unit mm)*
G04 Created by KiCad (PCBNEW 4.0.7-e2-6376~58~ubuntu14.04.1) date Wed Aug  8 14:24:41 2018*
%MOMM*%
%LPD*%
G01*
G04 APERTURE LIST*
%ADD10C,0.100000*%
%ADD11C,0.140000*%
%ADD12C,0.210000*%
%ADD13C,0.010000*%
%ADD14C,3.000000*%
%ADD15C,0.600000*%
%ADD16C,0.500000*%
%ADD17C,1.000000*%
%ADD18C,0.200000*%
G04 APERTURE END LIST*
D10*
D11*
X200138095Y-58909524D02*
X199900000Y-58623810D01*
X199709524Y-58909524D02*
X199709524Y-58242857D01*
X199995238Y-58242857D01*
X200090476Y-58290476D01*
X200138095Y-58385714D01*
X200138095Y-58480952D01*
X200090476Y-58576190D01*
X199995238Y-58623810D01*
X199709524Y-58623810D01*
X199900000Y-57909524D02*
X199661905Y-57957143D01*
X199423809Y-58100000D01*
X199280952Y-58338095D01*
X199233333Y-58576190D01*
X199280952Y-58814286D01*
X199423809Y-59052381D01*
X199661905Y-59195238D01*
X199900000Y-59242857D01*
X200138095Y-59195238D01*
X200376190Y-59052381D01*
X200519047Y-58814286D01*
X200566667Y-58576190D01*
X200519047Y-58338095D01*
X200376190Y-58100000D01*
X200138095Y-57957143D01*
X199900000Y-57909524D01*
D12*
X207904286Y-71368571D02*
X207404286Y-70654286D01*
X207047143Y-71368571D02*
X207047143Y-69868571D01*
X207618571Y-69868571D01*
X207761429Y-69940000D01*
X207832857Y-70011429D01*
X207904286Y-70154286D01*
X207904286Y-70368571D01*
X207832857Y-70511429D01*
X207761429Y-70582857D01*
X207618571Y-70654286D01*
X207047143Y-70654286D01*
X207704286Y-57868571D02*
X206990000Y-57868571D01*
X206990000Y-56368571D01*
X178340001Y-69768571D02*
X179268572Y-69768571D01*
X178768572Y-70340000D01*
X178982858Y-70340000D01*
X179125715Y-70411429D01*
X179197144Y-70482857D01*
X179268572Y-70625714D01*
X179268572Y-70982857D01*
X179197144Y-71125714D01*
X179125715Y-71197143D01*
X178982858Y-71268571D01*
X178554286Y-71268571D01*
X178411429Y-71197143D01*
X178340001Y-71125714D01*
X163111429Y-63511429D02*
X163182858Y-63440000D01*
X163325715Y-63368571D01*
X163682858Y-63368571D01*
X163825715Y-63440000D01*
X163897144Y-63511429D01*
X163968572Y-63654286D01*
X163968572Y-63797143D01*
X163897144Y-64011429D01*
X163040001Y-64868571D01*
X163968572Y-64868571D01*
X185268572Y-48668571D02*
X184411429Y-48668571D01*
X184840001Y-48668571D02*
X184840001Y-47168571D01*
X184697144Y-47382857D01*
X184554286Y-47525714D01*
X184411429Y-47597143D01*
X187207143Y-60378571D02*
X187207143Y-58878571D01*
X188064286Y-60378571D01*
X188064286Y-58878571D01*
X189350000Y-60307143D02*
X189207143Y-60378571D01*
X188921429Y-60378571D01*
X188778572Y-60307143D01*
X188707143Y-60164286D01*
X188707143Y-59592857D01*
X188778572Y-59450000D01*
X188921429Y-59378571D01*
X189207143Y-59378571D01*
X189350000Y-59450000D01*
X189421429Y-59592857D01*
X189421429Y-59735714D01*
X188707143Y-59878571D01*
X190707143Y-59378571D02*
X190707143Y-60378571D01*
X190064286Y-59378571D02*
X190064286Y-60164286D01*
X190135714Y-60307143D01*
X190278572Y-60378571D01*
X190492857Y-60378571D01*
X190635714Y-60307143D01*
X190707143Y-60235714D01*
X191421429Y-60378571D02*
X191421429Y-59378571D01*
X191421429Y-59664286D02*
X191492857Y-59521429D01*
X191564286Y-59450000D01*
X191707143Y-59378571D01*
X191850000Y-59378571D01*
X192564286Y-60378571D02*
X192421428Y-60307143D01*
X192350000Y-60235714D01*
X192278571Y-60092857D01*
X192278571Y-59664286D01*
X192350000Y-59521429D01*
X192421428Y-59450000D01*
X192564286Y-59378571D01*
X192778571Y-59378571D01*
X192921428Y-59450000D01*
X192992857Y-59521429D01*
X193064286Y-59664286D01*
X193064286Y-60092857D01*
X192992857Y-60235714D01*
X192921428Y-60307143D01*
X192778571Y-60378571D01*
X192564286Y-60378571D01*
X194207143Y-59592857D02*
X194421429Y-59664286D01*
X194492857Y-59735714D01*
X194564286Y-59878571D01*
X194564286Y-60092857D01*
X194492857Y-60235714D01*
X194421429Y-60307143D01*
X194278571Y-60378571D01*
X193707143Y-60378571D01*
X193707143Y-58878571D01*
X194207143Y-58878571D01*
X194350000Y-58950000D01*
X194421429Y-59021429D01*
X194492857Y-59164286D01*
X194492857Y-59307143D01*
X194421429Y-59450000D01*
X194350000Y-59521429D01*
X194207143Y-59592857D01*
X193707143Y-59592857D01*
X195064286Y-59378571D02*
X195421429Y-60378571D01*
X195778571Y-59378571D02*
X195421429Y-60378571D01*
X195278571Y-60735714D01*
X195207143Y-60807143D01*
X195064286Y-60878571D01*
X196135714Y-59378571D02*
X196707143Y-59378571D01*
X196350000Y-58878571D02*
X196350000Y-60164286D01*
X196421428Y-60307143D01*
X196564286Y-60378571D01*
X196707143Y-60378571D01*
X197778571Y-60307143D02*
X197635714Y-60378571D01*
X197350000Y-60378571D01*
X197207143Y-60307143D01*
X197135714Y-60164286D01*
X197135714Y-59592857D01*
X197207143Y-59450000D01*
X197350000Y-59378571D01*
X197635714Y-59378571D01*
X197778571Y-59450000D01*
X197850000Y-59592857D01*
X197850000Y-59735714D01*
X197135714Y-59878571D01*
X198421428Y-60307143D02*
X198564285Y-60378571D01*
X198850000Y-60378571D01*
X198992857Y-60307143D01*
X199064285Y-60164286D01*
X199064285Y-60092857D01*
X198992857Y-59950000D01*
X198850000Y-59878571D01*
X198635714Y-59878571D01*
X198492857Y-59807143D01*
X198421428Y-59664286D01*
X198421428Y-59592857D01*
X198492857Y-59450000D01*
X198635714Y-59378571D01*
X198850000Y-59378571D01*
X198992857Y-59450000D01*
D13*
G36*
X181707817Y-45411841D02*
X181753029Y-45499650D01*
X181824656Y-45658021D01*
X181826177Y-45661432D01*
X181955350Y-45978094D01*
X182043993Y-46270391D01*
X182098477Y-46571213D01*
X182125171Y-46913452D01*
X182130800Y-47234421D01*
X182135265Y-47630453D01*
X182148157Y-47960989D01*
X182168722Y-48218076D01*
X182196204Y-48393759D01*
X182229848Y-48480086D01*
X182249678Y-48486973D01*
X182291134Y-48438423D01*
X182371028Y-48315884D01*
X182479867Y-48134949D01*
X182608160Y-47911213D01*
X182691332Y-47761443D01*
X182843243Y-47494775D01*
X182999101Y-47238685D01*
X183144057Y-47016440D01*
X183263259Y-46851304D01*
X183302096Y-46804547D01*
X183426289Y-46680891D01*
X183584407Y-46544552D01*
X183753471Y-46412805D01*
X183910502Y-46302927D01*
X184032521Y-46232193D01*
X184086011Y-46215200D01*
X184070397Y-46250737D01*
X184002390Y-46344994D01*
X183895587Y-46479433D01*
X183865481Y-46515872D01*
X183624303Y-46833665D01*
X183363522Y-47225924D01*
X183095187Y-47670569D01*
X182831348Y-48145522D01*
X182584055Y-48628704D01*
X182365356Y-49098037D01*
X182187301Y-49531442D01*
X182124862Y-49705292D01*
X181986486Y-50128393D01*
X181887235Y-50468170D01*
X181827688Y-50722197D01*
X181808421Y-50888048D01*
X181826100Y-50960020D01*
X181914324Y-50978893D01*
X182078492Y-50941334D01*
X182312220Y-50850447D01*
X182609123Y-50709338D01*
X182962818Y-50521110D01*
X183366920Y-50288868D01*
X183815045Y-50015716D01*
X183973570Y-49915811D01*
X184196469Y-49775576D01*
X184345709Y-49686335D01*
X184432504Y-49643234D01*
X184468069Y-49641416D01*
X184463619Y-49676029D01*
X184447169Y-49710789D01*
X184300634Y-49919295D01*
X184071835Y-50148426D01*
X183775118Y-50387349D01*
X183424827Y-50625232D01*
X183035305Y-50851244D01*
X182740400Y-50999696D01*
X182501179Y-51112659D01*
X182251184Y-51230875D01*
X182035888Y-51332838D01*
X181991510Y-51353888D01*
X181595607Y-51585939D01*
X181189507Y-51906994D01*
X180782528Y-52306348D01*
X180383987Y-52773296D01*
X180003203Y-53297133D01*
X179649493Y-53867154D01*
X179403081Y-54327542D01*
X179293352Y-54554757D01*
X179224064Y-54725007D01*
X179186019Y-54869971D01*
X179170016Y-55021330D01*
X179167059Y-55140342D01*
X179211217Y-55512996D01*
X179341818Y-55859919D01*
X179546991Y-56165546D01*
X179814861Y-56414314D01*
X180133557Y-56590656D01*
X180318036Y-56649196D01*
X180448264Y-56651235D01*
X180665133Y-56618307D01*
X180960752Y-56552674D01*
X181327229Y-56456599D01*
X181756673Y-56332344D01*
X182241191Y-56182172D01*
X182772891Y-56008346D01*
X183343884Y-55813127D01*
X183808522Y-55648516D01*
X184240581Y-55508855D01*
X184690777Y-55390500D01*
X185051242Y-55316981D01*
X185657639Y-55214229D01*
X186156131Y-54680447D01*
X186434664Y-54391423D01*
X186660589Y-54178504D01*
X186841269Y-54035781D01*
X186984064Y-53957344D01*
X187082649Y-53936800D01*
X187086604Y-53970695D01*
X187018382Y-54070267D01*
X186880522Y-54232345D01*
X186675564Y-54453759D01*
X186632153Y-54499241D01*
X186445305Y-54698437D01*
X186286565Y-54875683D01*
X186168204Y-55016639D01*
X186102491Y-55106965D01*
X186093200Y-55129126D01*
X186140752Y-55160067D01*
X186270433Y-55188474D01*
X186462782Y-55213088D01*
X186698334Y-55232645D01*
X186957628Y-55245884D01*
X187221200Y-55251544D01*
X187469588Y-55248363D01*
X187683330Y-55235080D01*
X187700484Y-55233316D01*
X187882258Y-55209325D01*
X188011254Y-55172644D01*
X188124506Y-55105366D01*
X188259047Y-54989585D01*
X188317084Y-54935173D01*
X188468581Y-54779395D01*
X188651117Y-54572987D01*
X188836850Y-54348114D01*
X188939383Y-54216200D01*
X189244697Y-53835367D01*
X189523410Y-53538290D01*
X189771816Y-53324458D01*
X189836966Y-53279516D01*
X189840489Y-53301278D01*
X189801896Y-53378000D01*
X189747714Y-53469402D01*
X189650522Y-53623093D01*
X189524317Y-53817262D01*
X189389622Y-54020365D01*
X189155711Y-54381155D01*
X188963040Y-54702072D01*
X188816809Y-54973388D01*
X188722217Y-55185376D01*
X188684464Y-55328310D01*
X188684000Y-55340541D01*
X188722837Y-55529439D01*
X188843978Y-55720934D01*
X189054366Y-55924986D01*
X189138196Y-55991888D01*
X189494800Y-56309632D01*
X189771092Y-56658227D01*
X189927977Y-56934000D01*
X190066359Y-57213400D01*
X189565679Y-56719157D01*
X189304575Y-56464704D01*
X189095668Y-56270794D01*
X188921588Y-56123925D01*
X188764964Y-56010595D01*
X188608425Y-55917300D01*
X188434602Y-55830539D01*
X188404600Y-55816626D01*
X187926480Y-55644628D01*
X187371724Y-55532081D01*
X186746628Y-55479743D01*
X186057487Y-55488371D01*
X185813676Y-55505003D01*
X185445040Y-55542838D01*
X185093062Y-55597317D01*
X184737968Y-55673536D01*
X184359983Y-55776591D01*
X183939333Y-55911580D01*
X183456242Y-56083599D01*
X183206613Y-56176943D01*
X182861324Y-56306916D01*
X182497550Y-56442718D01*
X182145129Y-56573286D01*
X181833899Y-56687556D01*
X181634452Y-56759865D01*
X181327312Y-56872695D01*
X181101374Y-56963636D01*
X180941079Y-57041772D01*
X180830866Y-57116192D01*
X180755177Y-57195981D01*
X180698452Y-57290227D01*
X180687376Y-57312952D01*
X180611459Y-57589527D01*
X180619599Y-57918686D01*
X180710606Y-58297732D01*
X180883290Y-58723970D01*
X181136463Y-59194702D01*
X181468936Y-59707235D01*
X181879519Y-60258870D01*
X182115443Y-60550576D01*
X182264173Y-60728017D01*
X182368802Y-60841268D01*
X182449960Y-60904446D01*
X182528279Y-60931670D01*
X182624388Y-60937058D01*
X182678844Y-60936122D01*
X182861055Y-60950288D01*
X183028144Y-60992052D01*
X183070600Y-61010611D01*
X183151791Y-61070348D01*
X183290197Y-61190937D01*
X183472572Y-61360035D01*
X183685667Y-61565300D01*
X183916236Y-61794387D01*
X183968105Y-61846874D01*
X184245416Y-62131909D01*
X184455760Y-62358904D01*
X184606126Y-62539485D01*
X184703501Y-62685278D01*
X184754872Y-62807907D01*
X184767227Y-62919000D01*
X184747554Y-63030182D01*
X184722923Y-63102719D01*
X184697056Y-63192727D01*
X184709884Y-63267203D01*
X184774041Y-63356360D01*
X184872460Y-63460231D01*
X185001143Y-63581569D01*
X185099351Y-63640550D01*
X185200614Y-63653721D01*
X185255369Y-63649198D01*
X185374427Y-63640830D01*
X185482614Y-63651059D01*
X185591864Y-63687892D01*
X185714107Y-63759335D01*
X185861276Y-63873395D01*
X186045303Y-64038078D01*
X186278118Y-64261390D01*
X186513055Y-64493130D01*
X186802215Y-64783084D01*
X187024243Y-65014929D01*
X187186404Y-65199751D01*
X187295964Y-65348634D01*
X187360185Y-65472665D01*
X187386334Y-65582927D01*
X187381674Y-65690506D01*
X187359774Y-65785143D01*
X187339442Y-65889129D01*
X187359976Y-65972611D01*
X187435264Y-66070868D01*
X187498338Y-66137134D01*
X187604289Y-66240612D01*
X187688905Y-66294568D01*
X187789806Y-66311093D01*
X187944609Y-66302280D01*
X187997094Y-66297445D01*
X188235947Y-66290152D01*
X188399641Y-66318016D01*
X188425059Y-66329355D01*
X188531018Y-66397135D01*
X188692348Y-66513950D01*
X188894263Y-66667776D01*
X189121979Y-66846585D01*
X189360710Y-67038352D01*
X189595670Y-67231051D01*
X189812075Y-67412655D01*
X189995138Y-67571139D01*
X190130075Y-67694477D01*
X190202100Y-67770642D01*
X190207768Y-67779366D01*
X190254255Y-67916631D01*
X190279702Y-68088642D01*
X190281054Y-68123534D01*
X190291854Y-68260731D01*
X190336049Y-68346748D01*
X190439124Y-68421431D01*
X190489970Y-68450141D01*
X190695741Y-68563637D01*
X190943080Y-68438418D01*
X191102488Y-68367317D01*
X191240336Y-68322101D01*
X191296109Y-68313525D01*
X191398833Y-68326981D01*
X191577758Y-68363638D01*
X191813917Y-68418463D01*
X192088340Y-68486425D01*
X192382060Y-68562493D01*
X192676108Y-68641636D01*
X192951515Y-68718823D01*
X193189314Y-68789021D01*
X193370535Y-68847201D01*
X193476211Y-68888330D01*
X193487895Y-68894887D01*
X193610791Y-69004865D01*
X193705363Y-69131685D01*
X193759332Y-69216456D01*
X193818671Y-69256865D01*
X193915900Y-69263317D01*
X194068800Y-69247967D01*
X194221441Y-69228854D01*
X194322925Y-69214160D01*
X194348200Y-69208539D01*
X194379130Y-69127865D01*
X194454770Y-69009898D01*
X194549393Y-68890563D01*
X194635840Y-68806846D01*
X194738994Y-68755046D01*
X194921775Y-68687472D01*
X195164421Y-68609434D01*
X195447172Y-68526242D01*
X195750266Y-68443205D01*
X196053942Y-68365634D01*
X196338438Y-68298838D01*
X196583994Y-68248128D01*
X196770847Y-68218812D01*
X196843249Y-68213713D01*
X197056753Y-68231882D01*
X197209009Y-68296221D01*
X197233427Y-68314116D01*
X197363756Y-68416633D01*
X197646678Y-68291512D01*
X197804845Y-68216361D01*
X197889977Y-68154905D01*
X197924139Y-68085084D01*
X197929600Y-68008672D01*
X197938091Y-67883120D01*
X197969708Y-67767886D01*
X198033662Y-67653363D01*
X198139166Y-67529942D01*
X198295430Y-67388017D01*
X198511666Y-67217979D01*
X198797088Y-67010220D01*
X199072600Y-66816548D01*
X199367798Y-66612335D01*
X199594709Y-66460545D01*
X199767461Y-66354180D01*
X199900178Y-66286245D01*
X200006990Y-66249743D01*
X200102021Y-66237677D01*
X200199399Y-66243053D01*
X200224387Y-66246121D01*
X200325955Y-66254372D01*
X200398307Y-66234899D01*
X200465541Y-66170010D01*
X200551749Y-66042016D01*
X200593095Y-65975422D01*
X200690379Y-65808739D01*
X200737102Y-65696121D01*
X200741879Y-65609041D01*
X200723383Y-65544030D01*
X200695873Y-65456016D01*
X200686211Y-65368230D01*
X200699652Y-65271409D01*
X200741453Y-65156284D01*
X200816871Y-65013592D01*
X200931163Y-64834066D01*
X201089585Y-64608440D01*
X201297393Y-64327448D01*
X201559845Y-63981826D01*
X201750876Y-63732886D01*
X201975491Y-63468954D01*
X202176457Y-63295684D01*
X202362406Y-63207402D01*
X202541972Y-63198435D01*
X202559338Y-63201567D01*
X202649832Y-63206447D01*
X202745344Y-63174883D01*
X202870124Y-63095214D01*
X203016215Y-62981846D01*
X203388928Y-62704078D01*
X203838739Y-62406637D01*
X204346119Y-62101240D01*
X204891537Y-61799603D01*
X205455462Y-61513443D01*
X205498800Y-61492527D01*
X206009948Y-61246256D01*
X206440573Y-61037380D01*
X206802038Y-60859950D01*
X207105707Y-60708014D01*
X207362946Y-60575622D01*
X207585120Y-60456822D01*
X207783592Y-60345665D01*
X207969728Y-60236198D01*
X208154892Y-60122471D01*
X208343600Y-60002920D01*
X208632710Y-59825173D01*
X208979289Y-59623549D01*
X209348879Y-59417442D01*
X209707026Y-59226246D01*
X209885543Y-59135022D01*
X210437555Y-58851777D01*
X210896811Y-58601177D01*
X211266108Y-58381332D01*
X211548239Y-58190350D01*
X211746000Y-58026344D01*
X211862186Y-57887422D01*
X211899600Y-57773146D01*
X211935310Y-57658202D01*
X212019576Y-57551890D01*
X212118099Y-57494757D01*
X212136745Y-57492800D01*
X212204238Y-57538240D01*
X212257670Y-57653974D01*
X212292271Y-57809120D01*
X212303271Y-57972797D01*
X212285900Y-58114124D01*
X212245040Y-58193839D01*
X212151757Y-58239094D01*
X212039317Y-58254800D01*
X211931962Y-58265599D01*
X211813122Y-58304031D01*
X211664049Y-58379139D01*
X211465996Y-58499972D01*
X211284652Y-58618957D01*
X211071385Y-58754682D01*
X210820742Y-58904659D01*
X210585910Y-59037088D01*
X210579485Y-59040554D01*
X210358266Y-59170190D01*
X210229388Y-59273671D01*
X210188841Y-59357081D01*
X210232618Y-59426503D01*
X210299809Y-59464943D01*
X210444322Y-59501452D01*
X210657745Y-59520091D01*
X210908958Y-59520780D01*
X211166841Y-59503444D01*
X211400274Y-59468004D01*
X211401799Y-59467681D01*
X211589614Y-59412256D01*
X211737676Y-59322146D01*
X211876256Y-59188281D01*
X211994532Y-59069272D01*
X212090739Y-58988606D01*
X212135083Y-58966000D01*
X212205482Y-59000372D01*
X212285243Y-59072730D01*
X212346911Y-59196987D01*
X212381331Y-59379953D01*
X212388313Y-59586297D01*
X212367662Y-59780686D01*
X212319189Y-59927791D01*
X212290103Y-59967355D01*
X212223597Y-60022699D01*
X212170258Y-60015392D01*
X212093444Y-59937854D01*
X212081567Y-59924228D01*
X211973102Y-59817755D01*
X211871713Y-59745378D01*
X211868864Y-59743976D01*
X211791651Y-59730880D01*
X211628836Y-59719892D01*
X211396400Y-59711512D01*
X211110327Y-59706239D01*
X210786602Y-59704574D01*
X210628902Y-59705161D01*
X210224403Y-59709010D01*
X209904869Y-59716909D01*
X209653666Y-59732247D01*
X209454159Y-59758412D01*
X209289717Y-59798793D01*
X209143704Y-59856779D01*
X208999487Y-59935759D01*
X208840433Y-60039122D01*
X208777093Y-60082434D01*
X208625044Y-60202082D01*
X208554990Y-60298766D01*
X208570429Y-60375157D01*
X208674858Y-60433922D01*
X208871771Y-60477730D01*
X209164667Y-60509249D01*
X209352357Y-60521464D01*
X209858126Y-60566329D01*
X210284580Y-60644105D01*
X210650395Y-60760880D01*
X210974252Y-60922738D01*
X211274828Y-61135765D01*
X211299113Y-61155771D01*
X211434653Y-61260968D01*
X211544566Y-61332718D01*
X211596071Y-61353600D01*
X211674510Y-61326121D01*
X211787983Y-61258927D01*
X211802823Y-61248565D01*
X211958858Y-61176024D01*
X212082762Y-61191147D01*
X212164635Y-61282458D01*
X212194579Y-61438484D01*
X212162694Y-61647749D01*
X212158773Y-61661164D01*
X212078755Y-61835325D01*
X211970922Y-61946373D01*
X211853144Y-61979487D01*
X211795938Y-61962096D01*
X211712636Y-61888395D01*
X211621888Y-61768246D01*
X211608236Y-61745964D01*
X211497765Y-61608916D01*
X211321384Y-61445300D01*
X211103892Y-61274309D01*
X210870090Y-61115136D01*
X210644780Y-60986974D01*
X210598982Y-60964924D01*
X210431207Y-60899869D01*
X210228502Y-60846651D01*
X209977563Y-60803427D01*
X209665085Y-60768349D01*
X209277762Y-60739573D01*
X208802290Y-60715251D01*
X208797864Y-60715059D01*
X208557669Y-60705208D01*
X208352734Y-60700845D01*
X208170745Y-60705793D01*
X207999390Y-60723871D01*
X207826357Y-60758901D01*
X207639333Y-60814705D01*
X207426005Y-60895102D01*
X207174061Y-61003915D01*
X206871188Y-61144964D01*
X206505074Y-61322070D01*
X206063406Y-61539054D01*
X205928442Y-61605546D01*
X205464171Y-61836284D01*
X205083152Y-62031436D01*
X204776222Y-62197625D01*
X204534219Y-62341477D01*
X204347978Y-62469617D01*
X204208337Y-62588671D01*
X204106133Y-62705264D01*
X204032201Y-62826020D01*
X203977380Y-62957565D01*
X203952957Y-63033867D01*
X203896922Y-63259920D01*
X203878499Y-63460827D01*
X203897536Y-63677270D01*
X203949629Y-63931991D01*
X204069193Y-64336527D01*
X204241686Y-64748523D01*
X204474879Y-65183141D01*
X204776545Y-65655544D01*
X204984624Y-65951000D01*
X205185887Y-66223158D01*
X205408472Y-66514907D01*
X205639620Y-66810392D01*
X205866571Y-67093758D01*
X206076565Y-67349150D01*
X206256842Y-67560713D01*
X206394644Y-67712593D01*
X206434522Y-67752612D01*
X206618354Y-67928624D01*
X207265077Y-67715041D01*
X207565231Y-67623315D01*
X207889192Y-67536413D01*
X208195687Y-67464792D01*
X208419800Y-67422459D01*
X208694950Y-67372420D01*
X208882142Y-67318526D01*
X208994976Y-67254117D01*
X209047055Y-67172531D01*
X209054800Y-67111477D01*
X209094740Y-67037369D01*
X209149382Y-66996155D01*
X209268258Y-66978004D01*
X209366573Y-67050637D01*
X209432552Y-67203620D01*
X209443159Y-67256508D01*
X209456003Y-67479289D01*
X209416750Y-67635133D01*
X209332081Y-67715466D01*
X209208677Y-67711709D01*
X209122612Y-67668033D01*
X209023040Y-67621211D01*
X208893791Y-67599234D01*
X208718639Y-67602645D01*
X208481361Y-67631986D01*
X208165732Y-67687802D01*
X208089628Y-67702612D01*
X207672696Y-67795398D01*
X207355277Y-67890939D01*
X207135290Y-67991011D01*
X207010654Y-68097390D01*
X206979285Y-68211853D01*
X207039103Y-68336177D01*
X207187900Y-68472043D01*
X207372527Y-68590795D01*
X207623324Y-68728300D01*
X207910408Y-68870186D01*
X208203899Y-69002082D01*
X208473917Y-69109616D01*
X208608523Y-69155322D01*
X208785852Y-69204350D01*
X208912580Y-69218290D01*
X209032792Y-69198895D01*
X209110284Y-69175253D01*
X209245356Y-69135661D01*
X209324217Y-69137260D01*
X209386000Y-69186141D01*
X209416861Y-69222964D01*
X209490203Y-69336560D01*
X209505439Y-69448177D01*
X209464610Y-69595946D01*
X209440100Y-69656942D01*
X209323182Y-69834606D01*
X209155223Y-69925070D01*
X209033707Y-69938800D01*
X208930093Y-69913438D01*
X208879108Y-69819097D01*
X208874452Y-69799100D01*
X208834726Y-69645103D01*
X208780058Y-69533509D01*
X208690702Y-69445259D01*
X208546911Y-69361293D01*
X208328942Y-69262553D01*
X208310269Y-69254542D01*
X207845486Y-69046655D01*
X207415816Y-68837244D01*
X207038489Y-68635341D01*
X206730736Y-68449973D01*
X206590706Y-68353445D01*
X206430199Y-68226614D01*
X206268369Y-68079373D01*
X206096374Y-67901490D01*
X205905376Y-67682728D01*
X205686534Y-67412854D01*
X205431008Y-67081633D01*
X205129958Y-66678831D01*
X205046178Y-66565245D01*
X204614133Y-65950354D01*
X204262426Y-65387782D01*
X203987995Y-64871822D01*
X203787778Y-64396767D01*
X203667494Y-63995200D01*
X203591575Y-63676164D01*
X203531582Y-63445583D01*
X203479750Y-63293112D01*
X203428315Y-63208407D01*
X203369511Y-63181122D01*
X203295574Y-63200914D01*
X203198739Y-63257437D01*
X203141674Y-63294690D01*
X203044278Y-63364392D01*
X202996238Y-63431151D01*
X202984512Y-63530064D01*
X202995361Y-63688390D01*
X203004227Y-63842321D01*
X202990350Y-63958128D01*
X202942348Y-64072445D01*
X202848841Y-64221907D01*
X202813257Y-64274600D01*
X202653466Y-64502669D01*
X202469895Y-64753210D01*
X202274921Y-65010538D01*
X202080923Y-65258974D01*
X201900282Y-65482834D01*
X201745376Y-65666437D01*
X201628583Y-65794102D01*
X201576129Y-65841791D01*
X201403658Y-65919793D01*
X201195129Y-65938009D01*
X201053127Y-65940235D01*
X200961111Y-65967968D01*
X200883519Y-66041753D01*
X200792530Y-66170606D01*
X200699807Y-66321087D01*
X200656804Y-66443376D01*
X200650782Y-66587597D01*
X200658825Y-66696738D01*
X200667138Y-66883598D01*
X200645960Y-67011574D01*
X200588129Y-67120901D01*
X200581688Y-67130070D01*
X200500347Y-67214119D01*
X200350380Y-67341727D01*
X200148307Y-67501020D01*
X199910648Y-67680126D01*
X199653922Y-67867171D01*
X199394651Y-68050282D01*
X199149353Y-68217585D01*
X198934548Y-68357207D01*
X198766758Y-68457274D01*
X198671299Y-68503120D01*
X198532267Y-68541421D01*
X198412832Y-68539498D01*
X198260286Y-68495523D01*
X198239499Y-68488139D01*
X198107177Y-68444396D01*
X198008912Y-68431900D01*
X197905543Y-68454051D01*
X197757909Y-68514247D01*
X197713700Y-68533775D01*
X197552038Y-68610578D01*
X197463919Y-68672597D01*
X197427716Y-68740618D01*
X197421600Y-68814506D01*
X197384478Y-68967910D01*
X197290989Y-69121026D01*
X197241972Y-69174510D01*
X197184902Y-69221528D01*
X197108043Y-69266283D01*
X196999657Y-69312978D01*
X196848009Y-69365815D01*
X196641361Y-69428998D01*
X196367976Y-69506730D01*
X196016118Y-69603214D01*
X195723367Y-69682401D01*
X195370543Y-69772551D01*
X195098287Y-69827953D01*
X194891560Y-69848226D01*
X194735319Y-69832991D01*
X194614524Y-69781869D01*
X194514134Y-69694480D01*
X194477643Y-69650967D01*
X194411623Y-69577539D01*
X194341181Y-69541803D01*
X194233641Y-69535680D01*
X194068497Y-69549815D01*
X193879982Y-69577987D01*
X193754562Y-69624682D01*
X193653757Y-69706200D01*
X193624277Y-69737960D01*
X193535201Y-69824119D01*
X193436758Y-69883610D01*
X193315616Y-69916199D01*
X193158445Y-69921653D01*
X192951914Y-69899740D01*
X192682692Y-69850225D01*
X192337448Y-69772876D01*
X192079821Y-69710948D01*
X191768817Y-69633164D01*
X191483858Y-69558401D01*
X191242722Y-69491600D01*
X191063187Y-69437702D01*
X190963032Y-69401646D01*
X190958159Y-69399260D01*
X190812138Y-69275523D01*
X190705290Y-69096508D01*
X190665079Y-68912622D01*
X190620361Y-68815443D01*
X190506866Y-68714080D01*
X190355298Y-68624974D01*
X190196366Y-68564564D01*
X190060775Y-68549288D01*
X190012333Y-68563168D01*
X189853775Y-68608037D01*
X189656994Y-68613331D01*
X189477184Y-68579427D01*
X189429960Y-68559165D01*
X189356815Y-68511003D01*
X189217526Y-68410988D01*
X189026203Y-68269572D01*
X188796960Y-68097203D01*
X188543907Y-67904331D01*
X188497832Y-67868945D01*
X188193347Y-67632266D01*
X187961782Y-67443723D01*
X187793749Y-67291889D01*
X187679857Y-67165340D01*
X187610716Y-67052650D01*
X187576936Y-66942394D01*
X187569128Y-66823145D01*
X187572931Y-66743539D01*
X187572602Y-66612363D01*
X187537349Y-66509376D01*
X187449991Y-66396405D01*
X187386654Y-66329624D01*
X187266480Y-66212597D01*
X187176462Y-66155149D01*
X187078121Y-66141949D01*
X186949388Y-66155409D01*
X186736939Y-66161961D01*
X186559779Y-66109348D01*
X186542988Y-66101065D01*
X186449068Y-66035331D01*
X186300374Y-65910329D01*
X186111524Y-65740323D01*
X185897133Y-65539577D01*
X185671817Y-65322355D01*
X185450193Y-65102921D01*
X185246877Y-64895539D01*
X185076485Y-64714472D01*
X184953632Y-64573986D01*
X184895255Y-64493022D01*
X184844389Y-64336221D01*
X184825745Y-64149423D01*
X184841044Y-63978791D01*
X184872911Y-63893621D01*
X184881898Y-63826674D01*
X184827728Y-63732338D01*
X184716756Y-63609264D01*
X184594066Y-63491128D01*
X184500444Y-63432144D01*
X184396780Y-63416135D01*
X184269835Y-63424398D01*
X184014440Y-63415887D01*
X183879112Y-63369324D01*
X183799281Y-63310304D01*
X183661716Y-63190673D01*
X183479558Y-63022617D01*
X183265945Y-62818322D01*
X183034020Y-62589974D01*
X182975620Y-62531464D01*
X182220240Y-61771989D01*
X182156200Y-61176185D01*
X181856606Y-61057397D01*
X181520569Y-60939922D01*
X181183380Y-60857848D01*
X180817781Y-60806860D01*
X180396513Y-60782642D01*
X180098800Y-60779174D01*
X179629560Y-60792089D01*
X179233168Y-60832977D01*
X178883434Y-60907139D01*
X178554168Y-61019874D01*
X178273906Y-61148428D01*
X178012102Y-61296805D01*
X177795760Y-61460590D01*
X177619884Y-61651177D01*
X177479479Y-61879964D01*
X177369550Y-62158347D01*
X177285101Y-62497721D01*
X177221138Y-62909484D01*
X177172665Y-63405031D01*
X177151290Y-63709611D01*
X177129863Y-64085175D01*
X177121746Y-64377018D01*
X177131065Y-64602600D01*
X177161946Y-64779384D01*
X177218516Y-64924832D01*
X177304902Y-65056406D01*
X177425230Y-65191568D01*
X177525000Y-65290982D01*
X177642439Y-65399979D01*
X177763747Y-65498070D01*
X177904382Y-65594622D01*
X178079806Y-65698998D01*
X178305480Y-65820565D01*
X178596862Y-65968687D01*
X178854200Y-66096138D01*
X179312269Y-66325302D01*
X179689287Y-66523199D01*
X179997943Y-66697755D01*
X180250921Y-66856895D01*
X180460909Y-67008544D01*
X180640593Y-67160628D01*
X180784600Y-67302031D01*
X181038600Y-67567785D01*
X180835400Y-67450168D01*
X180699734Y-67371448D01*
X180508816Y-67260424D01*
X180295142Y-67136001D01*
X180200400Y-67080777D01*
X179733829Y-66819403D01*
X179277367Y-66583936D01*
X178843319Y-66379553D01*
X178443991Y-66211431D01*
X178091689Y-66084748D01*
X177798719Y-66004679D01*
X177577386Y-65976403D01*
X177575310Y-65976400D01*
X177421164Y-65987279D01*
X177305768Y-66029906D01*
X177217457Y-66119260D01*
X177144567Y-66270324D01*
X177075432Y-66498078D01*
X177031648Y-66674631D01*
X176960198Y-66991713D01*
X176884966Y-67353986D01*
X176808847Y-67744588D01*
X176734733Y-68146661D01*
X176665518Y-68543344D01*
X176604094Y-68917779D01*
X176553355Y-69253104D01*
X176516193Y-69532460D01*
X176495503Y-69738988D01*
X176492189Y-69818319D01*
X176504030Y-69920633D01*
X176544755Y-70030894D01*
X176622573Y-70160236D01*
X176745687Y-70319792D01*
X176922305Y-70520697D01*
X177160633Y-70774085D01*
X177311933Y-70930550D01*
X177542547Y-71170765D01*
X177704571Y-71347702D01*
X177803260Y-71467861D01*
X177843873Y-71537743D01*
X177831666Y-71563847D01*
X177824542Y-71564400D01*
X177730858Y-71533830D01*
X177594184Y-71454541D01*
X177474461Y-71367222D01*
X177296272Y-71215297D01*
X177112728Y-71045066D01*
X177025400Y-70957623D01*
X176770936Y-70727084D01*
X176521762Y-70568168D01*
X176290493Y-70486794D01*
X176089746Y-70488878D01*
X176051556Y-70500886D01*
X175947060Y-70556683D01*
X175796899Y-70655898D01*
X175633579Y-70777053D01*
X175633561Y-70777067D01*
X175330273Y-70978958D01*
X174990519Y-71145538D01*
X174654025Y-71258816D01*
X174502200Y-71289439D01*
X174282200Y-71321790D01*
X174637800Y-71103772D01*
X174999864Y-70868153D01*
X175326959Y-70628765D01*
X175606902Y-70396182D01*
X175827513Y-70180975D01*
X175976609Y-69993719D01*
X176027165Y-69897919D01*
X176082013Y-69720391D01*
X176144602Y-69456049D01*
X176212742Y-69119190D01*
X176284242Y-68724114D01*
X176356914Y-68285120D01*
X176428567Y-67816505D01*
X176497012Y-67332569D01*
X176560059Y-66847610D01*
X176615518Y-66375927D01*
X176661201Y-65931819D01*
X176693831Y-65544600D01*
X176708933Y-65284463D01*
X176721373Y-64965282D01*
X176731142Y-64601562D01*
X176738230Y-64207806D01*
X176742630Y-63798521D01*
X176744331Y-63388210D01*
X176743325Y-62991378D01*
X176739603Y-62622531D01*
X176733156Y-62296172D01*
X176723975Y-62026807D01*
X176712051Y-61828941D01*
X176697375Y-61717077D01*
X176696200Y-61712688D01*
X176588945Y-61498351D01*
X176406088Y-61299504D01*
X176184650Y-61149893D01*
X175978101Y-61068273D01*
X175740716Y-61011161D01*
X175511451Y-60985179D01*
X175329260Y-60996947D01*
X175311437Y-61001488D01*
X175066540Y-61110682D01*
X174786763Y-61303657D01*
X174479868Y-61571978D01*
X174153619Y-61907206D01*
X173815778Y-62300907D01*
X173474108Y-62744643D01*
X173136373Y-63229977D01*
X172860566Y-63665000D01*
X172699783Y-63944472D01*
X172511671Y-64295801D01*
X172307610Y-64696909D01*
X172098985Y-65125718D01*
X172009368Y-65316000D01*
X171926497Y-65493800D01*
X171923248Y-65209652D01*
X171963825Y-64849854D01*
X172093801Y-64449016D01*
X172313889Y-64004983D01*
X172328348Y-63979741D01*
X172421638Y-63806726D01*
X172486825Y-63663899D01*
X172512930Y-63576085D01*
X172511810Y-63564915D01*
X172454110Y-63529427D01*
X172322590Y-63489658D01*
X172144291Y-63453572D01*
X172121352Y-63449917D01*
X171930001Y-63412213D01*
X171773266Y-63366682D01*
X171683200Y-63322762D01*
X171680271Y-63320042D01*
X171658554Y-63286036D01*
X171683634Y-63262173D01*
X171770223Y-63245054D01*
X171933031Y-63231275D01*
X172106594Y-63221468D01*
X172336162Y-63204279D01*
X172539512Y-63179391D01*
X172686962Y-63150880D01*
X172732800Y-63135457D01*
X172806469Y-63073372D01*
X172922793Y-62943640D01*
X173067910Y-62763045D01*
X173227961Y-62548370D01*
X173291600Y-62458799D01*
X173486961Y-62192790D01*
X173706627Y-61914289D01*
X173924729Y-61654996D01*
X174115396Y-61446607D01*
X174128843Y-61432930D01*
X174351327Y-61204774D01*
X174510013Y-61031331D01*
X174615244Y-60897846D01*
X174677363Y-60789566D01*
X174706713Y-60691737D01*
X174713665Y-60598710D01*
X174680209Y-60428018D01*
X174582722Y-60193423D01*
X174426322Y-59905462D01*
X174216753Y-59575600D01*
X174093701Y-59410703D01*
X173980534Y-59314046D01*
X173857060Y-59283757D01*
X173703087Y-59317970D01*
X173498422Y-59414814D01*
X173354058Y-59495756D01*
X172631745Y-59876832D01*
X171832848Y-60233590D01*
X170981355Y-60556120D01*
X170142000Y-60822823D01*
X169935251Y-60880544D01*
X169647485Y-60958162D01*
X169296286Y-61051075D01*
X168899236Y-61154681D01*
X168473922Y-61264379D01*
X168037926Y-61375566D01*
X167807238Y-61433850D01*
X167331706Y-61553074D01*
X166942582Y-61652103D01*
X166628312Y-61737688D01*
X166377343Y-61816582D01*
X166178122Y-61895535D01*
X166019095Y-61981301D01*
X165888708Y-62080629D01*
X165775408Y-62200274D01*
X165667643Y-62346985D01*
X165553857Y-62527516D01*
X165422499Y-62748617D01*
X165350892Y-62869327D01*
X165204034Y-63112825D01*
X165064926Y-63338431D01*
X164946714Y-63525173D01*
X164862544Y-63652078D01*
X164844745Y-63676892D01*
X164737461Y-63803432D01*
X164618444Y-63918792D01*
X164510733Y-64003463D01*
X164437366Y-64037937D01*
X164423279Y-64033813D01*
X164435905Y-63982162D01*
X164490542Y-63866092D01*
X164576376Y-63707970D01*
X164603754Y-63660527D01*
X164700692Y-63483485D01*
X164772726Y-63330668D01*
X164806862Y-63230200D01*
X164808000Y-63218490D01*
X164761046Y-63134903D01*
X164617616Y-63048072D01*
X164563213Y-63024240D01*
X164367377Y-62914812D01*
X164236931Y-62783992D01*
X164230141Y-62773056D01*
X164176273Y-62672538D01*
X164178076Y-62632665D01*
X164246599Y-62649723D01*
X164390923Y-62719000D01*
X164650993Y-62828592D01*
X164855777Y-62860297D01*
X165017906Y-62811795D01*
X165150010Y-62680764D01*
X165217297Y-62567120D01*
X165299517Y-62420979D01*
X165416085Y-62231964D01*
X165542381Y-62039937D01*
X165547663Y-62032208D01*
X165654647Y-61868294D01*
X165734174Y-61731880D01*
X165771921Y-61647917D01*
X165773200Y-61639293D01*
X165749608Y-61575263D01*
X165673818Y-61486976D01*
X165538311Y-61368148D01*
X165335565Y-61212497D01*
X165058060Y-61013741D01*
X164859263Y-60875805D01*
X164595267Y-60696551D01*
X164392754Y-60569889D01*
X164230470Y-60489444D01*
X164087160Y-60448840D01*
X163941572Y-60441703D01*
X163772450Y-60461657D01*
X163591857Y-60495648D01*
X163392986Y-60525168D01*
X163249038Y-60517522D01*
X163157000Y-60488636D01*
X163004600Y-60425176D01*
X163309400Y-60365890D01*
X163562621Y-60304433D01*
X163740492Y-60234995D01*
X163832357Y-60162303D01*
X163842800Y-60129272D01*
X163792773Y-59987399D01*
X163642334Y-59839561D01*
X163463702Y-59724658D01*
X163306172Y-59628789D01*
X163179388Y-59539203D01*
X163123030Y-59488313D01*
X163089064Y-59436253D01*
X163119924Y-59422962D01*
X163232527Y-59441168D01*
X163232642Y-59441190D01*
X163463254Y-59522501D01*
X163745905Y-59683621D01*
X164074800Y-59920826D01*
X164400868Y-60192169D01*
X164708955Y-60458373D01*
X164962541Y-60666614D01*
X165179632Y-60830097D01*
X165378234Y-60962029D01*
X165576352Y-61075616D01*
X165675135Y-61126780D01*
X165877890Y-61225253D01*
X166057509Y-61299791D01*
X166228536Y-61350193D01*
X166405513Y-61376259D01*
X166602986Y-61377788D01*
X166835497Y-61354579D01*
X167117591Y-61306430D01*
X167463810Y-61233142D01*
X167888700Y-61134512D01*
X168059200Y-61093846D01*
X169130952Y-60819377D01*
X170112527Y-60530901D01*
X171001190Y-60229346D01*
X171794206Y-59915638D01*
X172478800Y-59595840D01*
X172852124Y-59402550D01*
X173144832Y-59242333D01*
X173368211Y-59104955D01*
X173533554Y-58980181D01*
X173652150Y-58857777D01*
X173735290Y-58727509D01*
X173741984Y-58710666D01*
X174370796Y-58710666D01*
X174371060Y-58712084D01*
X174395039Y-58768993D01*
X174445551Y-58893231D01*
X174510541Y-59055104D01*
X174580216Y-59221284D01*
X174643084Y-59318510D01*
X174724788Y-59357866D01*
X174850970Y-59350439D01*
X175047274Y-59307312D01*
X175077349Y-59300123D01*
X175364499Y-59231465D01*
X175575568Y-59446530D01*
X175786638Y-59661594D01*
X175706518Y-60007063D01*
X175668683Y-60179650D01*
X175644786Y-60307523D01*
X175639692Y-60364474D01*
X175640099Y-60365072D01*
X175695617Y-60393768D01*
X175814542Y-60446630D01*
X175965710Y-60510685D01*
X176117959Y-60572963D01*
X176240125Y-60620489D01*
X176301044Y-60640294D01*
X176301327Y-60640313D01*
X176344960Y-60601455D01*
X176424117Y-60497240D01*
X176522275Y-60349562D01*
X176529783Y-60337600D01*
X176720311Y-60032800D01*
X177306061Y-60032800D01*
X177490662Y-60324900D01*
X177585712Y-60474443D01*
X177657829Y-60586310D01*
X177691480Y-60636404D01*
X177691532Y-60636467D01*
X177742677Y-60628022D01*
X177862871Y-60587844D01*
X178027769Y-60524203D01*
X178055938Y-60512698D01*
X178404076Y-60369463D01*
X178326208Y-59996807D01*
X178248341Y-59624152D01*
X178449670Y-59424768D01*
X178651000Y-59225383D01*
X178955800Y-59298098D01*
X179161139Y-59344932D01*
X179292231Y-59360966D01*
X179373676Y-59338893D01*
X179430074Y-59271409D01*
X179486023Y-59151207D01*
X179491220Y-59139086D01*
X179577507Y-58931542D01*
X179618125Y-58791818D01*
X179607206Y-58694253D01*
X179538879Y-58613186D01*
X179407276Y-58522957D01*
X179340891Y-58481817D01*
X179032000Y-58291158D01*
X179032000Y-57710441D01*
X179340891Y-57519782D01*
X179498341Y-57419007D01*
X179589519Y-57337179D01*
X179620249Y-57248539D01*
X179596355Y-57127326D01*
X179523661Y-56947781D01*
X179488332Y-56867669D01*
X179417372Y-56732114D01*
X179351190Y-56646100D01*
X179321722Y-56629993D01*
X179242403Y-56641593D01*
X179098613Y-56670896D01*
X178955800Y-56703501D01*
X178651000Y-56776216D01*
X178451747Y-56578908D01*
X178252495Y-56381601D01*
X178320515Y-56021108D01*
X178351292Y-55818746D01*
X178357514Y-55677460D01*
X178341967Y-55619428D01*
X178271984Y-55578791D01*
X178146717Y-55521928D01*
X177996075Y-55460527D01*
X177849969Y-55406273D01*
X177738310Y-55370852D01*
X177691405Y-55365258D01*
X177658085Y-55414863D01*
X177586195Y-55526391D01*
X177491257Y-55675758D01*
X177490662Y-55676700D01*
X177306061Y-55968800D01*
X176716666Y-55968800D01*
X176546524Y-55688066D01*
X176452622Y-55539215D01*
X176375765Y-55428279D01*
X176335745Y-55382217D01*
X176277221Y-55388970D01*
X176156449Y-55423874D01*
X176002742Y-55476210D01*
X175845413Y-55535261D01*
X175713775Y-55590308D01*
X175637142Y-55630634D01*
X175628400Y-55640849D01*
X175639006Y-55694984D01*
X175666863Y-55821137D01*
X175706026Y-55992410D01*
X175707519Y-55998850D01*
X175786638Y-56340005D01*
X175575568Y-56555069D01*
X175364499Y-56770134D01*
X175077349Y-56701476D01*
X174871034Y-56654940D01*
X174737417Y-56643691D01*
X174650257Y-56679932D01*
X174583308Y-56775863D01*
X174510328Y-56943685D01*
X174499564Y-56970106D01*
X174433696Y-57136342D01*
X174388285Y-57259785D01*
X174372132Y-57316357D01*
X174372564Y-57317499D01*
X174417799Y-57346556D01*
X174525749Y-57415114D01*
X174673212Y-57508439D01*
X174675900Y-57510137D01*
X174968000Y-57694738D01*
X174968000Y-58305255D01*
X174663160Y-58495808D01*
X174515159Y-58592689D01*
X174410764Y-58669448D01*
X174370796Y-58710666D01*
X173741984Y-58710666D01*
X173794263Y-58579143D01*
X173840361Y-58402444D01*
X173851413Y-58351621D01*
X173884931Y-58112197D01*
X173897257Y-57833302D01*
X173890032Y-57542673D01*
X173864897Y-57268048D01*
X173823490Y-57037164D01*
X173767454Y-56877757D01*
X173763894Y-56871468D01*
X173624336Y-56690723D01*
X173423412Y-56530359D01*
X173148745Y-56382729D01*
X172787957Y-56240186D01*
X172685963Y-56205480D01*
X171952576Y-55923070D01*
X171264849Y-55573367D01*
X170870954Y-55332158D01*
X170635782Y-55172206D01*
X170420370Y-55012456D01*
X170239933Y-54865519D01*
X170109687Y-54744010D01*
X170044850Y-54660542D01*
X170040400Y-54643683D01*
X170056103Y-54620919D01*
X170110363Y-54630278D01*
X170213907Y-54676866D01*
X170377460Y-54765792D01*
X170611748Y-54902163D01*
X170726200Y-54970260D01*
X171398569Y-55341769D01*
X172030108Y-55627830D01*
X172520663Y-55800487D01*
X172732241Y-55859921D01*
X172922708Y-55899472D01*
X173124227Y-55923182D01*
X173368958Y-55935094D01*
X173621800Y-55938874D01*
X173903206Y-55938966D01*
X174107227Y-55932730D01*
X174258023Y-55917147D01*
X174379756Y-55889195D01*
X174496584Y-55845854D01*
X174548475Y-55823026D01*
X174854165Y-55629971D01*
X175114936Y-55350723D01*
X175315481Y-55009696D01*
X175388446Y-54831186D01*
X175428670Y-54663050D01*
X175444305Y-54461865D01*
X175445353Y-54317800D01*
X175441838Y-54179664D01*
X175430634Y-54048913D01*
X175407770Y-53909638D01*
X175369278Y-53745932D01*
X175311189Y-53541888D01*
X175229532Y-53281600D01*
X175120339Y-52949159D01*
X175054918Y-52753127D01*
X174851312Y-52163156D01*
X174660230Y-51653660D01*
X174472194Y-51205925D01*
X174277723Y-50801238D01*
X174067336Y-50420886D01*
X173831555Y-50046154D01*
X173560898Y-49658330D01*
X173330577Y-49349269D01*
X173194016Y-49164392D01*
X173120911Y-49050883D01*
X173108259Y-49003264D01*
X173145751Y-49012041D01*
X173338062Y-49132060D01*
X173520754Y-49288850D01*
X173712013Y-49500363D01*
X173930023Y-49784551D01*
X173934386Y-49790555D01*
X174190157Y-50131437D01*
X174406503Y-50389979D01*
X174593709Y-50572451D01*
X174762060Y-50685124D01*
X174921840Y-50734267D01*
X175083335Y-50726150D01*
X175256828Y-50667042D01*
X175321233Y-50636007D01*
X175490128Y-50517765D01*
X175671914Y-50340170D01*
X175836208Y-50135794D01*
X175930600Y-49982749D01*
X175988267Y-49897193D01*
X176018948Y-49899616D01*
X176016935Y-49978651D01*
X175986446Y-50093985D01*
X175841070Y-50384762D01*
X175606876Y-50660806D01*
X175326888Y-50886567D01*
X175169126Y-51001233D01*
X175043782Y-51106153D01*
X174976843Y-51179480D01*
X174975473Y-51181966D01*
X174971146Y-51266865D01*
X174996468Y-51430962D01*
X175046628Y-51657880D01*
X175116815Y-51931238D01*
X175202220Y-52234660D01*
X175298030Y-52551765D01*
X175399436Y-52866175D01*
X175501626Y-53161511D01*
X175599791Y-53421395D01*
X175689119Y-53629447D01*
X175702548Y-53657400D01*
X175880238Y-53993218D01*
X176048789Y-54249009D01*
X176223112Y-54443457D01*
X176418120Y-54595247D01*
X176483039Y-54635350D01*
X176588433Y-54693833D01*
X176684531Y-54733209D01*
X176794782Y-54757222D01*
X176942638Y-54769612D01*
X177151551Y-54774122D01*
X177355600Y-54774589D01*
X177694185Y-54767940D01*
X177978538Y-54742691D01*
X178222247Y-54690173D01*
X178438901Y-54601713D01*
X178642092Y-54468643D01*
X178845408Y-54282291D01*
X179062439Y-54033987D01*
X179306776Y-53715060D01*
X179552431Y-53372981D01*
X179962877Y-52789761D01*
X180317639Y-52280029D01*
X180621198Y-51835407D01*
X180878037Y-51447516D01*
X181092639Y-51107976D01*
X181269487Y-50808408D01*
X181413064Y-50540432D01*
X181527853Y-50295671D01*
X181618336Y-50065744D01*
X181688996Y-49842273D01*
X181744316Y-49616877D01*
X181788778Y-49381179D01*
X181826866Y-49126798D01*
X181827811Y-49119867D01*
X181849648Y-48879093D01*
X181862784Y-48558728D01*
X181867727Y-48180362D01*
X181864989Y-47765586D01*
X181855080Y-47335991D01*
X181838511Y-46913166D01*
X181815790Y-46518702D01*
X181787429Y-46174190D01*
X181753938Y-45901220D01*
X181751358Y-45885000D01*
X181710789Y-45631174D01*
X181688684Y-45471664D01*
X181687031Y-45400533D01*
X181707817Y-45411841D01*
X181707817Y-45411841D01*
G37*
X181707817Y-45411841D02*
X181753029Y-45499650D01*
X181824656Y-45658021D01*
X181826177Y-45661432D01*
X181955350Y-45978094D01*
X182043993Y-46270391D01*
X182098477Y-46571213D01*
X182125171Y-46913452D01*
X182130800Y-47234421D01*
X182135265Y-47630453D01*
X182148157Y-47960989D01*
X182168722Y-48218076D01*
X182196204Y-48393759D01*
X182229848Y-48480086D01*
X182249678Y-48486973D01*
X182291134Y-48438423D01*
X182371028Y-48315884D01*
X182479867Y-48134949D01*
X182608160Y-47911213D01*
X182691332Y-47761443D01*
X182843243Y-47494775D01*
X182999101Y-47238685D01*
X183144057Y-47016440D01*
X183263259Y-46851304D01*
X183302096Y-46804547D01*
X183426289Y-46680891D01*
X183584407Y-46544552D01*
X183753471Y-46412805D01*
X183910502Y-46302927D01*
X184032521Y-46232193D01*
X184086011Y-46215200D01*
X184070397Y-46250737D01*
X184002390Y-46344994D01*
X183895587Y-46479433D01*
X183865481Y-46515872D01*
X183624303Y-46833665D01*
X183363522Y-47225924D01*
X183095187Y-47670569D01*
X182831348Y-48145522D01*
X182584055Y-48628704D01*
X182365356Y-49098037D01*
X182187301Y-49531442D01*
X182124862Y-49705292D01*
X181986486Y-50128393D01*
X181887235Y-50468170D01*
X181827688Y-50722197D01*
X181808421Y-50888048D01*
X181826100Y-50960020D01*
X181914324Y-50978893D01*
X182078492Y-50941334D01*
X182312220Y-50850447D01*
X182609123Y-50709338D01*
X182962818Y-50521110D01*
X183366920Y-50288868D01*
X183815045Y-50015716D01*
X183973570Y-49915811D01*
X184196469Y-49775576D01*
X184345709Y-49686335D01*
X184432504Y-49643234D01*
X184468069Y-49641416D01*
X184463619Y-49676029D01*
X184447169Y-49710789D01*
X184300634Y-49919295D01*
X184071835Y-50148426D01*
X183775118Y-50387349D01*
X183424827Y-50625232D01*
X183035305Y-50851244D01*
X182740400Y-50999696D01*
X182501179Y-51112659D01*
X182251184Y-51230875D01*
X182035888Y-51332838D01*
X181991510Y-51353888D01*
X181595607Y-51585939D01*
X181189507Y-51906994D01*
X180782528Y-52306348D01*
X180383987Y-52773296D01*
X180003203Y-53297133D01*
X179649493Y-53867154D01*
X179403081Y-54327542D01*
X179293352Y-54554757D01*
X179224064Y-54725007D01*
X179186019Y-54869971D01*
X179170016Y-55021330D01*
X179167059Y-55140342D01*
X179211217Y-55512996D01*
X179341818Y-55859919D01*
X179546991Y-56165546D01*
X179814861Y-56414314D01*
X180133557Y-56590656D01*
X180318036Y-56649196D01*
X180448264Y-56651235D01*
X180665133Y-56618307D01*
X180960752Y-56552674D01*
X181327229Y-56456599D01*
X181756673Y-56332344D01*
X182241191Y-56182172D01*
X182772891Y-56008346D01*
X183343884Y-55813127D01*
X183808522Y-55648516D01*
X184240581Y-55508855D01*
X184690777Y-55390500D01*
X185051242Y-55316981D01*
X185657639Y-55214229D01*
X186156131Y-54680447D01*
X186434664Y-54391423D01*
X186660589Y-54178504D01*
X186841269Y-54035781D01*
X186984064Y-53957344D01*
X187082649Y-53936800D01*
X187086604Y-53970695D01*
X187018382Y-54070267D01*
X186880522Y-54232345D01*
X186675564Y-54453759D01*
X186632153Y-54499241D01*
X186445305Y-54698437D01*
X186286565Y-54875683D01*
X186168204Y-55016639D01*
X186102491Y-55106965D01*
X186093200Y-55129126D01*
X186140752Y-55160067D01*
X186270433Y-55188474D01*
X186462782Y-55213088D01*
X186698334Y-55232645D01*
X186957628Y-55245884D01*
X187221200Y-55251544D01*
X187469588Y-55248363D01*
X187683330Y-55235080D01*
X187700484Y-55233316D01*
X187882258Y-55209325D01*
X188011254Y-55172644D01*
X188124506Y-55105366D01*
X188259047Y-54989585D01*
X188317084Y-54935173D01*
X188468581Y-54779395D01*
X188651117Y-54572987D01*
X188836850Y-54348114D01*
X188939383Y-54216200D01*
X189244697Y-53835367D01*
X189523410Y-53538290D01*
X189771816Y-53324458D01*
X189836966Y-53279516D01*
X189840489Y-53301278D01*
X189801896Y-53378000D01*
X189747714Y-53469402D01*
X189650522Y-53623093D01*
X189524317Y-53817262D01*
X189389622Y-54020365D01*
X189155711Y-54381155D01*
X188963040Y-54702072D01*
X188816809Y-54973388D01*
X188722217Y-55185376D01*
X188684464Y-55328310D01*
X188684000Y-55340541D01*
X188722837Y-55529439D01*
X188843978Y-55720934D01*
X189054366Y-55924986D01*
X189138196Y-55991888D01*
X189494800Y-56309632D01*
X189771092Y-56658227D01*
X189927977Y-56934000D01*
X190066359Y-57213400D01*
X189565679Y-56719157D01*
X189304575Y-56464704D01*
X189095668Y-56270794D01*
X188921588Y-56123925D01*
X188764964Y-56010595D01*
X188608425Y-55917300D01*
X188434602Y-55830539D01*
X188404600Y-55816626D01*
X187926480Y-55644628D01*
X187371724Y-55532081D01*
X186746628Y-55479743D01*
X186057487Y-55488371D01*
X185813676Y-55505003D01*
X185445040Y-55542838D01*
X185093062Y-55597317D01*
X184737968Y-55673536D01*
X184359983Y-55776591D01*
X183939333Y-55911580D01*
X183456242Y-56083599D01*
X183206613Y-56176943D01*
X182861324Y-56306916D01*
X182497550Y-56442718D01*
X182145129Y-56573286D01*
X181833899Y-56687556D01*
X181634452Y-56759865D01*
X181327312Y-56872695D01*
X181101374Y-56963636D01*
X180941079Y-57041772D01*
X180830866Y-57116192D01*
X180755177Y-57195981D01*
X180698452Y-57290227D01*
X180687376Y-57312952D01*
X180611459Y-57589527D01*
X180619599Y-57918686D01*
X180710606Y-58297732D01*
X180883290Y-58723970D01*
X181136463Y-59194702D01*
X181468936Y-59707235D01*
X181879519Y-60258870D01*
X182115443Y-60550576D01*
X182264173Y-60728017D01*
X182368802Y-60841268D01*
X182449960Y-60904446D01*
X182528279Y-60931670D01*
X182624388Y-60937058D01*
X182678844Y-60936122D01*
X182861055Y-60950288D01*
X183028144Y-60992052D01*
X183070600Y-61010611D01*
X183151791Y-61070348D01*
X183290197Y-61190937D01*
X183472572Y-61360035D01*
X183685667Y-61565300D01*
X183916236Y-61794387D01*
X183968105Y-61846874D01*
X184245416Y-62131909D01*
X184455760Y-62358904D01*
X184606126Y-62539485D01*
X184703501Y-62685278D01*
X184754872Y-62807907D01*
X184767227Y-62919000D01*
X184747554Y-63030182D01*
X184722923Y-63102719D01*
X184697056Y-63192727D01*
X184709884Y-63267203D01*
X184774041Y-63356360D01*
X184872460Y-63460231D01*
X185001143Y-63581569D01*
X185099351Y-63640550D01*
X185200614Y-63653721D01*
X185255369Y-63649198D01*
X185374427Y-63640830D01*
X185482614Y-63651059D01*
X185591864Y-63687892D01*
X185714107Y-63759335D01*
X185861276Y-63873395D01*
X186045303Y-64038078D01*
X186278118Y-64261390D01*
X186513055Y-64493130D01*
X186802215Y-64783084D01*
X187024243Y-65014929D01*
X187186404Y-65199751D01*
X187295964Y-65348634D01*
X187360185Y-65472665D01*
X187386334Y-65582927D01*
X187381674Y-65690506D01*
X187359774Y-65785143D01*
X187339442Y-65889129D01*
X187359976Y-65972611D01*
X187435264Y-66070868D01*
X187498338Y-66137134D01*
X187604289Y-66240612D01*
X187688905Y-66294568D01*
X187789806Y-66311093D01*
X187944609Y-66302280D01*
X187997094Y-66297445D01*
X188235947Y-66290152D01*
X188399641Y-66318016D01*
X188425059Y-66329355D01*
X188531018Y-66397135D01*
X188692348Y-66513950D01*
X188894263Y-66667776D01*
X189121979Y-66846585D01*
X189360710Y-67038352D01*
X189595670Y-67231051D01*
X189812075Y-67412655D01*
X189995138Y-67571139D01*
X190130075Y-67694477D01*
X190202100Y-67770642D01*
X190207768Y-67779366D01*
X190254255Y-67916631D01*
X190279702Y-68088642D01*
X190281054Y-68123534D01*
X190291854Y-68260731D01*
X190336049Y-68346748D01*
X190439124Y-68421431D01*
X190489970Y-68450141D01*
X190695741Y-68563637D01*
X190943080Y-68438418D01*
X191102488Y-68367317D01*
X191240336Y-68322101D01*
X191296109Y-68313525D01*
X191398833Y-68326981D01*
X191577758Y-68363638D01*
X191813917Y-68418463D01*
X192088340Y-68486425D01*
X192382060Y-68562493D01*
X192676108Y-68641636D01*
X192951515Y-68718823D01*
X193189314Y-68789021D01*
X193370535Y-68847201D01*
X193476211Y-68888330D01*
X193487895Y-68894887D01*
X193610791Y-69004865D01*
X193705363Y-69131685D01*
X193759332Y-69216456D01*
X193818671Y-69256865D01*
X193915900Y-69263317D01*
X194068800Y-69247967D01*
X194221441Y-69228854D01*
X194322925Y-69214160D01*
X194348200Y-69208539D01*
X194379130Y-69127865D01*
X194454770Y-69009898D01*
X194549393Y-68890563D01*
X194635840Y-68806846D01*
X194738994Y-68755046D01*
X194921775Y-68687472D01*
X195164421Y-68609434D01*
X195447172Y-68526242D01*
X195750266Y-68443205D01*
X196053942Y-68365634D01*
X196338438Y-68298838D01*
X196583994Y-68248128D01*
X196770847Y-68218812D01*
X196843249Y-68213713D01*
X197056753Y-68231882D01*
X197209009Y-68296221D01*
X197233427Y-68314116D01*
X197363756Y-68416633D01*
X197646678Y-68291512D01*
X197804845Y-68216361D01*
X197889977Y-68154905D01*
X197924139Y-68085084D01*
X197929600Y-68008672D01*
X197938091Y-67883120D01*
X197969708Y-67767886D01*
X198033662Y-67653363D01*
X198139166Y-67529942D01*
X198295430Y-67388017D01*
X198511666Y-67217979D01*
X198797088Y-67010220D01*
X199072600Y-66816548D01*
X199367798Y-66612335D01*
X199594709Y-66460545D01*
X199767461Y-66354180D01*
X199900178Y-66286245D01*
X200006990Y-66249743D01*
X200102021Y-66237677D01*
X200199399Y-66243053D01*
X200224387Y-66246121D01*
X200325955Y-66254372D01*
X200398307Y-66234899D01*
X200465541Y-66170010D01*
X200551749Y-66042016D01*
X200593095Y-65975422D01*
X200690379Y-65808739D01*
X200737102Y-65696121D01*
X200741879Y-65609041D01*
X200723383Y-65544030D01*
X200695873Y-65456016D01*
X200686211Y-65368230D01*
X200699652Y-65271409D01*
X200741453Y-65156284D01*
X200816871Y-65013592D01*
X200931163Y-64834066D01*
X201089585Y-64608440D01*
X201297393Y-64327448D01*
X201559845Y-63981826D01*
X201750876Y-63732886D01*
X201975491Y-63468954D01*
X202176457Y-63295684D01*
X202362406Y-63207402D01*
X202541972Y-63198435D01*
X202559338Y-63201567D01*
X202649832Y-63206447D01*
X202745344Y-63174883D01*
X202870124Y-63095214D01*
X203016215Y-62981846D01*
X203388928Y-62704078D01*
X203838739Y-62406637D01*
X204346119Y-62101240D01*
X204891537Y-61799603D01*
X205455462Y-61513443D01*
X205498800Y-61492527D01*
X206009948Y-61246256D01*
X206440573Y-61037380D01*
X206802038Y-60859950D01*
X207105707Y-60708014D01*
X207362946Y-60575622D01*
X207585120Y-60456822D01*
X207783592Y-60345665D01*
X207969728Y-60236198D01*
X208154892Y-60122471D01*
X208343600Y-60002920D01*
X208632710Y-59825173D01*
X208979289Y-59623549D01*
X209348879Y-59417442D01*
X209707026Y-59226246D01*
X209885543Y-59135022D01*
X210437555Y-58851777D01*
X210896811Y-58601177D01*
X211266108Y-58381332D01*
X211548239Y-58190350D01*
X211746000Y-58026344D01*
X211862186Y-57887422D01*
X211899600Y-57773146D01*
X211935310Y-57658202D01*
X212019576Y-57551890D01*
X212118099Y-57494757D01*
X212136745Y-57492800D01*
X212204238Y-57538240D01*
X212257670Y-57653974D01*
X212292271Y-57809120D01*
X212303271Y-57972797D01*
X212285900Y-58114124D01*
X212245040Y-58193839D01*
X212151757Y-58239094D01*
X212039317Y-58254800D01*
X211931962Y-58265599D01*
X211813122Y-58304031D01*
X211664049Y-58379139D01*
X211465996Y-58499972D01*
X211284652Y-58618957D01*
X211071385Y-58754682D01*
X210820742Y-58904659D01*
X210585910Y-59037088D01*
X210579485Y-59040554D01*
X210358266Y-59170190D01*
X210229388Y-59273671D01*
X210188841Y-59357081D01*
X210232618Y-59426503D01*
X210299809Y-59464943D01*
X210444322Y-59501452D01*
X210657745Y-59520091D01*
X210908958Y-59520780D01*
X211166841Y-59503444D01*
X211400274Y-59468004D01*
X211401799Y-59467681D01*
X211589614Y-59412256D01*
X211737676Y-59322146D01*
X211876256Y-59188281D01*
X211994532Y-59069272D01*
X212090739Y-58988606D01*
X212135083Y-58966000D01*
X212205482Y-59000372D01*
X212285243Y-59072730D01*
X212346911Y-59196987D01*
X212381331Y-59379953D01*
X212388313Y-59586297D01*
X212367662Y-59780686D01*
X212319189Y-59927791D01*
X212290103Y-59967355D01*
X212223597Y-60022699D01*
X212170258Y-60015392D01*
X212093444Y-59937854D01*
X212081567Y-59924228D01*
X211973102Y-59817755D01*
X211871713Y-59745378D01*
X211868864Y-59743976D01*
X211791651Y-59730880D01*
X211628836Y-59719892D01*
X211396400Y-59711512D01*
X211110327Y-59706239D01*
X210786602Y-59704574D01*
X210628902Y-59705161D01*
X210224403Y-59709010D01*
X209904869Y-59716909D01*
X209653666Y-59732247D01*
X209454159Y-59758412D01*
X209289717Y-59798793D01*
X209143704Y-59856779D01*
X208999487Y-59935759D01*
X208840433Y-60039122D01*
X208777093Y-60082434D01*
X208625044Y-60202082D01*
X208554990Y-60298766D01*
X208570429Y-60375157D01*
X208674858Y-60433922D01*
X208871771Y-60477730D01*
X209164667Y-60509249D01*
X209352357Y-60521464D01*
X209858126Y-60566329D01*
X210284580Y-60644105D01*
X210650395Y-60760880D01*
X210974252Y-60922738D01*
X211274828Y-61135765D01*
X211299113Y-61155771D01*
X211434653Y-61260968D01*
X211544566Y-61332718D01*
X211596071Y-61353600D01*
X211674510Y-61326121D01*
X211787983Y-61258927D01*
X211802823Y-61248565D01*
X211958858Y-61176024D01*
X212082762Y-61191147D01*
X212164635Y-61282458D01*
X212194579Y-61438484D01*
X212162694Y-61647749D01*
X212158773Y-61661164D01*
X212078755Y-61835325D01*
X211970922Y-61946373D01*
X211853144Y-61979487D01*
X211795938Y-61962096D01*
X211712636Y-61888395D01*
X211621888Y-61768246D01*
X211608236Y-61745964D01*
X211497765Y-61608916D01*
X211321384Y-61445300D01*
X211103892Y-61274309D01*
X210870090Y-61115136D01*
X210644780Y-60986974D01*
X210598982Y-60964924D01*
X210431207Y-60899869D01*
X210228502Y-60846651D01*
X209977563Y-60803427D01*
X209665085Y-60768349D01*
X209277762Y-60739573D01*
X208802290Y-60715251D01*
X208797864Y-60715059D01*
X208557669Y-60705208D01*
X208352734Y-60700845D01*
X208170745Y-60705793D01*
X207999390Y-60723871D01*
X207826357Y-60758901D01*
X207639333Y-60814705D01*
X207426005Y-60895102D01*
X207174061Y-61003915D01*
X206871188Y-61144964D01*
X206505074Y-61322070D01*
X206063406Y-61539054D01*
X205928442Y-61605546D01*
X205464171Y-61836284D01*
X205083152Y-62031436D01*
X204776222Y-62197625D01*
X204534219Y-62341477D01*
X204347978Y-62469617D01*
X204208337Y-62588671D01*
X204106133Y-62705264D01*
X204032201Y-62826020D01*
X203977380Y-62957565D01*
X203952957Y-63033867D01*
X203896922Y-63259920D01*
X203878499Y-63460827D01*
X203897536Y-63677270D01*
X203949629Y-63931991D01*
X204069193Y-64336527D01*
X204241686Y-64748523D01*
X204474879Y-65183141D01*
X204776545Y-65655544D01*
X204984624Y-65951000D01*
X205185887Y-66223158D01*
X205408472Y-66514907D01*
X205639620Y-66810392D01*
X205866571Y-67093758D01*
X206076565Y-67349150D01*
X206256842Y-67560713D01*
X206394644Y-67712593D01*
X206434522Y-67752612D01*
X206618354Y-67928624D01*
X207265077Y-67715041D01*
X207565231Y-67623315D01*
X207889192Y-67536413D01*
X208195687Y-67464792D01*
X208419800Y-67422459D01*
X208694950Y-67372420D01*
X208882142Y-67318526D01*
X208994976Y-67254117D01*
X209047055Y-67172531D01*
X209054800Y-67111477D01*
X209094740Y-67037369D01*
X209149382Y-66996155D01*
X209268258Y-66978004D01*
X209366573Y-67050637D01*
X209432552Y-67203620D01*
X209443159Y-67256508D01*
X209456003Y-67479289D01*
X209416750Y-67635133D01*
X209332081Y-67715466D01*
X209208677Y-67711709D01*
X209122612Y-67668033D01*
X209023040Y-67621211D01*
X208893791Y-67599234D01*
X208718639Y-67602645D01*
X208481361Y-67631986D01*
X208165732Y-67687802D01*
X208089628Y-67702612D01*
X207672696Y-67795398D01*
X207355277Y-67890939D01*
X207135290Y-67991011D01*
X207010654Y-68097390D01*
X206979285Y-68211853D01*
X207039103Y-68336177D01*
X207187900Y-68472043D01*
X207372527Y-68590795D01*
X207623324Y-68728300D01*
X207910408Y-68870186D01*
X208203899Y-69002082D01*
X208473917Y-69109616D01*
X208608523Y-69155322D01*
X208785852Y-69204350D01*
X208912580Y-69218290D01*
X209032792Y-69198895D01*
X209110284Y-69175253D01*
X209245356Y-69135661D01*
X209324217Y-69137260D01*
X209386000Y-69186141D01*
X209416861Y-69222964D01*
X209490203Y-69336560D01*
X209505439Y-69448177D01*
X209464610Y-69595946D01*
X209440100Y-69656942D01*
X209323182Y-69834606D01*
X209155223Y-69925070D01*
X209033707Y-69938800D01*
X208930093Y-69913438D01*
X208879108Y-69819097D01*
X208874452Y-69799100D01*
X208834726Y-69645103D01*
X208780058Y-69533509D01*
X208690702Y-69445259D01*
X208546911Y-69361293D01*
X208328942Y-69262553D01*
X208310269Y-69254542D01*
X207845486Y-69046655D01*
X207415816Y-68837244D01*
X207038489Y-68635341D01*
X206730736Y-68449973D01*
X206590706Y-68353445D01*
X206430199Y-68226614D01*
X206268369Y-68079373D01*
X206096374Y-67901490D01*
X205905376Y-67682728D01*
X205686534Y-67412854D01*
X205431008Y-67081633D01*
X205129958Y-66678831D01*
X205046178Y-66565245D01*
X204614133Y-65950354D01*
X204262426Y-65387782D01*
X203987995Y-64871822D01*
X203787778Y-64396767D01*
X203667494Y-63995200D01*
X203591575Y-63676164D01*
X203531582Y-63445583D01*
X203479750Y-63293112D01*
X203428315Y-63208407D01*
X203369511Y-63181122D01*
X203295574Y-63200914D01*
X203198739Y-63257437D01*
X203141674Y-63294690D01*
X203044278Y-63364392D01*
X202996238Y-63431151D01*
X202984512Y-63530064D01*
X202995361Y-63688390D01*
X203004227Y-63842321D01*
X202990350Y-63958128D01*
X202942348Y-64072445D01*
X202848841Y-64221907D01*
X202813257Y-64274600D01*
X202653466Y-64502669D01*
X202469895Y-64753210D01*
X202274921Y-65010538D01*
X202080923Y-65258974D01*
X201900282Y-65482834D01*
X201745376Y-65666437D01*
X201628583Y-65794102D01*
X201576129Y-65841791D01*
X201403658Y-65919793D01*
X201195129Y-65938009D01*
X201053127Y-65940235D01*
X200961111Y-65967968D01*
X200883519Y-66041753D01*
X200792530Y-66170606D01*
X200699807Y-66321087D01*
X200656804Y-66443376D01*
X200650782Y-66587597D01*
X200658825Y-66696738D01*
X200667138Y-66883598D01*
X200645960Y-67011574D01*
X200588129Y-67120901D01*
X200581688Y-67130070D01*
X200500347Y-67214119D01*
X200350380Y-67341727D01*
X200148307Y-67501020D01*
X199910648Y-67680126D01*
X199653922Y-67867171D01*
X199394651Y-68050282D01*
X199149353Y-68217585D01*
X198934548Y-68357207D01*
X198766758Y-68457274D01*
X198671299Y-68503120D01*
X198532267Y-68541421D01*
X198412832Y-68539498D01*
X198260286Y-68495523D01*
X198239499Y-68488139D01*
X198107177Y-68444396D01*
X198008912Y-68431900D01*
X197905543Y-68454051D01*
X197757909Y-68514247D01*
X197713700Y-68533775D01*
X197552038Y-68610578D01*
X197463919Y-68672597D01*
X197427716Y-68740618D01*
X197421600Y-68814506D01*
X197384478Y-68967910D01*
X197290989Y-69121026D01*
X197241972Y-69174510D01*
X197184902Y-69221528D01*
X197108043Y-69266283D01*
X196999657Y-69312978D01*
X196848009Y-69365815D01*
X196641361Y-69428998D01*
X196367976Y-69506730D01*
X196016118Y-69603214D01*
X195723367Y-69682401D01*
X195370543Y-69772551D01*
X195098287Y-69827953D01*
X194891560Y-69848226D01*
X194735319Y-69832991D01*
X194614524Y-69781869D01*
X194514134Y-69694480D01*
X194477643Y-69650967D01*
X194411623Y-69577539D01*
X194341181Y-69541803D01*
X194233641Y-69535680D01*
X194068497Y-69549815D01*
X193879982Y-69577987D01*
X193754562Y-69624682D01*
X193653757Y-69706200D01*
X193624277Y-69737960D01*
X193535201Y-69824119D01*
X193436758Y-69883610D01*
X193315616Y-69916199D01*
X193158445Y-69921653D01*
X192951914Y-69899740D01*
X192682692Y-69850225D01*
X192337448Y-69772876D01*
X192079821Y-69710948D01*
X191768817Y-69633164D01*
X191483858Y-69558401D01*
X191242722Y-69491600D01*
X191063187Y-69437702D01*
X190963032Y-69401646D01*
X190958159Y-69399260D01*
X190812138Y-69275523D01*
X190705290Y-69096508D01*
X190665079Y-68912622D01*
X190620361Y-68815443D01*
X190506866Y-68714080D01*
X190355298Y-68624974D01*
X190196366Y-68564564D01*
X190060775Y-68549288D01*
X190012333Y-68563168D01*
X189853775Y-68608037D01*
X189656994Y-68613331D01*
X189477184Y-68579427D01*
X189429960Y-68559165D01*
X189356815Y-68511003D01*
X189217526Y-68410988D01*
X189026203Y-68269572D01*
X188796960Y-68097203D01*
X188543907Y-67904331D01*
X188497832Y-67868945D01*
X188193347Y-67632266D01*
X187961782Y-67443723D01*
X187793749Y-67291889D01*
X187679857Y-67165340D01*
X187610716Y-67052650D01*
X187576936Y-66942394D01*
X187569128Y-66823145D01*
X187572931Y-66743539D01*
X187572602Y-66612363D01*
X187537349Y-66509376D01*
X187449991Y-66396405D01*
X187386654Y-66329624D01*
X187266480Y-66212597D01*
X187176462Y-66155149D01*
X187078121Y-66141949D01*
X186949388Y-66155409D01*
X186736939Y-66161961D01*
X186559779Y-66109348D01*
X186542988Y-66101065D01*
X186449068Y-66035331D01*
X186300374Y-65910329D01*
X186111524Y-65740323D01*
X185897133Y-65539577D01*
X185671817Y-65322355D01*
X185450193Y-65102921D01*
X185246877Y-64895539D01*
X185076485Y-64714472D01*
X184953632Y-64573986D01*
X184895255Y-64493022D01*
X184844389Y-64336221D01*
X184825745Y-64149423D01*
X184841044Y-63978791D01*
X184872911Y-63893621D01*
X184881898Y-63826674D01*
X184827728Y-63732338D01*
X184716756Y-63609264D01*
X184594066Y-63491128D01*
X184500444Y-63432144D01*
X184396780Y-63416135D01*
X184269835Y-63424398D01*
X184014440Y-63415887D01*
X183879112Y-63369324D01*
X183799281Y-63310304D01*
X183661716Y-63190673D01*
X183479558Y-63022617D01*
X183265945Y-62818322D01*
X183034020Y-62589974D01*
X182975620Y-62531464D01*
X182220240Y-61771989D01*
X182156200Y-61176185D01*
X181856606Y-61057397D01*
X181520569Y-60939922D01*
X181183380Y-60857848D01*
X180817781Y-60806860D01*
X180396513Y-60782642D01*
X180098800Y-60779174D01*
X179629560Y-60792089D01*
X179233168Y-60832977D01*
X178883434Y-60907139D01*
X178554168Y-61019874D01*
X178273906Y-61148428D01*
X178012102Y-61296805D01*
X177795760Y-61460590D01*
X177619884Y-61651177D01*
X177479479Y-61879964D01*
X177369550Y-62158347D01*
X177285101Y-62497721D01*
X177221138Y-62909484D01*
X177172665Y-63405031D01*
X177151290Y-63709611D01*
X177129863Y-64085175D01*
X177121746Y-64377018D01*
X177131065Y-64602600D01*
X177161946Y-64779384D01*
X177218516Y-64924832D01*
X177304902Y-65056406D01*
X177425230Y-65191568D01*
X177525000Y-65290982D01*
X177642439Y-65399979D01*
X177763747Y-65498070D01*
X177904382Y-65594622D01*
X178079806Y-65698998D01*
X178305480Y-65820565D01*
X178596862Y-65968687D01*
X178854200Y-66096138D01*
X179312269Y-66325302D01*
X179689287Y-66523199D01*
X179997943Y-66697755D01*
X180250921Y-66856895D01*
X180460909Y-67008544D01*
X180640593Y-67160628D01*
X180784600Y-67302031D01*
X181038600Y-67567785D01*
X180835400Y-67450168D01*
X180699734Y-67371448D01*
X180508816Y-67260424D01*
X180295142Y-67136001D01*
X180200400Y-67080777D01*
X179733829Y-66819403D01*
X179277367Y-66583936D01*
X178843319Y-66379553D01*
X178443991Y-66211431D01*
X178091689Y-66084748D01*
X177798719Y-66004679D01*
X177577386Y-65976403D01*
X177575310Y-65976400D01*
X177421164Y-65987279D01*
X177305768Y-66029906D01*
X177217457Y-66119260D01*
X177144567Y-66270324D01*
X177075432Y-66498078D01*
X177031648Y-66674631D01*
X176960198Y-66991713D01*
X176884966Y-67353986D01*
X176808847Y-67744588D01*
X176734733Y-68146661D01*
X176665518Y-68543344D01*
X176604094Y-68917779D01*
X176553355Y-69253104D01*
X176516193Y-69532460D01*
X176495503Y-69738988D01*
X176492189Y-69818319D01*
X176504030Y-69920633D01*
X176544755Y-70030894D01*
X176622573Y-70160236D01*
X176745687Y-70319792D01*
X176922305Y-70520697D01*
X177160633Y-70774085D01*
X177311933Y-70930550D01*
X177542547Y-71170765D01*
X177704571Y-71347702D01*
X177803260Y-71467861D01*
X177843873Y-71537743D01*
X177831666Y-71563847D01*
X177824542Y-71564400D01*
X177730858Y-71533830D01*
X177594184Y-71454541D01*
X177474461Y-71367222D01*
X177296272Y-71215297D01*
X177112728Y-71045066D01*
X177025400Y-70957623D01*
X176770936Y-70727084D01*
X176521762Y-70568168D01*
X176290493Y-70486794D01*
X176089746Y-70488878D01*
X176051556Y-70500886D01*
X175947060Y-70556683D01*
X175796899Y-70655898D01*
X175633579Y-70777053D01*
X175633561Y-70777067D01*
X175330273Y-70978958D01*
X174990519Y-71145538D01*
X174654025Y-71258816D01*
X174502200Y-71289439D01*
X174282200Y-71321790D01*
X174637800Y-71103772D01*
X174999864Y-70868153D01*
X175326959Y-70628765D01*
X175606902Y-70396182D01*
X175827513Y-70180975D01*
X175976609Y-69993719D01*
X176027165Y-69897919D01*
X176082013Y-69720391D01*
X176144602Y-69456049D01*
X176212742Y-69119190D01*
X176284242Y-68724114D01*
X176356914Y-68285120D01*
X176428567Y-67816505D01*
X176497012Y-67332569D01*
X176560059Y-66847610D01*
X176615518Y-66375927D01*
X176661201Y-65931819D01*
X176693831Y-65544600D01*
X176708933Y-65284463D01*
X176721373Y-64965282D01*
X176731142Y-64601562D01*
X176738230Y-64207806D01*
X176742630Y-63798521D01*
X176744331Y-63388210D01*
X176743325Y-62991378D01*
X176739603Y-62622531D01*
X176733156Y-62296172D01*
X176723975Y-62026807D01*
X176712051Y-61828941D01*
X176697375Y-61717077D01*
X176696200Y-61712688D01*
X176588945Y-61498351D01*
X176406088Y-61299504D01*
X176184650Y-61149893D01*
X175978101Y-61068273D01*
X175740716Y-61011161D01*
X175511451Y-60985179D01*
X175329260Y-60996947D01*
X175311437Y-61001488D01*
X175066540Y-61110682D01*
X174786763Y-61303657D01*
X174479868Y-61571978D01*
X174153619Y-61907206D01*
X173815778Y-62300907D01*
X173474108Y-62744643D01*
X173136373Y-63229977D01*
X172860566Y-63665000D01*
X172699783Y-63944472D01*
X172511671Y-64295801D01*
X172307610Y-64696909D01*
X172098985Y-65125718D01*
X172009368Y-65316000D01*
X171926497Y-65493800D01*
X171923248Y-65209652D01*
X171963825Y-64849854D01*
X172093801Y-64449016D01*
X172313889Y-64004983D01*
X172328348Y-63979741D01*
X172421638Y-63806726D01*
X172486825Y-63663899D01*
X172512930Y-63576085D01*
X172511810Y-63564915D01*
X172454110Y-63529427D01*
X172322590Y-63489658D01*
X172144291Y-63453572D01*
X172121352Y-63449917D01*
X171930001Y-63412213D01*
X171773266Y-63366682D01*
X171683200Y-63322762D01*
X171680271Y-63320042D01*
X171658554Y-63286036D01*
X171683634Y-63262173D01*
X171770223Y-63245054D01*
X171933031Y-63231275D01*
X172106594Y-63221468D01*
X172336162Y-63204279D01*
X172539512Y-63179391D01*
X172686962Y-63150880D01*
X172732800Y-63135457D01*
X172806469Y-63073372D01*
X172922793Y-62943640D01*
X173067910Y-62763045D01*
X173227961Y-62548370D01*
X173291600Y-62458799D01*
X173486961Y-62192790D01*
X173706627Y-61914289D01*
X173924729Y-61654996D01*
X174115396Y-61446607D01*
X174128843Y-61432930D01*
X174351327Y-61204774D01*
X174510013Y-61031331D01*
X174615244Y-60897846D01*
X174677363Y-60789566D01*
X174706713Y-60691737D01*
X174713665Y-60598710D01*
X174680209Y-60428018D01*
X174582722Y-60193423D01*
X174426322Y-59905462D01*
X174216753Y-59575600D01*
X174093701Y-59410703D01*
X173980534Y-59314046D01*
X173857060Y-59283757D01*
X173703087Y-59317970D01*
X173498422Y-59414814D01*
X173354058Y-59495756D01*
X172631745Y-59876832D01*
X171832848Y-60233590D01*
X170981355Y-60556120D01*
X170142000Y-60822823D01*
X169935251Y-60880544D01*
X169647485Y-60958162D01*
X169296286Y-61051075D01*
X168899236Y-61154681D01*
X168473922Y-61264379D01*
X168037926Y-61375566D01*
X167807238Y-61433850D01*
X167331706Y-61553074D01*
X166942582Y-61652103D01*
X166628312Y-61737688D01*
X166377343Y-61816582D01*
X166178122Y-61895535D01*
X166019095Y-61981301D01*
X165888708Y-62080629D01*
X165775408Y-62200274D01*
X165667643Y-62346985D01*
X165553857Y-62527516D01*
X165422499Y-62748617D01*
X165350892Y-62869327D01*
X165204034Y-63112825D01*
X165064926Y-63338431D01*
X164946714Y-63525173D01*
X164862544Y-63652078D01*
X164844745Y-63676892D01*
X164737461Y-63803432D01*
X164618444Y-63918792D01*
X164510733Y-64003463D01*
X164437366Y-64037937D01*
X164423279Y-64033813D01*
X164435905Y-63982162D01*
X164490542Y-63866092D01*
X164576376Y-63707970D01*
X164603754Y-63660527D01*
X164700692Y-63483485D01*
X164772726Y-63330668D01*
X164806862Y-63230200D01*
X164808000Y-63218490D01*
X164761046Y-63134903D01*
X164617616Y-63048072D01*
X164563213Y-63024240D01*
X164367377Y-62914812D01*
X164236931Y-62783992D01*
X164230141Y-62773056D01*
X164176273Y-62672538D01*
X164178076Y-62632665D01*
X164246599Y-62649723D01*
X164390923Y-62719000D01*
X164650993Y-62828592D01*
X164855777Y-62860297D01*
X165017906Y-62811795D01*
X165150010Y-62680764D01*
X165217297Y-62567120D01*
X165299517Y-62420979D01*
X165416085Y-62231964D01*
X165542381Y-62039937D01*
X165547663Y-62032208D01*
X165654647Y-61868294D01*
X165734174Y-61731880D01*
X165771921Y-61647917D01*
X165773200Y-61639293D01*
X165749608Y-61575263D01*
X165673818Y-61486976D01*
X165538311Y-61368148D01*
X165335565Y-61212497D01*
X165058060Y-61013741D01*
X164859263Y-60875805D01*
X164595267Y-60696551D01*
X164392754Y-60569889D01*
X164230470Y-60489444D01*
X164087160Y-60448840D01*
X163941572Y-60441703D01*
X163772450Y-60461657D01*
X163591857Y-60495648D01*
X163392986Y-60525168D01*
X163249038Y-60517522D01*
X163157000Y-60488636D01*
X163004600Y-60425176D01*
X163309400Y-60365890D01*
X163562621Y-60304433D01*
X163740492Y-60234995D01*
X163832357Y-60162303D01*
X163842800Y-60129272D01*
X163792773Y-59987399D01*
X163642334Y-59839561D01*
X163463702Y-59724658D01*
X163306172Y-59628789D01*
X163179388Y-59539203D01*
X163123030Y-59488313D01*
X163089064Y-59436253D01*
X163119924Y-59422962D01*
X163232527Y-59441168D01*
X163232642Y-59441190D01*
X163463254Y-59522501D01*
X163745905Y-59683621D01*
X164074800Y-59920826D01*
X164400868Y-60192169D01*
X164708955Y-60458373D01*
X164962541Y-60666614D01*
X165179632Y-60830097D01*
X165378234Y-60962029D01*
X165576352Y-61075616D01*
X165675135Y-61126780D01*
X165877890Y-61225253D01*
X166057509Y-61299791D01*
X166228536Y-61350193D01*
X166405513Y-61376259D01*
X166602986Y-61377788D01*
X166835497Y-61354579D01*
X167117591Y-61306430D01*
X167463810Y-61233142D01*
X167888700Y-61134512D01*
X168059200Y-61093846D01*
X169130952Y-60819377D01*
X170112527Y-60530901D01*
X171001190Y-60229346D01*
X171794206Y-59915638D01*
X172478800Y-59595840D01*
X172852124Y-59402550D01*
X173144832Y-59242333D01*
X173368211Y-59104955D01*
X173533554Y-58980181D01*
X173652150Y-58857777D01*
X173735290Y-58727509D01*
X173741984Y-58710666D01*
X174370796Y-58710666D01*
X174371060Y-58712084D01*
X174395039Y-58768993D01*
X174445551Y-58893231D01*
X174510541Y-59055104D01*
X174580216Y-59221284D01*
X174643084Y-59318510D01*
X174724788Y-59357866D01*
X174850970Y-59350439D01*
X175047274Y-59307312D01*
X175077349Y-59300123D01*
X175364499Y-59231465D01*
X175575568Y-59446530D01*
X175786638Y-59661594D01*
X175706518Y-60007063D01*
X175668683Y-60179650D01*
X175644786Y-60307523D01*
X175639692Y-60364474D01*
X175640099Y-60365072D01*
X175695617Y-60393768D01*
X175814542Y-60446630D01*
X175965710Y-60510685D01*
X176117959Y-60572963D01*
X176240125Y-60620489D01*
X176301044Y-60640294D01*
X176301327Y-60640313D01*
X176344960Y-60601455D01*
X176424117Y-60497240D01*
X176522275Y-60349562D01*
X176529783Y-60337600D01*
X176720311Y-60032800D01*
X177306061Y-60032800D01*
X177490662Y-60324900D01*
X177585712Y-60474443D01*
X177657829Y-60586310D01*
X177691480Y-60636404D01*
X177691532Y-60636467D01*
X177742677Y-60628022D01*
X177862871Y-60587844D01*
X178027769Y-60524203D01*
X178055938Y-60512698D01*
X178404076Y-60369463D01*
X178326208Y-59996807D01*
X178248341Y-59624152D01*
X178449670Y-59424768D01*
X178651000Y-59225383D01*
X178955800Y-59298098D01*
X179161139Y-59344932D01*
X179292231Y-59360966D01*
X179373676Y-59338893D01*
X179430074Y-59271409D01*
X179486023Y-59151207D01*
X179491220Y-59139086D01*
X179577507Y-58931542D01*
X179618125Y-58791818D01*
X179607206Y-58694253D01*
X179538879Y-58613186D01*
X179407276Y-58522957D01*
X179340891Y-58481817D01*
X179032000Y-58291158D01*
X179032000Y-57710441D01*
X179340891Y-57519782D01*
X179498341Y-57419007D01*
X179589519Y-57337179D01*
X179620249Y-57248539D01*
X179596355Y-57127326D01*
X179523661Y-56947781D01*
X179488332Y-56867669D01*
X179417372Y-56732114D01*
X179351190Y-56646100D01*
X179321722Y-56629993D01*
X179242403Y-56641593D01*
X179098613Y-56670896D01*
X178955800Y-56703501D01*
X178651000Y-56776216D01*
X178451747Y-56578908D01*
X178252495Y-56381601D01*
X178320515Y-56021108D01*
X178351292Y-55818746D01*
X178357514Y-55677460D01*
X178341967Y-55619428D01*
X178271984Y-55578791D01*
X178146717Y-55521928D01*
X177996075Y-55460527D01*
X177849969Y-55406273D01*
X177738310Y-55370852D01*
X177691405Y-55365258D01*
X177658085Y-55414863D01*
X177586195Y-55526391D01*
X177491257Y-55675758D01*
X177490662Y-55676700D01*
X177306061Y-55968800D01*
X176716666Y-55968800D01*
X176546524Y-55688066D01*
X176452622Y-55539215D01*
X176375765Y-55428279D01*
X176335745Y-55382217D01*
X176277221Y-55388970D01*
X176156449Y-55423874D01*
X176002742Y-55476210D01*
X175845413Y-55535261D01*
X175713775Y-55590308D01*
X175637142Y-55630634D01*
X175628400Y-55640849D01*
X175639006Y-55694984D01*
X175666863Y-55821137D01*
X175706026Y-55992410D01*
X175707519Y-55998850D01*
X175786638Y-56340005D01*
X175575568Y-56555069D01*
X175364499Y-56770134D01*
X175077349Y-56701476D01*
X174871034Y-56654940D01*
X174737417Y-56643691D01*
X174650257Y-56679932D01*
X174583308Y-56775863D01*
X174510328Y-56943685D01*
X174499564Y-56970106D01*
X174433696Y-57136342D01*
X174388285Y-57259785D01*
X174372132Y-57316357D01*
X174372564Y-57317499D01*
X174417799Y-57346556D01*
X174525749Y-57415114D01*
X174673212Y-57508439D01*
X174675900Y-57510137D01*
X174968000Y-57694738D01*
X174968000Y-58305255D01*
X174663160Y-58495808D01*
X174515159Y-58592689D01*
X174410764Y-58669448D01*
X174370796Y-58710666D01*
X173741984Y-58710666D01*
X173794263Y-58579143D01*
X173840361Y-58402444D01*
X173851413Y-58351621D01*
X173884931Y-58112197D01*
X173897257Y-57833302D01*
X173890032Y-57542673D01*
X173864897Y-57268048D01*
X173823490Y-57037164D01*
X173767454Y-56877757D01*
X173763894Y-56871468D01*
X173624336Y-56690723D01*
X173423412Y-56530359D01*
X173148745Y-56382729D01*
X172787957Y-56240186D01*
X172685963Y-56205480D01*
X171952576Y-55923070D01*
X171264849Y-55573367D01*
X170870954Y-55332158D01*
X170635782Y-55172206D01*
X170420370Y-55012456D01*
X170239933Y-54865519D01*
X170109687Y-54744010D01*
X170044850Y-54660542D01*
X170040400Y-54643683D01*
X170056103Y-54620919D01*
X170110363Y-54630278D01*
X170213907Y-54676866D01*
X170377460Y-54765792D01*
X170611748Y-54902163D01*
X170726200Y-54970260D01*
X171398569Y-55341769D01*
X172030108Y-55627830D01*
X172520663Y-55800487D01*
X172732241Y-55859921D01*
X172922708Y-55899472D01*
X173124227Y-55923182D01*
X173368958Y-55935094D01*
X173621800Y-55938874D01*
X173903206Y-55938966D01*
X174107227Y-55932730D01*
X174258023Y-55917147D01*
X174379756Y-55889195D01*
X174496584Y-55845854D01*
X174548475Y-55823026D01*
X174854165Y-55629971D01*
X175114936Y-55350723D01*
X175315481Y-55009696D01*
X175388446Y-54831186D01*
X175428670Y-54663050D01*
X175444305Y-54461865D01*
X175445353Y-54317800D01*
X175441838Y-54179664D01*
X175430634Y-54048913D01*
X175407770Y-53909638D01*
X175369278Y-53745932D01*
X175311189Y-53541888D01*
X175229532Y-53281600D01*
X175120339Y-52949159D01*
X175054918Y-52753127D01*
X174851312Y-52163156D01*
X174660230Y-51653660D01*
X174472194Y-51205925D01*
X174277723Y-50801238D01*
X174067336Y-50420886D01*
X173831555Y-50046154D01*
X173560898Y-49658330D01*
X173330577Y-49349269D01*
X173194016Y-49164392D01*
X173120911Y-49050883D01*
X173108259Y-49003264D01*
X173145751Y-49012041D01*
X173338062Y-49132060D01*
X173520754Y-49288850D01*
X173712013Y-49500363D01*
X173930023Y-49784551D01*
X173934386Y-49790555D01*
X174190157Y-50131437D01*
X174406503Y-50389979D01*
X174593709Y-50572451D01*
X174762060Y-50685124D01*
X174921840Y-50734267D01*
X175083335Y-50726150D01*
X175256828Y-50667042D01*
X175321233Y-50636007D01*
X175490128Y-50517765D01*
X175671914Y-50340170D01*
X175836208Y-50135794D01*
X175930600Y-49982749D01*
X175988267Y-49897193D01*
X176018948Y-49899616D01*
X176016935Y-49978651D01*
X175986446Y-50093985D01*
X175841070Y-50384762D01*
X175606876Y-50660806D01*
X175326888Y-50886567D01*
X175169126Y-51001233D01*
X175043782Y-51106153D01*
X174976843Y-51179480D01*
X174975473Y-51181966D01*
X174971146Y-51266865D01*
X174996468Y-51430962D01*
X175046628Y-51657880D01*
X175116815Y-51931238D01*
X175202220Y-52234660D01*
X175298030Y-52551765D01*
X175399436Y-52866175D01*
X175501626Y-53161511D01*
X175599791Y-53421395D01*
X175689119Y-53629447D01*
X175702548Y-53657400D01*
X175880238Y-53993218D01*
X176048789Y-54249009D01*
X176223112Y-54443457D01*
X176418120Y-54595247D01*
X176483039Y-54635350D01*
X176588433Y-54693833D01*
X176684531Y-54733209D01*
X176794782Y-54757222D01*
X176942638Y-54769612D01*
X177151551Y-54774122D01*
X177355600Y-54774589D01*
X177694185Y-54767940D01*
X177978538Y-54742691D01*
X178222247Y-54690173D01*
X178438901Y-54601713D01*
X178642092Y-54468643D01*
X178845408Y-54282291D01*
X179062439Y-54033987D01*
X179306776Y-53715060D01*
X179552431Y-53372981D01*
X179962877Y-52789761D01*
X180317639Y-52280029D01*
X180621198Y-51835407D01*
X180878037Y-51447516D01*
X181092639Y-51107976D01*
X181269487Y-50808408D01*
X181413064Y-50540432D01*
X181527853Y-50295671D01*
X181618336Y-50065744D01*
X181688996Y-49842273D01*
X181744316Y-49616877D01*
X181788778Y-49381179D01*
X181826866Y-49126798D01*
X181827811Y-49119867D01*
X181849648Y-48879093D01*
X181862784Y-48558728D01*
X181867727Y-48180362D01*
X181864989Y-47765586D01*
X181855080Y-47335991D01*
X181838511Y-46913166D01*
X181815790Y-46518702D01*
X181787429Y-46174190D01*
X181753938Y-45901220D01*
X181751358Y-45885000D01*
X181710789Y-45631174D01*
X181688684Y-45471664D01*
X181687031Y-45400533D01*
X181707817Y-45411841D01*
G36*
X176085600Y-49796600D02*
X176060200Y-49822000D01*
X176034800Y-49796600D01*
X176060200Y-49771200D01*
X176085600Y-49796600D01*
X176085600Y-49796600D01*
G37*
X176085600Y-49796600D02*
X176060200Y-49822000D01*
X176034800Y-49796600D01*
X176060200Y-49771200D01*
X176085600Y-49796600D01*
G36*
X177245793Y-56698372D02*
X177554112Y-56787123D01*
X177835698Y-56947968D01*
X178075030Y-57180105D01*
X178256590Y-57482730D01*
X178259357Y-57489105D01*
X178312200Y-57688376D01*
X178334415Y-57940987D01*
X178326000Y-58203405D01*
X178286957Y-58432097D01*
X178259357Y-58512494D01*
X178093901Y-58785567D01*
X177859060Y-59026042D01*
X177587048Y-59200995D01*
X177584569Y-59202153D01*
X177301943Y-59291449D01*
X176988396Y-59322309D01*
X176683671Y-59293918D01*
X176466600Y-59225083D01*
X176200904Y-59054275D01*
X175964158Y-58812637D01*
X175816002Y-58587687D01*
X175726025Y-58325750D01*
X175696644Y-58019885D01*
X175726941Y-57707030D01*
X175816001Y-57424120D01*
X175846356Y-57364169D01*
X176055558Y-57080391D01*
X176315622Y-56872727D01*
X176611028Y-56740371D01*
X176926258Y-56682521D01*
X177245793Y-56698372D01*
X177245793Y-56698372D01*
G37*
X177245793Y-56698372D02*
X177554112Y-56787123D01*
X177835698Y-56947968D01*
X178075030Y-57180105D01*
X178256590Y-57482730D01*
X178259357Y-57489105D01*
X178312200Y-57688376D01*
X178334415Y-57940987D01*
X178326000Y-58203405D01*
X178286957Y-58432097D01*
X178259357Y-58512494D01*
X178093901Y-58785567D01*
X177859060Y-59026042D01*
X177587048Y-59200995D01*
X177584569Y-59202153D01*
X177301943Y-59291449D01*
X176988396Y-59322309D01*
X176683671Y-59293918D01*
X176466600Y-59225083D01*
X176200904Y-59054275D01*
X175964158Y-58812637D01*
X175816002Y-58587687D01*
X175726025Y-58325750D01*
X175696644Y-58019885D01*
X175726941Y-57707030D01*
X175816001Y-57424120D01*
X175846356Y-57364169D01*
X176055558Y-57080391D01*
X176315622Y-56872727D01*
X176611028Y-56740371D01*
X176926258Y-56682521D01*
X177245793Y-56698372D01*
D14*
X177000000Y-58000000D03*
D15*
X190740000Y-70490000D03*
X190040000Y-69790000D03*
X200520000Y-68200000D03*
X202300000Y-68200000D03*
X200520000Y-59700000D03*
X202300000Y-59700000D03*
X165400000Y-59310002D03*
X181200000Y-47500000D03*
X175410002Y-69400000D03*
X165400000Y-64200000D03*
X180000000Y-69400000D03*
X178600000Y-62000000D03*
X180400000Y-61800000D03*
X200500000Y-57160000D03*
X202300000Y-57160000D03*
X202797522Y-65661718D03*
X199997047Y-65660163D03*
X193040000Y-65290000D03*
X185480213Y-62461224D03*
X191940000Y-58490000D03*
X200520000Y-62240000D03*
X202300000Y-62240000D03*
X192754788Y-64100000D03*
X199500000Y-64100000D03*
X200520000Y-70740000D03*
X202300000Y-70740000D03*
X186040000Y-58540011D03*
X190440000Y-56690000D03*
X192610000Y-55090000D03*
D16*
X186000000Y-69400000D02*
X189650000Y-69400000D01*
X189650000Y-69400000D02*
X190040000Y-69790000D01*
D17*
X191340000Y-71090000D02*
X190040000Y-69790000D01*
X191340000Y-71100000D02*
X197600000Y-71100000D01*
X191340000Y-71100000D02*
X191340000Y-71090000D01*
X197600000Y-71100000D02*
X200500000Y-68200000D01*
X200500000Y-68200000D02*
X202300000Y-68200000D01*
D16*
X165400000Y-59310002D02*
X165400000Y-55400000D01*
X173300000Y-47500000D02*
X181200000Y-47500000D01*
X165400000Y-55400000D02*
X173300000Y-47500000D01*
X165400000Y-64200000D02*
X175410002Y-69400000D01*
X186000000Y-69400000D02*
X180000000Y-69400000D01*
X178600000Y-62000000D02*
X186000000Y-69400000D01*
D17*
X180400000Y-61800000D02*
X180400000Y-61375736D01*
X180400000Y-61375736D02*
X179324264Y-60300000D01*
D18*
X193040000Y-65290000D02*
X188308989Y-65290000D01*
X187918989Y-64900000D02*
X187840000Y-64821011D01*
X187840000Y-64821011D02*
X185780212Y-62761223D01*
X188308989Y-65290000D02*
X187840000Y-64821011D01*
X185780212Y-62761223D02*
X185480213Y-62461224D01*
X200230000Y-56500000D02*
X198240000Y-58490000D01*
X198240000Y-58490000D02*
X191940000Y-58490000D01*
X200800000Y-56500000D02*
X200230000Y-56500000D01*
X202300000Y-62240000D02*
X203400000Y-61140000D01*
X203400000Y-61140000D02*
X203400000Y-59100000D01*
X203400000Y-59100000D02*
X200800000Y-56500000D01*
X199500000Y-64100000D02*
X192754788Y-64100000D01*
X186040000Y-58540011D02*
X186980011Y-57600000D01*
X190100000Y-57600000D02*
X190710000Y-56990000D01*
X190710000Y-56990000D02*
X192440000Y-55260000D01*
X190440000Y-56690000D02*
X190710000Y-56960000D01*
X190710000Y-56960000D02*
X190710000Y-56990000D01*
X186980011Y-57600000D02*
X190100000Y-57600000D01*
X192440000Y-55260000D02*
X192610000Y-55090000D01*
M02*
