G04 #@! TF.FileFunction,Copper,L2,Bot,Signal*
%FSLAX46Y46*%
G04 Gerber Fmt 4.6, Leading zero omitted, Abs format (unit mm)*
G04 Created by KiCad (PCBNEW 4.0.7-e2-6376~58~ubuntu14.04.1) date Wed May 23 15:12:27 2018*
%MOMM*%
%LPD*%
G01*
G04 APERTURE LIST*
%ADD10C,0.100000*%
%ADD11R,0.600000X1.700000*%
%ADD12R,1.000000X2.700000*%
%ADD13R,1.200000X1.000000*%
%ADD14R,0.800000X0.500000*%
%ADD15R,0.500000X0.800000*%
%ADD16R,0.600000X1.200000*%
%ADD17C,3.000000*%
%ADD18R,0.800000X1.600000*%
%ADD19R,1.800000X1.250000*%
%ADD20R,1.250000X1.800000*%
%ADD21R,1.200000X0.600000*%
%ADD22R,1.700000X0.600000*%
%ADD23R,2.700000X1.000000*%
%ADD24R,2.540000X1.500000*%
%ADD25R,0.300000X0.800000*%
%ADD26C,0.600000*%
%ADD27C,1.000000*%
%ADD28C,1.500000*%
%ADD29C,0.500000*%
%ADD30C,0.200000*%
G04 APERTURE END LIST*
D10*
D11*
X192540000Y-67690000D03*
X191290000Y-67690000D03*
X193790000Y-67690000D03*
X195040000Y-67690000D03*
D12*
X188040000Y-70740000D03*
X197040000Y-70740000D03*
D11*
X190040000Y-67690000D03*
D13*
X198000000Y-59400000D03*
X198000000Y-57400000D03*
D14*
X186615000Y-57390000D03*
X185415000Y-57390000D03*
D15*
X194540000Y-64590000D03*
X194540000Y-63390000D03*
D14*
X177600000Y-53600000D03*
X176400000Y-53600000D03*
D15*
X172600000Y-57400000D03*
X172600000Y-58600000D03*
D14*
X177600000Y-62500000D03*
X176400000Y-62500000D03*
D16*
X195500000Y-59550000D03*
X196450000Y-59550000D03*
X194550000Y-59550000D03*
X194550000Y-57250000D03*
X196450000Y-57250000D03*
D10*
G36*
X184939340Y-64769848D02*
X185575736Y-64133452D01*
X185787868Y-64345584D01*
X185151472Y-64981980D01*
X184939340Y-64769848D01*
X184939340Y-64769848D01*
G37*
G36*
X184585787Y-64416295D02*
X185434315Y-63567767D01*
X185646447Y-63779899D01*
X184797919Y-64628427D01*
X184585787Y-64416295D01*
X184585787Y-64416295D01*
G37*
G36*
X184232233Y-64062742D02*
X185080761Y-63214214D01*
X185292893Y-63426346D01*
X184444365Y-64274874D01*
X184232233Y-64062742D01*
X184232233Y-64062742D01*
G37*
G36*
X183878680Y-63709188D02*
X184727208Y-62860660D01*
X184939340Y-63072792D01*
X184090812Y-63921320D01*
X183878680Y-63709188D01*
X183878680Y-63709188D01*
G37*
G36*
X183525126Y-63355635D02*
X184373654Y-62507107D01*
X184585786Y-62719239D01*
X183737258Y-63567767D01*
X183525126Y-63355635D01*
X183525126Y-63355635D01*
G37*
G36*
X183171573Y-63002081D02*
X184020101Y-62153553D01*
X184232233Y-62365685D01*
X183383705Y-63214213D01*
X183171573Y-63002081D01*
X183171573Y-63002081D01*
G37*
G36*
X182818020Y-62648528D02*
X183454416Y-62012132D01*
X183666548Y-62224264D01*
X183030152Y-62860660D01*
X182818020Y-62648528D01*
X182818020Y-62648528D01*
G37*
G36*
X183030152Y-60739340D02*
X183666548Y-61375736D01*
X183454416Y-61587868D01*
X182818020Y-60951472D01*
X183030152Y-60739340D01*
X183030152Y-60739340D01*
G37*
G36*
X183383705Y-60385787D02*
X184232233Y-61234315D01*
X184020101Y-61446447D01*
X183171573Y-60597919D01*
X183383705Y-60385787D01*
X183383705Y-60385787D01*
G37*
G36*
X183737258Y-60032233D02*
X184585786Y-60880761D01*
X184373654Y-61092893D01*
X183525126Y-60244365D01*
X183737258Y-60032233D01*
X183737258Y-60032233D01*
G37*
G36*
X184090812Y-59678680D02*
X184939340Y-60527208D01*
X184727208Y-60739340D01*
X183878680Y-59890812D01*
X184090812Y-59678680D01*
X184090812Y-59678680D01*
G37*
G36*
X184444365Y-59325126D02*
X185292893Y-60173654D01*
X185080761Y-60385786D01*
X184232233Y-59537258D01*
X184444365Y-59325126D01*
X184444365Y-59325126D01*
G37*
G36*
X184797919Y-58971573D02*
X185646447Y-59820101D01*
X185434315Y-60032233D01*
X184585787Y-59183705D01*
X184797919Y-58971573D01*
X184797919Y-58971573D01*
G37*
G36*
X185151472Y-58618020D02*
X185787868Y-59254416D01*
X185575736Y-59466548D01*
X184939340Y-58830152D01*
X185151472Y-58618020D01*
X185151472Y-58618020D01*
G37*
G36*
X186212132Y-59254416D02*
X186848528Y-58618020D01*
X187060660Y-58830152D01*
X186424264Y-59466548D01*
X186212132Y-59254416D01*
X186212132Y-59254416D01*
G37*
G36*
X186353553Y-59820101D02*
X187202081Y-58971573D01*
X187414213Y-59183705D01*
X186565685Y-60032233D01*
X186353553Y-59820101D01*
X186353553Y-59820101D01*
G37*
G36*
X186707107Y-60173654D02*
X187555635Y-59325126D01*
X187767767Y-59537258D01*
X186919239Y-60385786D01*
X186707107Y-60173654D01*
X186707107Y-60173654D01*
G37*
G36*
X187060660Y-60527208D02*
X187909188Y-59678680D01*
X188121320Y-59890812D01*
X187272792Y-60739340D01*
X187060660Y-60527208D01*
X187060660Y-60527208D01*
G37*
G36*
X187414214Y-60880761D02*
X188262742Y-60032233D01*
X188474874Y-60244365D01*
X187626346Y-61092893D01*
X187414214Y-60880761D01*
X187414214Y-60880761D01*
G37*
G36*
X187767767Y-61234315D02*
X188616295Y-60385787D01*
X188828427Y-60597919D01*
X187979899Y-61446447D01*
X187767767Y-61234315D01*
X187767767Y-61234315D01*
G37*
G36*
X188333452Y-61375736D02*
X188969848Y-60739340D01*
X189181980Y-60951472D01*
X188545584Y-61587868D01*
X188333452Y-61375736D01*
X188333452Y-61375736D01*
G37*
G36*
X188545584Y-62012132D02*
X189181980Y-62648528D01*
X188969848Y-62860660D01*
X188333452Y-62224264D01*
X188545584Y-62012132D01*
X188545584Y-62012132D01*
G37*
G36*
X187979899Y-62153553D02*
X188828427Y-63002081D01*
X188616295Y-63214213D01*
X187767767Y-62365685D01*
X187979899Y-62153553D01*
X187979899Y-62153553D01*
G37*
G36*
X187626346Y-62507107D02*
X188474874Y-63355635D01*
X188262742Y-63567767D01*
X187414214Y-62719239D01*
X187626346Y-62507107D01*
X187626346Y-62507107D01*
G37*
G36*
X187272792Y-62860660D02*
X188121320Y-63709188D01*
X187909188Y-63921320D01*
X187060660Y-63072792D01*
X187272792Y-62860660D01*
X187272792Y-62860660D01*
G37*
G36*
X186919239Y-63214214D02*
X187767767Y-64062742D01*
X187555635Y-64274874D01*
X186707107Y-63426346D01*
X186919239Y-63214214D01*
X186919239Y-63214214D01*
G37*
G36*
X186565685Y-63567767D02*
X187414213Y-64416295D01*
X187202081Y-64628427D01*
X186353553Y-63779899D01*
X186565685Y-63567767D01*
X186565685Y-63567767D01*
G37*
G36*
X186424264Y-64133452D02*
X187060660Y-64769848D01*
X186848528Y-64981980D01*
X186212132Y-64345584D01*
X186424264Y-64133452D01*
X186424264Y-64133452D01*
G37*
G36*
X185257538Y-64451651D02*
X185823224Y-63885965D01*
X185823224Y-64310229D01*
X185681802Y-64451651D01*
X185257538Y-64451651D01*
X185257538Y-64451651D01*
G37*
G36*
X186176776Y-63885965D02*
X186742462Y-64451651D01*
X186318198Y-64451651D01*
X186176776Y-64310229D01*
X186176776Y-63885965D01*
X186176776Y-63885965D01*
G37*
G36*
X185823224Y-59714035D02*
X185257538Y-59148349D01*
X185681802Y-59148349D01*
X185823224Y-59289771D01*
X185823224Y-59714035D01*
X185823224Y-59714035D01*
G37*
G36*
X186742462Y-59148349D02*
X186176776Y-59714035D01*
X186176776Y-59289771D01*
X186318198Y-59148349D01*
X186742462Y-59148349D01*
X186742462Y-59148349D01*
G37*
G36*
X183914035Y-61976776D02*
X183348349Y-62542462D01*
X183348349Y-62118198D01*
X183489771Y-61976776D01*
X183914035Y-61976776D01*
X183914035Y-61976776D01*
G37*
G36*
X183348349Y-61057538D02*
X183914035Y-61623224D01*
X183489771Y-61623224D01*
X183348349Y-61481802D01*
X183348349Y-61057538D01*
X183348349Y-61057538D01*
G37*
G36*
X188085965Y-61623224D02*
X188651651Y-61057538D01*
X188651651Y-61481802D01*
X188510229Y-61623224D01*
X188085965Y-61623224D01*
X188085965Y-61623224D01*
G37*
G36*
X188651651Y-62542462D02*
X188085965Y-61976776D01*
X188510229Y-61976776D01*
X188651651Y-62118198D01*
X188651651Y-62542462D01*
X188651651Y-62542462D01*
G37*
D14*
X185400000Y-66000000D03*
X186600000Y-66000000D03*
D17*
X177000000Y-58000000D03*
D18*
X176200000Y-60700000D03*
X177800000Y-60700000D03*
X176200000Y-55300000D03*
X177800000Y-55300000D03*
D13*
X176000000Y-55000000D03*
X178000000Y-55000000D03*
X176000000Y-61000000D03*
X178000000Y-61000000D03*
D10*
G36*
X175400000Y-55450000D02*
X175800000Y-54900000D01*
X175800000Y-56100000D01*
X175400000Y-55550000D01*
X175400000Y-55450000D01*
X175400000Y-55450000D01*
G37*
G36*
X178600000Y-55550000D02*
X178200000Y-56100000D01*
X178200000Y-54900000D01*
X178600000Y-55450000D01*
X178600000Y-55550000D01*
X178600000Y-55550000D01*
G37*
G36*
X175400000Y-60450000D02*
X175800000Y-59900000D01*
X175800000Y-61100000D01*
X175400000Y-60550000D01*
X175400000Y-60450000D01*
X175400000Y-60450000D01*
G37*
G36*
X178600000Y-60550000D02*
X178200000Y-61100000D01*
X178200000Y-59900000D01*
X178600000Y-60450000D01*
X178600000Y-60550000D01*
X178600000Y-60550000D01*
G37*
D19*
X187300000Y-55900000D03*
X184700000Y-55900000D03*
D13*
X193000000Y-57400000D03*
X193000000Y-59400000D03*
D20*
X196040000Y-62700000D03*
X196040000Y-65300000D03*
X198100000Y-62700000D03*
X198100000Y-65300000D03*
D16*
X170000000Y-59150000D03*
X169050000Y-56850000D03*
X170950000Y-56850000D03*
D15*
X180400000Y-57400000D03*
X180400000Y-58600000D03*
X181400000Y-57400000D03*
X181400000Y-58600000D03*
X182400000Y-57400000D03*
X182400000Y-58600000D03*
D21*
X175850000Y-51000000D03*
X178150000Y-50050000D03*
X178150000Y-51950000D03*
D10*
G36*
X170550431Y-54025305D02*
X171398959Y-53176777D01*
X171823223Y-53601041D01*
X170974695Y-54449569D01*
X170550431Y-54025305D01*
X170550431Y-54025305D01*
G37*
G36*
X171505025Y-51727208D02*
X172353553Y-50878680D01*
X172777817Y-51302944D01*
X171929289Y-52151472D01*
X171505025Y-51727208D01*
X171505025Y-51727208D01*
G37*
G36*
X172848528Y-53070711D02*
X173697056Y-52222183D01*
X174121320Y-52646447D01*
X173272792Y-53494975D01*
X172848528Y-53070711D01*
X172848528Y-53070711D01*
G37*
D11*
X177375000Y-67700000D03*
X176125000Y-67700000D03*
X178625000Y-67700000D03*
X179875000Y-67700000D03*
D12*
X174200000Y-70750000D03*
X181800000Y-70750000D03*
D22*
X167000000Y-61275000D03*
X167000000Y-60025000D03*
X167000000Y-62525000D03*
X167000000Y-63775000D03*
D23*
X163950000Y-58100000D03*
X163950000Y-65700000D03*
D10*
G36*
X182489806Y-50904095D02*
X183287908Y-49403084D01*
X183817676Y-49684767D01*
X183019574Y-51185778D01*
X182489806Y-50904095D01*
X182489806Y-50904095D01*
G37*
G36*
X183593490Y-51490934D02*
X184391592Y-49989923D01*
X184921360Y-50271606D01*
X184123258Y-51772617D01*
X183593490Y-51490934D01*
X183593490Y-51490934D01*
G37*
G36*
X181386121Y-50317255D02*
X182184223Y-48816244D01*
X182713991Y-49097927D01*
X181915889Y-50598938D01*
X181386121Y-50317255D01*
X181386121Y-50317255D01*
G37*
G36*
X180282437Y-49730416D02*
X181080539Y-48229405D01*
X181610307Y-48511088D01*
X180812205Y-50012099D01*
X180282437Y-49730416D01*
X180282437Y-49730416D01*
G37*
G36*
X186313727Y-50049256D02*
X187581300Y-47665298D01*
X188464247Y-48134770D01*
X187196674Y-50518728D01*
X186313727Y-50049256D01*
X186313727Y-50049256D01*
G37*
G36*
X179603326Y-46481272D02*
X180870899Y-44097314D01*
X181753846Y-44566786D01*
X180486273Y-46950744D01*
X179603326Y-46481272D01*
X179603326Y-46481272D01*
G37*
G36*
X189129708Y-52336238D02*
X189786968Y-51100111D01*
X190669916Y-51569582D01*
X190012656Y-52805709D01*
X189129708Y-52336238D01*
X189129708Y-52336238D01*
G37*
G36*
X192838088Y-54308018D02*
X193495348Y-53071891D01*
X194378296Y-53541362D01*
X193721036Y-54777489D01*
X192838088Y-54308018D01*
X192838088Y-54308018D01*
G37*
G36*
X188555366Y-49369314D02*
X189024837Y-48486367D01*
X190790732Y-49425310D01*
X190321261Y-50308257D01*
X188555366Y-49369314D01*
X188555366Y-49369314D01*
G37*
G36*
X194735999Y-52655615D02*
X195205470Y-51772668D01*
X196971365Y-52711611D01*
X196501894Y-53594558D01*
X194735999Y-52655615D01*
X194735999Y-52655615D01*
G37*
D24*
X200500000Y-57160000D03*
X200500000Y-59700000D03*
X200500000Y-62240000D03*
X200520000Y-65660000D03*
X200520000Y-68200000D03*
X200520000Y-70740000D03*
D25*
X191290000Y-59390000D03*
X190640000Y-59390000D03*
X189990000Y-59390000D03*
X189990000Y-57390000D03*
X191290000Y-57390000D03*
D26*
X190740000Y-70490000D03*
X190040000Y-69790000D03*
X200520000Y-68200000D03*
X202300000Y-68200000D03*
X200520000Y-59700000D03*
X202300000Y-59700000D03*
X165400000Y-59310002D03*
X181200000Y-47500000D03*
X175410002Y-69400000D03*
X165400000Y-64200000D03*
X180000000Y-69400000D03*
X178600000Y-62000000D03*
X180400000Y-61800000D03*
X200500000Y-57160000D03*
X202300000Y-57160000D03*
X202797522Y-65661718D03*
X199997047Y-65660163D03*
X193790000Y-65290000D03*
X185480213Y-62461224D03*
X191940000Y-58490000D03*
X200520000Y-62240000D03*
X202300000Y-62240000D03*
X192754788Y-64100000D03*
X199500000Y-64100000D03*
X200520000Y-70740000D03*
X202300000Y-70740000D03*
X190440000Y-56690000D03*
X186040000Y-58540011D03*
X192610000Y-55090000D03*
D27*
X198100000Y-62700000D02*
X196040000Y-62700000D01*
X190040000Y-69790000D02*
X190740000Y-70490000D01*
X190040000Y-67690000D02*
X190040000Y-69790000D01*
D28*
X202300000Y-68200000D02*
X203600000Y-68200000D01*
X203700000Y-59700000D02*
X202300000Y-59700000D01*
X203600000Y-68200000D02*
X205000000Y-66800000D01*
X205000000Y-66800000D02*
X205000000Y-61000000D01*
X205000000Y-61000000D02*
X203700000Y-59700000D01*
X202300000Y-68200000D02*
X201300000Y-68200000D01*
X201300000Y-68200000D02*
X200520000Y-68200000D01*
D27*
X198100000Y-62700000D02*
X198100000Y-59850000D01*
X198100000Y-59850000D02*
X198250000Y-59700000D01*
X198250000Y-59700000D02*
X200520000Y-59700000D01*
D29*
X200520000Y-59700000D02*
X198300000Y-59700000D01*
X198300000Y-59700000D02*
X198000000Y-59400000D01*
X196450000Y-59550000D02*
X197850000Y-59550000D01*
X197850000Y-59550000D02*
X198000000Y-59400000D01*
X194550000Y-59550000D02*
X194550000Y-60310002D01*
X196450000Y-60310002D02*
X196450000Y-59550000D01*
X194550000Y-60310002D02*
X194839999Y-60600001D01*
X194839999Y-60600001D02*
X196160001Y-60600001D01*
X196160001Y-60600001D02*
X196450000Y-60310002D01*
D28*
X200520000Y-59700000D02*
X202300000Y-59700000D01*
D29*
X181200000Y-47500000D02*
X182800000Y-48300000D01*
X165400000Y-63575000D02*
X165400000Y-59310002D01*
X182800000Y-48300000D02*
X182200000Y-49500000D01*
X182200000Y-49500000D02*
X182121426Y-49625654D01*
X165400000Y-64200000D02*
X165400000Y-63575000D01*
X165400000Y-63575000D02*
X166450000Y-62525000D01*
X166450000Y-62525000D02*
X167000000Y-62525000D01*
X175410002Y-69400000D02*
X179575736Y-69400000D01*
X180000000Y-69400000D02*
X179575736Y-69400000D01*
X179575736Y-69400000D02*
X178625000Y-68449264D01*
X178625000Y-68449264D02*
X178625000Y-67800000D01*
X178000000Y-61000000D02*
X178000000Y-61400000D01*
X178000000Y-61400000D02*
X178600000Y-62000000D01*
D27*
X195853682Y-52683613D02*
X189500000Y-49300000D01*
X189500000Y-49300000D02*
X189673049Y-49397312D01*
D30*
X185415000Y-57840000D02*
X185415000Y-57390000D01*
X185515008Y-57940008D02*
X185415000Y-57840000D01*
X186594796Y-57940008D02*
X185515008Y-57940008D01*
X187360670Y-59025116D02*
X187360670Y-58705882D01*
X186883883Y-59501903D02*
X187360670Y-59025116D01*
X187360670Y-58705882D02*
X186594796Y-57940008D01*
D29*
X184700000Y-55900000D02*
X184700000Y-56675000D01*
X184700000Y-56675000D02*
X185415000Y-57390000D01*
D30*
X179700000Y-52700000D02*
X179700000Y-61100000D01*
X179700000Y-61100000D02*
X180400000Y-61800000D01*
X178150000Y-51950000D02*
X178950000Y-51950000D01*
X178950000Y-51950000D02*
X179700000Y-52700000D01*
D28*
X200520000Y-65660000D02*
X198460000Y-65660000D01*
X198460000Y-65660000D02*
X198100000Y-65300000D01*
X202798062Y-65662258D02*
X202797522Y-65661718D01*
X200500000Y-57160000D02*
X202300000Y-57160000D01*
X199997047Y-65660163D02*
X202795967Y-65660163D01*
X202795967Y-65660163D02*
X202797522Y-65661718D01*
D30*
X195100000Y-67600000D02*
X195200000Y-67700000D01*
D29*
X187300000Y-55900000D02*
X191240000Y-55900000D01*
X191240000Y-55900000D02*
X193000000Y-55900000D01*
X191290000Y-57390000D02*
X191290000Y-55950000D01*
X191290000Y-55950000D02*
X191240000Y-55900000D01*
D30*
X187760681Y-59332212D02*
X187732411Y-59360482D01*
X187732411Y-59360482D02*
X187237437Y-59855456D01*
X187760681Y-58385681D02*
X187760681Y-59332212D01*
X186765000Y-57390000D02*
X187760681Y-58385681D01*
X186615000Y-57390000D02*
X186765000Y-57390000D01*
D29*
X187300000Y-55900000D02*
X187300000Y-56705000D01*
X187300000Y-56705000D02*
X186615000Y-57390000D01*
X193000000Y-55900000D02*
X195400000Y-55900000D01*
X193000000Y-55900000D02*
X193000000Y-57400000D01*
X195400000Y-55900000D02*
X196450000Y-56950000D01*
X196450000Y-56950000D02*
X196450000Y-57250000D01*
X196450000Y-57550000D02*
X196450000Y-57250000D01*
D30*
X187300000Y-55900000D02*
X187575000Y-55900000D01*
X184055456Y-63037437D02*
X184550430Y-62542463D01*
X184550430Y-62542463D02*
X187237437Y-59855456D01*
X193790000Y-65290000D02*
X193790000Y-64890000D01*
X193790000Y-67690000D02*
X193790000Y-65290000D01*
X193790000Y-64890000D02*
X194090000Y-64590000D01*
X194090000Y-64590000D02*
X194540000Y-64590000D01*
X193790000Y-67140000D02*
X193790000Y-67690000D01*
X185338776Y-62461224D02*
X185480213Y-62461224D01*
X184409010Y-63390990D02*
X185338776Y-62461224D01*
X193950000Y-67700000D02*
X193950000Y-67150000D01*
X177600000Y-62500000D02*
X176100000Y-61000000D01*
X176100000Y-61000000D02*
X176000000Y-61000000D01*
X172600000Y-57400000D02*
X174300000Y-57400000D01*
X174300000Y-57400000D02*
X176000000Y-55700000D01*
X176000000Y-55700000D02*
X176000000Y-55000000D01*
X177600000Y-53600000D02*
X177600000Y-54600000D01*
X177600000Y-54600000D02*
X178000000Y-55000000D01*
X183000000Y-51700000D02*
X183000000Y-50294431D01*
X183000000Y-58100000D02*
X183000000Y-51700000D01*
X183218003Y-58318003D02*
X183000000Y-58100000D01*
X183225110Y-58318003D02*
X183218003Y-58318003D01*
X183225110Y-58318003D02*
X184762563Y-59855456D01*
X185116117Y-59501903D02*
X183500000Y-57885786D01*
X183500000Y-57885786D02*
X183500000Y-51638695D01*
X183500000Y-51638695D02*
X184257425Y-50881270D01*
X170575000Y-63800000D02*
X182585786Y-63800000D01*
X182585786Y-63800000D02*
X183701903Y-62683883D01*
X167000000Y-61275000D02*
X168050000Y-61275000D01*
X168050000Y-61275000D02*
X170575000Y-63800000D01*
X171425000Y-63400000D02*
X182278680Y-63400000D01*
X182278680Y-63400000D02*
X183242284Y-62436396D01*
X167000000Y-60025000D02*
X168050000Y-60025000D01*
X168050000Y-60025000D02*
X171425000Y-63400000D01*
X178000000Y-66000000D02*
X177375000Y-66625000D01*
X177375000Y-66625000D02*
X177375000Y-67800000D01*
X183214214Y-66000000D02*
X178000000Y-66000000D01*
X185116117Y-64098097D02*
X183214214Y-66000000D01*
X177100000Y-65600000D02*
X176125000Y-66575000D01*
X176125000Y-66575000D02*
X176125000Y-67800000D01*
X182907107Y-65600000D02*
X177100000Y-65600000D01*
X184762563Y-63744544D02*
X182907107Y-65600000D01*
X175850000Y-52350000D02*
X176400000Y-52900000D01*
X176400000Y-52900000D02*
X176400000Y-53600000D01*
X175850000Y-51000000D02*
X175850000Y-52350000D01*
X171186827Y-53813173D02*
X171550001Y-54176347D01*
X171550001Y-54176347D02*
X171550001Y-58000001D01*
X171550001Y-58000001D02*
X172150000Y-58600000D01*
X172150000Y-58600000D02*
X172600000Y-58600000D01*
X172600000Y-58750000D02*
X172600000Y-58600000D01*
X183242284Y-61163604D02*
X182813604Y-61163604D01*
X180400000Y-58750000D02*
X180400000Y-58600000D01*
X182813604Y-61163604D02*
X180400000Y-58750000D01*
X183701903Y-60916117D02*
X183206929Y-60421143D01*
X183206929Y-60421143D02*
X183071143Y-60421143D01*
X183071143Y-60421143D02*
X181400000Y-58750000D01*
X181400000Y-58750000D02*
X181400000Y-58600000D01*
X182400000Y-58600000D02*
X182850000Y-58600000D01*
X182850000Y-58600000D02*
X184409010Y-60159010D01*
X184409010Y-60159010D02*
X184409010Y-60209010D01*
X189540000Y-58749998D02*
X189540000Y-58967107D01*
X189540000Y-58967107D02*
X187944544Y-60562563D01*
X191290000Y-59390000D02*
X191290000Y-58790000D01*
X191290000Y-58790000D02*
X191189999Y-58689999D01*
X191189999Y-58689999D02*
X189599999Y-58689999D01*
X189599999Y-58689999D02*
X189540000Y-58749998D01*
X191940000Y-58490000D02*
X191940000Y-58740000D01*
X191940000Y-58740000D02*
X191290000Y-59390000D01*
D28*
X200520000Y-62240000D02*
X202300000Y-62240000D01*
D30*
X188298097Y-60916117D02*
X189824214Y-59390000D01*
X189824214Y-59390000D02*
X189990000Y-59390000D01*
X192754788Y-64100000D02*
X189990000Y-61335212D01*
X189990000Y-61335212D02*
X189990000Y-59390000D01*
X189990000Y-59390000D02*
X189990000Y-59640000D01*
X199500000Y-64100000D02*
X202950000Y-64100000D01*
X202950000Y-64100000D02*
X203848071Y-64998071D01*
X203848071Y-64998071D02*
X203848071Y-66097187D01*
X203848071Y-66097187D02*
X203840000Y-66105258D01*
X203840000Y-66160000D02*
X203000000Y-67000000D01*
X203840000Y-66105258D02*
X203840000Y-66160000D01*
X198840000Y-69580000D02*
X200000000Y-70740000D01*
X203000000Y-67000000D02*
X199200000Y-67000000D01*
X199200000Y-67000000D02*
X198840000Y-67360000D01*
X198840000Y-67360000D02*
X198840000Y-69580000D01*
X200000000Y-70740000D02*
X200520000Y-70740000D01*
X200520000Y-70670002D02*
X200520000Y-70740000D01*
D28*
X200520000Y-70740000D02*
X202300000Y-70740000D01*
D30*
X185400000Y-66000000D02*
X185400000Y-64594112D01*
X185400000Y-64594112D02*
X185363604Y-64557716D01*
X178150000Y-50050000D02*
X178450000Y-50050000D01*
X178450000Y-50050000D02*
X180400000Y-52000000D01*
X180400000Y-52000000D02*
X180400000Y-56800000D01*
X180400000Y-56800000D02*
X180400000Y-57400000D01*
X181400000Y-57400000D02*
X181400000Y-51859998D01*
X181400000Y-51859998D02*
X178990001Y-49449999D01*
X178990001Y-49449999D02*
X174206498Y-49449999D01*
X174206498Y-49449999D02*
X172636395Y-51020102D01*
X172636395Y-51020102D02*
X172141421Y-51515076D01*
X170000000Y-59150000D02*
X170500000Y-59150000D01*
X170500000Y-59150000D02*
X173850000Y-62500000D01*
X173850000Y-62500000D02*
X175800000Y-62500000D01*
X175800000Y-62500000D02*
X176400000Y-62500000D01*
X179127742Y-49000000D02*
X173807953Y-49000000D01*
X173807953Y-49000000D02*
X169050000Y-53757953D01*
X169050000Y-53757953D02*
X169050000Y-56050000D01*
X169050000Y-56050000D02*
X169050000Y-56850000D01*
X182400000Y-57400000D02*
X182400000Y-52272258D01*
X182400000Y-52272258D02*
X179127742Y-49000000D01*
X189990000Y-57390000D02*
X189990000Y-57140000D01*
X189990000Y-57140000D02*
X190440000Y-56690000D01*
X189990000Y-57390000D02*
X189990000Y-57340000D01*
X186353553Y-58853564D02*
X186040000Y-58540011D01*
X186353553Y-59325126D02*
X186353553Y-58853564D01*
X192610000Y-55090000D02*
X192610000Y-54922882D01*
X192610000Y-54922882D02*
X193608192Y-53924690D01*
X193300000Y-54370527D02*
X193744826Y-53925701D01*
X191740000Y-66340000D02*
X191740000Y-64145888D01*
X191740000Y-64145888D02*
X188757716Y-61163604D01*
X192540000Y-67690000D02*
X192540000Y-67140000D01*
X192540000Y-67140000D02*
X191740000Y-66340000D01*
X190640000Y-66490000D02*
X190640000Y-64318680D01*
X190640000Y-64318680D02*
X188757716Y-62436396D01*
X191290000Y-67140000D02*
X190640000Y-66490000D01*
X191290000Y-67690000D02*
X191290000Y-67140000D01*
X188757716Y-62507090D02*
X188757716Y-62436396D01*
X187294544Y-63744544D02*
X187237437Y-63744544D01*
G36*
X180145677Y-44214059D02*
X180429162Y-44243903D01*
X180451161Y-44247709D01*
X180124806Y-44861494D01*
X180155817Y-44962925D01*
X180575217Y-45185924D01*
X180584607Y-45168265D01*
X181026080Y-45403001D01*
X181016691Y-45420660D01*
X181436091Y-45643659D01*
X181537522Y-45612648D01*
X181950226Y-44836464D01*
X187250665Y-47648116D01*
X186835207Y-48429478D01*
X186866218Y-48530909D01*
X187285618Y-48753908D01*
X187295008Y-48736249D01*
X187736481Y-48970985D01*
X187727092Y-48988644D01*
X188146492Y-49211643D01*
X188247923Y-49180632D01*
X188664115Y-48397889D01*
X188717151Y-48426023D01*
X188677795Y-48500041D01*
X188708806Y-48601472D01*
X189569680Y-49059207D01*
X189579070Y-49041548D01*
X190020543Y-49276284D01*
X190011154Y-49293943D01*
X190872028Y-49751678D01*
X190973459Y-49720667D01*
X191014008Y-49644405D01*
X194900996Y-51706283D01*
X194858428Y-51786342D01*
X194889439Y-51887773D01*
X195750313Y-52345508D01*
X195759703Y-52327849D01*
X196201176Y-52562585D01*
X196191787Y-52580244D01*
X197052661Y-53037979D01*
X197154092Y-53006968D01*
X197197853Y-52924666D01*
X200277924Y-54558509D01*
X200277961Y-54558529D01*
X200610402Y-54734935D01*
X200610436Y-54734949D01*
X200610892Y-54735194D01*
X200918546Y-54897823D01*
X200918623Y-54897855D01*
X200920072Y-54898624D01*
X201205680Y-55047804D01*
X201205754Y-55047834D01*
X201208486Y-55049254D01*
X201474808Y-55185316D01*
X201474816Y-55185319D01*
X201479143Y-55187493D01*
X201728921Y-55310767D01*
X201729817Y-55311105D01*
X201730641Y-55311611D01*
X201735050Y-55313719D01*
X201971041Y-55424539D01*
X201972965Y-55425222D01*
X201974730Y-55426245D01*
X201979191Y-55428240D01*
X202204136Y-55526933D01*
X202207150Y-55527917D01*
X202209940Y-55529417D01*
X202214463Y-55531268D01*
X202431122Y-55618169D01*
X202435218Y-55619363D01*
X202439057Y-55621241D01*
X202443647Y-55622917D01*
X202654760Y-55698352D01*
X202659839Y-55699624D01*
X202664637Y-55701716D01*
X202669296Y-55703190D01*
X202877622Y-55767497D01*
X202883468Y-55768692D01*
X202889049Y-55770813D01*
X202893774Y-55772062D01*
X203102057Y-55825566D01*
X203108349Y-55826541D01*
X203114411Y-55828502D01*
X203119193Y-55829512D01*
X203330182Y-55872545D01*
X203336538Y-55873205D01*
X203342712Y-55874864D01*
X203347538Y-55875632D01*
X203563989Y-55908528D01*
X203570032Y-55908849D01*
X203575942Y-55910134D01*
X203580800Y-55910668D01*
X203805457Y-55933754D01*
X203810859Y-55933779D01*
X203816185Y-55934690D01*
X203821062Y-55935005D01*
X204056674Y-55948608D01*
X204061203Y-55948426D01*
X204065704Y-55949013D01*
X204070589Y-55949134D01*
X204319914Y-55953593D01*
X204320600Y-55953538D01*
X204321285Y-55953615D01*
X204326172Y-55953649D01*
X213253350Y-55953649D01*
X213253358Y-71938768D01*
X197840000Y-71938768D01*
X197840000Y-71065000D01*
X197765000Y-70990000D01*
X197290000Y-70990000D01*
X197290000Y-71010000D01*
X196790000Y-71010000D01*
X196790000Y-70990000D01*
X196315000Y-70990000D01*
X196240000Y-71065000D01*
X196240000Y-71938768D01*
X188840000Y-71938768D01*
X188840000Y-71065000D01*
X188765000Y-70990000D01*
X188290000Y-70990000D01*
X188290000Y-71010000D01*
X187790000Y-71010000D01*
X187790000Y-70990000D01*
X187315000Y-70990000D01*
X187240000Y-71065000D01*
X187240000Y-71938768D01*
X182600000Y-71938768D01*
X182600000Y-71075000D01*
X182525000Y-71000000D01*
X182050000Y-71000000D01*
X182050000Y-71020000D01*
X181550000Y-71020000D01*
X181550000Y-71000000D01*
X181075000Y-71000000D01*
X181000000Y-71075000D01*
X181000000Y-71938768D01*
X175000000Y-71938768D01*
X175000000Y-71075000D01*
X174925000Y-71000000D01*
X174450000Y-71000000D01*
X174450000Y-71020000D01*
X173950000Y-71020000D01*
X173950000Y-71000000D01*
X173475000Y-71000000D01*
X173400000Y-71075000D01*
X173400000Y-71784152D01*
X173218193Y-71735430D01*
X172902373Y-71630151D01*
X172591626Y-71507582D01*
X172287204Y-71370136D01*
X171987516Y-71218839D01*
X168502995Y-69370452D01*
X173400000Y-69370452D01*
X173400000Y-70425000D01*
X173475000Y-70500000D01*
X173950000Y-70500000D01*
X173950000Y-69175000D01*
X173875000Y-69100000D01*
X173670453Y-69100000D01*
X173612494Y-69111529D01*
X173557897Y-69134143D01*
X173508761Y-69166975D01*
X173466975Y-69208761D01*
X173434144Y-69257896D01*
X173411529Y-69312493D01*
X173400000Y-69370452D01*
X168502995Y-69370452D01*
X163611109Y-66775520D01*
X163403691Y-66652336D01*
X163233129Y-66525148D01*
X163206533Y-66500000D01*
X163625000Y-66500000D01*
X163700000Y-66425000D01*
X163700000Y-65950000D01*
X164200000Y-65950000D01*
X164200000Y-66425000D01*
X164275000Y-66500000D01*
X165329548Y-66500000D01*
X165387507Y-66488471D01*
X165442104Y-66465856D01*
X165491239Y-66433025D01*
X165533025Y-66391239D01*
X165565857Y-66342103D01*
X165588471Y-66287506D01*
X165600000Y-66229547D01*
X165600000Y-66025000D01*
X165525000Y-65950000D01*
X164200000Y-65950000D01*
X163700000Y-65950000D01*
X163680000Y-65950000D01*
X163680000Y-65450000D01*
X163700000Y-65450000D01*
X163700000Y-64975000D01*
X164200000Y-64975000D01*
X164200000Y-65450000D01*
X165525000Y-65450000D01*
X165600000Y-65375000D01*
X165600000Y-65170453D01*
X165588471Y-65112494D01*
X165565857Y-65057897D01*
X165533025Y-65008761D01*
X165491239Y-64966975D01*
X165442104Y-64934144D01*
X165387507Y-64911529D01*
X165329548Y-64900000D01*
X164275000Y-64900000D01*
X164200000Y-64975000D01*
X163700000Y-64975000D01*
X163625000Y-64900000D01*
X162785487Y-64900000D01*
X162785487Y-58900000D01*
X163625000Y-58900000D01*
X163700000Y-58825000D01*
X163700000Y-58350000D01*
X164200000Y-58350000D01*
X164200000Y-58825000D01*
X164275000Y-58900000D01*
X164961089Y-58900000D01*
X164938150Y-58922463D01*
X164871672Y-59019551D01*
X164825318Y-59127702D01*
X164800854Y-59242797D01*
X164799211Y-59360452D01*
X164820452Y-59476185D01*
X164850000Y-59550814D01*
X164850000Y-63960113D01*
X164825318Y-64017700D01*
X164800854Y-64132795D01*
X164799211Y-64250450D01*
X164820452Y-64366183D01*
X164863768Y-64475586D01*
X164927509Y-64574492D01*
X165009247Y-64659134D01*
X165105868Y-64726287D01*
X165213693Y-64773395D01*
X165328614Y-64798662D01*
X165446254Y-64801126D01*
X165562133Y-64780694D01*
X165671835Y-64738143D01*
X165771184Y-64675094D01*
X165856395Y-64593949D01*
X165924221Y-64497799D01*
X165972080Y-64390306D01*
X165986555Y-64326596D01*
X166007896Y-64340856D01*
X166062493Y-64363471D01*
X166120452Y-64375000D01*
X166675000Y-64375000D01*
X166750000Y-64300000D01*
X166750000Y-63925000D01*
X167250000Y-63925000D01*
X167250000Y-64300000D01*
X167325000Y-64375000D01*
X167879548Y-64375000D01*
X167937507Y-64363471D01*
X167992104Y-64340856D01*
X168041239Y-64308025D01*
X168083025Y-64266239D01*
X168115857Y-64217103D01*
X168138471Y-64162506D01*
X168150000Y-64104547D01*
X168150000Y-64000000D01*
X168075000Y-63925000D01*
X167250000Y-63925000D01*
X166750000Y-63925000D01*
X166730000Y-63925000D01*
X166730000Y-63625000D01*
X166750000Y-63625000D01*
X166750000Y-63250000D01*
X167250000Y-63250000D01*
X167250000Y-63625000D01*
X168075000Y-63625000D01*
X168150000Y-63550000D01*
X168150000Y-63445453D01*
X168138471Y-63387494D01*
X168115857Y-63332897D01*
X168083025Y-63283761D01*
X168041239Y-63241975D01*
X167992104Y-63209144D01*
X167937507Y-63186529D01*
X167879548Y-63175000D01*
X167325000Y-63175000D01*
X167250000Y-63250000D01*
X166750000Y-63250000D01*
X166675000Y-63175000D01*
X166577818Y-63175000D01*
X166626367Y-63126451D01*
X167850000Y-63126451D01*
X167897774Y-63122641D01*
X167978803Y-63097548D01*
X168049634Y-63050874D01*
X168104657Y-62986315D01*
X168139516Y-62908982D01*
X168151451Y-62825000D01*
X168151451Y-62225000D01*
X168147641Y-62177226D01*
X168122548Y-62096197D01*
X168075874Y-62025366D01*
X168011315Y-61970343D01*
X167933982Y-61935484D01*
X167850000Y-61923549D01*
X166150000Y-61923549D01*
X166102226Y-61927359D01*
X166021197Y-61952452D01*
X165950366Y-61999126D01*
X165950000Y-61999555D01*
X165950000Y-61796686D01*
X165988685Y-61829657D01*
X166066018Y-61864516D01*
X166150000Y-61876451D01*
X167850000Y-61876451D01*
X167897774Y-61872641D01*
X167978803Y-61847548D01*
X168025856Y-61816542D01*
X170292157Y-64082843D01*
X170320742Y-64106323D01*
X170349013Y-64130045D01*
X170350855Y-64131058D01*
X170352482Y-64132394D01*
X170385053Y-64149858D01*
X170417423Y-64167654D01*
X170419429Y-64168290D01*
X170421282Y-64169284D01*
X170456579Y-64180075D01*
X170491835Y-64191259D01*
X170493929Y-64191494D01*
X170495938Y-64192108D01*
X170532642Y-64195836D01*
X170569415Y-64199961D01*
X170573533Y-64199990D01*
X170573604Y-64199997D01*
X170573670Y-64199991D01*
X170575000Y-64200000D01*
X182585786Y-64200000D01*
X182622570Y-64196393D01*
X182659366Y-64193174D01*
X182661385Y-64192587D01*
X182663480Y-64192382D01*
X182698863Y-64181699D01*
X182734333Y-64171394D01*
X182736201Y-64170426D01*
X182738214Y-64169818D01*
X182770844Y-64152469D01*
X182803641Y-64135468D01*
X182805284Y-64134156D01*
X182807143Y-64133168D01*
X182835797Y-64109798D01*
X182864652Y-64086764D01*
X182867582Y-64083876D01*
X182867640Y-64083828D01*
X182867685Y-64083774D01*
X182868629Y-64082843D01*
X183347324Y-63604149D01*
X183524100Y-63780925D01*
X183560575Y-63812012D01*
X183607933Y-63836974D01*
X183614577Y-63854523D01*
X183665522Y-63922346D01*
X183842299Y-64099123D01*
X182741421Y-65200000D01*
X177100000Y-65200000D01*
X177063216Y-65203607D01*
X177026420Y-65206826D01*
X177024401Y-65207413D01*
X177022306Y-65207618D01*
X176986923Y-65218301D01*
X176951453Y-65228606D01*
X176949585Y-65229574D01*
X176947572Y-65230182D01*
X176914963Y-65247521D01*
X176882144Y-65264532D01*
X176880499Y-65265845D01*
X176878643Y-65266832D01*
X176850011Y-65290184D01*
X176821134Y-65313236D01*
X176818204Y-65316124D01*
X176818146Y-65316172D01*
X176818101Y-65316226D01*
X176817157Y-65317157D01*
X175842157Y-66292157D01*
X175818677Y-66320742D01*
X175794955Y-66349013D01*
X175793942Y-66350855D01*
X175792606Y-66352482D01*
X175775142Y-66385053D01*
X175757346Y-66417423D01*
X175756710Y-66419429D01*
X175755716Y-66421282D01*
X175744925Y-66456579D01*
X175733741Y-66491835D01*
X175733506Y-66493929D01*
X175732892Y-66495938D01*
X175729159Y-66532687D01*
X175725143Y-66568488D01*
X175696197Y-66577452D01*
X175625366Y-66624126D01*
X175570343Y-66688685D01*
X175535484Y-66766018D01*
X175523549Y-66850000D01*
X175523549Y-68550000D01*
X175527359Y-68597774D01*
X175552452Y-68678803D01*
X175599126Y-68749634D01*
X175663685Y-68804657D01*
X175741018Y-68839516D01*
X175814790Y-68850000D01*
X175649994Y-68850000D01*
X175588285Y-68824060D01*
X175473023Y-68800400D01*
X175355359Y-68799578D01*
X175239777Y-68821627D01*
X175130679Y-68865705D01*
X175032221Y-68930135D01*
X174948152Y-69012461D01*
X174881674Y-69109549D01*
X174864670Y-69149222D01*
X174842103Y-69134143D01*
X174787506Y-69111529D01*
X174729547Y-69100000D01*
X174525000Y-69100000D01*
X174450000Y-69175000D01*
X174450000Y-70500000D01*
X174925000Y-70500000D01*
X175000000Y-70425000D01*
X175000000Y-69839201D01*
X175019249Y-69859134D01*
X175115870Y-69926287D01*
X175223695Y-69973395D01*
X175338616Y-69998662D01*
X175456256Y-70001126D01*
X175572135Y-69980694D01*
X175651268Y-69950000D01*
X179760144Y-69950000D01*
X179813693Y-69973395D01*
X179928614Y-69998662D01*
X180046254Y-70001126D01*
X180162133Y-69980694D01*
X180271835Y-69938143D01*
X180371184Y-69875094D01*
X180456395Y-69793949D01*
X180524221Y-69697799D01*
X180572080Y-69590306D01*
X180598149Y-69475564D01*
X180599617Y-69370452D01*
X181000000Y-69370452D01*
X181000000Y-70425000D01*
X181075000Y-70500000D01*
X181550000Y-70500000D01*
X181550000Y-69175000D01*
X182050000Y-69175000D01*
X182050000Y-70500000D01*
X182525000Y-70500000D01*
X182600000Y-70425000D01*
X182600000Y-69370452D01*
X182598011Y-69360452D01*
X187240000Y-69360452D01*
X187240000Y-70415000D01*
X187315000Y-70490000D01*
X187790000Y-70490000D01*
X187790000Y-69165000D01*
X188290000Y-69165000D01*
X188290000Y-70490000D01*
X188765000Y-70490000D01*
X188840000Y-70415000D01*
X188840000Y-69360452D01*
X188828471Y-69302493D01*
X188805856Y-69247896D01*
X188773025Y-69198761D01*
X188731239Y-69156975D01*
X188682103Y-69124143D01*
X188627506Y-69101529D01*
X188569547Y-69090000D01*
X188365000Y-69090000D01*
X188290000Y-69165000D01*
X187790000Y-69165000D01*
X187715000Y-69090000D01*
X187510453Y-69090000D01*
X187452494Y-69101529D01*
X187397897Y-69124143D01*
X187348761Y-69156975D01*
X187306975Y-69198761D01*
X187274144Y-69247896D01*
X187251529Y-69302493D01*
X187240000Y-69360452D01*
X182598011Y-69360452D01*
X182588471Y-69312493D01*
X182565856Y-69257896D01*
X182533025Y-69208761D01*
X182491239Y-69166975D01*
X182442103Y-69134143D01*
X182387506Y-69111529D01*
X182329547Y-69100000D01*
X182125000Y-69100000D01*
X182050000Y-69175000D01*
X181550000Y-69175000D01*
X181475000Y-69100000D01*
X181270453Y-69100000D01*
X181212494Y-69111529D01*
X181157897Y-69134143D01*
X181108761Y-69166975D01*
X181066975Y-69208761D01*
X181034144Y-69257896D01*
X181011529Y-69312493D01*
X181000000Y-69370452D01*
X180599617Y-69370452D01*
X180600026Y-69341167D01*
X180577171Y-69225742D01*
X180532332Y-69116954D01*
X180467216Y-69018948D01*
X180384305Y-68935455D01*
X180286755Y-68869657D01*
X180228607Y-68845214D01*
X180262506Y-68838471D01*
X180317103Y-68815857D01*
X180366239Y-68783025D01*
X180408025Y-68741239D01*
X180440856Y-68692104D01*
X180463471Y-68637507D01*
X180475000Y-68579548D01*
X180475000Y-68025000D01*
X180400000Y-67950000D01*
X180025000Y-67950000D01*
X180025000Y-67970000D01*
X179725000Y-67970000D01*
X179725000Y-67950000D01*
X179350000Y-67950000D01*
X179275000Y-68025000D01*
X179275000Y-68321446D01*
X179226451Y-68272897D01*
X179226451Y-66850000D01*
X179224095Y-66820452D01*
X179275000Y-66820452D01*
X179275000Y-67375000D01*
X179350000Y-67450000D01*
X179725000Y-67450000D01*
X179725000Y-66625000D01*
X180025000Y-66625000D01*
X180025000Y-67450000D01*
X180400000Y-67450000D01*
X180475000Y-67375000D01*
X180475000Y-66820452D01*
X180463471Y-66762493D01*
X180440856Y-66707896D01*
X180408025Y-66658761D01*
X180366239Y-66616975D01*
X180317103Y-66584143D01*
X180262506Y-66561529D01*
X180204547Y-66550000D01*
X180100000Y-66550000D01*
X180025000Y-66625000D01*
X179725000Y-66625000D01*
X179650000Y-66550000D01*
X179545453Y-66550000D01*
X179487494Y-66561529D01*
X179432897Y-66584143D01*
X179383761Y-66616975D01*
X179341975Y-66658761D01*
X179309144Y-66707896D01*
X179286529Y-66762493D01*
X179275000Y-66820452D01*
X179224095Y-66820452D01*
X179222641Y-66802226D01*
X179197548Y-66721197D01*
X179150874Y-66650366D01*
X179086315Y-66595343D01*
X179008982Y-66560484D01*
X178925000Y-66548549D01*
X178325000Y-66548549D01*
X178277226Y-66552359D01*
X178196197Y-66577452D01*
X178125366Y-66624126D01*
X178070343Y-66688685D01*
X178035484Y-66766018D01*
X178023549Y-66850000D01*
X178023549Y-68550000D01*
X178027359Y-68597774D01*
X178052452Y-68678803D01*
X178099126Y-68749634D01*
X178163685Y-68804657D01*
X178234533Y-68836593D01*
X178234668Y-68836730D01*
X178234736Y-68836813D01*
X178234813Y-68836876D01*
X178236091Y-68838173D01*
X178247918Y-68850000D01*
X177693194Y-68850000D01*
X177722774Y-68847641D01*
X177803803Y-68822548D01*
X177874634Y-68775874D01*
X177929657Y-68711315D01*
X177964516Y-68633982D01*
X177976451Y-68550000D01*
X177976451Y-66850000D01*
X177972641Y-66802226D01*
X177947548Y-66721197D01*
X177906612Y-66659074D01*
X178165685Y-66400000D01*
X183214214Y-66400000D01*
X183250998Y-66396393D01*
X183287794Y-66393174D01*
X183289813Y-66392587D01*
X183291908Y-66392382D01*
X183327291Y-66381699D01*
X183362761Y-66371394D01*
X183364629Y-66370426D01*
X183366642Y-66369818D01*
X183399272Y-66352469D01*
X183432069Y-66335468D01*
X183433712Y-66334156D01*
X183435571Y-66333168D01*
X183464225Y-66309798D01*
X183493080Y-66286764D01*
X183496010Y-66283876D01*
X183496068Y-66283828D01*
X183496113Y-66283774D01*
X183497057Y-66282843D01*
X184761538Y-65018362D01*
X184938314Y-65195138D01*
X184974789Y-65226225D01*
X185000000Y-65239514D01*
X185000000Y-65448549D01*
X184952226Y-65452359D01*
X184871197Y-65477452D01*
X184800366Y-65524126D01*
X184745343Y-65588685D01*
X184710484Y-65666018D01*
X184698549Y-65750000D01*
X184698549Y-66250000D01*
X184702359Y-66297774D01*
X184727452Y-66378803D01*
X184774126Y-66449634D01*
X184838685Y-66504657D01*
X184916018Y-66539516D01*
X185000000Y-66551451D01*
X185800000Y-66551451D01*
X185847774Y-66547641D01*
X185928803Y-66522548D01*
X185999634Y-66475874D01*
X186000543Y-66474807D01*
X186008761Y-66483025D01*
X186057897Y-66515857D01*
X186112494Y-66538471D01*
X186170453Y-66550000D01*
X186325000Y-66550000D01*
X186400000Y-66475000D01*
X186400000Y-66125000D01*
X186800000Y-66125000D01*
X186800000Y-66475000D01*
X186875000Y-66550000D01*
X187029547Y-66550000D01*
X187087506Y-66538471D01*
X187142103Y-66515857D01*
X187191239Y-66483025D01*
X187233025Y-66441239D01*
X187265856Y-66392104D01*
X187288471Y-66337507D01*
X187300000Y-66279548D01*
X187300000Y-66200000D01*
X187225000Y-66125000D01*
X186800000Y-66125000D01*
X186400000Y-66125000D01*
X186330000Y-66125000D01*
X186330000Y-65875000D01*
X186400000Y-65875000D01*
X186400000Y-65525000D01*
X186800000Y-65525000D01*
X186800000Y-65875000D01*
X187225000Y-65875000D01*
X187300000Y-65800000D01*
X187300000Y-65720452D01*
X187288471Y-65662493D01*
X187265856Y-65607896D01*
X187233025Y-65558761D01*
X187191239Y-65516975D01*
X187142103Y-65484143D01*
X187087506Y-65461529D01*
X187029547Y-65450000D01*
X186875000Y-65450000D01*
X186800000Y-65525000D01*
X186400000Y-65525000D01*
X186325000Y-65450000D01*
X186170453Y-65450000D01*
X186112494Y-65461529D01*
X186057897Y-65484143D01*
X186008761Y-65516975D01*
X185998608Y-65527128D01*
X185961315Y-65495343D01*
X185883982Y-65460484D01*
X185800000Y-65448549D01*
X185800000Y-64759768D01*
X185894956Y-64664812D01*
X185894960Y-64664809D01*
X186000000Y-64559769D01*
X186105040Y-64664809D01*
X186105045Y-64664813D01*
X186635370Y-65195138D01*
X186671845Y-65226225D01*
X186746885Y-65265778D01*
X186829974Y-65282859D01*
X186914531Y-65276117D01*
X186993863Y-65246083D01*
X187061686Y-65195138D01*
X187273818Y-64983006D01*
X187304905Y-64946531D01*
X187329867Y-64899174D01*
X187347416Y-64892530D01*
X187415239Y-64841585D01*
X187627371Y-64629453D01*
X187658458Y-64592978D01*
X187683419Y-64545621D01*
X187700970Y-64538977D01*
X187768793Y-64488032D01*
X187980925Y-64275900D01*
X188012012Y-64239425D01*
X188036974Y-64192067D01*
X188054523Y-64185423D01*
X188122346Y-64134478D01*
X188334478Y-63922346D01*
X188365565Y-63885871D01*
X188390526Y-63838514D01*
X188408077Y-63831870D01*
X188475900Y-63780925D01*
X188688032Y-63568793D01*
X188719119Y-63532318D01*
X188744081Y-63484960D01*
X188761630Y-63478316D01*
X188829453Y-63427371D01*
X189006229Y-63250595D01*
X190240000Y-64484365D01*
X190240000Y-66490000D01*
X190243607Y-66526784D01*
X190244636Y-66538549D01*
X189740000Y-66538549D01*
X189692226Y-66542359D01*
X189611197Y-66567452D01*
X189540366Y-66614126D01*
X189485343Y-66678685D01*
X189450484Y-66756018D01*
X189438549Y-66840000D01*
X189438549Y-67168142D01*
X189379909Y-67238026D01*
X189304692Y-67374846D01*
X189257482Y-67523671D01*
X189240078Y-67678830D01*
X189240000Y-67690000D01*
X189240000Y-69790000D01*
X189247207Y-69863506D01*
X189253651Y-69937161D01*
X189254826Y-69941205D01*
X189255236Y-69945387D01*
X189276580Y-70016081D01*
X189297211Y-70087094D01*
X189299147Y-70090830D01*
X189300363Y-70094856D01*
X189335062Y-70160116D01*
X189369064Y-70225711D01*
X189371687Y-70228997D01*
X189373663Y-70232713D01*
X189420369Y-70289981D01*
X189466471Y-70347732D01*
X189472242Y-70353583D01*
X189472343Y-70353707D01*
X189472458Y-70353802D01*
X189474315Y-70355685D01*
X190174314Y-71055685D01*
X190294963Y-71154787D01*
X190432563Y-71228568D01*
X190581874Y-71274216D01*
X190737207Y-71289995D01*
X190892647Y-71275301D01*
X191042273Y-71230696D01*
X191180384Y-71157878D01*
X191301722Y-71059621D01*
X191401664Y-70939667D01*
X191476403Y-70802585D01*
X191523094Y-70653596D01*
X191539956Y-70498377D01*
X191526348Y-70342839D01*
X191482788Y-70192906D01*
X191410936Y-70054288D01*
X191313528Y-69932268D01*
X191305685Y-69924314D01*
X190840000Y-69458630D01*
X190840000Y-69360452D01*
X196240000Y-69360452D01*
X196240000Y-70415000D01*
X196315000Y-70490000D01*
X196790000Y-70490000D01*
X196790000Y-69165000D01*
X197290000Y-69165000D01*
X197290000Y-70490000D01*
X197765000Y-70490000D01*
X197840000Y-70415000D01*
X197840000Y-69360452D01*
X197828471Y-69302493D01*
X197805856Y-69247896D01*
X197773025Y-69198761D01*
X197731239Y-69156975D01*
X197682103Y-69124143D01*
X197627506Y-69101529D01*
X197569547Y-69090000D01*
X197365000Y-69090000D01*
X197290000Y-69165000D01*
X196790000Y-69165000D01*
X196715000Y-69090000D01*
X196510453Y-69090000D01*
X196452494Y-69101529D01*
X196397897Y-69124143D01*
X196348761Y-69156975D01*
X196306975Y-69198761D01*
X196274144Y-69247896D01*
X196251529Y-69302493D01*
X196240000Y-69360452D01*
X190840000Y-69360452D01*
X190840000Y-68799757D01*
X190906018Y-68829516D01*
X190990000Y-68841451D01*
X191590000Y-68841451D01*
X191637774Y-68837641D01*
X191718803Y-68812548D01*
X191789634Y-68765874D01*
X191844657Y-68701315D01*
X191879516Y-68623982D01*
X191891451Y-68540000D01*
X191891451Y-67057137D01*
X191938549Y-67104235D01*
X191938549Y-68540000D01*
X191942359Y-68587774D01*
X191967452Y-68668803D01*
X192014126Y-68739634D01*
X192078685Y-68794657D01*
X192156018Y-68829516D01*
X192240000Y-68841451D01*
X192840000Y-68841451D01*
X192887774Y-68837641D01*
X192968803Y-68812548D01*
X193039634Y-68765874D01*
X193094657Y-68701315D01*
X193129516Y-68623982D01*
X193141451Y-68540000D01*
X193141451Y-66840000D01*
X193188549Y-66840000D01*
X193188549Y-68540000D01*
X193192359Y-68587774D01*
X193217452Y-68668803D01*
X193264126Y-68739634D01*
X193328685Y-68794657D01*
X193406018Y-68829516D01*
X193490000Y-68841451D01*
X194090000Y-68841451D01*
X194137774Y-68837641D01*
X194218803Y-68812548D01*
X194289634Y-68765874D01*
X194344657Y-68701315D01*
X194379516Y-68623982D01*
X194391451Y-68540000D01*
X194391451Y-68015000D01*
X194440000Y-68015000D01*
X194440000Y-68569548D01*
X194451529Y-68627507D01*
X194474144Y-68682104D01*
X194506975Y-68731239D01*
X194548761Y-68773025D01*
X194597897Y-68805857D01*
X194652494Y-68828471D01*
X194710453Y-68840000D01*
X194815000Y-68840000D01*
X194890000Y-68765000D01*
X194890000Y-67940000D01*
X195190000Y-67940000D01*
X195190000Y-68765000D01*
X195265000Y-68840000D01*
X195369547Y-68840000D01*
X195427506Y-68828471D01*
X195482103Y-68805857D01*
X195531239Y-68773025D01*
X195573025Y-68731239D01*
X195605856Y-68682104D01*
X195628471Y-68627507D01*
X195640000Y-68569548D01*
X195640000Y-68015000D01*
X195565000Y-67940000D01*
X195190000Y-67940000D01*
X194890000Y-67940000D01*
X194515000Y-67940000D01*
X194440000Y-68015000D01*
X194391451Y-68015000D01*
X194391451Y-66840000D01*
X194389095Y-66810452D01*
X194440000Y-66810452D01*
X194440000Y-67365000D01*
X194515000Y-67440000D01*
X194890000Y-67440000D01*
X194890000Y-66615000D01*
X195190000Y-66615000D01*
X195190000Y-67440000D01*
X195565000Y-67440000D01*
X195640000Y-67365000D01*
X195640000Y-66810452D01*
X195628471Y-66752493D01*
X195605856Y-66697896D01*
X195573025Y-66648761D01*
X195531239Y-66606975D01*
X195482103Y-66574143D01*
X195427506Y-66551529D01*
X195369547Y-66540000D01*
X195265000Y-66540000D01*
X195190000Y-66615000D01*
X194890000Y-66615000D01*
X194815000Y-66540000D01*
X194710453Y-66540000D01*
X194652494Y-66551529D01*
X194597897Y-66574143D01*
X194548761Y-66606975D01*
X194506975Y-66648761D01*
X194474144Y-66697896D01*
X194451529Y-66752493D01*
X194440000Y-66810452D01*
X194389095Y-66810452D01*
X194387641Y-66792226D01*
X194362548Y-66711197D01*
X194315874Y-66640366D01*
X194251315Y-66585343D01*
X194190000Y-66557704D01*
X194190000Y-65737653D01*
X194246395Y-65683949D01*
X194287978Y-65625000D01*
X195115000Y-65625000D01*
X195115000Y-66229547D01*
X195126529Y-66287506D01*
X195149143Y-66342103D01*
X195181975Y-66391239D01*
X195223761Y-66433025D01*
X195272896Y-66465856D01*
X195327493Y-66488471D01*
X195385452Y-66500000D01*
X195715000Y-66500000D01*
X195790000Y-66425000D01*
X195790000Y-65550000D01*
X196290000Y-65550000D01*
X196290000Y-66425000D01*
X196365000Y-66500000D01*
X196694548Y-66500000D01*
X196752507Y-66488471D01*
X196807104Y-66465856D01*
X196856239Y-66433025D01*
X196898025Y-66391239D01*
X196930857Y-66342103D01*
X196953471Y-66287506D01*
X196965000Y-66229547D01*
X196965000Y-65625000D01*
X197175000Y-65625000D01*
X197175000Y-66229547D01*
X197186529Y-66287506D01*
X197209143Y-66342103D01*
X197241975Y-66391239D01*
X197283761Y-66433025D01*
X197332896Y-66465856D01*
X197387493Y-66488471D01*
X197445452Y-66500000D01*
X197775000Y-66500000D01*
X197850000Y-66425000D01*
X197850000Y-65550000D01*
X197250000Y-65550000D01*
X197175000Y-65625000D01*
X196965000Y-65625000D01*
X196890000Y-65550000D01*
X196290000Y-65550000D01*
X195790000Y-65550000D01*
X195190000Y-65550000D01*
X195115000Y-65625000D01*
X194287978Y-65625000D01*
X194314221Y-65587799D01*
X194362080Y-65480306D01*
X194388149Y-65365564D01*
X194389184Y-65291451D01*
X194790000Y-65291451D01*
X194837774Y-65287641D01*
X194918803Y-65262548D01*
X194989634Y-65215874D01*
X195044657Y-65151315D01*
X195079516Y-65073982D01*
X195091451Y-64990000D01*
X195091451Y-64370453D01*
X195115000Y-64370453D01*
X195115000Y-64975000D01*
X195190000Y-65050000D01*
X195790000Y-65050000D01*
X195790000Y-64175000D01*
X196290000Y-64175000D01*
X196290000Y-65050000D01*
X196890000Y-65050000D01*
X196965000Y-64975000D01*
X196965000Y-64370453D01*
X197175000Y-64370453D01*
X197175000Y-64975000D01*
X197250000Y-65050000D01*
X197850000Y-65050000D01*
X197850000Y-64175000D01*
X197775000Y-64100000D01*
X197445452Y-64100000D01*
X197387493Y-64111529D01*
X197332896Y-64134144D01*
X197283761Y-64166975D01*
X197241975Y-64208761D01*
X197209143Y-64257897D01*
X197186529Y-64312494D01*
X197175000Y-64370453D01*
X196965000Y-64370453D01*
X196953471Y-64312494D01*
X196930857Y-64257897D01*
X196898025Y-64208761D01*
X196856239Y-64166975D01*
X196807104Y-64134144D01*
X196752507Y-64111529D01*
X196694548Y-64100000D01*
X196365000Y-64100000D01*
X196290000Y-64175000D01*
X195790000Y-64175000D01*
X195715000Y-64100000D01*
X195385452Y-64100000D01*
X195327493Y-64111529D01*
X195272896Y-64134144D01*
X195223761Y-64166975D01*
X195181975Y-64208761D01*
X195149143Y-64257897D01*
X195126529Y-64312494D01*
X195115000Y-64370453D01*
X195091451Y-64370453D01*
X195091451Y-64190000D01*
X195087641Y-64142226D01*
X195062548Y-64061197D01*
X195015874Y-63990366D01*
X195014807Y-63989457D01*
X195023025Y-63981239D01*
X195055857Y-63932103D01*
X195078471Y-63877506D01*
X195090000Y-63819547D01*
X195090000Y-63665000D01*
X195015000Y-63590000D01*
X194665000Y-63590000D01*
X194665000Y-63660000D01*
X194415000Y-63660000D01*
X194415000Y-63590000D01*
X194065000Y-63590000D01*
X193990000Y-63665000D01*
X193990000Y-63819547D01*
X194001529Y-63877506D01*
X194024143Y-63932103D01*
X194056975Y-63981239D01*
X194067128Y-63991392D01*
X194035343Y-64028685D01*
X194000484Y-64106018D01*
X193988549Y-64190000D01*
X193988549Y-64204791D01*
X193976923Y-64208301D01*
X193941453Y-64218606D01*
X193939585Y-64219574D01*
X193937572Y-64220182D01*
X193904942Y-64237531D01*
X193872145Y-64254532D01*
X193870502Y-64255844D01*
X193868643Y-64256832D01*
X193839989Y-64280202D01*
X193811134Y-64303236D01*
X193808204Y-64306124D01*
X193808146Y-64306172D01*
X193808101Y-64306226D01*
X193807157Y-64307157D01*
X193507157Y-64607157D01*
X193483677Y-64635742D01*
X193459955Y-64664013D01*
X193458942Y-64665855D01*
X193457606Y-64667482D01*
X193440142Y-64700053D01*
X193422346Y-64732423D01*
X193421710Y-64734429D01*
X193420716Y-64736282D01*
X193409925Y-64771579D01*
X193398741Y-64806835D01*
X193398506Y-64808929D01*
X193397892Y-64810938D01*
X193395272Y-64836731D01*
X193328150Y-64902461D01*
X193261672Y-64999549D01*
X193215318Y-65107700D01*
X193190854Y-65222795D01*
X193189211Y-65340450D01*
X193210452Y-65456183D01*
X193253768Y-65565586D01*
X193317509Y-65664492D01*
X193390000Y-65739558D01*
X193390000Y-66558532D01*
X193361197Y-66567452D01*
X193290366Y-66614126D01*
X193235343Y-66678685D01*
X193200484Y-66756018D01*
X193188549Y-66840000D01*
X193141451Y-66840000D01*
X193137641Y-66792226D01*
X193112548Y-66711197D01*
X193065874Y-66640366D01*
X193001315Y-66585343D01*
X192923982Y-66550484D01*
X192840000Y-66538549D01*
X192504235Y-66538549D01*
X192140000Y-66174314D01*
X192140000Y-64145888D01*
X192136389Y-64109059D01*
X192133174Y-64072308D01*
X192132587Y-64070289D01*
X192132382Y-64068194D01*
X192121694Y-64032795D01*
X192121611Y-64032508D01*
X192155177Y-64066074D01*
X192153999Y-64150450D01*
X192175240Y-64266183D01*
X192218556Y-64375586D01*
X192282297Y-64474492D01*
X192364035Y-64559134D01*
X192460656Y-64626287D01*
X192568481Y-64673395D01*
X192683402Y-64698662D01*
X192801042Y-64701126D01*
X192916921Y-64680694D01*
X193026623Y-64638143D01*
X193125972Y-64575094D01*
X193211183Y-64493949D01*
X193279009Y-64397799D01*
X193326868Y-64290306D01*
X193352937Y-64175564D01*
X193354814Y-64041167D01*
X193331959Y-63925742D01*
X193287120Y-63816954D01*
X193222004Y-63718948D01*
X193139093Y-63635455D01*
X193041543Y-63569657D01*
X192933071Y-63524060D01*
X192817809Y-63500400D01*
X192720191Y-63499718D01*
X192180927Y-62960453D01*
X193990000Y-62960453D01*
X193990000Y-63115000D01*
X194065000Y-63190000D01*
X194415000Y-63190000D01*
X194415000Y-62765000D01*
X194665000Y-62765000D01*
X194665000Y-63190000D01*
X195015000Y-63190000D01*
X195090000Y-63115000D01*
X195090000Y-62960453D01*
X195078471Y-62902494D01*
X195055857Y-62847897D01*
X195023025Y-62798761D01*
X194981239Y-62756975D01*
X194932104Y-62724144D01*
X194877507Y-62701529D01*
X194819548Y-62690000D01*
X194740000Y-62690000D01*
X194665000Y-62765000D01*
X194415000Y-62765000D01*
X194340000Y-62690000D01*
X194260452Y-62690000D01*
X194202493Y-62701529D01*
X194147896Y-62724144D01*
X194098761Y-62756975D01*
X194056975Y-62798761D01*
X194024143Y-62847897D01*
X194001529Y-62902494D01*
X193990000Y-62960453D01*
X192180927Y-62960453D01*
X190390000Y-61169526D01*
X190390000Y-60073296D01*
X190402494Y-60078471D01*
X190460453Y-60090000D01*
X190490000Y-60090000D01*
X190565000Y-60015000D01*
X190565000Y-59590000D01*
X190490000Y-59590000D01*
X190490000Y-59190000D01*
X190565000Y-59190000D01*
X190565000Y-59120000D01*
X190715000Y-59120000D01*
X190715000Y-59190000D01*
X190790000Y-59190000D01*
X190790000Y-59590000D01*
X190715000Y-59590000D01*
X190715000Y-60015000D01*
X190790000Y-60090000D01*
X190819547Y-60090000D01*
X190877506Y-60078471D01*
X190932103Y-60055857D01*
X190965580Y-60033488D01*
X190978685Y-60044657D01*
X191056018Y-60079516D01*
X191140000Y-60091451D01*
X191440000Y-60091451D01*
X191487774Y-60087641D01*
X191568803Y-60062548D01*
X191639634Y-60015874D01*
X191694657Y-59951315D01*
X191729516Y-59873982D01*
X191741451Y-59790000D01*
X191741451Y-59725000D01*
X192100000Y-59725000D01*
X192100000Y-59929547D01*
X192111529Y-59987506D01*
X192134143Y-60042103D01*
X192166975Y-60091239D01*
X192208761Y-60133025D01*
X192257896Y-60165856D01*
X192312493Y-60188471D01*
X192370452Y-60200000D01*
X192675000Y-60200000D01*
X192750000Y-60125000D01*
X192750000Y-59650000D01*
X193250000Y-59650000D01*
X193250000Y-60125000D01*
X193325000Y-60200000D01*
X193629548Y-60200000D01*
X193687507Y-60188471D01*
X193742104Y-60165856D01*
X193791239Y-60133025D01*
X193833025Y-60091239D01*
X193865857Y-60042103D01*
X193888471Y-59987506D01*
X193900000Y-59929547D01*
X193900000Y-59725000D01*
X193825000Y-59650000D01*
X193250000Y-59650000D01*
X192750000Y-59650000D01*
X192175000Y-59650000D01*
X192100000Y-59725000D01*
X191741451Y-59725000D01*
X191741451Y-59504235D01*
X192135343Y-59110343D01*
X192175000Y-59150000D01*
X192750000Y-59150000D01*
X192750000Y-58675000D01*
X193250000Y-58675000D01*
X193250000Y-59150000D01*
X193825000Y-59150000D01*
X193900000Y-59075000D01*
X193900000Y-58950000D01*
X193948549Y-58950000D01*
X193948549Y-60150000D01*
X193952359Y-60197774D01*
X193977452Y-60278803D01*
X194000348Y-60313549D01*
X194004958Y-60360564D01*
X194009386Y-60411175D01*
X194010193Y-60413952D01*
X194010475Y-60416831D01*
X194025162Y-60465478D01*
X194039333Y-60514254D01*
X194040664Y-60516821D01*
X194041500Y-60519591D01*
X194065368Y-60564481D01*
X194088732Y-60609554D01*
X194090534Y-60611812D01*
X194091893Y-60614367D01*
X194124035Y-60653777D01*
X194155700Y-60693443D01*
X194159668Y-60697468D01*
X194159736Y-60697551D01*
X194159813Y-60697614D01*
X194161091Y-60698911D01*
X194451091Y-60988910D01*
X194490344Y-61021153D01*
X194529267Y-61053813D01*
X194531800Y-61055206D01*
X194534037Y-61057043D01*
X194578855Y-61081074D01*
X194623331Y-61105525D01*
X194626085Y-61106399D01*
X194628637Y-61107767D01*
X194677266Y-61122634D01*
X194725648Y-61137982D01*
X194728520Y-61138304D01*
X194731287Y-61139150D01*
X194781869Y-61144288D01*
X194832320Y-61149947D01*
X194837969Y-61149987D01*
X194838080Y-61149998D01*
X194838183Y-61149988D01*
X194839999Y-61150001D01*
X196160001Y-61150001D01*
X196210563Y-61145043D01*
X196261174Y-61140615D01*
X196263951Y-61139808D01*
X196266830Y-61139526D01*
X196315477Y-61124839D01*
X196364253Y-61110668D01*
X196366820Y-61109337D01*
X196369590Y-61108501D01*
X196414480Y-61084633D01*
X196459553Y-61061269D01*
X196461811Y-61059467D01*
X196464366Y-61058108D01*
X196503776Y-61025966D01*
X196543442Y-60994301D01*
X196547467Y-60990333D01*
X196547550Y-60990265D01*
X196547613Y-60990188D01*
X196548910Y-60988910D01*
X196838909Y-60698910D01*
X196871152Y-60659657D01*
X196903812Y-60620734D01*
X196905205Y-60618201D01*
X196907042Y-60615964D01*
X196931073Y-60571146D01*
X196955524Y-60526670D01*
X196956398Y-60523916D01*
X196957766Y-60521364D01*
X196972633Y-60472735D01*
X196987981Y-60424353D01*
X196988303Y-60421481D01*
X196989149Y-60418714D01*
X196994287Y-60368132D01*
X196999946Y-60317681D01*
X196999952Y-60316835D01*
X197004657Y-60311315D01*
X197039516Y-60233982D01*
X197051451Y-60150000D01*
X197051451Y-60100000D01*
X197174555Y-60100000D01*
X197238685Y-60154657D01*
X197300000Y-60182296D01*
X197300000Y-61557893D01*
X197275366Y-61574126D01*
X197220343Y-61638685D01*
X197185484Y-61716018D01*
X197173549Y-61800000D01*
X197173549Y-61900000D01*
X196966451Y-61900000D01*
X196966451Y-61800000D01*
X196962641Y-61752226D01*
X196937548Y-61671197D01*
X196890874Y-61600366D01*
X196826315Y-61545343D01*
X196748982Y-61510484D01*
X196665000Y-61498549D01*
X195415000Y-61498549D01*
X195367226Y-61502359D01*
X195286197Y-61527452D01*
X195215366Y-61574126D01*
X195160343Y-61638685D01*
X195125484Y-61716018D01*
X195113549Y-61800000D01*
X195113549Y-63600000D01*
X195117359Y-63647774D01*
X195142452Y-63728803D01*
X195189126Y-63799634D01*
X195253685Y-63854657D01*
X195331018Y-63889516D01*
X195415000Y-63901451D01*
X196665000Y-63901451D01*
X196712774Y-63897641D01*
X196793803Y-63872548D01*
X196864634Y-63825874D01*
X196919657Y-63761315D01*
X196954516Y-63683982D01*
X196966451Y-63600000D01*
X196966451Y-63500000D01*
X197173549Y-63500000D01*
X197173549Y-63600000D01*
X197177359Y-63647774D01*
X197202452Y-63728803D01*
X197249126Y-63799634D01*
X197313685Y-63854657D01*
X197391018Y-63889516D01*
X197475000Y-63901451D01*
X198725000Y-63901451D01*
X198772774Y-63897641D01*
X198853803Y-63872548D01*
X198924634Y-63825874D01*
X198979657Y-63761315D01*
X199014516Y-63683982D01*
X199026451Y-63600000D01*
X199026451Y-63208661D01*
X199068685Y-63244657D01*
X199146018Y-63279516D01*
X199230000Y-63291451D01*
X201770000Y-63291451D01*
X201788194Y-63290000D01*
X202300000Y-63290000D01*
X202503946Y-63270003D01*
X202700124Y-63210773D01*
X202881061Y-63114567D01*
X203039866Y-62985049D01*
X203170489Y-62827153D01*
X203267956Y-62646891D01*
X203328554Y-62451132D01*
X203349974Y-62247330D01*
X203331402Y-62043250D01*
X203273543Y-61846663D01*
X203178603Y-61665059D01*
X203050196Y-61505353D01*
X202893215Y-61373631D01*
X202713639Y-61274908D01*
X202518307Y-61212945D01*
X202314660Y-61190102D01*
X202300000Y-61190000D01*
X201780210Y-61190000D01*
X201770000Y-61188549D01*
X199230000Y-61188549D01*
X199182226Y-61192359D01*
X199101197Y-61217452D01*
X199030366Y-61264126D01*
X198975343Y-61328685D01*
X198940484Y-61406018D01*
X198928549Y-61490000D01*
X198928549Y-61581339D01*
X198900000Y-61557007D01*
X198900000Y-60500000D01*
X198933048Y-60500000D01*
X198957452Y-60578803D01*
X199004126Y-60649634D01*
X199068685Y-60704657D01*
X199146018Y-60739516D01*
X199230000Y-60751451D01*
X201770000Y-60751451D01*
X201788194Y-60750000D01*
X203265076Y-60750000D01*
X203950000Y-61434924D01*
X203950000Y-64534314D01*
X203232843Y-63817157D01*
X203204258Y-63793677D01*
X203175987Y-63769955D01*
X203174145Y-63768942D01*
X203172518Y-63767606D01*
X203139947Y-63750142D01*
X203107577Y-63732346D01*
X203105571Y-63731710D01*
X203103718Y-63730716D01*
X203068421Y-63719925D01*
X203033165Y-63708741D01*
X203031071Y-63708506D01*
X203029062Y-63707892D01*
X202992313Y-63704159D01*
X202955585Y-63700039D01*
X202951478Y-63700010D01*
X202951396Y-63700002D01*
X202951320Y-63700009D01*
X202950000Y-63700000D01*
X199948400Y-63700000D01*
X199884305Y-63635455D01*
X199786755Y-63569657D01*
X199678283Y-63524060D01*
X199563021Y-63500400D01*
X199445357Y-63499578D01*
X199329775Y-63521627D01*
X199220677Y-63565705D01*
X199122219Y-63630135D01*
X199038150Y-63712461D01*
X198971672Y-63809549D01*
X198925318Y-63917700D01*
X198900854Y-64032795D01*
X198899211Y-64150450D01*
X198900288Y-64156317D01*
X198867104Y-64134144D01*
X198812507Y-64111529D01*
X198754548Y-64100000D01*
X198425000Y-64100000D01*
X198350000Y-64175000D01*
X198350000Y-65050000D01*
X198370000Y-65050000D01*
X198370000Y-65550000D01*
X198350000Y-65550000D01*
X198350000Y-66425000D01*
X198425000Y-66500000D01*
X198754548Y-66500000D01*
X198812507Y-66488471D01*
X198867104Y-66465856D01*
X198916239Y-66433025D01*
X198950000Y-66399264D01*
X198950000Y-66439548D01*
X198961529Y-66497507D01*
X198984144Y-66552104D01*
X199016975Y-66601239D01*
X199046492Y-66630756D01*
X199014982Y-66647511D01*
X198982145Y-66664531D01*
X198980498Y-66665845D01*
X198978643Y-66666832D01*
X198950016Y-66690179D01*
X198921134Y-66713236D01*
X198918204Y-66716124D01*
X198918146Y-66716172D01*
X198918101Y-66716226D01*
X198917157Y-66717157D01*
X198557157Y-67077157D01*
X198533677Y-67105742D01*
X198509955Y-67134013D01*
X198508942Y-67135855D01*
X198507606Y-67137482D01*
X198490172Y-67169997D01*
X198472346Y-67202423D01*
X198471710Y-67204429D01*
X198470716Y-67206282D01*
X198459925Y-67241579D01*
X198448741Y-67276835D01*
X198448506Y-67278929D01*
X198447892Y-67280938D01*
X198444159Y-67317687D01*
X198440039Y-67354415D01*
X198440010Y-67358522D01*
X198440002Y-67358604D01*
X198440009Y-67358680D01*
X198440000Y-67360000D01*
X198440000Y-69580000D01*
X198443607Y-69616784D01*
X198446826Y-69653580D01*
X198447413Y-69655599D01*
X198447618Y-69657694D01*
X198458301Y-69693077D01*
X198468606Y-69728547D01*
X198469574Y-69730415D01*
X198470182Y-69732428D01*
X198487531Y-69765058D01*
X198504532Y-69797855D01*
X198505844Y-69799498D01*
X198506832Y-69801357D01*
X198530202Y-69830011D01*
X198553236Y-69858866D01*
X198556124Y-69861796D01*
X198556172Y-69861854D01*
X198556226Y-69861899D01*
X198557157Y-69862843D01*
X198948549Y-70254235D01*
X198948549Y-71490000D01*
X198952359Y-71537774D01*
X198977452Y-71618803D01*
X199024126Y-71689634D01*
X199088685Y-71744657D01*
X199166018Y-71779516D01*
X199250000Y-71791451D01*
X201790000Y-71791451D01*
X201808194Y-71790000D01*
X202300000Y-71790000D01*
X202503946Y-71770003D01*
X202700124Y-71710773D01*
X202881061Y-71614567D01*
X203039866Y-71485049D01*
X203170489Y-71327153D01*
X203267956Y-71146891D01*
X203328554Y-70951132D01*
X203349974Y-70747330D01*
X203331402Y-70543250D01*
X203273543Y-70346663D01*
X203178603Y-70165059D01*
X203050196Y-70005353D01*
X202893215Y-69873631D01*
X202713639Y-69774908D01*
X202518307Y-69712945D01*
X202314660Y-69690102D01*
X202300000Y-69690000D01*
X201800210Y-69690000D01*
X201790000Y-69688549D01*
X199514235Y-69688549D01*
X199240000Y-69414314D01*
X199240000Y-69250030D01*
X199250000Y-69251451D01*
X201790000Y-69251451D01*
X201808194Y-69250000D01*
X203600000Y-69250000D01*
X203696509Y-69240537D01*
X203793149Y-69232082D01*
X203798450Y-69230542D01*
X203803946Y-69230003D01*
X203896800Y-69201969D01*
X203989936Y-69174910D01*
X203994838Y-69172369D01*
X204000124Y-69170773D01*
X204085749Y-69125245D01*
X204171871Y-69080604D01*
X204176187Y-69077158D01*
X204181061Y-69074567D01*
X204256196Y-69013288D01*
X204332024Y-68952756D01*
X204339709Y-68945177D01*
X204339866Y-68945049D01*
X204339986Y-68944903D01*
X204342462Y-68942462D01*
X205742462Y-67542462D01*
X205804025Y-67467513D01*
X205866369Y-67393215D01*
X205869028Y-67388378D01*
X205872534Y-67384110D01*
X205918382Y-67298604D01*
X205965092Y-67213639D01*
X205966761Y-67208378D01*
X205969371Y-67203510D01*
X205997723Y-67110772D01*
X206027055Y-67018307D01*
X206027671Y-67012816D01*
X206029284Y-67007540D01*
X206039077Y-66911127D01*
X206049898Y-66814660D01*
X206049973Y-66803861D01*
X206049993Y-66803665D01*
X206049976Y-66803483D01*
X206050000Y-66800000D01*
X206050000Y-61000000D01*
X206040537Y-60903491D01*
X206032082Y-60806851D01*
X206030542Y-60801550D01*
X206030003Y-60796054D01*
X206001969Y-60703200D01*
X205974910Y-60610064D01*
X205972369Y-60605162D01*
X205970773Y-60599876D01*
X205925245Y-60514251D01*
X205880604Y-60428129D01*
X205877158Y-60423813D01*
X205874567Y-60418939D01*
X205813288Y-60343804D01*
X205752756Y-60267976D01*
X205745177Y-60260291D01*
X205745049Y-60260134D01*
X205744903Y-60260014D01*
X205742462Y-60257538D01*
X204442462Y-58957538D01*
X204367492Y-58895956D01*
X204293215Y-58833631D01*
X204288381Y-58830974D01*
X204284111Y-58827466D01*
X204198583Y-58781606D01*
X204113639Y-58734908D01*
X204108378Y-58733239D01*
X204103510Y-58730629D01*
X204010772Y-58702277D01*
X203918307Y-58672945D01*
X203912816Y-58672329D01*
X203907540Y-58670716D01*
X203811127Y-58660923D01*
X203714660Y-58650102D01*
X203703861Y-58650027D01*
X203703665Y-58650007D01*
X203703483Y-58650024D01*
X203700000Y-58650000D01*
X201780210Y-58650000D01*
X201770000Y-58648549D01*
X199230000Y-58648549D01*
X199182226Y-58652359D01*
X199101197Y-58677452D01*
X199030366Y-58724126D01*
X198975343Y-58788685D01*
X198940484Y-58866018D01*
X198935655Y-58900000D01*
X198901451Y-58900000D01*
X198897641Y-58852226D01*
X198872548Y-58771197D01*
X198825874Y-58700366D01*
X198761315Y-58645343D01*
X198683982Y-58610484D01*
X198600000Y-58598549D01*
X197400000Y-58598549D01*
X197352226Y-58602359D01*
X197271197Y-58627452D01*
X197200366Y-58674126D01*
X197145343Y-58738685D01*
X197110484Y-58816018D01*
X197098549Y-58900000D01*
X197098549Y-59000000D01*
X197051451Y-59000000D01*
X197051451Y-58950000D01*
X197047641Y-58902226D01*
X197022548Y-58821197D01*
X196975874Y-58750366D01*
X196911315Y-58695343D01*
X196833982Y-58660484D01*
X196750000Y-58648549D01*
X196150000Y-58648549D01*
X196102226Y-58652359D01*
X196021197Y-58677452D01*
X195976333Y-58707015D01*
X195942103Y-58684143D01*
X195887506Y-58661529D01*
X195829547Y-58650000D01*
X195725000Y-58650000D01*
X195650000Y-58725000D01*
X195650000Y-59300000D01*
X195770000Y-59300000D01*
X195770000Y-59800000D01*
X195650000Y-59800000D01*
X195650000Y-59820000D01*
X195350000Y-59820000D01*
X195350000Y-59800000D01*
X195230000Y-59800000D01*
X195230000Y-59300000D01*
X195350000Y-59300000D01*
X195350000Y-58725000D01*
X195275000Y-58650000D01*
X195170453Y-58650000D01*
X195112494Y-58661529D01*
X195057897Y-58684143D01*
X195024420Y-58706512D01*
X195011315Y-58695343D01*
X194933982Y-58660484D01*
X194850000Y-58648549D01*
X194250000Y-58648549D01*
X194202226Y-58652359D01*
X194121197Y-58677452D01*
X194050366Y-58724126D01*
X193995343Y-58788685D01*
X193960484Y-58866018D01*
X193948549Y-58950000D01*
X193900000Y-58950000D01*
X193900000Y-58870453D01*
X193888471Y-58812494D01*
X193865857Y-58757897D01*
X193833025Y-58708761D01*
X193791239Y-58666975D01*
X193742104Y-58634144D01*
X193687507Y-58611529D01*
X193629548Y-58600000D01*
X193325000Y-58600000D01*
X193250000Y-58675000D01*
X192750000Y-58675000D01*
X192675000Y-58600000D01*
X192530325Y-58600000D01*
X192538149Y-58565564D01*
X192540026Y-58431167D01*
X192517171Y-58315742D01*
X192472332Y-58206954D01*
X192468676Y-58201451D01*
X193600000Y-58201451D01*
X193647774Y-58197641D01*
X193728803Y-58172548D01*
X193799634Y-58125874D01*
X193854657Y-58061315D01*
X193889516Y-57983982D01*
X193901451Y-57900000D01*
X193901451Y-56900000D01*
X193897641Y-56852226D01*
X193872548Y-56771197D01*
X193825874Y-56700366D01*
X193761315Y-56645343D01*
X193683982Y-56610484D01*
X193600000Y-56598549D01*
X193550000Y-56598549D01*
X193550000Y-56450000D01*
X194028314Y-56450000D01*
X193995343Y-56488685D01*
X193960484Y-56566018D01*
X193948549Y-56650000D01*
X193948549Y-57850000D01*
X193952359Y-57897774D01*
X193977452Y-57978803D01*
X194024126Y-58049634D01*
X194088685Y-58104657D01*
X194166018Y-58139516D01*
X194250000Y-58151451D01*
X194850000Y-58151451D01*
X194897774Y-58147641D01*
X194978803Y-58122548D01*
X195049634Y-58075874D01*
X195104657Y-58011315D01*
X195139516Y-57933982D01*
X195151451Y-57850000D01*
X195151451Y-56650000D01*
X195147641Y-56602226D01*
X195122548Y-56521197D01*
X195075874Y-56450366D01*
X195075445Y-56450000D01*
X195172182Y-56450000D01*
X195848549Y-57126367D01*
X195848549Y-57850000D01*
X195852359Y-57897774D01*
X195877452Y-57978803D01*
X195924126Y-58049634D01*
X195988685Y-58104657D01*
X196066018Y-58139516D01*
X196150000Y-58151451D01*
X196750000Y-58151451D01*
X196797774Y-58147641D01*
X196878803Y-58122548D01*
X196949634Y-58075874D01*
X197004657Y-58011315D01*
X197039516Y-57933982D01*
X197051451Y-57850000D01*
X197051451Y-57725000D01*
X197100000Y-57725000D01*
X197100000Y-57929547D01*
X197111529Y-57987506D01*
X197134143Y-58042103D01*
X197166975Y-58091239D01*
X197208761Y-58133025D01*
X197257896Y-58165856D01*
X197312493Y-58188471D01*
X197370452Y-58200000D01*
X197675000Y-58200000D01*
X197750000Y-58125000D01*
X197750000Y-57650000D01*
X198250000Y-57650000D01*
X198250000Y-58125000D01*
X198325000Y-58200000D01*
X198629548Y-58200000D01*
X198687507Y-58188471D01*
X198742104Y-58165856D01*
X198791239Y-58133025D01*
X198833025Y-58091239D01*
X198865857Y-58042103D01*
X198888471Y-57987506D01*
X198900000Y-57929547D01*
X198900000Y-57725000D01*
X198825000Y-57650000D01*
X198250000Y-57650000D01*
X197750000Y-57650000D01*
X197175000Y-57650000D01*
X197100000Y-57725000D01*
X197051451Y-57725000D01*
X197051451Y-57485000D01*
X198930000Y-57485000D01*
X198930000Y-57939548D01*
X198941529Y-57997507D01*
X198964144Y-58052104D01*
X198996975Y-58101239D01*
X199038761Y-58143025D01*
X199087897Y-58175857D01*
X199142494Y-58198471D01*
X199200453Y-58210000D01*
X200175000Y-58210000D01*
X200250000Y-58135000D01*
X200250000Y-57410000D01*
X200750000Y-57410000D01*
X200750000Y-58135000D01*
X200825000Y-58210000D01*
X201799547Y-58210000D01*
X201857506Y-58198471D01*
X201912103Y-58175857D01*
X201961239Y-58143025D01*
X202003025Y-58101239D01*
X202035856Y-58052104D01*
X202058471Y-57997507D01*
X202070000Y-57939548D01*
X202070000Y-57485000D01*
X201995000Y-57410000D01*
X200750000Y-57410000D01*
X200250000Y-57410000D01*
X199005000Y-57410000D01*
X198930000Y-57485000D01*
X197051451Y-57485000D01*
X197051451Y-56870453D01*
X197100000Y-56870453D01*
X197100000Y-57075000D01*
X197175000Y-57150000D01*
X197750000Y-57150000D01*
X197750000Y-56675000D01*
X198250000Y-56675000D01*
X198250000Y-57150000D01*
X198825000Y-57150000D01*
X198900000Y-57075000D01*
X198900000Y-56870453D01*
X198888471Y-56812494D01*
X198865857Y-56757897D01*
X198833025Y-56708761D01*
X198791239Y-56666975D01*
X198742104Y-56634144D01*
X198687507Y-56611529D01*
X198629548Y-56600000D01*
X198325000Y-56600000D01*
X198250000Y-56675000D01*
X197750000Y-56675000D01*
X197675000Y-56600000D01*
X197370452Y-56600000D01*
X197312493Y-56611529D01*
X197257896Y-56634144D01*
X197208761Y-56666975D01*
X197166975Y-56708761D01*
X197134143Y-56757897D01*
X197111529Y-56812494D01*
X197100000Y-56870453D01*
X197051451Y-56870453D01*
X197051451Y-56650000D01*
X197047641Y-56602226D01*
X197022548Y-56521197D01*
X196975874Y-56450366D01*
X196911315Y-56395343D01*
X196878281Y-56380452D01*
X198930000Y-56380452D01*
X198930000Y-56835000D01*
X199005000Y-56910000D01*
X200250000Y-56910000D01*
X200250000Y-56185000D01*
X200750000Y-56185000D01*
X200750000Y-56910000D01*
X201995000Y-56910000D01*
X202070000Y-56835000D01*
X202070000Y-56380452D01*
X202058471Y-56322493D01*
X202035856Y-56267896D01*
X202003025Y-56218761D01*
X201961239Y-56176975D01*
X201912103Y-56144143D01*
X201857506Y-56121529D01*
X201799547Y-56110000D01*
X200825000Y-56110000D01*
X200750000Y-56185000D01*
X200250000Y-56185000D01*
X200175000Y-56110000D01*
X199200453Y-56110000D01*
X199142494Y-56121529D01*
X199087897Y-56144143D01*
X199038761Y-56176975D01*
X198996975Y-56218761D01*
X198964144Y-56267896D01*
X198941529Y-56322493D01*
X198930000Y-56380452D01*
X196878281Y-56380452D01*
X196833982Y-56360484D01*
X196750000Y-56348549D01*
X196626367Y-56348549D01*
X195788909Y-55511091D01*
X195749657Y-55478850D01*
X195710732Y-55446188D01*
X195708195Y-55444793D01*
X195705962Y-55442959D01*
X195661183Y-55418948D01*
X195616668Y-55394476D01*
X195613914Y-55393602D01*
X195611362Y-55392234D01*
X195562733Y-55377367D01*
X195514351Y-55362019D01*
X195511479Y-55361697D01*
X195508712Y-55360851D01*
X195458125Y-55355712D01*
X195407679Y-55350054D01*
X195402031Y-55350014D01*
X195401920Y-55350003D01*
X195401817Y-55350013D01*
X195400000Y-55350000D01*
X193151050Y-55350000D01*
X193182080Y-55280306D01*
X193208149Y-55165564D01*
X193210026Y-55031167D01*
X193187171Y-54915742D01*
X193185903Y-54912665D01*
X193237020Y-54861548D01*
X193579514Y-55043655D01*
X193623484Y-55062719D01*
X193706809Y-55078604D01*
X193791261Y-55070646D01*
X193870152Y-55039476D01*
X193937236Y-54987561D01*
X193987201Y-54919012D01*
X194644461Y-53682885D01*
X194663526Y-53638914D01*
X194679411Y-53555589D01*
X194671453Y-53471137D01*
X194659593Y-53441118D01*
X195734052Y-53441118D01*
X195765063Y-53542549D01*
X196387141Y-53873314D01*
X196443728Y-53890345D01*
X196502551Y-53896009D01*
X196561349Y-53890088D01*
X196617861Y-53872811D01*
X196669917Y-53844841D01*
X196715517Y-53807251D01*
X196752906Y-53761489D01*
X196780650Y-53709311D01*
X196848936Y-53580884D01*
X196817925Y-53479453D01*
X195957051Y-53021718D01*
X195734052Y-53441118D01*
X194659593Y-53441118D01*
X194640283Y-53392245D01*
X194588367Y-53325161D01*
X194519818Y-53275196D01*
X193636870Y-52805725D01*
X193592900Y-52786661D01*
X193509575Y-52770776D01*
X193425123Y-52778734D01*
X193346232Y-52809904D01*
X193279148Y-52861819D01*
X193229183Y-52930368D01*
X192571923Y-54166495D01*
X192552858Y-54210466D01*
X192536973Y-54293791D01*
X192544931Y-54378243D01*
X192557398Y-54409798D01*
X192459292Y-54507904D01*
X192439775Y-54511627D01*
X192330677Y-54555705D01*
X192232219Y-54620135D01*
X192148150Y-54702461D01*
X192081672Y-54799549D01*
X192035318Y-54907700D01*
X192010854Y-55022795D01*
X192009211Y-55140450D01*
X192030452Y-55256183D01*
X192067597Y-55350000D01*
X188501451Y-55350000D01*
X188501451Y-55275000D01*
X188497641Y-55227226D01*
X188472548Y-55146197D01*
X188425874Y-55075366D01*
X188361315Y-55020343D01*
X188283982Y-54985484D01*
X188200000Y-54973549D01*
X186400000Y-54973549D01*
X186352226Y-54977359D01*
X186271197Y-55002452D01*
X186200366Y-55049126D01*
X186145343Y-55113685D01*
X186110484Y-55191018D01*
X186098549Y-55275000D01*
X186098549Y-56525000D01*
X186102359Y-56572774D01*
X186127452Y-56653803D01*
X186174126Y-56724634D01*
X186238685Y-56779657D01*
X186316018Y-56814516D01*
X186400000Y-56826451D01*
X186400731Y-56826451D01*
X186388633Y-56838549D01*
X186215000Y-56838549D01*
X186167226Y-56842359D01*
X186086197Y-56867452D01*
X186015366Y-56914126D01*
X186014457Y-56915193D01*
X186006239Y-56906975D01*
X185957103Y-56874143D01*
X185902506Y-56851529D01*
X185844547Y-56840000D01*
X185690000Y-56840000D01*
X185615000Y-56915000D01*
X185615000Y-57265000D01*
X185685000Y-57265000D01*
X185685000Y-57515000D01*
X185615000Y-57515000D01*
X185615000Y-57865000D01*
X185690000Y-57940000D01*
X185844547Y-57940000D01*
X185902506Y-57928471D01*
X185957103Y-57905857D01*
X186006239Y-57873025D01*
X186016392Y-57862872D01*
X186053685Y-57894657D01*
X186131018Y-57929516D01*
X186215000Y-57941451D01*
X186750765Y-57941451D01*
X187360681Y-58551366D01*
X187360681Y-58705909D01*
X187343501Y-58688729D01*
X187331689Y-58700541D01*
X187330535Y-58700063D01*
X187324763Y-58684817D01*
X187273818Y-58616994D01*
X187061686Y-58404862D01*
X187025211Y-58373775D01*
X186950171Y-58334222D01*
X186867082Y-58317141D01*
X186782525Y-58323883D01*
X186703193Y-58353917D01*
X186635370Y-58404862D01*
X186626643Y-58413589D01*
X186617171Y-58365753D01*
X186572332Y-58256965D01*
X186507216Y-58158959D01*
X186424305Y-58075466D01*
X186326755Y-58009668D01*
X186218283Y-57964071D01*
X186103021Y-57940411D01*
X185985357Y-57939589D01*
X185869775Y-57961638D01*
X185760677Y-58005716D01*
X185662219Y-58070146D01*
X185578150Y-58152472D01*
X185511672Y-58249560D01*
X185465318Y-58357711D01*
X185440854Y-58472806D01*
X185440740Y-58480972D01*
X185364630Y-58404862D01*
X185328155Y-58373775D01*
X185253115Y-58334222D01*
X185170026Y-58317141D01*
X185085469Y-58323883D01*
X185006137Y-58353917D01*
X184938314Y-58404862D01*
X184761538Y-58581638D01*
X183900000Y-57720100D01*
X183900000Y-57590000D01*
X184715000Y-57590000D01*
X184715000Y-57669548D01*
X184726529Y-57727507D01*
X184749144Y-57782104D01*
X184781975Y-57831239D01*
X184823761Y-57873025D01*
X184872897Y-57905857D01*
X184927494Y-57928471D01*
X184985453Y-57940000D01*
X185140000Y-57940000D01*
X185215000Y-57865000D01*
X185215000Y-57515000D01*
X184790000Y-57515000D01*
X184715000Y-57590000D01*
X183900000Y-57590000D01*
X183900000Y-57110452D01*
X184715000Y-57110452D01*
X184715000Y-57190000D01*
X184790000Y-57265000D01*
X185215000Y-57265000D01*
X185215000Y-56915000D01*
X185140000Y-56840000D01*
X184985453Y-56840000D01*
X184927494Y-56851529D01*
X184872897Y-56874143D01*
X184823761Y-56906975D01*
X184781975Y-56948761D01*
X184749144Y-56997896D01*
X184726529Y-57052493D01*
X184715000Y-57110452D01*
X183900000Y-57110452D01*
X183900000Y-56825000D01*
X184375000Y-56825000D01*
X184450000Y-56750000D01*
X184450000Y-56150000D01*
X184950000Y-56150000D01*
X184950000Y-56750000D01*
X185025000Y-56825000D01*
X185629547Y-56825000D01*
X185687506Y-56813471D01*
X185742103Y-56790857D01*
X185791239Y-56758025D01*
X185833025Y-56716239D01*
X185865856Y-56667104D01*
X185888471Y-56612507D01*
X185900000Y-56554548D01*
X185900000Y-56225000D01*
X185825000Y-56150000D01*
X184950000Y-56150000D01*
X184450000Y-56150000D01*
X184430000Y-56150000D01*
X184430000Y-55650000D01*
X184450000Y-55650000D01*
X184450000Y-55050000D01*
X184950000Y-55050000D01*
X184950000Y-55650000D01*
X185825000Y-55650000D01*
X185900000Y-55575000D01*
X185900000Y-55245452D01*
X185888471Y-55187493D01*
X185865856Y-55132896D01*
X185833025Y-55083761D01*
X185791239Y-55041975D01*
X185742103Y-55009143D01*
X185687506Y-54986529D01*
X185629547Y-54975000D01*
X185025000Y-54975000D01*
X184950000Y-55050000D01*
X184450000Y-55050000D01*
X184375000Y-54975000D01*
X183900000Y-54975000D01*
X183900000Y-52887004D01*
X189686288Y-52887004D01*
X189717298Y-52988436D01*
X189897903Y-53084465D01*
X189954490Y-53101495D01*
X190013313Y-53107160D01*
X190072111Y-53101239D01*
X190128623Y-53083962D01*
X190180679Y-53055991D01*
X190226278Y-53018402D01*
X190263668Y-52972640D01*
X190291411Y-52920462D01*
X190431882Y-52656274D01*
X194434548Y-52656274D01*
X194440468Y-52715071D01*
X194457746Y-52771583D01*
X194485717Y-52823640D01*
X194523306Y-52869238D01*
X194569069Y-52906628D01*
X195191147Y-53237393D01*
X195292578Y-53206382D01*
X195515577Y-52786982D01*
X194654703Y-52329247D01*
X194553272Y-52360258D01*
X194484986Y-52488685D01*
X194457242Y-52540863D01*
X194440212Y-52597450D01*
X194434548Y-52656274D01*
X190431882Y-52656274D01*
X190453592Y-52615445D01*
X190422581Y-52514014D01*
X190003181Y-52291015D01*
X189686288Y-52887004D01*
X183900000Y-52887004D01*
X183900000Y-52336896D01*
X188828257Y-52336896D01*
X188834178Y-52395693D01*
X188851455Y-52452205D01*
X188879426Y-52504262D01*
X188917016Y-52549861D01*
X188962778Y-52587250D01*
X189143382Y-52683279D01*
X189244814Y-52652269D01*
X189561707Y-52056279D01*
X189172890Y-51849541D01*
X190237917Y-51849541D01*
X190657317Y-52072540D01*
X190758748Y-52041529D01*
X190920929Y-51736512D01*
X190948672Y-51684335D01*
X190965703Y-51627747D01*
X190971367Y-51568924D01*
X190965446Y-51510127D01*
X190948169Y-51453615D01*
X190920198Y-51401558D01*
X190882608Y-51355959D01*
X190836846Y-51318570D01*
X190656242Y-51222541D01*
X190554810Y-51253551D01*
X190237917Y-51849541D01*
X189172890Y-51849541D01*
X189142307Y-51833280D01*
X189040876Y-51864291D01*
X188878695Y-52169308D01*
X188850952Y-52221485D01*
X188833921Y-52278073D01*
X188828257Y-52336896D01*
X183900000Y-52336896D01*
X183900000Y-51995323D01*
X183981735Y-52038782D01*
X184025706Y-52057847D01*
X184109031Y-52073732D01*
X184193483Y-52065774D01*
X184272374Y-52034604D01*
X184339458Y-51982689D01*
X184389423Y-51914140D01*
X184721084Y-51290375D01*
X189346032Y-51290375D01*
X189377043Y-51391806D01*
X189796443Y-51614805D01*
X190113336Y-51018816D01*
X190082326Y-50917384D01*
X189901721Y-50821355D01*
X189845134Y-50804325D01*
X189786311Y-50798660D01*
X189727513Y-50804581D01*
X189671001Y-50821858D01*
X189618945Y-50849829D01*
X189573346Y-50887418D01*
X189535956Y-50933180D01*
X189508213Y-50985358D01*
X189346032Y-51290375D01*
X184721084Y-51290375D01*
X185088151Y-50600023D01*
X186870306Y-50600023D01*
X186901317Y-50701455D01*
X187081921Y-50797484D01*
X187138508Y-50814514D01*
X187197331Y-50820179D01*
X187256130Y-50814258D01*
X187312642Y-50796981D01*
X187364697Y-50769010D01*
X187410297Y-50731421D01*
X187447687Y-50685659D01*
X187475430Y-50633481D01*
X187729940Y-50154817D01*
X189553419Y-50154817D01*
X189584430Y-50256248D01*
X190206508Y-50587013D01*
X190263095Y-50604044D01*
X190321918Y-50609708D01*
X190380716Y-50603787D01*
X190437228Y-50586510D01*
X190489284Y-50558540D01*
X190534884Y-50520950D01*
X190572273Y-50475188D01*
X190600017Y-50423010D01*
X190668303Y-50294583D01*
X190637292Y-50193152D01*
X189776418Y-49735417D01*
X189553419Y-50154817D01*
X187729940Y-50154817D01*
X187942767Y-49754548D01*
X187911756Y-49653117D01*
X187492356Y-49430118D01*
X186870306Y-50600023D01*
X185088151Y-50600023D01*
X185187525Y-50413129D01*
X185206590Y-50369159D01*
X185222475Y-50285833D01*
X185214517Y-50201381D01*
X185183347Y-50122490D01*
X185131432Y-50055406D01*
X185123899Y-50049915D01*
X186012276Y-50049915D01*
X186018196Y-50108712D01*
X186035474Y-50165224D01*
X186063445Y-50217281D01*
X186101034Y-50262880D01*
X186146797Y-50300269D01*
X186327401Y-50396298D01*
X186428832Y-50365288D01*
X186958050Y-49369973D01*
X188253915Y-49369973D01*
X188259835Y-49428770D01*
X188277113Y-49485282D01*
X188305084Y-49537339D01*
X188342673Y-49582937D01*
X188388436Y-49620327D01*
X189010514Y-49951092D01*
X189111945Y-49920081D01*
X189334944Y-49500681D01*
X188474070Y-49042946D01*
X188372639Y-49073957D01*
X188304353Y-49202384D01*
X188276609Y-49254562D01*
X188259579Y-49311149D01*
X188253915Y-49369973D01*
X186958050Y-49369973D01*
X187050882Y-49195382D01*
X186631482Y-48972383D01*
X186530051Y-49003394D01*
X186062714Y-49882327D01*
X186034970Y-49934504D01*
X186017940Y-49991092D01*
X186012276Y-50049915D01*
X185123899Y-50049915D01*
X185062883Y-50005441D01*
X184533115Y-49723758D01*
X184489144Y-49704693D01*
X184405819Y-49688808D01*
X184321367Y-49696766D01*
X184242476Y-49727936D01*
X184175392Y-49779851D01*
X184125427Y-49848400D01*
X183445099Y-51127910D01*
X183400000Y-51173009D01*
X183400000Y-51112407D01*
X184083841Y-49826290D01*
X184102906Y-49782320D01*
X184118791Y-49698994D01*
X184110833Y-49614542D01*
X184079663Y-49535651D01*
X184027748Y-49468567D01*
X183959199Y-49418602D01*
X183429431Y-49136919D01*
X183385460Y-49117854D01*
X183302135Y-49101969D01*
X183217683Y-49109927D01*
X183138792Y-49141097D01*
X183071708Y-49193012D01*
X183021743Y-49261561D01*
X182223641Y-50762572D01*
X182204576Y-50806542D01*
X182188691Y-50889868D01*
X182196649Y-50974320D01*
X182227819Y-51053211D01*
X182279734Y-51120295D01*
X182348283Y-51170260D01*
X182600000Y-51304100D01*
X182600000Y-51906573D01*
X181313464Y-50620037D01*
X181774366Y-50865103D01*
X181818337Y-50884168D01*
X181901662Y-50900053D01*
X181986114Y-50892095D01*
X182065005Y-50860925D01*
X182132089Y-50809010D01*
X182182054Y-50740461D01*
X182980156Y-49239450D01*
X182999221Y-49195480D01*
X183015106Y-49112154D01*
X183014113Y-49101612D01*
X183291935Y-48545967D01*
X183310437Y-48497680D01*
X183329311Y-48449431D01*
X183329652Y-48447531D01*
X183330341Y-48445732D01*
X183339114Y-48394755D01*
X183348255Y-48343774D01*
X183348220Y-48341845D01*
X183348547Y-48339946D01*
X183347250Y-48288154D01*
X183346316Y-48236451D01*
X183345908Y-48234571D01*
X183345860Y-48232639D01*
X183334513Y-48182021D01*
X183323568Y-48131548D01*
X183322803Y-48129782D01*
X183322380Y-48127897D01*
X183301421Y-48080454D01*
X183280878Y-48033062D01*
X183279784Y-48031479D01*
X183279003Y-48029710D01*
X183249225Y-47987237D01*
X183219871Y-47944742D01*
X183218490Y-47943400D01*
X183217381Y-47941819D01*
X183179992Y-47906009D01*
X183142871Y-47869954D01*
X183141251Y-47868904D01*
X183139861Y-47867572D01*
X183096243Y-47839714D01*
X183052811Y-47811547D01*
X183049516Y-47809871D01*
X183049396Y-47809794D01*
X183049264Y-47809742D01*
X183045967Y-47808065D01*
X181666706Y-47118435D01*
X181584305Y-47035455D01*
X181486755Y-46969657D01*
X181378283Y-46924060D01*
X181263021Y-46900400D01*
X181145357Y-46899578D01*
X181029775Y-46921627D01*
X180920677Y-46965705D01*
X180822219Y-47030135D01*
X180742131Y-47108562D01*
X180765029Y-47065497D01*
X181232366Y-46186564D01*
X181201355Y-46085133D01*
X180781955Y-45862134D01*
X180159905Y-47032039D01*
X180190916Y-47133471D01*
X180371520Y-47229500D01*
X180428107Y-47246530D01*
X180486930Y-47252195D01*
X180545729Y-47246274D01*
X180602241Y-47228997D01*
X180654296Y-47201026D01*
X180699896Y-47163437D01*
X180720578Y-47138124D01*
X180671672Y-47209549D01*
X180625318Y-47317700D01*
X180600854Y-47432795D01*
X180599211Y-47550450D01*
X180620452Y-47666183D01*
X180663768Y-47775586D01*
X180727509Y-47874492D01*
X180809247Y-47959134D01*
X180878432Y-48007219D01*
X180866916Y-48016712D01*
X180829526Y-48062474D01*
X180801783Y-48114652D01*
X180569182Y-48552111D01*
X180600192Y-48653543D01*
X180931298Y-48829594D01*
X180940687Y-48811935D01*
X181205572Y-48952777D01*
X181196182Y-48970436D01*
X181527287Y-49146488D01*
X181628719Y-49115477D01*
X181861320Y-48678018D01*
X181889063Y-48625840D01*
X181906094Y-48569253D01*
X181911758Y-48510429D01*
X181907555Y-48468696D01*
X182059445Y-48544641D01*
X182035107Y-48554257D01*
X181968023Y-48606172D01*
X181918058Y-48674721D01*
X181119956Y-50175732D01*
X181100891Y-50219702D01*
X181085006Y-50303028D01*
X181092964Y-50387480D01*
X181100839Y-50407411D01*
X180964344Y-50270916D01*
X180980229Y-50262381D01*
X181025828Y-50224792D01*
X181063218Y-50179030D01*
X181090961Y-50126852D01*
X181323562Y-49689393D01*
X181292552Y-49587961D01*
X180961446Y-49411910D01*
X180952057Y-49429569D01*
X180687172Y-49288727D01*
X180696562Y-49271068D01*
X180365457Y-49095016D01*
X180264025Y-49126027D01*
X180109699Y-49416272D01*
X179410585Y-48717157D01*
X179382000Y-48693677D01*
X179353729Y-48669955D01*
X179351887Y-48668942D01*
X179350260Y-48667606D01*
X179317689Y-48650142D01*
X179285319Y-48632346D01*
X179283313Y-48631710D01*
X179281460Y-48630716D01*
X179246163Y-48619925D01*
X179210907Y-48608741D01*
X179208813Y-48608506D01*
X179206804Y-48607892D01*
X179170055Y-48604159D01*
X179133327Y-48600039D01*
X179129220Y-48600010D01*
X179129138Y-48600002D01*
X179129062Y-48600009D01*
X179127742Y-48600000D01*
X173807953Y-48600000D01*
X173771169Y-48603607D01*
X173734373Y-48606826D01*
X173732354Y-48607413D01*
X173730259Y-48607618D01*
X173694923Y-48618287D01*
X173659406Y-48628605D01*
X173657534Y-48629576D01*
X173655525Y-48630182D01*
X173622970Y-48647492D01*
X173590098Y-48664531D01*
X173588451Y-48665846D01*
X173586596Y-48666832D01*
X173558000Y-48690155D01*
X173529087Y-48713235D01*
X173526160Y-48716122D01*
X173526099Y-48716172D01*
X173526052Y-48716229D01*
X173525111Y-48717157D01*
X168767157Y-53475110D01*
X168743677Y-53503695D01*
X168719955Y-53531966D01*
X168718942Y-53533808D01*
X168717606Y-53535435D01*
X168700142Y-53568006D01*
X168682346Y-53600376D01*
X168681710Y-53602382D01*
X168680716Y-53604235D01*
X168669925Y-53639532D01*
X168658741Y-53674788D01*
X168658506Y-53676882D01*
X168657892Y-53678891D01*
X168654159Y-53715640D01*
X168650039Y-53752368D01*
X168650010Y-53756475D01*
X168650002Y-53756557D01*
X168650009Y-53756633D01*
X168650000Y-53757953D01*
X168650000Y-55968532D01*
X168621197Y-55977452D01*
X168550366Y-56024126D01*
X168495343Y-56088685D01*
X168460484Y-56166018D01*
X168448549Y-56250000D01*
X168448549Y-57450000D01*
X168452359Y-57497774D01*
X168477452Y-57578803D01*
X168524126Y-57649634D01*
X168588685Y-57704657D01*
X168666018Y-57739516D01*
X168750000Y-57751451D01*
X169350000Y-57751451D01*
X169397774Y-57747641D01*
X169478803Y-57722548D01*
X169549634Y-57675874D01*
X169604657Y-57611315D01*
X169639516Y-57533982D01*
X169651451Y-57450000D01*
X169651451Y-57175000D01*
X170350000Y-57175000D01*
X170350000Y-57479548D01*
X170361529Y-57537507D01*
X170384144Y-57592104D01*
X170416975Y-57641239D01*
X170458761Y-57683025D01*
X170507897Y-57715857D01*
X170562494Y-57738471D01*
X170620453Y-57750000D01*
X170725000Y-57750000D01*
X170800000Y-57675000D01*
X170800000Y-57100000D01*
X170425000Y-57100000D01*
X170350000Y-57175000D01*
X169651451Y-57175000D01*
X169651451Y-56250000D01*
X169649095Y-56220452D01*
X170350000Y-56220452D01*
X170350000Y-56525000D01*
X170425000Y-56600000D01*
X170800000Y-56600000D01*
X170800000Y-56025000D01*
X170725000Y-55950000D01*
X170620453Y-55950000D01*
X170562494Y-55961529D01*
X170507897Y-55984143D01*
X170458761Y-56016975D01*
X170416975Y-56058761D01*
X170384144Y-56107896D01*
X170361529Y-56162493D01*
X170350000Y-56220452D01*
X169649095Y-56220452D01*
X169647641Y-56202226D01*
X169622548Y-56121197D01*
X169575874Y-56050366D01*
X169511315Y-55995343D01*
X169450000Y-55967704D01*
X169450000Y-53923639D01*
X171362570Y-52011069D01*
X171716131Y-52364630D01*
X171752606Y-52395717D01*
X171827646Y-52435270D01*
X171910735Y-52452351D01*
X171995292Y-52445609D01*
X172074624Y-52415575D01*
X172142447Y-52364630D01*
X172302572Y-52204505D01*
X173290470Y-52204505D01*
X173290470Y-52310571D01*
X173555635Y-52575736D01*
X173962221Y-52169150D01*
X173962221Y-52063084D01*
X173888295Y-51989158D01*
X173839160Y-51956327D01*
X173784563Y-51933712D01*
X173726603Y-51922183D01*
X173667509Y-51922183D01*
X173609550Y-51933712D01*
X173554953Y-51956326D01*
X173505818Y-51989157D01*
X173290470Y-52204505D01*
X172302572Y-52204505D01*
X172990975Y-51516102D01*
X173022062Y-51479627D01*
X173061615Y-51404587D01*
X173078696Y-51321498D01*
X173071954Y-51236941D01*
X173048141Y-51174042D01*
X174372184Y-49849999D01*
X177248549Y-49849999D01*
X177248549Y-50350000D01*
X177252359Y-50397774D01*
X177277452Y-50478803D01*
X177324126Y-50549634D01*
X177388685Y-50604657D01*
X177466018Y-50639516D01*
X177550000Y-50651451D01*
X178485765Y-50651451D01*
X180000000Y-52165685D01*
X180000000Y-56741420D01*
X179950366Y-56774126D01*
X179895343Y-56838685D01*
X179860484Y-56916018D01*
X179848549Y-57000000D01*
X179848549Y-57800000D01*
X179852359Y-57847774D01*
X179877452Y-57928803D01*
X179924126Y-57999634D01*
X179926732Y-58001855D01*
X179895343Y-58038685D01*
X179860484Y-58116018D01*
X179848549Y-58200000D01*
X179848549Y-59000000D01*
X179852359Y-59047774D01*
X179877452Y-59128803D01*
X179924126Y-59199634D01*
X179988685Y-59254657D01*
X180066018Y-59289516D01*
X180150000Y-59301451D01*
X180385765Y-59301451D01*
X182530762Y-61446447D01*
X182559322Y-61469906D01*
X182587617Y-61493649D01*
X182589459Y-61494662D01*
X182591086Y-61495998D01*
X182623657Y-61513462D01*
X182656027Y-61531258D01*
X182658033Y-61531894D01*
X182659886Y-61532888D01*
X182695224Y-61543692D01*
X182730439Y-61554863D01*
X182732528Y-61555097D01*
X182734542Y-61555713D01*
X182771336Y-61559450D01*
X182808019Y-61563565D01*
X182812127Y-61563594D01*
X182812209Y-61563602D01*
X182812285Y-61563595D01*
X182813604Y-61563604D01*
X183003836Y-61563604D01*
X183135188Y-61694956D01*
X183135191Y-61694960D01*
X183240231Y-61800000D01*
X183135191Y-61905040D01*
X183135187Y-61905045D01*
X182604862Y-62435370D01*
X182573775Y-62471845D01*
X182534222Y-62546885D01*
X182525971Y-62587023D01*
X182112994Y-63000000D01*
X178163021Y-63000000D01*
X178199634Y-62975874D01*
X178254657Y-62911315D01*
X178289516Y-62833982D01*
X178301451Y-62750000D01*
X178301451Y-62523217D01*
X178305868Y-62526287D01*
X178413693Y-62573395D01*
X178528614Y-62598662D01*
X178646254Y-62601126D01*
X178762133Y-62580694D01*
X178871835Y-62538143D01*
X178971184Y-62475094D01*
X179056395Y-62393949D01*
X179124221Y-62297799D01*
X179172080Y-62190306D01*
X179198149Y-62075564D01*
X179200026Y-61941167D01*
X179177171Y-61825742D01*
X179132332Y-61716954D01*
X179067216Y-61618948D01*
X178984305Y-61535455D01*
X178901451Y-61479570D01*
X178901451Y-60450000D01*
X178883538Y-60347634D01*
X178843794Y-60272695D01*
X178443794Y-59722695D01*
X178433140Y-59711393D01*
X178425874Y-59700366D01*
X178409961Y-59686804D01*
X178391381Y-59667093D01*
X178375483Y-59657419D01*
X178361315Y-59645343D01*
X178339427Y-59635477D01*
X178318918Y-59622996D01*
X178300949Y-59618132D01*
X178283982Y-59610484D01*
X178260214Y-59607106D01*
X178237038Y-59600833D01*
X178218428Y-59601168D01*
X178200000Y-59598549D01*
X177840527Y-59598549D01*
X178113552Y-59425282D01*
X178369184Y-59181848D01*
X178572663Y-58893397D01*
X178716241Y-58570917D01*
X178794447Y-58226691D01*
X178800077Y-57823501D01*
X178731512Y-57477226D01*
X178596995Y-57150863D01*
X178401649Y-56856843D01*
X178152915Y-56606366D01*
X177860266Y-56408972D01*
X177842374Y-56401451D01*
X178200000Y-56401451D01*
X178221287Y-56399753D01*
X178228599Y-56400091D01*
X178234321Y-56398714D01*
X178247774Y-56397641D01*
X178279142Y-56387927D01*
X178311070Y-56380243D01*
X178319516Y-56375424D01*
X178328803Y-56372548D01*
X178356223Y-56354480D01*
X178384746Y-56338205D01*
X178391514Y-56331225D01*
X178399634Y-56325874D01*
X178420938Y-56300878D01*
X178443794Y-56277305D01*
X178843794Y-55727305D01*
X178889516Y-55633982D01*
X178901451Y-55550000D01*
X178901451Y-54500000D01*
X178897641Y-54452226D01*
X178872548Y-54371197D01*
X178825874Y-54300366D01*
X178761315Y-54245343D01*
X178683982Y-54210484D01*
X178600000Y-54198549D01*
X178000000Y-54198549D01*
X178000000Y-54151451D01*
X178047774Y-54147641D01*
X178128803Y-54122548D01*
X178199634Y-54075874D01*
X178254657Y-54011315D01*
X178289516Y-53933982D01*
X178301451Y-53850000D01*
X178301451Y-53350000D01*
X178297641Y-53302226D01*
X178272548Y-53221197D01*
X178225874Y-53150366D01*
X178161315Y-53095343D01*
X178083982Y-53060484D01*
X178000000Y-53048549D01*
X177200000Y-53048549D01*
X177152226Y-53052359D01*
X177071197Y-53077452D01*
X177000366Y-53124126D01*
X176998145Y-53126732D01*
X176961315Y-53095343D01*
X176883982Y-53060484D01*
X176800000Y-53048549D01*
X176800000Y-52900000D01*
X176796389Y-52863171D01*
X176793174Y-52826420D01*
X176792587Y-52824401D01*
X176792382Y-52822306D01*
X176781699Y-52786923D01*
X176771394Y-52751453D01*
X176770426Y-52749585D01*
X176769818Y-52747572D01*
X176752479Y-52714963D01*
X176735468Y-52682144D01*
X176734155Y-52680499D01*
X176733168Y-52678643D01*
X176709816Y-52650011D01*
X176686764Y-52621134D01*
X176683879Y-52618209D01*
X176683828Y-52618146D01*
X176683770Y-52618098D01*
X176682842Y-52617157D01*
X176250000Y-52184314D01*
X176250000Y-52175000D01*
X177250000Y-52175000D01*
X177250000Y-52279547D01*
X177261529Y-52337506D01*
X177284143Y-52392103D01*
X177316975Y-52441239D01*
X177358761Y-52483025D01*
X177407896Y-52515856D01*
X177462493Y-52538471D01*
X177520452Y-52550000D01*
X177825000Y-52550000D01*
X177900000Y-52475000D01*
X177900000Y-52100000D01*
X178400000Y-52100000D01*
X178400000Y-52475000D01*
X178475000Y-52550000D01*
X178779548Y-52550000D01*
X178837507Y-52538471D01*
X178892104Y-52515856D01*
X178941239Y-52483025D01*
X178983025Y-52441239D01*
X179015857Y-52392103D01*
X179038471Y-52337506D01*
X179050000Y-52279547D01*
X179050000Y-52175000D01*
X178975000Y-52100000D01*
X178400000Y-52100000D01*
X177900000Y-52100000D01*
X177325000Y-52100000D01*
X177250000Y-52175000D01*
X176250000Y-52175000D01*
X176250000Y-51620453D01*
X177250000Y-51620453D01*
X177250000Y-51725000D01*
X177325000Y-51800000D01*
X177900000Y-51800000D01*
X177900000Y-51425000D01*
X178400000Y-51425000D01*
X178400000Y-51800000D01*
X178975000Y-51800000D01*
X179050000Y-51725000D01*
X179050000Y-51620453D01*
X179038471Y-51562494D01*
X179015857Y-51507897D01*
X178983025Y-51458761D01*
X178941239Y-51416975D01*
X178892104Y-51384144D01*
X178837507Y-51361529D01*
X178779548Y-51350000D01*
X178475000Y-51350000D01*
X178400000Y-51425000D01*
X177900000Y-51425000D01*
X177825000Y-51350000D01*
X177520452Y-51350000D01*
X177462493Y-51361529D01*
X177407896Y-51384144D01*
X177358761Y-51416975D01*
X177316975Y-51458761D01*
X177284143Y-51507897D01*
X177261529Y-51562494D01*
X177250000Y-51620453D01*
X176250000Y-51620453D01*
X176250000Y-51601451D01*
X176450000Y-51601451D01*
X176497774Y-51597641D01*
X176578803Y-51572548D01*
X176649634Y-51525874D01*
X176704657Y-51461315D01*
X176739516Y-51383982D01*
X176751451Y-51300000D01*
X176751451Y-50700000D01*
X176747641Y-50652226D01*
X176722548Y-50571197D01*
X176675874Y-50500366D01*
X176611315Y-50445343D01*
X176533982Y-50410484D01*
X176450000Y-50398549D01*
X175250000Y-50398549D01*
X175202226Y-50402359D01*
X175121197Y-50427452D01*
X175050366Y-50474126D01*
X174995343Y-50538685D01*
X174960484Y-50616018D01*
X174948549Y-50700000D01*
X174948549Y-51300000D01*
X174952359Y-51347774D01*
X174977452Y-51428803D01*
X175024126Y-51499634D01*
X175088685Y-51554657D01*
X175166018Y-51589516D01*
X175250000Y-51601451D01*
X175450000Y-51601451D01*
X175450000Y-52350000D01*
X175453607Y-52386784D01*
X175456826Y-52423580D01*
X175457413Y-52425599D01*
X175457618Y-52427694D01*
X175468301Y-52463077D01*
X175478606Y-52498547D01*
X175479574Y-52500415D01*
X175480182Y-52502428D01*
X175497531Y-52535058D01*
X175514532Y-52567855D01*
X175515844Y-52569498D01*
X175516832Y-52571357D01*
X175540202Y-52600011D01*
X175563236Y-52628866D01*
X175566124Y-52631796D01*
X175566172Y-52631854D01*
X175566226Y-52631899D01*
X175567157Y-52632843D01*
X175984129Y-53049815D01*
X175952226Y-53052359D01*
X175871197Y-53077452D01*
X175800366Y-53124126D01*
X175745343Y-53188685D01*
X175710484Y-53266018D01*
X175698549Y-53350000D01*
X175698549Y-53850000D01*
X175702359Y-53897774D01*
X175727452Y-53978803D01*
X175774126Y-54049634D01*
X175838685Y-54104657D01*
X175916018Y-54139516D01*
X176000000Y-54151451D01*
X176800000Y-54151451D01*
X176847774Y-54147641D01*
X176928803Y-54122548D01*
X176999634Y-54075874D01*
X177001855Y-54073268D01*
X177038685Y-54104657D01*
X177116018Y-54139516D01*
X177200000Y-54151451D01*
X177200000Y-54274555D01*
X177145343Y-54338685D01*
X177110484Y-54416018D01*
X177098549Y-54500000D01*
X177098549Y-56100000D01*
X177102359Y-56147774D01*
X177118752Y-56200708D01*
X176882719Y-56199061D01*
X176889516Y-56183982D01*
X176901451Y-56100000D01*
X176901451Y-54500000D01*
X176897641Y-54452226D01*
X176872548Y-54371197D01*
X176825874Y-54300366D01*
X176761315Y-54245343D01*
X176683982Y-54210484D01*
X176600000Y-54198549D01*
X175400000Y-54198549D01*
X175352226Y-54202359D01*
X175271197Y-54227452D01*
X175200366Y-54274126D01*
X175145343Y-54338685D01*
X175110484Y-54416018D01*
X175098549Y-54500000D01*
X175098549Y-55550000D01*
X175116462Y-55652366D01*
X175156206Y-55727305D01*
X175261807Y-55872507D01*
X174134314Y-57000000D01*
X173151451Y-57000000D01*
X173147641Y-56952226D01*
X173122548Y-56871197D01*
X173075874Y-56800366D01*
X173011315Y-56745343D01*
X172933982Y-56710484D01*
X172850000Y-56698549D01*
X172350000Y-56698549D01*
X172302226Y-56702359D01*
X172221197Y-56727452D01*
X172150366Y-56774126D01*
X172095343Y-56838685D01*
X172060484Y-56916018D01*
X172048549Y-57000000D01*
X172048549Y-57800000D01*
X172052359Y-57847774D01*
X172077452Y-57928803D01*
X172124126Y-57999634D01*
X172126732Y-58001855D01*
X172122503Y-58006817D01*
X171950001Y-57834315D01*
X171950001Y-54176347D01*
X171946390Y-54139516D01*
X171943175Y-54102767D01*
X171942588Y-54100748D01*
X171942383Y-54098653D01*
X171931714Y-54063317D01*
X171921396Y-54027800D01*
X171920425Y-54025928D01*
X171919819Y-54023919D01*
X171902509Y-53991364D01*
X171887729Y-53962851D01*
X172036381Y-53814199D01*
X172067468Y-53777724D01*
X172107021Y-53702684D01*
X172124102Y-53619595D01*
X172118395Y-53548008D01*
X173007627Y-53548008D01*
X173007627Y-53654074D01*
X173081553Y-53728000D01*
X173130688Y-53760831D01*
X173185285Y-53783446D01*
X173243245Y-53794975D01*
X173302339Y-53794975D01*
X173360298Y-53783446D01*
X173414895Y-53760832D01*
X173464030Y-53728001D01*
X173679378Y-53512653D01*
X173679378Y-53406587D01*
X173414213Y-53141422D01*
X173007627Y-53548008D01*
X172118395Y-53548008D01*
X172117360Y-53535038D01*
X172087326Y-53455706D01*
X172036381Y-53387883D01*
X171689662Y-53041164D01*
X172548528Y-53041164D01*
X172548528Y-53100258D01*
X172560057Y-53158218D01*
X172582672Y-53212815D01*
X172615503Y-53261950D01*
X172689429Y-53335876D01*
X172795495Y-53335876D01*
X173202081Y-52929290D01*
X173060659Y-52787868D01*
X173767767Y-52787868D01*
X174032932Y-53053033D01*
X174138998Y-53053033D01*
X174354346Y-52837685D01*
X174387177Y-52788550D01*
X174409791Y-52733953D01*
X174421320Y-52675994D01*
X174421320Y-52616900D01*
X174409791Y-52558940D01*
X174387176Y-52504343D01*
X174354345Y-52455208D01*
X174280419Y-52381282D01*
X174174353Y-52381282D01*
X173767767Y-52787868D01*
X173060659Y-52787868D01*
X172936916Y-52664125D01*
X172830850Y-52664125D01*
X172615502Y-52879473D01*
X172582671Y-52928608D01*
X172560057Y-52983205D01*
X172548528Y-53041164D01*
X171689662Y-53041164D01*
X171612117Y-52963619D01*
X171575642Y-52932532D01*
X171500602Y-52892979D01*
X171417513Y-52875898D01*
X171332956Y-52882640D01*
X171253624Y-52912674D01*
X171185801Y-52963619D01*
X170337273Y-53812147D01*
X170306186Y-53848622D01*
X170266633Y-53923662D01*
X170249552Y-54006751D01*
X170256294Y-54091308D01*
X170286328Y-54170640D01*
X170337273Y-54238463D01*
X170761537Y-54662727D01*
X170798012Y-54693814D01*
X170873052Y-54733367D01*
X170956141Y-54750448D01*
X171040698Y-54743706D01*
X171120030Y-54713672D01*
X171150001Y-54691159D01*
X171150001Y-55974999D01*
X171100000Y-56025000D01*
X171100000Y-56600000D01*
X171150001Y-56600000D01*
X171150001Y-57100000D01*
X171100000Y-57100000D01*
X171100000Y-57675000D01*
X171150001Y-57725001D01*
X171150001Y-58000001D01*
X171153608Y-58036785D01*
X171156827Y-58073581D01*
X171157414Y-58075600D01*
X171157619Y-58077695D01*
X171168302Y-58113078D01*
X171178607Y-58148548D01*
X171179575Y-58150416D01*
X171180183Y-58152429D01*
X171197532Y-58185059D01*
X171214533Y-58217856D01*
X171215845Y-58219499D01*
X171216833Y-58221358D01*
X171240203Y-58250012D01*
X171263237Y-58278867D01*
X171266125Y-58281797D01*
X171266173Y-58281855D01*
X171266227Y-58281900D01*
X171267158Y-58282844D01*
X171867157Y-58882843D01*
X171895742Y-58906323D01*
X171924013Y-58930045D01*
X171925855Y-58931058D01*
X171927482Y-58932394D01*
X171960053Y-58949858D01*
X171992423Y-58967654D01*
X171994429Y-58968290D01*
X171996282Y-58969284D01*
X172031620Y-58980088D01*
X172048549Y-58985458D01*
X172048549Y-59000000D01*
X172052359Y-59047774D01*
X172077452Y-59128803D01*
X172124126Y-59199634D01*
X172188685Y-59254657D01*
X172266018Y-59289516D01*
X172350000Y-59301451D01*
X172850000Y-59301451D01*
X172897774Y-59297641D01*
X172978803Y-59272548D01*
X173049634Y-59225874D01*
X173104657Y-59161315D01*
X173139516Y-59083982D01*
X173151451Y-59000000D01*
X173151451Y-58200000D01*
X173147641Y-58152226D01*
X173122548Y-58071197D01*
X173075874Y-58000366D01*
X173073268Y-57998145D01*
X173104657Y-57961315D01*
X173139516Y-57883982D01*
X173151451Y-57800000D01*
X174300000Y-57800000D01*
X174336784Y-57796393D01*
X174373580Y-57793174D01*
X174375599Y-57792587D01*
X174377694Y-57792382D01*
X174413077Y-57781699D01*
X174448547Y-57771394D01*
X174450415Y-57770426D01*
X174452428Y-57769818D01*
X174485058Y-57752469D01*
X174517855Y-57735468D01*
X174519498Y-57734156D01*
X174521357Y-57733168D01*
X174550011Y-57709798D01*
X174578866Y-57686764D01*
X174581796Y-57683876D01*
X174581854Y-57683828D01*
X174581899Y-57683774D01*
X174582843Y-57682843D01*
X175864235Y-56401451D01*
X176155407Y-56401451D01*
X175866656Y-56590404D01*
X175614449Y-56837384D01*
X175415016Y-57128648D01*
X175275955Y-57453101D01*
X175202563Y-57798385D01*
X175197634Y-58151349D01*
X175261357Y-58498548D01*
X175391305Y-58826757D01*
X175582527Y-59123476D01*
X175827740Y-59377401D01*
X176117604Y-59578862D01*
X176162666Y-59598549D01*
X175800000Y-59598549D01*
X175778713Y-59600247D01*
X175771401Y-59599909D01*
X175765679Y-59601286D01*
X175752226Y-59602359D01*
X175720858Y-59612073D01*
X175688930Y-59619757D01*
X175680484Y-59624576D01*
X175671197Y-59627452D01*
X175643777Y-59645520D01*
X175615254Y-59661795D01*
X175608486Y-59668775D01*
X175600366Y-59674126D01*
X175579062Y-59699122D01*
X175556206Y-59722695D01*
X175156206Y-60272695D01*
X175110484Y-60366018D01*
X175098549Y-60450000D01*
X175098549Y-61500000D01*
X175102359Y-61547774D01*
X175127452Y-61628803D01*
X175174126Y-61699634D01*
X175238685Y-61754657D01*
X175316018Y-61789516D01*
X175400000Y-61801451D01*
X176335765Y-61801451D01*
X176482863Y-61948549D01*
X176000000Y-61948549D01*
X175952226Y-61952359D01*
X175871197Y-61977452D01*
X175800366Y-62024126D01*
X175745343Y-62088685D01*
X175740243Y-62100000D01*
X174015685Y-62100000D01*
X170782843Y-58867157D01*
X170754258Y-58843677D01*
X170725987Y-58819955D01*
X170724145Y-58818942D01*
X170722518Y-58817606D01*
X170689947Y-58800142D01*
X170657577Y-58782346D01*
X170655571Y-58781710D01*
X170653718Y-58780716D01*
X170618421Y-58769925D01*
X170601451Y-58764542D01*
X170601451Y-58550000D01*
X170597641Y-58502226D01*
X170572548Y-58421197D01*
X170525874Y-58350366D01*
X170461315Y-58295343D01*
X170383982Y-58260484D01*
X170300000Y-58248549D01*
X169700000Y-58248549D01*
X169652226Y-58252359D01*
X169571197Y-58277452D01*
X169500366Y-58324126D01*
X169445343Y-58388685D01*
X169410484Y-58466018D01*
X169398549Y-58550000D01*
X169398549Y-59750000D01*
X169402359Y-59797774D01*
X169427452Y-59878803D01*
X169474126Y-59949634D01*
X169538685Y-60004657D01*
X169616018Y-60039516D01*
X169700000Y-60051451D01*
X170300000Y-60051451D01*
X170347774Y-60047641D01*
X170428803Y-60022548D01*
X170499634Y-59975874D01*
X170554657Y-59911315D01*
X170589516Y-59833982D01*
X170593097Y-59808783D01*
X173567157Y-62782842D01*
X173595712Y-62806298D01*
X173624013Y-62830045D01*
X173625855Y-62831058D01*
X173627482Y-62832394D01*
X173660018Y-62849839D01*
X173692423Y-62867654D01*
X173694433Y-62868292D01*
X173696282Y-62869283D01*
X173731546Y-62880064D01*
X173766835Y-62891259D01*
X173768928Y-62891494D01*
X173770937Y-62892108D01*
X173807647Y-62895837D01*
X173844415Y-62899961D01*
X173848533Y-62899990D01*
X173848604Y-62899997D01*
X173848670Y-62899991D01*
X173850000Y-62900000D01*
X175741420Y-62900000D01*
X175774126Y-62949634D01*
X175833221Y-63000000D01*
X171590686Y-63000000D01*
X168332843Y-59742157D01*
X168304258Y-59718677D01*
X168275987Y-59694955D01*
X168274145Y-59693942D01*
X168272518Y-59692606D01*
X168239947Y-59675142D01*
X168207577Y-59657346D01*
X168205571Y-59656710D01*
X168203718Y-59655716D01*
X168168421Y-59644925D01*
X168134285Y-59634096D01*
X168122548Y-59596197D01*
X168075874Y-59525366D01*
X168011315Y-59470343D01*
X167933982Y-59435484D01*
X167850000Y-59423549D01*
X166150000Y-59423549D01*
X166102226Y-59427359D01*
X166021197Y-59452452D01*
X165976219Y-59482090D01*
X165998149Y-59385566D01*
X166000026Y-59251169D01*
X165977171Y-59135744D01*
X165932332Y-59026956D01*
X165867216Y-58928950D01*
X165784305Y-58845457D01*
X165686755Y-58779659D01*
X165578283Y-58734062D01*
X165569900Y-58732341D01*
X165588471Y-58687506D01*
X165600000Y-58629547D01*
X165600000Y-58425000D01*
X165525000Y-58350000D01*
X164200000Y-58350000D01*
X163700000Y-58350000D01*
X163680000Y-58350000D01*
X163680000Y-57850000D01*
X163700000Y-57850000D01*
X163700000Y-57375000D01*
X164200000Y-57375000D01*
X164200000Y-57850000D01*
X165525000Y-57850000D01*
X165600000Y-57775000D01*
X165600000Y-57570453D01*
X165588471Y-57512494D01*
X165565857Y-57457897D01*
X165533025Y-57408761D01*
X165491239Y-57366975D01*
X165442104Y-57334144D01*
X165387507Y-57311529D01*
X165329548Y-57300000D01*
X164275000Y-57300000D01*
X164200000Y-57375000D01*
X163700000Y-57375000D01*
X163625000Y-57300000D01*
X162866966Y-57300000D01*
X162913268Y-57098347D01*
X162985010Y-56843541D01*
X163072331Y-56578331D01*
X163174886Y-56303654D01*
X163292324Y-56020294D01*
X163424246Y-55729087D01*
X163570245Y-55430777D01*
X163729877Y-55126149D01*
X163902708Y-54815916D01*
X164088318Y-54500757D01*
X164286261Y-54181354D01*
X164496063Y-53858439D01*
X164717316Y-53532610D01*
X164949562Y-53204540D01*
X165192284Y-52874976D01*
X165445152Y-52544407D01*
X165707635Y-52213572D01*
X165979303Y-51883087D01*
X166259754Y-51553526D01*
X166548429Y-51225651D01*
X166844954Y-50899994D01*
X167148903Y-50577156D01*
X167459763Y-50257828D01*
X167777102Y-49942612D01*
X168100476Y-49632113D01*
X168429458Y-49326930D01*
X168763493Y-49027771D01*
X169102185Y-48735198D01*
X169444484Y-48450314D01*
X169804883Y-48164460D01*
X170177056Y-47885490D01*
X170560602Y-47613275D01*
X170954344Y-47348286D01*
X171357208Y-47090924D01*
X171767947Y-46841692D01*
X172185434Y-46601006D01*
X172402851Y-46481931D01*
X179301875Y-46481931D01*
X179307795Y-46540728D01*
X179325073Y-46597240D01*
X179353044Y-46649297D01*
X179390633Y-46694896D01*
X179436396Y-46732285D01*
X179617000Y-46828314D01*
X179718431Y-46797304D01*
X180340481Y-45627398D01*
X179921081Y-45404399D01*
X179819650Y-45435410D01*
X179352313Y-46314343D01*
X179324569Y-46366520D01*
X179307539Y-46423108D01*
X179301875Y-46481931D01*
X172402851Y-46481931D01*
X172608523Y-46369289D01*
X173036077Y-46146962D01*
X173466961Y-45934437D01*
X173899891Y-45732194D01*
X174333869Y-45540570D01*
X174767566Y-45360053D01*
X175199963Y-45190990D01*
X175629791Y-45033822D01*
X176055895Y-44888949D01*
X176477073Y-44756774D01*
X176892172Y-44637676D01*
X177299907Y-44532062D01*
X177699082Y-44440309D01*
X178088441Y-44362781D01*
X178466770Y-44299827D01*
X178832674Y-44251790D01*
X179184945Y-44218957D01*
X179522057Y-44201602D01*
X179842818Y-44199995D01*
X180145677Y-44214059D01*
X180145677Y-44214059D01*
G37*
X180145677Y-44214059D02*
X180429162Y-44243903D01*
X180451161Y-44247709D01*
X180124806Y-44861494D01*
X180155817Y-44962925D01*
X180575217Y-45185924D01*
X180584607Y-45168265D01*
X181026080Y-45403001D01*
X181016691Y-45420660D01*
X181436091Y-45643659D01*
X181537522Y-45612648D01*
X181950226Y-44836464D01*
X187250665Y-47648116D01*
X186835207Y-48429478D01*
X186866218Y-48530909D01*
X187285618Y-48753908D01*
X187295008Y-48736249D01*
X187736481Y-48970985D01*
X187727092Y-48988644D01*
X188146492Y-49211643D01*
X188247923Y-49180632D01*
X188664115Y-48397889D01*
X188717151Y-48426023D01*
X188677795Y-48500041D01*
X188708806Y-48601472D01*
X189569680Y-49059207D01*
X189579070Y-49041548D01*
X190020543Y-49276284D01*
X190011154Y-49293943D01*
X190872028Y-49751678D01*
X190973459Y-49720667D01*
X191014008Y-49644405D01*
X194900996Y-51706283D01*
X194858428Y-51786342D01*
X194889439Y-51887773D01*
X195750313Y-52345508D01*
X195759703Y-52327849D01*
X196201176Y-52562585D01*
X196191787Y-52580244D01*
X197052661Y-53037979D01*
X197154092Y-53006968D01*
X197197853Y-52924666D01*
X200277924Y-54558509D01*
X200277961Y-54558529D01*
X200610402Y-54734935D01*
X200610436Y-54734949D01*
X200610892Y-54735194D01*
X200918546Y-54897823D01*
X200918623Y-54897855D01*
X200920072Y-54898624D01*
X201205680Y-55047804D01*
X201205754Y-55047834D01*
X201208486Y-55049254D01*
X201474808Y-55185316D01*
X201474816Y-55185319D01*
X201479143Y-55187493D01*
X201728921Y-55310767D01*
X201729817Y-55311105D01*
X201730641Y-55311611D01*
X201735050Y-55313719D01*
X201971041Y-55424539D01*
X201972965Y-55425222D01*
X201974730Y-55426245D01*
X201979191Y-55428240D01*
X202204136Y-55526933D01*
X202207150Y-55527917D01*
X202209940Y-55529417D01*
X202214463Y-55531268D01*
X202431122Y-55618169D01*
X202435218Y-55619363D01*
X202439057Y-55621241D01*
X202443647Y-55622917D01*
X202654760Y-55698352D01*
X202659839Y-55699624D01*
X202664637Y-55701716D01*
X202669296Y-55703190D01*
X202877622Y-55767497D01*
X202883468Y-55768692D01*
X202889049Y-55770813D01*
X202893774Y-55772062D01*
X203102057Y-55825566D01*
X203108349Y-55826541D01*
X203114411Y-55828502D01*
X203119193Y-55829512D01*
X203330182Y-55872545D01*
X203336538Y-55873205D01*
X203342712Y-55874864D01*
X203347538Y-55875632D01*
X203563989Y-55908528D01*
X203570032Y-55908849D01*
X203575942Y-55910134D01*
X203580800Y-55910668D01*
X203805457Y-55933754D01*
X203810859Y-55933779D01*
X203816185Y-55934690D01*
X203821062Y-55935005D01*
X204056674Y-55948608D01*
X204061203Y-55948426D01*
X204065704Y-55949013D01*
X204070589Y-55949134D01*
X204319914Y-55953593D01*
X204320600Y-55953538D01*
X204321285Y-55953615D01*
X204326172Y-55953649D01*
X213253350Y-55953649D01*
X213253358Y-71938768D01*
X197840000Y-71938768D01*
X197840000Y-71065000D01*
X197765000Y-70990000D01*
X197290000Y-70990000D01*
X197290000Y-71010000D01*
X196790000Y-71010000D01*
X196790000Y-70990000D01*
X196315000Y-70990000D01*
X196240000Y-71065000D01*
X196240000Y-71938768D01*
X188840000Y-71938768D01*
X188840000Y-71065000D01*
X188765000Y-70990000D01*
X188290000Y-70990000D01*
X188290000Y-71010000D01*
X187790000Y-71010000D01*
X187790000Y-70990000D01*
X187315000Y-70990000D01*
X187240000Y-71065000D01*
X187240000Y-71938768D01*
X182600000Y-71938768D01*
X182600000Y-71075000D01*
X182525000Y-71000000D01*
X182050000Y-71000000D01*
X182050000Y-71020000D01*
X181550000Y-71020000D01*
X181550000Y-71000000D01*
X181075000Y-71000000D01*
X181000000Y-71075000D01*
X181000000Y-71938768D01*
X175000000Y-71938768D01*
X175000000Y-71075000D01*
X174925000Y-71000000D01*
X174450000Y-71000000D01*
X174450000Y-71020000D01*
X173950000Y-71020000D01*
X173950000Y-71000000D01*
X173475000Y-71000000D01*
X173400000Y-71075000D01*
X173400000Y-71784152D01*
X173218193Y-71735430D01*
X172902373Y-71630151D01*
X172591626Y-71507582D01*
X172287204Y-71370136D01*
X171987516Y-71218839D01*
X168502995Y-69370452D01*
X173400000Y-69370452D01*
X173400000Y-70425000D01*
X173475000Y-70500000D01*
X173950000Y-70500000D01*
X173950000Y-69175000D01*
X173875000Y-69100000D01*
X173670453Y-69100000D01*
X173612494Y-69111529D01*
X173557897Y-69134143D01*
X173508761Y-69166975D01*
X173466975Y-69208761D01*
X173434144Y-69257896D01*
X173411529Y-69312493D01*
X173400000Y-69370452D01*
X168502995Y-69370452D01*
X163611109Y-66775520D01*
X163403691Y-66652336D01*
X163233129Y-66525148D01*
X163206533Y-66500000D01*
X163625000Y-66500000D01*
X163700000Y-66425000D01*
X163700000Y-65950000D01*
X164200000Y-65950000D01*
X164200000Y-66425000D01*
X164275000Y-66500000D01*
X165329548Y-66500000D01*
X165387507Y-66488471D01*
X165442104Y-66465856D01*
X165491239Y-66433025D01*
X165533025Y-66391239D01*
X165565857Y-66342103D01*
X165588471Y-66287506D01*
X165600000Y-66229547D01*
X165600000Y-66025000D01*
X165525000Y-65950000D01*
X164200000Y-65950000D01*
X163700000Y-65950000D01*
X163680000Y-65950000D01*
X163680000Y-65450000D01*
X163700000Y-65450000D01*
X163700000Y-64975000D01*
X164200000Y-64975000D01*
X164200000Y-65450000D01*
X165525000Y-65450000D01*
X165600000Y-65375000D01*
X165600000Y-65170453D01*
X165588471Y-65112494D01*
X165565857Y-65057897D01*
X165533025Y-65008761D01*
X165491239Y-64966975D01*
X165442104Y-64934144D01*
X165387507Y-64911529D01*
X165329548Y-64900000D01*
X164275000Y-64900000D01*
X164200000Y-64975000D01*
X163700000Y-64975000D01*
X163625000Y-64900000D01*
X162785487Y-64900000D01*
X162785487Y-58900000D01*
X163625000Y-58900000D01*
X163700000Y-58825000D01*
X163700000Y-58350000D01*
X164200000Y-58350000D01*
X164200000Y-58825000D01*
X164275000Y-58900000D01*
X164961089Y-58900000D01*
X164938150Y-58922463D01*
X164871672Y-59019551D01*
X164825318Y-59127702D01*
X164800854Y-59242797D01*
X164799211Y-59360452D01*
X164820452Y-59476185D01*
X164850000Y-59550814D01*
X164850000Y-63960113D01*
X164825318Y-64017700D01*
X164800854Y-64132795D01*
X164799211Y-64250450D01*
X164820452Y-64366183D01*
X164863768Y-64475586D01*
X164927509Y-64574492D01*
X165009247Y-64659134D01*
X165105868Y-64726287D01*
X165213693Y-64773395D01*
X165328614Y-64798662D01*
X165446254Y-64801126D01*
X165562133Y-64780694D01*
X165671835Y-64738143D01*
X165771184Y-64675094D01*
X165856395Y-64593949D01*
X165924221Y-64497799D01*
X165972080Y-64390306D01*
X165986555Y-64326596D01*
X166007896Y-64340856D01*
X166062493Y-64363471D01*
X166120452Y-64375000D01*
X166675000Y-64375000D01*
X166750000Y-64300000D01*
X166750000Y-63925000D01*
X167250000Y-63925000D01*
X167250000Y-64300000D01*
X167325000Y-64375000D01*
X167879548Y-64375000D01*
X167937507Y-64363471D01*
X167992104Y-64340856D01*
X168041239Y-64308025D01*
X168083025Y-64266239D01*
X168115857Y-64217103D01*
X168138471Y-64162506D01*
X168150000Y-64104547D01*
X168150000Y-64000000D01*
X168075000Y-63925000D01*
X167250000Y-63925000D01*
X166750000Y-63925000D01*
X166730000Y-63925000D01*
X166730000Y-63625000D01*
X166750000Y-63625000D01*
X166750000Y-63250000D01*
X167250000Y-63250000D01*
X167250000Y-63625000D01*
X168075000Y-63625000D01*
X168150000Y-63550000D01*
X168150000Y-63445453D01*
X168138471Y-63387494D01*
X168115857Y-63332897D01*
X168083025Y-63283761D01*
X168041239Y-63241975D01*
X167992104Y-63209144D01*
X167937507Y-63186529D01*
X167879548Y-63175000D01*
X167325000Y-63175000D01*
X167250000Y-63250000D01*
X166750000Y-63250000D01*
X166675000Y-63175000D01*
X166577818Y-63175000D01*
X166626367Y-63126451D01*
X167850000Y-63126451D01*
X167897774Y-63122641D01*
X167978803Y-63097548D01*
X168049634Y-63050874D01*
X168104657Y-62986315D01*
X168139516Y-62908982D01*
X168151451Y-62825000D01*
X168151451Y-62225000D01*
X168147641Y-62177226D01*
X168122548Y-62096197D01*
X168075874Y-62025366D01*
X168011315Y-61970343D01*
X167933982Y-61935484D01*
X167850000Y-61923549D01*
X166150000Y-61923549D01*
X166102226Y-61927359D01*
X166021197Y-61952452D01*
X165950366Y-61999126D01*
X165950000Y-61999555D01*
X165950000Y-61796686D01*
X165988685Y-61829657D01*
X166066018Y-61864516D01*
X166150000Y-61876451D01*
X167850000Y-61876451D01*
X167897774Y-61872641D01*
X167978803Y-61847548D01*
X168025856Y-61816542D01*
X170292157Y-64082843D01*
X170320742Y-64106323D01*
X170349013Y-64130045D01*
X170350855Y-64131058D01*
X170352482Y-64132394D01*
X170385053Y-64149858D01*
X170417423Y-64167654D01*
X170419429Y-64168290D01*
X170421282Y-64169284D01*
X170456579Y-64180075D01*
X170491835Y-64191259D01*
X170493929Y-64191494D01*
X170495938Y-64192108D01*
X170532642Y-64195836D01*
X170569415Y-64199961D01*
X170573533Y-64199990D01*
X170573604Y-64199997D01*
X170573670Y-64199991D01*
X170575000Y-64200000D01*
X182585786Y-64200000D01*
X182622570Y-64196393D01*
X182659366Y-64193174D01*
X182661385Y-64192587D01*
X182663480Y-64192382D01*
X182698863Y-64181699D01*
X182734333Y-64171394D01*
X182736201Y-64170426D01*
X182738214Y-64169818D01*
X182770844Y-64152469D01*
X182803641Y-64135468D01*
X182805284Y-64134156D01*
X182807143Y-64133168D01*
X182835797Y-64109798D01*
X182864652Y-64086764D01*
X182867582Y-64083876D01*
X182867640Y-64083828D01*
X182867685Y-64083774D01*
X182868629Y-64082843D01*
X183347324Y-63604149D01*
X183524100Y-63780925D01*
X183560575Y-63812012D01*
X183607933Y-63836974D01*
X183614577Y-63854523D01*
X183665522Y-63922346D01*
X183842299Y-64099123D01*
X182741421Y-65200000D01*
X177100000Y-65200000D01*
X177063216Y-65203607D01*
X177026420Y-65206826D01*
X177024401Y-65207413D01*
X177022306Y-65207618D01*
X176986923Y-65218301D01*
X176951453Y-65228606D01*
X176949585Y-65229574D01*
X176947572Y-65230182D01*
X176914963Y-65247521D01*
X176882144Y-65264532D01*
X176880499Y-65265845D01*
X176878643Y-65266832D01*
X176850011Y-65290184D01*
X176821134Y-65313236D01*
X176818204Y-65316124D01*
X176818146Y-65316172D01*
X176818101Y-65316226D01*
X176817157Y-65317157D01*
X175842157Y-66292157D01*
X175818677Y-66320742D01*
X175794955Y-66349013D01*
X175793942Y-66350855D01*
X175792606Y-66352482D01*
X175775142Y-66385053D01*
X175757346Y-66417423D01*
X175756710Y-66419429D01*
X175755716Y-66421282D01*
X175744925Y-66456579D01*
X175733741Y-66491835D01*
X175733506Y-66493929D01*
X175732892Y-66495938D01*
X175729159Y-66532687D01*
X175725143Y-66568488D01*
X175696197Y-66577452D01*
X175625366Y-66624126D01*
X175570343Y-66688685D01*
X175535484Y-66766018D01*
X175523549Y-66850000D01*
X175523549Y-68550000D01*
X175527359Y-68597774D01*
X175552452Y-68678803D01*
X175599126Y-68749634D01*
X175663685Y-68804657D01*
X175741018Y-68839516D01*
X175814790Y-68850000D01*
X175649994Y-68850000D01*
X175588285Y-68824060D01*
X175473023Y-68800400D01*
X175355359Y-68799578D01*
X175239777Y-68821627D01*
X175130679Y-68865705D01*
X175032221Y-68930135D01*
X174948152Y-69012461D01*
X174881674Y-69109549D01*
X174864670Y-69149222D01*
X174842103Y-69134143D01*
X174787506Y-69111529D01*
X174729547Y-69100000D01*
X174525000Y-69100000D01*
X174450000Y-69175000D01*
X174450000Y-70500000D01*
X174925000Y-70500000D01*
X175000000Y-70425000D01*
X175000000Y-69839201D01*
X175019249Y-69859134D01*
X175115870Y-69926287D01*
X175223695Y-69973395D01*
X175338616Y-69998662D01*
X175456256Y-70001126D01*
X175572135Y-69980694D01*
X175651268Y-69950000D01*
X179760144Y-69950000D01*
X179813693Y-69973395D01*
X179928614Y-69998662D01*
X180046254Y-70001126D01*
X180162133Y-69980694D01*
X180271835Y-69938143D01*
X180371184Y-69875094D01*
X180456395Y-69793949D01*
X180524221Y-69697799D01*
X180572080Y-69590306D01*
X180598149Y-69475564D01*
X180599617Y-69370452D01*
X181000000Y-69370452D01*
X181000000Y-70425000D01*
X181075000Y-70500000D01*
X181550000Y-70500000D01*
X181550000Y-69175000D01*
X182050000Y-69175000D01*
X182050000Y-70500000D01*
X182525000Y-70500000D01*
X182600000Y-70425000D01*
X182600000Y-69370452D01*
X182598011Y-69360452D01*
X187240000Y-69360452D01*
X187240000Y-70415000D01*
X187315000Y-70490000D01*
X187790000Y-70490000D01*
X187790000Y-69165000D01*
X188290000Y-69165000D01*
X188290000Y-70490000D01*
X188765000Y-70490000D01*
X188840000Y-70415000D01*
X188840000Y-69360452D01*
X188828471Y-69302493D01*
X188805856Y-69247896D01*
X188773025Y-69198761D01*
X188731239Y-69156975D01*
X188682103Y-69124143D01*
X188627506Y-69101529D01*
X188569547Y-69090000D01*
X188365000Y-69090000D01*
X188290000Y-69165000D01*
X187790000Y-69165000D01*
X187715000Y-69090000D01*
X187510453Y-69090000D01*
X187452494Y-69101529D01*
X187397897Y-69124143D01*
X187348761Y-69156975D01*
X187306975Y-69198761D01*
X187274144Y-69247896D01*
X187251529Y-69302493D01*
X187240000Y-69360452D01*
X182598011Y-69360452D01*
X182588471Y-69312493D01*
X182565856Y-69257896D01*
X182533025Y-69208761D01*
X182491239Y-69166975D01*
X182442103Y-69134143D01*
X182387506Y-69111529D01*
X182329547Y-69100000D01*
X182125000Y-69100000D01*
X182050000Y-69175000D01*
X181550000Y-69175000D01*
X181475000Y-69100000D01*
X181270453Y-69100000D01*
X181212494Y-69111529D01*
X181157897Y-69134143D01*
X181108761Y-69166975D01*
X181066975Y-69208761D01*
X181034144Y-69257896D01*
X181011529Y-69312493D01*
X181000000Y-69370452D01*
X180599617Y-69370452D01*
X180600026Y-69341167D01*
X180577171Y-69225742D01*
X180532332Y-69116954D01*
X180467216Y-69018948D01*
X180384305Y-68935455D01*
X180286755Y-68869657D01*
X180228607Y-68845214D01*
X180262506Y-68838471D01*
X180317103Y-68815857D01*
X180366239Y-68783025D01*
X180408025Y-68741239D01*
X180440856Y-68692104D01*
X180463471Y-68637507D01*
X180475000Y-68579548D01*
X180475000Y-68025000D01*
X180400000Y-67950000D01*
X180025000Y-67950000D01*
X180025000Y-67970000D01*
X179725000Y-67970000D01*
X179725000Y-67950000D01*
X179350000Y-67950000D01*
X179275000Y-68025000D01*
X179275000Y-68321446D01*
X179226451Y-68272897D01*
X179226451Y-66850000D01*
X179224095Y-66820452D01*
X179275000Y-66820452D01*
X179275000Y-67375000D01*
X179350000Y-67450000D01*
X179725000Y-67450000D01*
X179725000Y-66625000D01*
X180025000Y-66625000D01*
X180025000Y-67450000D01*
X180400000Y-67450000D01*
X180475000Y-67375000D01*
X180475000Y-66820452D01*
X180463471Y-66762493D01*
X180440856Y-66707896D01*
X180408025Y-66658761D01*
X180366239Y-66616975D01*
X180317103Y-66584143D01*
X180262506Y-66561529D01*
X180204547Y-66550000D01*
X180100000Y-66550000D01*
X180025000Y-66625000D01*
X179725000Y-66625000D01*
X179650000Y-66550000D01*
X179545453Y-66550000D01*
X179487494Y-66561529D01*
X179432897Y-66584143D01*
X179383761Y-66616975D01*
X179341975Y-66658761D01*
X179309144Y-66707896D01*
X179286529Y-66762493D01*
X179275000Y-66820452D01*
X179224095Y-66820452D01*
X179222641Y-66802226D01*
X179197548Y-66721197D01*
X179150874Y-66650366D01*
X179086315Y-66595343D01*
X179008982Y-66560484D01*
X178925000Y-66548549D01*
X178325000Y-66548549D01*
X178277226Y-66552359D01*
X178196197Y-66577452D01*
X178125366Y-66624126D01*
X178070343Y-66688685D01*
X178035484Y-66766018D01*
X178023549Y-66850000D01*
X178023549Y-68550000D01*
X178027359Y-68597774D01*
X178052452Y-68678803D01*
X178099126Y-68749634D01*
X178163685Y-68804657D01*
X178234533Y-68836593D01*
X178234668Y-68836730D01*
X178234736Y-68836813D01*
X178234813Y-68836876D01*
X178236091Y-68838173D01*
X178247918Y-68850000D01*
X177693194Y-68850000D01*
X177722774Y-68847641D01*
X177803803Y-68822548D01*
X177874634Y-68775874D01*
X177929657Y-68711315D01*
X177964516Y-68633982D01*
X177976451Y-68550000D01*
X177976451Y-66850000D01*
X177972641Y-66802226D01*
X177947548Y-66721197D01*
X177906612Y-66659074D01*
X178165685Y-66400000D01*
X183214214Y-66400000D01*
X183250998Y-66396393D01*
X183287794Y-66393174D01*
X183289813Y-66392587D01*
X183291908Y-66392382D01*
X183327291Y-66381699D01*
X183362761Y-66371394D01*
X183364629Y-66370426D01*
X183366642Y-66369818D01*
X183399272Y-66352469D01*
X183432069Y-66335468D01*
X183433712Y-66334156D01*
X183435571Y-66333168D01*
X183464225Y-66309798D01*
X183493080Y-66286764D01*
X183496010Y-66283876D01*
X183496068Y-66283828D01*
X183496113Y-66283774D01*
X183497057Y-66282843D01*
X184761538Y-65018362D01*
X184938314Y-65195138D01*
X184974789Y-65226225D01*
X185000000Y-65239514D01*
X185000000Y-65448549D01*
X184952226Y-65452359D01*
X184871197Y-65477452D01*
X184800366Y-65524126D01*
X184745343Y-65588685D01*
X184710484Y-65666018D01*
X184698549Y-65750000D01*
X184698549Y-66250000D01*
X184702359Y-66297774D01*
X184727452Y-66378803D01*
X184774126Y-66449634D01*
X184838685Y-66504657D01*
X184916018Y-66539516D01*
X185000000Y-66551451D01*
X185800000Y-66551451D01*
X185847774Y-66547641D01*
X185928803Y-66522548D01*
X185999634Y-66475874D01*
X186000543Y-66474807D01*
X186008761Y-66483025D01*
X186057897Y-66515857D01*
X186112494Y-66538471D01*
X186170453Y-66550000D01*
X186325000Y-66550000D01*
X186400000Y-66475000D01*
X186400000Y-66125000D01*
X186800000Y-66125000D01*
X186800000Y-66475000D01*
X186875000Y-66550000D01*
X187029547Y-66550000D01*
X187087506Y-66538471D01*
X187142103Y-66515857D01*
X187191239Y-66483025D01*
X187233025Y-66441239D01*
X187265856Y-66392104D01*
X187288471Y-66337507D01*
X187300000Y-66279548D01*
X187300000Y-66200000D01*
X187225000Y-66125000D01*
X186800000Y-66125000D01*
X186400000Y-66125000D01*
X186330000Y-66125000D01*
X186330000Y-65875000D01*
X186400000Y-65875000D01*
X186400000Y-65525000D01*
X186800000Y-65525000D01*
X186800000Y-65875000D01*
X187225000Y-65875000D01*
X187300000Y-65800000D01*
X187300000Y-65720452D01*
X187288471Y-65662493D01*
X187265856Y-65607896D01*
X187233025Y-65558761D01*
X187191239Y-65516975D01*
X187142103Y-65484143D01*
X187087506Y-65461529D01*
X187029547Y-65450000D01*
X186875000Y-65450000D01*
X186800000Y-65525000D01*
X186400000Y-65525000D01*
X186325000Y-65450000D01*
X186170453Y-65450000D01*
X186112494Y-65461529D01*
X186057897Y-65484143D01*
X186008761Y-65516975D01*
X185998608Y-65527128D01*
X185961315Y-65495343D01*
X185883982Y-65460484D01*
X185800000Y-65448549D01*
X185800000Y-64759768D01*
X185894956Y-64664812D01*
X185894960Y-64664809D01*
X186000000Y-64559769D01*
X186105040Y-64664809D01*
X186105045Y-64664813D01*
X186635370Y-65195138D01*
X186671845Y-65226225D01*
X186746885Y-65265778D01*
X186829974Y-65282859D01*
X186914531Y-65276117D01*
X186993863Y-65246083D01*
X187061686Y-65195138D01*
X187273818Y-64983006D01*
X187304905Y-64946531D01*
X187329867Y-64899174D01*
X187347416Y-64892530D01*
X187415239Y-64841585D01*
X187627371Y-64629453D01*
X187658458Y-64592978D01*
X187683419Y-64545621D01*
X187700970Y-64538977D01*
X187768793Y-64488032D01*
X187980925Y-64275900D01*
X188012012Y-64239425D01*
X188036974Y-64192067D01*
X188054523Y-64185423D01*
X188122346Y-64134478D01*
X188334478Y-63922346D01*
X188365565Y-63885871D01*
X188390526Y-63838514D01*
X188408077Y-63831870D01*
X188475900Y-63780925D01*
X188688032Y-63568793D01*
X188719119Y-63532318D01*
X188744081Y-63484960D01*
X188761630Y-63478316D01*
X188829453Y-63427371D01*
X189006229Y-63250595D01*
X190240000Y-64484365D01*
X190240000Y-66490000D01*
X190243607Y-66526784D01*
X190244636Y-66538549D01*
X189740000Y-66538549D01*
X189692226Y-66542359D01*
X189611197Y-66567452D01*
X189540366Y-66614126D01*
X189485343Y-66678685D01*
X189450484Y-66756018D01*
X189438549Y-66840000D01*
X189438549Y-67168142D01*
X189379909Y-67238026D01*
X189304692Y-67374846D01*
X189257482Y-67523671D01*
X189240078Y-67678830D01*
X189240000Y-67690000D01*
X189240000Y-69790000D01*
X189247207Y-69863506D01*
X189253651Y-69937161D01*
X189254826Y-69941205D01*
X189255236Y-69945387D01*
X189276580Y-70016081D01*
X189297211Y-70087094D01*
X189299147Y-70090830D01*
X189300363Y-70094856D01*
X189335062Y-70160116D01*
X189369064Y-70225711D01*
X189371687Y-70228997D01*
X189373663Y-70232713D01*
X189420369Y-70289981D01*
X189466471Y-70347732D01*
X189472242Y-70353583D01*
X189472343Y-70353707D01*
X189472458Y-70353802D01*
X189474315Y-70355685D01*
X190174314Y-71055685D01*
X190294963Y-71154787D01*
X190432563Y-71228568D01*
X190581874Y-71274216D01*
X190737207Y-71289995D01*
X190892647Y-71275301D01*
X191042273Y-71230696D01*
X191180384Y-71157878D01*
X191301722Y-71059621D01*
X191401664Y-70939667D01*
X191476403Y-70802585D01*
X191523094Y-70653596D01*
X191539956Y-70498377D01*
X191526348Y-70342839D01*
X191482788Y-70192906D01*
X191410936Y-70054288D01*
X191313528Y-69932268D01*
X191305685Y-69924314D01*
X190840000Y-69458630D01*
X190840000Y-69360452D01*
X196240000Y-69360452D01*
X196240000Y-70415000D01*
X196315000Y-70490000D01*
X196790000Y-70490000D01*
X196790000Y-69165000D01*
X197290000Y-69165000D01*
X197290000Y-70490000D01*
X197765000Y-70490000D01*
X197840000Y-70415000D01*
X197840000Y-69360452D01*
X197828471Y-69302493D01*
X197805856Y-69247896D01*
X197773025Y-69198761D01*
X197731239Y-69156975D01*
X197682103Y-69124143D01*
X197627506Y-69101529D01*
X197569547Y-69090000D01*
X197365000Y-69090000D01*
X197290000Y-69165000D01*
X196790000Y-69165000D01*
X196715000Y-69090000D01*
X196510453Y-69090000D01*
X196452494Y-69101529D01*
X196397897Y-69124143D01*
X196348761Y-69156975D01*
X196306975Y-69198761D01*
X196274144Y-69247896D01*
X196251529Y-69302493D01*
X196240000Y-69360452D01*
X190840000Y-69360452D01*
X190840000Y-68799757D01*
X190906018Y-68829516D01*
X190990000Y-68841451D01*
X191590000Y-68841451D01*
X191637774Y-68837641D01*
X191718803Y-68812548D01*
X191789634Y-68765874D01*
X191844657Y-68701315D01*
X191879516Y-68623982D01*
X191891451Y-68540000D01*
X191891451Y-67057137D01*
X191938549Y-67104235D01*
X191938549Y-68540000D01*
X191942359Y-68587774D01*
X191967452Y-68668803D01*
X192014126Y-68739634D01*
X192078685Y-68794657D01*
X192156018Y-68829516D01*
X192240000Y-68841451D01*
X192840000Y-68841451D01*
X192887774Y-68837641D01*
X192968803Y-68812548D01*
X193039634Y-68765874D01*
X193094657Y-68701315D01*
X193129516Y-68623982D01*
X193141451Y-68540000D01*
X193141451Y-66840000D01*
X193188549Y-66840000D01*
X193188549Y-68540000D01*
X193192359Y-68587774D01*
X193217452Y-68668803D01*
X193264126Y-68739634D01*
X193328685Y-68794657D01*
X193406018Y-68829516D01*
X193490000Y-68841451D01*
X194090000Y-68841451D01*
X194137774Y-68837641D01*
X194218803Y-68812548D01*
X194289634Y-68765874D01*
X194344657Y-68701315D01*
X194379516Y-68623982D01*
X194391451Y-68540000D01*
X194391451Y-68015000D01*
X194440000Y-68015000D01*
X194440000Y-68569548D01*
X194451529Y-68627507D01*
X194474144Y-68682104D01*
X194506975Y-68731239D01*
X194548761Y-68773025D01*
X194597897Y-68805857D01*
X194652494Y-68828471D01*
X194710453Y-68840000D01*
X194815000Y-68840000D01*
X194890000Y-68765000D01*
X194890000Y-67940000D01*
X195190000Y-67940000D01*
X195190000Y-68765000D01*
X195265000Y-68840000D01*
X195369547Y-68840000D01*
X195427506Y-68828471D01*
X195482103Y-68805857D01*
X195531239Y-68773025D01*
X195573025Y-68731239D01*
X195605856Y-68682104D01*
X195628471Y-68627507D01*
X195640000Y-68569548D01*
X195640000Y-68015000D01*
X195565000Y-67940000D01*
X195190000Y-67940000D01*
X194890000Y-67940000D01*
X194515000Y-67940000D01*
X194440000Y-68015000D01*
X194391451Y-68015000D01*
X194391451Y-66840000D01*
X194389095Y-66810452D01*
X194440000Y-66810452D01*
X194440000Y-67365000D01*
X194515000Y-67440000D01*
X194890000Y-67440000D01*
X194890000Y-66615000D01*
X195190000Y-66615000D01*
X195190000Y-67440000D01*
X195565000Y-67440000D01*
X195640000Y-67365000D01*
X195640000Y-66810452D01*
X195628471Y-66752493D01*
X195605856Y-66697896D01*
X195573025Y-66648761D01*
X195531239Y-66606975D01*
X195482103Y-66574143D01*
X195427506Y-66551529D01*
X195369547Y-66540000D01*
X195265000Y-66540000D01*
X195190000Y-66615000D01*
X194890000Y-66615000D01*
X194815000Y-66540000D01*
X194710453Y-66540000D01*
X194652494Y-66551529D01*
X194597897Y-66574143D01*
X194548761Y-66606975D01*
X194506975Y-66648761D01*
X194474144Y-66697896D01*
X194451529Y-66752493D01*
X194440000Y-66810452D01*
X194389095Y-66810452D01*
X194387641Y-66792226D01*
X194362548Y-66711197D01*
X194315874Y-66640366D01*
X194251315Y-66585343D01*
X194190000Y-66557704D01*
X194190000Y-65737653D01*
X194246395Y-65683949D01*
X194287978Y-65625000D01*
X195115000Y-65625000D01*
X195115000Y-66229547D01*
X195126529Y-66287506D01*
X195149143Y-66342103D01*
X195181975Y-66391239D01*
X195223761Y-66433025D01*
X195272896Y-66465856D01*
X195327493Y-66488471D01*
X195385452Y-66500000D01*
X195715000Y-66500000D01*
X195790000Y-66425000D01*
X195790000Y-65550000D01*
X196290000Y-65550000D01*
X196290000Y-66425000D01*
X196365000Y-66500000D01*
X196694548Y-66500000D01*
X196752507Y-66488471D01*
X196807104Y-66465856D01*
X196856239Y-66433025D01*
X196898025Y-66391239D01*
X196930857Y-66342103D01*
X196953471Y-66287506D01*
X196965000Y-66229547D01*
X196965000Y-65625000D01*
X197175000Y-65625000D01*
X197175000Y-66229547D01*
X197186529Y-66287506D01*
X197209143Y-66342103D01*
X197241975Y-66391239D01*
X197283761Y-66433025D01*
X197332896Y-66465856D01*
X197387493Y-66488471D01*
X197445452Y-66500000D01*
X197775000Y-66500000D01*
X197850000Y-66425000D01*
X197850000Y-65550000D01*
X197250000Y-65550000D01*
X197175000Y-65625000D01*
X196965000Y-65625000D01*
X196890000Y-65550000D01*
X196290000Y-65550000D01*
X195790000Y-65550000D01*
X195190000Y-65550000D01*
X195115000Y-65625000D01*
X194287978Y-65625000D01*
X194314221Y-65587799D01*
X194362080Y-65480306D01*
X194388149Y-65365564D01*
X194389184Y-65291451D01*
X194790000Y-65291451D01*
X194837774Y-65287641D01*
X194918803Y-65262548D01*
X194989634Y-65215874D01*
X195044657Y-65151315D01*
X195079516Y-65073982D01*
X195091451Y-64990000D01*
X195091451Y-64370453D01*
X195115000Y-64370453D01*
X195115000Y-64975000D01*
X195190000Y-65050000D01*
X195790000Y-65050000D01*
X195790000Y-64175000D01*
X196290000Y-64175000D01*
X196290000Y-65050000D01*
X196890000Y-65050000D01*
X196965000Y-64975000D01*
X196965000Y-64370453D01*
X197175000Y-64370453D01*
X197175000Y-64975000D01*
X197250000Y-65050000D01*
X197850000Y-65050000D01*
X197850000Y-64175000D01*
X197775000Y-64100000D01*
X197445452Y-64100000D01*
X197387493Y-64111529D01*
X197332896Y-64134144D01*
X197283761Y-64166975D01*
X197241975Y-64208761D01*
X197209143Y-64257897D01*
X197186529Y-64312494D01*
X197175000Y-64370453D01*
X196965000Y-64370453D01*
X196953471Y-64312494D01*
X196930857Y-64257897D01*
X196898025Y-64208761D01*
X196856239Y-64166975D01*
X196807104Y-64134144D01*
X196752507Y-64111529D01*
X196694548Y-64100000D01*
X196365000Y-64100000D01*
X196290000Y-64175000D01*
X195790000Y-64175000D01*
X195715000Y-64100000D01*
X195385452Y-64100000D01*
X195327493Y-64111529D01*
X195272896Y-64134144D01*
X195223761Y-64166975D01*
X195181975Y-64208761D01*
X195149143Y-64257897D01*
X195126529Y-64312494D01*
X195115000Y-64370453D01*
X195091451Y-64370453D01*
X195091451Y-64190000D01*
X195087641Y-64142226D01*
X195062548Y-64061197D01*
X195015874Y-63990366D01*
X195014807Y-63989457D01*
X195023025Y-63981239D01*
X195055857Y-63932103D01*
X195078471Y-63877506D01*
X195090000Y-63819547D01*
X195090000Y-63665000D01*
X195015000Y-63590000D01*
X194665000Y-63590000D01*
X194665000Y-63660000D01*
X194415000Y-63660000D01*
X194415000Y-63590000D01*
X194065000Y-63590000D01*
X193990000Y-63665000D01*
X193990000Y-63819547D01*
X194001529Y-63877506D01*
X194024143Y-63932103D01*
X194056975Y-63981239D01*
X194067128Y-63991392D01*
X194035343Y-64028685D01*
X194000484Y-64106018D01*
X193988549Y-64190000D01*
X193988549Y-64204791D01*
X193976923Y-64208301D01*
X193941453Y-64218606D01*
X193939585Y-64219574D01*
X193937572Y-64220182D01*
X193904942Y-64237531D01*
X193872145Y-64254532D01*
X193870502Y-64255844D01*
X193868643Y-64256832D01*
X193839989Y-64280202D01*
X193811134Y-64303236D01*
X193808204Y-64306124D01*
X193808146Y-64306172D01*
X193808101Y-64306226D01*
X193807157Y-64307157D01*
X193507157Y-64607157D01*
X193483677Y-64635742D01*
X193459955Y-64664013D01*
X193458942Y-64665855D01*
X193457606Y-64667482D01*
X193440142Y-64700053D01*
X193422346Y-64732423D01*
X193421710Y-64734429D01*
X193420716Y-64736282D01*
X193409925Y-64771579D01*
X193398741Y-64806835D01*
X193398506Y-64808929D01*
X193397892Y-64810938D01*
X193395272Y-64836731D01*
X193328150Y-64902461D01*
X193261672Y-64999549D01*
X193215318Y-65107700D01*
X193190854Y-65222795D01*
X193189211Y-65340450D01*
X193210452Y-65456183D01*
X193253768Y-65565586D01*
X193317509Y-65664492D01*
X193390000Y-65739558D01*
X193390000Y-66558532D01*
X193361197Y-66567452D01*
X193290366Y-66614126D01*
X193235343Y-66678685D01*
X193200484Y-66756018D01*
X193188549Y-66840000D01*
X193141451Y-66840000D01*
X193137641Y-66792226D01*
X193112548Y-66711197D01*
X193065874Y-66640366D01*
X193001315Y-66585343D01*
X192923982Y-66550484D01*
X192840000Y-66538549D01*
X192504235Y-66538549D01*
X192140000Y-66174314D01*
X192140000Y-64145888D01*
X192136389Y-64109059D01*
X192133174Y-64072308D01*
X192132587Y-64070289D01*
X192132382Y-64068194D01*
X192121694Y-64032795D01*
X192121611Y-64032508D01*
X192155177Y-64066074D01*
X192153999Y-64150450D01*
X192175240Y-64266183D01*
X192218556Y-64375586D01*
X192282297Y-64474492D01*
X192364035Y-64559134D01*
X192460656Y-64626287D01*
X192568481Y-64673395D01*
X192683402Y-64698662D01*
X192801042Y-64701126D01*
X192916921Y-64680694D01*
X193026623Y-64638143D01*
X193125972Y-64575094D01*
X193211183Y-64493949D01*
X193279009Y-64397799D01*
X193326868Y-64290306D01*
X193352937Y-64175564D01*
X193354814Y-64041167D01*
X193331959Y-63925742D01*
X193287120Y-63816954D01*
X193222004Y-63718948D01*
X193139093Y-63635455D01*
X193041543Y-63569657D01*
X192933071Y-63524060D01*
X192817809Y-63500400D01*
X192720191Y-63499718D01*
X192180927Y-62960453D01*
X193990000Y-62960453D01*
X193990000Y-63115000D01*
X194065000Y-63190000D01*
X194415000Y-63190000D01*
X194415000Y-62765000D01*
X194665000Y-62765000D01*
X194665000Y-63190000D01*
X195015000Y-63190000D01*
X195090000Y-63115000D01*
X195090000Y-62960453D01*
X195078471Y-62902494D01*
X195055857Y-62847897D01*
X195023025Y-62798761D01*
X194981239Y-62756975D01*
X194932104Y-62724144D01*
X194877507Y-62701529D01*
X194819548Y-62690000D01*
X194740000Y-62690000D01*
X194665000Y-62765000D01*
X194415000Y-62765000D01*
X194340000Y-62690000D01*
X194260452Y-62690000D01*
X194202493Y-62701529D01*
X194147896Y-62724144D01*
X194098761Y-62756975D01*
X194056975Y-62798761D01*
X194024143Y-62847897D01*
X194001529Y-62902494D01*
X193990000Y-62960453D01*
X192180927Y-62960453D01*
X190390000Y-61169526D01*
X190390000Y-60073296D01*
X190402494Y-60078471D01*
X190460453Y-60090000D01*
X190490000Y-60090000D01*
X190565000Y-60015000D01*
X190565000Y-59590000D01*
X190490000Y-59590000D01*
X190490000Y-59190000D01*
X190565000Y-59190000D01*
X190565000Y-59120000D01*
X190715000Y-59120000D01*
X190715000Y-59190000D01*
X190790000Y-59190000D01*
X190790000Y-59590000D01*
X190715000Y-59590000D01*
X190715000Y-60015000D01*
X190790000Y-60090000D01*
X190819547Y-60090000D01*
X190877506Y-60078471D01*
X190932103Y-60055857D01*
X190965580Y-60033488D01*
X190978685Y-60044657D01*
X191056018Y-60079516D01*
X191140000Y-60091451D01*
X191440000Y-60091451D01*
X191487774Y-60087641D01*
X191568803Y-60062548D01*
X191639634Y-60015874D01*
X191694657Y-59951315D01*
X191729516Y-59873982D01*
X191741451Y-59790000D01*
X191741451Y-59725000D01*
X192100000Y-59725000D01*
X192100000Y-59929547D01*
X192111529Y-59987506D01*
X192134143Y-60042103D01*
X192166975Y-60091239D01*
X192208761Y-60133025D01*
X192257896Y-60165856D01*
X192312493Y-60188471D01*
X192370452Y-60200000D01*
X192675000Y-60200000D01*
X192750000Y-60125000D01*
X192750000Y-59650000D01*
X193250000Y-59650000D01*
X193250000Y-60125000D01*
X193325000Y-60200000D01*
X193629548Y-60200000D01*
X193687507Y-60188471D01*
X193742104Y-60165856D01*
X193791239Y-60133025D01*
X193833025Y-60091239D01*
X193865857Y-60042103D01*
X193888471Y-59987506D01*
X193900000Y-59929547D01*
X193900000Y-59725000D01*
X193825000Y-59650000D01*
X193250000Y-59650000D01*
X192750000Y-59650000D01*
X192175000Y-59650000D01*
X192100000Y-59725000D01*
X191741451Y-59725000D01*
X191741451Y-59504235D01*
X192135343Y-59110343D01*
X192175000Y-59150000D01*
X192750000Y-59150000D01*
X192750000Y-58675000D01*
X193250000Y-58675000D01*
X193250000Y-59150000D01*
X193825000Y-59150000D01*
X193900000Y-59075000D01*
X193900000Y-58950000D01*
X193948549Y-58950000D01*
X193948549Y-60150000D01*
X193952359Y-60197774D01*
X193977452Y-60278803D01*
X194000348Y-60313549D01*
X194004958Y-60360564D01*
X194009386Y-60411175D01*
X194010193Y-60413952D01*
X194010475Y-60416831D01*
X194025162Y-60465478D01*
X194039333Y-60514254D01*
X194040664Y-60516821D01*
X194041500Y-60519591D01*
X194065368Y-60564481D01*
X194088732Y-60609554D01*
X194090534Y-60611812D01*
X194091893Y-60614367D01*
X194124035Y-60653777D01*
X194155700Y-60693443D01*
X194159668Y-60697468D01*
X194159736Y-60697551D01*
X194159813Y-60697614D01*
X194161091Y-60698911D01*
X194451091Y-60988910D01*
X194490344Y-61021153D01*
X194529267Y-61053813D01*
X194531800Y-61055206D01*
X194534037Y-61057043D01*
X194578855Y-61081074D01*
X194623331Y-61105525D01*
X194626085Y-61106399D01*
X194628637Y-61107767D01*
X194677266Y-61122634D01*
X194725648Y-61137982D01*
X194728520Y-61138304D01*
X194731287Y-61139150D01*
X194781869Y-61144288D01*
X194832320Y-61149947D01*
X194837969Y-61149987D01*
X194838080Y-61149998D01*
X194838183Y-61149988D01*
X194839999Y-61150001D01*
X196160001Y-61150001D01*
X196210563Y-61145043D01*
X196261174Y-61140615D01*
X196263951Y-61139808D01*
X196266830Y-61139526D01*
X196315477Y-61124839D01*
X196364253Y-61110668D01*
X196366820Y-61109337D01*
X196369590Y-61108501D01*
X196414480Y-61084633D01*
X196459553Y-61061269D01*
X196461811Y-61059467D01*
X196464366Y-61058108D01*
X196503776Y-61025966D01*
X196543442Y-60994301D01*
X196547467Y-60990333D01*
X196547550Y-60990265D01*
X196547613Y-60990188D01*
X196548910Y-60988910D01*
X196838909Y-60698910D01*
X196871152Y-60659657D01*
X196903812Y-60620734D01*
X196905205Y-60618201D01*
X196907042Y-60615964D01*
X196931073Y-60571146D01*
X196955524Y-60526670D01*
X196956398Y-60523916D01*
X196957766Y-60521364D01*
X196972633Y-60472735D01*
X196987981Y-60424353D01*
X196988303Y-60421481D01*
X196989149Y-60418714D01*
X196994287Y-60368132D01*
X196999946Y-60317681D01*
X196999952Y-60316835D01*
X197004657Y-60311315D01*
X197039516Y-60233982D01*
X197051451Y-60150000D01*
X197051451Y-60100000D01*
X197174555Y-60100000D01*
X197238685Y-60154657D01*
X197300000Y-60182296D01*
X197300000Y-61557893D01*
X197275366Y-61574126D01*
X197220343Y-61638685D01*
X197185484Y-61716018D01*
X197173549Y-61800000D01*
X197173549Y-61900000D01*
X196966451Y-61900000D01*
X196966451Y-61800000D01*
X196962641Y-61752226D01*
X196937548Y-61671197D01*
X196890874Y-61600366D01*
X196826315Y-61545343D01*
X196748982Y-61510484D01*
X196665000Y-61498549D01*
X195415000Y-61498549D01*
X195367226Y-61502359D01*
X195286197Y-61527452D01*
X195215366Y-61574126D01*
X195160343Y-61638685D01*
X195125484Y-61716018D01*
X195113549Y-61800000D01*
X195113549Y-63600000D01*
X195117359Y-63647774D01*
X195142452Y-63728803D01*
X195189126Y-63799634D01*
X195253685Y-63854657D01*
X195331018Y-63889516D01*
X195415000Y-63901451D01*
X196665000Y-63901451D01*
X196712774Y-63897641D01*
X196793803Y-63872548D01*
X196864634Y-63825874D01*
X196919657Y-63761315D01*
X196954516Y-63683982D01*
X196966451Y-63600000D01*
X196966451Y-63500000D01*
X197173549Y-63500000D01*
X197173549Y-63600000D01*
X197177359Y-63647774D01*
X197202452Y-63728803D01*
X197249126Y-63799634D01*
X197313685Y-63854657D01*
X197391018Y-63889516D01*
X197475000Y-63901451D01*
X198725000Y-63901451D01*
X198772774Y-63897641D01*
X198853803Y-63872548D01*
X198924634Y-63825874D01*
X198979657Y-63761315D01*
X199014516Y-63683982D01*
X199026451Y-63600000D01*
X199026451Y-63208661D01*
X199068685Y-63244657D01*
X199146018Y-63279516D01*
X199230000Y-63291451D01*
X201770000Y-63291451D01*
X201788194Y-63290000D01*
X202300000Y-63290000D01*
X202503946Y-63270003D01*
X202700124Y-63210773D01*
X202881061Y-63114567D01*
X203039866Y-62985049D01*
X203170489Y-62827153D01*
X203267956Y-62646891D01*
X203328554Y-62451132D01*
X203349974Y-62247330D01*
X203331402Y-62043250D01*
X203273543Y-61846663D01*
X203178603Y-61665059D01*
X203050196Y-61505353D01*
X202893215Y-61373631D01*
X202713639Y-61274908D01*
X202518307Y-61212945D01*
X202314660Y-61190102D01*
X202300000Y-61190000D01*
X201780210Y-61190000D01*
X201770000Y-61188549D01*
X199230000Y-61188549D01*
X199182226Y-61192359D01*
X199101197Y-61217452D01*
X199030366Y-61264126D01*
X198975343Y-61328685D01*
X198940484Y-61406018D01*
X198928549Y-61490000D01*
X198928549Y-61581339D01*
X198900000Y-61557007D01*
X198900000Y-60500000D01*
X198933048Y-60500000D01*
X198957452Y-60578803D01*
X199004126Y-60649634D01*
X199068685Y-60704657D01*
X199146018Y-60739516D01*
X199230000Y-60751451D01*
X201770000Y-60751451D01*
X201788194Y-60750000D01*
X203265076Y-60750000D01*
X203950000Y-61434924D01*
X203950000Y-64534314D01*
X203232843Y-63817157D01*
X203204258Y-63793677D01*
X203175987Y-63769955D01*
X203174145Y-63768942D01*
X203172518Y-63767606D01*
X203139947Y-63750142D01*
X203107577Y-63732346D01*
X203105571Y-63731710D01*
X203103718Y-63730716D01*
X203068421Y-63719925D01*
X203033165Y-63708741D01*
X203031071Y-63708506D01*
X203029062Y-63707892D01*
X202992313Y-63704159D01*
X202955585Y-63700039D01*
X202951478Y-63700010D01*
X202951396Y-63700002D01*
X202951320Y-63700009D01*
X202950000Y-63700000D01*
X199948400Y-63700000D01*
X199884305Y-63635455D01*
X199786755Y-63569657D01*
X199678283Y-63524060D01*
X199563021Y-63500400D01*
X199445357Y-63499578D01*
X199329775Y-63521627D01*
X199220677Y-63565705D01*
X199122219Y-63630135D01*
X199038150Y-63712461D01*
X198971672Y-63809549D01*
X198925318Y-63917700D01*
X198900854Y-64032795D01*
X198899211Y-64150450D01*
X198900288Y-64156317D01*
X198867104Y-64134144D01*
X198812507Y-64111529D01*
X198754548Y-64100000D01*
X198425000Y-64100000D01*
X198350000Y-64175000D01*
X198350000Y-65050000D01*
X198370000Y-65050000D01*
X198370000Y-65550000D01*
X198350000Y-65550000D01*
X198350000Y-66425000D01*
X198425000Y-66500000D01*
X198754548Y-66500000D01*
X198812507Y-66488471D01*
X198867104Y-66465856D01*
X198916239Y-66433025D01*
X198950000Y-66399264D01*
X198950000Y-66439548D01*
X198961529Y-66497507D01*
X198984144Y-66552104D01*
X199016975Y-66601239D01*
X199046492Y-66630756D01*
X199014982Y-66647511D01*
X198982145Y-66664531D01*
X198980498Y-66665845D01*
X198978643Y-66666832D01*
X198950016Y-66690179D01*
X198921134Y-66713236D01*
X198918204Y-66716124D01*
X198918146Y-66716172D01*
X198918101Y-66716226D01*
X198917157Y-66717157D01*
X198557157Y-67077157D01*
X198533677Y-67105742D01*
X198509955Y-67134013D01*
X198508942Y-67135855D01*
X198507606Y-67137482D01*
X198490172Y-67169997D01*
X198472346Y-67202423D01*
X198471710Y-67204429D01*
X198470716Y-67206282D01*
X198459925Y-67241579D01*
X198448741Y-67276835D01*
X198448506Y-67278929D01*
X198447892Y-67280938D01*
X198444159Y-67317687D01*
X198440039Y-67354415D01*
X198440010Y-67358522D01*
X198440002Y-67358604D01*
X198440009Y-67358680D01*
X198440000Y-67360000D01*
X198440000Y-69580000D01*
X198443607Y-69616784D01*
X198446826Y-69653580D01*
X198447413Y-69655599D01*
X198447618Y-69657694D01*
X198458301Y-69693077D01*
X198468606Y-69728547D01*
X198469574Y-69730415D01*
X198470182Y-69732428D01*
X198487531Y-69765058D01*
X198504532Y-69797855D01*
X198505844Y-69799498D01*
X198506832Y-69801357D01*
X198530202Y-69830011D01*
X198553236Y-69858866D01*
X198556124Y-69861796D01*
X198556172Y-69861854D01*
X198556226Y-69861899D01*
X198557157Y-69862843D01*
X198948549Y-70254235D01*
X198948549Y-71490000D01*
X198952359Y-71537774D01*
X198977452Y-71618803D01*
X199024126Y-71689634D01*
X199088685Y-71744657D01*
X199166018Y-71779516D01*
X199250000Y-71791451D01*
X201790000Y-71791451D01*
X201808194Y-71790000D01*
X202300000Y-71790000D01*
X202503946Y-71770003D01*
X202700124Y-71710773D01*
X202881061Y-71614567D01*
X203039866Y-71485049D01*
X203170489Y-71327153D01*
X203267956Y-71146891D01*
X203328554Y-70951132D01*
X203349974Y-70747330D01*
X203331402Y-70543250D01*
X203273543Y-70346663D01*
X203178603Y-70165059D01*
X203050196Y-70005353D01*
X202893215Y-69873631D01*
X202713639Y-69774908D01*
X202518307Y-69712945D01*
X202314660Y-69690102D01*
X202300000Y-69690000D01*
X201800210Y-69690000D01*
X201790000Y-69688549D01*
X199514235Y-69688549D01*
X199240000Y-69414314D01*
X199240000Y-69250030D01*
X199250000Y-69251451D01*
X201790000Y-69251451D01*
X201808194Y-69250000D01*
X203600000Y-69250000D01*
X203696509Y-69240537D01*
X203793149Y-69232082D01*
X203798450Y-69230542D01*
X203803946Y-69230003D01*
X203896800Y-69201969D01*
X203989936Y-69174910D01*
X203994838Y-69172369D01*
X204000124Y-69170773D01*
X204085749Y-69125245D01*
X204171871Y-69080604D01*
X204176187Y-69077158D01*
X204181061Y-69074567D01*
X204256196Y-69013288D01*
X204332024Y-68952756D01*
X204339709Y-68945177D01*
X204339866Y-68945049D01*
X204339986Y-68944903D01*
X204342462Y-68942462D01*
X205742462Y-67542462D01*
X205804025Y-67467513D01*
X205866369Y-67393215D01*
X205869028Y-67388378D01*
X205872534Y-67384110D01*
X205918382Y-67298604D01*
X205965092Y-67213639D01*
X205966761Y-67208378D01*
X205969371Y-67203510D01*
X205997723Y-67110772D01*
X206027055Y-67018307D01*
X206027671Y-67012816D01*
X206029284Y-67007540D01*
X206039077Y-66911127D01*
X206049898Y-66814660D01*
X206049973Y-66803861D01*
X206049993Y-66803665D01*
X206049976Y-66803483D01*
X206050000Y-66800000D01*
X206050000Y-61000000D01*
X206040537Y-60903491D01*
X206032082Y-60806851D01*
X206030542Y-60801550D01*
X206030003Y-60796054D01*
X206001969Y-60703200D01*
X205974910Y-60610064D01*
X205972369Y-60605162D01*
X205970773Y-60599876D01*
X205925245Y-60514251D01*
X205880604Y-60428129D01*
X205877158Y-60423813D01*
X205874567Y-60418939D01*
X205813288Y-60343804D01*
X205752756Y-60267976D01*
X205745177Y-60260291D01*
X205745049Y-60260134D01*
X205744903Y-60260014D01*
X205742462Y-60257538D01*
X204442462Y-58957538D01*
X204367492Y-58895956D01*
X204293215Y-58833631D01*
X204288381Y-58830974D01*
X204284111Y-58827466D01*
X204198583Y-58781606D01*
X204113639Y-58734908D01*
X204108378Y-58733239D01*
X204103510Y-58730629D01*
X204010772Y-58702277D01*
X203918307Y-58672945D01*
X203912816Y-58672329D01*
X203907540Y-58670716D01*
X203811127Y-58660923D01*
X203714660Y-58650102D01*
X203703861Y-58650027D01*
X203703665Y-58650007D01*
X203703483Y-58650024D01*
X203700000Y-58650000D01*
X201780210Y-58650000D01*
X201770000Y-58648549D01*
X199230000Y-58648549D01*
X199182226Y-58652359D01*
X199101197Y-58677452D01*
X199030366Y-58724126D01*
X198975343Y-58788685D01*
X198940484Y-58866018D01*
X198935655Y-58900000D01*
X198901451Y-58900000D01*
X198897641Y-58852226D01*
X198872548Y-58771197D01*
X198825874Y-58700366D01*
X198761315Y-58645343D01*
X198683982Y-58610484D01*
X198600000Y-58598549D01*
X197400000Y-58598549D01*
X197352226Y-58602359D01*
X197271197Y-58627452D01*
X197200366Y-58674126D01*
X197145343Y-58738685D01*
X197110484Y-58816018D01*
X197098549Y-58900000D01*
X197098549Y-59000000D01*
X197051451Y-59000000D01*
X197051451Y-58950000D01*
X197047641Y-58902226D01*
X197022548Y-58821197D01*
X196975874Y-58750366D01*
X196911315Y-58695343D01*
X196833982Y-58660484D01*
X196750000Y-58648549D01*
X196150000Y-58648549D01*
X196102226Y-58652359D01*
X196021197Y-58677452D01*
X195976333Y-58707015D01*
X195942103Y-58684143D01*
X195887506Y-58661529D01*
X195829547Y-58650000D01*
X195725000Y-58650000D01*
X195650000Y-58725000D01*
X195650000Y-59300000D01*
X195770000Y-59300000D01*
X195770000Y-59800000D01*
X195650000Y-59800000D01*
X195650000Y-59820000D01*
X195350000Y-59820000D01*
X195350000Y-59800000D01*
X195230000Y-59800000D01*
X195230000Y-59300000D01*
X195350000Y-59300000D01*
X195350000Y-58725000D01*
X195275000Y-58650000D01*
X195170453Y-58650000D01*
X195112494Y-58661529D01*
X195057897Y-58684143D01*
X195024420Y-58706512D01*
X195011315Y-58695343D01*
X194933982Y-58660484D01*
X194850000Y-58648549D01*
X194250000Y-58648549D01*
X194202226Y-58652359D01*
X194121197Y-58677452D01*
X194050366Y-58724126D01*
X193995343Y-58788685D01*
X193960484Y-58866018D01*
X193948549Y-58950000D01*
X193900000Y-58950000D01*
X193900000Y-58870453D01*
X193888471Y-58812494D01*
X193865857Y-58757897D01*
X193833025Y-58708761D01*
X193791239Y-58666975D01*
X193742104Y-58634144D01*
X193687507Y-58611529D01*
X193629548Y-58600000D01*
X193325000Y-58600000D01*
X193250000Y-58675000D01*
X192750000Y-58675000D01*
X192675000Y-58600000D01*
X192530325Y-58600000D01*
X192538149Y-58565564D01*
X192540026Y-58431167D01*
X192517171Y-58315742D01*
X192472332Y-58206954D01*
X192468676Y-58201451D01*
X193600000Y-58201451D01*
X193647774Y-58197641D01*
X193728803Y-58172548D01*
X193799634Y-58125874D01*
X193854657Y-58061315D01*
X193889516Y-57983982D01*
X193901451Y-57900000D01*
X193901451Y-56900000D01*
X193897641Y-56852226D01*
X193872548Y-56771197D01*
X193825874Y-56700366D01*
X193761315Y-56645343D01*
X193683982Y-56610484D01*
X193600000Y-56598549D01*
X193550000Y-56598549D01*
X193550000Y-56450000D01*
X194028314Y-56450000D01*
X193995343Y-56488685D01*
X193960484Y-56566018D01*
X193948549Y-56650000D01*
X193948549Y-57850000D01*
X193952359Y-57897774D01*
X193977452Y-57978803D01*
X194024126Y-58049634D01*
X194088685Y-58104657D01*
X194166018Y-58139516D01*
X194250000Y-58151451D01*
X194850000Y-58151451D01*
X194897774Y-58147641D01*
X194978803Y-58122548D01*
X195049634Y-58075874D01*
X195104657Y-58011315D01*
X195139516Y-57933982D01*
X195151451Y-57850000D01*
X195151451Y-56650000D01*
X195147641Y-56602226D01*
X195122548Y-56521197D01*
X195075874Y-56450366D01*
X195075445Y-56450000D01*
X195172182Y-56450000D01*
X195848549Y-57126367D01*
X195848549Y-57850000D01*
X195852359Y-57897774D01*
X195877452Y-57978803D01*
X195924126Y-58049634D01*
X195988685Y-58104657D01*
X196066018Y-58139516D01*
X196150000Y-58151451D01*
X196750000Y-58151451D01*
X196797774Y-58147641D01*
X196878803Y-58122548D01*
X196949634Y-58075874D01*
X197004657Y-58011315D01*
X197039516Y-57933982D01*
X197051451Y-57850000D01*
X197051451Y-57725000D01*
X197100000Y-57725000D01*
X197100000Y-57929547D01*
X197111529Y-57987506D01*
X197134143Y-58042103D01*
X197166975Y-58091239D01*
X197208761Y-58133025D01*
X197257896Y-58165856D01*
X197312493Y-58188471D01*
X197370452Y-58200000D01*
X197675000Y-58200000D01*
X197750000Y-58125000D01*
X197750000Y-57650000D01*
X198250000Y-57650000D01*
X198250000Y-58125000D01*
X198325000Y-58200000D01*
X198629548Y-58200000D01*
X198687507Y-58188471D01*
X198742104Y-58165856D01*
X198791239Y-58133025D01*
X198833025Y-58091239D01*
X198865857Y-58042103D01*
X198888471Y-57987506D01*
X198900000Y-57929547D01*
X198900000Y-57725000D01*
X198825000Y-57650000D01*
X198250000Y-57650000D01*
X197750000Y-57650000D01*
X197175000Y-57650000D01*
X197100000Y-57725000D01*
X197051451Y-57725000D01*
X197051451Y-57485000D01*
X198930000Y-57485000D01*
X198930000Y-57939548D01*
X198941529Y-57997507D01*
X198964144Y-58052104D01*
X198996975Y-58101239D01*
X199038761Y-58143025D01*
X199087897Y-58175857D01*
X199142494Y-58198471D01*
X199200453Y-58210000D01*
X200175000Y-58210000D01*
X200250000Y-58135000D01*
X200250000Y-57410000D01*
X200750000Y-57410000D01*
X200750000Y-58135000D01*
X200825000Y-58210000D01*
X201799547Y-58210000D01*
X201857506Y-58198471D01*
X201912103Y-58175857D01*
X201961239Y-58143025D01*
X202003025Y-58101239D01*
X202035856Y-58052104D01*
X202058471Y-57997507D01*
X202070000Y-57939548D01*
X202070000Y-57485000D01*
X201995000Y-57410000D01*
X200750000Y-57410000D01*
X200250000Y-57410000D01*
X199005000Y-57410000D01*
X198930000Y-57485000D01*
X197051451Y-57485000D01*
X197051451Y-56870453D01*
X197100000Y-56870453D01*
X197100000Y-57075000D01*
X197175000Y-57150000D01*
X197750000Y-57150000D01*
X197750000Y-56675000D01*
X198250000Y-56675000D01*
X198250000Y-57150000D01*
X198825000Y-57150000D01*
X198900000Y-57075000D01*
X198900000Y-56870453D01*
X198888471Y-56812494D01*
X198865857Y-56757897D01*
X198833025Y-56708761D01*
X198791239Y-56666975D01*
X198742104Y-56634144D01*
X198687507Y-56611529D01*
X198629548Y-56600000D01*
X198325000Y-56600000D01*
X198250000Y-56675000D01*
X197750000Y-56675000D01*
X197675000Y-56600000D01*
X197370452Y-56600000D01*
X197312493Y-56611529D01*
X197257896Y-56634144D01*
X197208761Y-56666975D01*
X197166975Y-56708761D01*
X197134143Y-56757897D01*
X197111529Y-56812494D01*
X197100000Y-56870453D01*
X197051451Y-56870453D01*
X197051451Y-56650000D01*
X197047641Y-56602226D01*
X197022548Y-56521197D01*
X196975874Y-56450366D01*
X196911315Y-56395343D01*
X196878281Y-56380452D01*
X198930000Y-56380452D01*
X198930000Y-56835000D01*
X199005000Y-56910000D01*
X200250000Y-56910000D01*
X200250000Y-56185000D01*
X200750000Y-56185000D01*
X200750000Y-56910000D01*
X201995000Y-56910000D01*
X202070000Y-56835000D01*
X202070000Y-56380452D01*
X202058471Y-56322493D01*
X202035856Y-56267896D01*
X202003025Y-56218761D01*
X201961239Y-56176975D01*
X201912103Y-56144143D01*
X201857506Y-56121529D01*
X201799547Y-56110000D01*
X200825000Y-56110000D01*
X200750000Y-56185000D01*
X200250000Y-56185000D01*
X200175000Y-56110000D01*
X199200453Y-56110000D01*
X199142494Y-56121529D01*
X199087897Y-56144143D01*
X199038761Y-56176975D01*
X198996975Y-56218761D01*
X198964144Y-56267896D01*
X198941529Y-56322493D01*
X198930000Y-56380452D01*
X196878281Y-56380452D01*
X196833982Y-56360484D01*
X196750000Y-56348549D01*
X196626367Y-56348549D01*
X195788909Y-55511091D01*
X195749657Y-55478850D01*
X195710732Y-55446188D01*
X195708195Y-55444793D01*
X195705962Y-55442959D01*
X195661183Y-55418948D01*
X195616668Y-55394476D01*
X195613914Y-55393602D01*
X195611362Y-55392234D01*
X195562733Y-55377367D01*
X195514351Y-55362019D01*
X195511479Y-55361697D01*
X195508712Y-55360851D01*
X195458125Y-55355712D01*
X195407679Y-55350054D01*
X195402031Y-55350014D01*
X195401920Y-55350003D01*
X195401817Y-55350013D01*
X195400000Y-55350000D01*
X193151050Y-55350000D01*
X193182080Y-55280306D01*
X193208149Y-55165564D01*
X193210026Y-55031167D01*
X193187171Y-54915742D01*
X193185903Y-54912665D01*
X193237020Y-54861548D01*
X193579514Y-55043655D01*
X193623484Y-55062719D01*
X193706809Y-55078604D01*
X193791261Y-55070646D01*
X193870152Y-55039476D01*
X193937236Y-54987561D01*
X193987201Y-54919012D01*
X194644461Y-53682885D01*
X194663526Y-53638914D01*
X194679411Y-53555589D01*
X194671453Y-53471137D01*
X194659593Y-53441118D01*
X195734052Y-53441118D01*
X195765063Y-53542549D01*
X196387141Y-53873314D01*
X196443728Y-53890345D01*
X196502551Y-53896009D01*
X196561349Y-53890088D01*
X196617861Y-53872811D01*
X196669917Y-53844841D01*
X196715517Y-53807251D01*
X196752906Y-53761489D01*
X196780650Y-53709311D01*
X196848936Y-53580884D01*
X196817925Y-53479453D01*
X195957051Y-53021718D01*
X195734052Y-53441118D01*
X194659593Y-53441118D01*
X194640283Y-53392245D01*
X194588367Y-53325161D01*
X194519818Y-53275196D01*
X193636870Y-52805725D01*
X193592900Y-52786661D01*
X193509575Y-52770776D01*
X193425123Y-52778734D01*
X193346232Y-52809904D01*
X193279148Y-52861819D01*
X193229183Y-52930368D01*
X192571923Y-54166495D01*
X192552858Y-54210466D01*
X192536973Y-54293791D01*
X192544931Y-54378243D01*
X192557398Y-54409798D01*
X192459292Y-54507904D01*
X192439775Y-54511627D01*
X192330677Y-54555705D01*
X192232219Y-54620135D01*
X192148150Y-54702461D01*
X192081672Y-54799549D01*
X192035318Y-54907700D01*
X192010854Y-55022795D01*
X192009211Y-55140450D01*
X192030452Y-55256183D01*
X192067597Y-55350000D01*
X188501451Y-55350000D01*
X188501451Y-55275000D01*
X188497641Y-55227226D01*
X188472548Y-55146197D01*
X188425874Y-55075366D01*
X188361315Y-55020343D01*
X188283982Y-54985484D01*
X188200000Y-54973549D01*
X186400000Y-54973549D01*
X186352226Y-54977359D01*
X186271197Y-55002452D01*
X186200366Y-55049126D01*
X186145343Y-55113685D01*
X186110484Y-55191018D01*
X186098549Y-55275000D01*
X186098549Y-56525000D01*
X186102359Y-56572774D01*
X186127452Y-56653803D01*
X186174126Y-56724634D01*
X186238685Y-56779657D01*
X186316018Y-56814516D01*
X186400000Y-56826451D01*
X186400731Y-56826451D01*
X186388633Y-56838549D01*
X186215000Y-56838549D01*
X186167226Y-56842359D01*
X186086197Y-56867452D01*
X186015366Y-56914126D01*
X186014457Y-56915193D01*
X186006239Y-56906975D01*
X185957103Y-56874143D01*
X185902506Y-56851529D01*
X185844547Y-56840000D01*
X185690000Y-56840000D01*
X185615000Y-56915000D01*
X185615000Y-57265000D01*
X185685000Y-57265000D01*
X185685000Y-57515000D01*
X185615000Y-57515000D01*
X185615000Y-57865000D01*
X185690000Y-57940000D01*
X185844547Y-57940000D01*
X185902506Y-57928471D01*
X185957103Y-57905857D01*
X186006239Y-57873025D01*
X186016392Y-57862872D01*
X186053685Y-57894657D01*
X186131018Y-57929516D01*
X186215000Y-57941451D01*
X186750765Y-57941451D01*
X187360681Y-58551366D01*
X187360681Y-58705909D01*
X187343501Y-58688729D01*
X187331689Y-58700541D01*
X187330535Y-58700063D01*
X187324763Y-58684817D01*
X187273818Y-58616994D01*
X187061686Y-58404862D01*
X187025211Y-58373775D01*
X186950171Y-58334222D01*
X186867082Y-58317141D01*
X186782525Y-58323883D01*
X186703193Y-58353917D01*
X186635370Y-58404862D01*
X186626643Y-58413589D01*
X186617171Y-58365753D01*
X186572332Y-58256965D01*
X186507216Y-58158959D01*
X186424305Y-58075466D01*
X186326755Y-58009668D01*
X186218283Y-57964071D01*
X186103021Y-57940411D01*
X185985357Y-57939589D01*
X185869775Y-57961638D01*
X185760677Y-58005716D01*
X185662219Y-58070146D01*
X185578150Y-58152472D01*
X185511672Y-58249560D01*
X185465318Y-58357711D01*
X185440854Y-58472806D01*
X185440740Y-58480972D01*
X185364630Y-58404862D01*
X185328155Y-58373775D01*
X185253115Y-58334222D01*
X185170026Y-58317141D01*
X185085469Y-58323883D01*
X185006137Y-58353917D01*
X184938314Y-58404862D01*
X184761538Y-58581638D01*
X183900000Y-57720100D01*
X183900000Y-57590000D01*
X184715000Y-57590000D01*
X184715000Y-57669548D01*
X184726529Y-57727507D01*
X184749144Y-57782104D01*
X184781975Y-57831239D01*
X184823761Y-57873025D01*
X184872897Y-57905857D01*
X184927494Y-57928471D01*
X184985453Y-57940000D01*
X185140000Y-57940000D01*
X185215000Y-57865000D01*
X185215000Y-57515000D01*
X184790000Y-57515000D01*
X184715000Y-57590000D01*
X183900000Y-57590000D01*
X183900000Y-57110452D01*
X184715000Y-57110452D01*
X184715000Y-57190000D01*
X184790000Y-57265000D01*
X185215000Y-57265000D01*
X185215000Y-56915000D01*
X185140000Y-56840000D01*
X184985453Y-56840000D01*
X184927494Y-56851529D01*
X184872897Y-56874143D01*
X184823761Y-56906975D01*
X184781975Y-56948761D01*
X184749144Y-56997896D01*
X184726529Y-57052493D01*
X184715000Y-57110452D01*
X183900000Y-57110452D01*
X183900000Y-56825000D01*
X184375000Y-56825000D01*
X184450000Y-56750000D01*
X184450000Y-56150000D01*
X184950000Y-56150000D01*
X184950000Y-56750000D01*
X185025000Y-56825000D01*
X185629547Y-56825000D01*
X185687506Y-56813471D01*
X185742103Y-56790857D01*
X185791239Y-56758025D01*
X185833025Y-56716239D01*
X185865856Y-56667104D01*
X185888471Y-56612507D01*
X185900000Y-56554548D01*
X185900000Y-56225000D01*
X185825000Y-56150000D01*
X184950000Y-56150000D01*
X184450000Y-56150000D01*
X184430000Y-56150000D01*
X184430000Y-55650000D01*
X184450000Y-55650000D01*
X184450000Y-55050000D01*
X184950000Y-55050000D01*
X184950000Y-55650000D01*
X185825000Y-55650000D01*
X185900000Y-55575000D01*
X185900000Y-55245452D01*
X185888471Y-55187493D01*
X185865856Y-55132896D01*
X185833025Y-55083761D01*
X185791239Y-55041975D01*
X185742103Y-55009143D01*
X185687506Y-54986529D01*
X185629547Y-54975000D01*
X185025000Y-54975000D01*
X184950000Y-55050000D01*
X184450000Y-55050000D01*
X184375000Y-54975000D01*
X183900000Y-54975000D01*
X183900000Y-52887004D01*
X189686288Y-52887004D01*
X189717298Y-52988436D01*
X189897903Y-53084465D01*
X189954490Y-53101495D01*
X190013313Y-53107160D01*
X190072111Y-53101239D01*
X190128623Y-53083962D01*
X190180679Y-53055991D01*
X190226278Y-53018402D01*
X190263668Y-52972640D01*
X190291411Y-52920462D01*
X190431882Y-52656274D01*
X194434548Y-52656274D01*
X194440468Y-52715071D01*
X194457746Y-52771583D01*
X194485717Y-52823640D01*
X194523306Y-52869238D01*
X194569069Y-52906628D01*
X195191147Y-53237393D01*
X195292578Y-53206382D01*
X195515577Y-52786982D01*
X194654703Y-52329247D01*
X194553272Y-52360258D01*
X194484986Y-52488685D01*
X194457242Y-52540863D01*
X194440212Y-52597450D01*
X194434548Y-52656274D01*
X190431882Y-52656274D01*
X190453592Y-52615445D01*
X190422581Y-52514014D01*
X190003181Y-52291015D01*
X189686288Y-52887004D01*
X183900000Y-52887004D01*
X183900000Y-52336896D01*
X188828257Y-52336896D01*
X188834178Y-52395693D01*
X188851455Y-52452205D01*
X188879426Y-52504262D01*
X188917016Y-52549861D01*
X188962778Y-52587250D01*
X189143382Y-52683279D01*
X189244814Y-52652269D01*
X189561707Y-52056279D01*
X189172890Y-51849541D01*
X190237917Y-51849541D01*
X190657317Y-52072540D01*
X190758748Y-52041529D01*
X190920929Y-51736512D01*
X190948672Y-51684335D01*
X190965703Y-51627747D01*
X190971367Y-51568924D01*
X190965446Y-51510127D01*
X190948169Y-51453615D01*
X190920198Y-51401558D01*
X190882608Y-51355959D01*
X190836846Y-51318570D01*
X190656242Y-51222541D01*
X190554810Y-51253551D01*
X190237917Y-51849541D01*
X189172890Y-51849541D01*
X189142307Y-51833280D01*
X189040876Y-51864291D01*
X188878695Y-52169308D01*
X188850952Y-52221485D01*
X188833921Y-52278073D01*
X188828257Y-52336896D01*
X183900000Y-52336896D01*
X183900000Y-51995323D01*
X183981735Y-52038782D01*
X184025706Y-52057847D01*
X184109031Y-52073732D01*
X184193483Y-52065774D01*
X184272374Y-52034604D01*
X184339458Y-51982689D01*
X184389423Y-51914140D01*
X184721084Y-51290375D01*
X189346032Y-51290375D01*
X189377043Y-51391806D01*
X189796443Y-51614805D01*
X190113336Y-51018816D01*
X190082326Y-50917384D01*
X189901721Y-50821355D01*
X189845134Y-50804325D01*
X189786311Y-50798660D01*
X189727513Y-50804581D01*
X189671001Y-50821858D01*
X189618945Y-50849829D01*
X189573346Y-50887418D01*
X189535956Y-50933180D01*
X189508213Y-50985358D01*
X189346032Y-51290375D01*
X184721084Y-51290375D01*
X185088151Y-50600023D01*
X186870306Y-50600023D01*
X186901317Y-50701455D01*
X187081921Y-50797484D01*
X187138508Y-50814514D01*
X187197331Y-50820179D01*
X187256130Y-50814258D01*
X187312642Y-50796981D01*
X187364697Y-50769010D01*
X187410297Y-50731421D01*
X187447687Y-50685659D01*
X187475430Y-50633481D01*
X187729940Y-50154817D01*
X189553419Y-50154817D01*
X189584430Y-50256248D01*
X190206508Y-50587013D01*
X190263095Y-50604044D01*
X190321918Y-50609708D01*
X190380716Y-50603787D01*
X190437228Y-50586510D01*
X190489284Y-50558540D01*
X190534884Y-50520950D01*
X190572273Y-50475188D01*
X190600017Y-50423010D01*
X190668303Y-50294583D01*
X190637292Y-50193152D01*
X189776418Y-49735417D01*
X189553419Y-50154817D01*
X187729940Y-50154817D01*
X187942767Y-49754548D01*
X187911756Y-49653117D01*
X187492356Y-49430118D01*
X186870306Y-50600023D01*
X185088151Y-50600023D01*
X185187525Y-50413129D01*
X185206590Y-50369159D01*
X185222475Y-50285833D01*
X185214517Y-50201381D01*
X185183347Y-50122490D01*
X185131432Y-50055406D01*
X185123899Y-50049915D01*
X186012276Y-50049915D01*
X186018196Y-50108712D01*
X186035474Y-50165224D01*
X186063445Y-50217281D01*
X186101034Y-50262880D01*
X186146797Y-50300269D01*
X186327401Y-50396298D01*
X186428832Y-50365288D01*
X186958050Y-49369973D01*
X188253915Y-49369973D01*
X188259835Y-49428770D01*
X188277113Y-49485282D01*
X188305084Y-49537339D01*
X188342673Y-49582937D01*
X188388436Y-49620327D01*
X189010514Y-49951092D01*
X189111945Y-49920081D01*
X189334944Y-49500681D01*
X188474070Y-49042946D01*
X188372639Y-49073957D01*
X188304353Y-49202384D01*
X188276609Y-49254562D01*
X188259579Y-49311149D01*
X188253915Y-49369973D01*
X186958050Y-49369973D01*
X187050882Y-49195382D01*
X186631482Y-48972383D01*
X186530051Y-49003394D01*
X186062714Y-49882327D01*
X186034970Y-49934504D01*
X186017940Y-49991092D01*
X186012276Y-50049915D01*
X185123899Y-50049915D01*
X185062883Y-50005441D01*
X184533115Y-49723758D01*
X184489144Y-49704693D01*
X184405819Y-49688808D01*
X184321367Y-49696766D01*
X184242476Y-49727936D01*
X184175392Y-49779851D01*
X184125427Y-49848400D01*
X183445099Y-51127910D01*
X183400000Y-51173009D01*
X183400000Y-51112407D01*
X184083841Y-49826290D01*
X184102906Y-49782320D01*
X184118791Y-49698994D01*
X184110833Y-49614542D01*
X184079663Y-49535651D01*
X184027748Y-49468567D01*
X183959199Y-49418602D01*
X183429431Y-49136919D01*
X183385460Y-49117854D01*
X183302135Y-49101969D01*
X183217683Y-49109927D01*
X183138792Y-49141097D01*
X183071708Y-49193012D01*
X183021743Y-49261561D01*
X182223641Y-50762572D01*
X182204576Y-50806542D01*
X182188691Y-50889868D01*
X182196649Y-50974320D01*
X182227819Y-51053211D01*
X182279734Y-51120295D01*
X182348283Y-51170260D01*
X182600000Y-51304100D01*
X182600000Y-51906573D01*
X181313464Y-50620037D01*
X181774366Y-50865103D01*
X181818337Y-50884168D01*
X181901662Y-50900053D01*
X181986114Y-50892095D01*
X182065005Y-50860925D01*
X182132089Y-50809010D01*
X182182054Y-50740461D01*
X182980156Y-49239450D01*
X182999221Y-49195480D01*
X183015106Y-49112154D01*
X183014113Y-49101612D01*
X183291935Y-48545967D01*
X183310437Y-48497680D01*
X183329311Y-48449431D01*
X183329652Y-48447531D01*
X183330341Y-48445732D01*
X183339114Y-48394755D01*
X183348255Y-48343774D01*
X183348220Y-48341845D01*
X183348547Y-48339946D01*
X183347250Y-48288154D01*
X183346316Y-48236451D01*
X183345908Y-48234571D01*
X183345860Y-48232639D01*
X183334513Y-48182021D01*
X183323568Y-48131548D01*
X183322803Y-48129782D01*
X183322380Y-48127897D01*
X183301421Y-48080454D01*
X183280878Y-48033062D01*
X183279784Y-48031479D01*
X183279003Y-48029710D01*
X183249225Y-47987237D01*
X183219871Y-47944742D01*
X183218490Y-47943400D01*
X183217381Y-47941819D01*
X183179992Y-47906009D01*
X183142871Y-47869954D01*
X183141251Y-47868904D01*
X183139861Y-47867572D01*
X183096243Y-47839714D01*
X183052811Y-47811547D01*
X183049516Y-47809871D01*
X183049396Y-47809794D01*
X183049264Y-47809742D01*
X183045967Y-47808065D01*
X181666706Y-47118435D01*
X181584305Y-47035455D01*
X181486755Y-46969657D01*
X181378283Y-46924060D01*
X181263021Y-46900400D01*
X181145357Y-46899578D01*
X181029775Y-46921627D01*
X180920677Y-46965705D01*
X180822219Y-47030135D01*
X180742131Y-47108562D01*
X180765029Y-47065497D01*
X181232366Y-46186564D01*
X181201355Y-46085133D01*
X180781955Y-45862134D01*
X180159905Y-47032039D01*
X180190916Y-47133471D01*
X180371520Y-47229500D01*
X180428107Y-47246530D01*
X180486930Y-47252195D01*
X180545729Y-47246274D01*
X180602241Y-47228997D01*
X180654296Y-47201026D01*
X180699896Y-47163437D01*
X180720578Y-47138124D01*
X180671672Y-47209549D01*
X180625318Y-47317700D01*
X180600854Y-47432795D01*
X180599211Y-47550450D01*
X180620452Y-47666183D01*
X180663768Y-47775586D01*
X180727509Y-47874492D01*
X180809247Y-47959134D01*
X180878432Y-48007219D01*
X180866916Y-48016712D01*
X180829526Y-48062474D01*
X180801783Y-48114652D01*
X180569182Y-48552111D01*
X180600192Y-48653543D01*
X180931298Y-48829594D01*
X180940687Y-48811935D01*
X181205572Y-48952777D01*
X181196182Y-48970436D01*
X181527287Y-49146488D01*
X181628719Y-49115477D01*
X181861320Y-48678018D01*
X181889063Y-48625840D01*
X181906094Y-48569253D01*
X181911758Y-48510429D01*
X181907555Y-48468696D01*
X182059445Y-48544641D01*
X182035107Y-48554257D01*
X181968023Y-48606172D01*
X181918058Y-48674721D01*
X181119956Y-50175732D01*
X181100891Y-50219702D01*
X181085006Y-50303028D01*
X181092964Y-50387480D01*
X181100839Y-50407411D01*
X180964344Y-50270916D01*
X180980229Y-50262381D01*
X181025828Y-50224792D01*
X181063218Y-50179030D01*
X181090961Y-50126852D01*
X181323562Y-49689393D01*
X181292552Y-49587961D01*
X180961446Y-49411910D01*
X180952057Y-49429569D01*
X180687172Y-49288727D01*
X180696562Y-49271068D01*
X180365457Y-49095016D01*
X180264025Y-49126027D01*
X180109699Y-49416272D01*
X179410585Y-48717157D01*
X179382000Y-48693677D01*
X179353729Y-48669955D01*
X179351887Y-48668942D01*
X179350260Y-48667606D01*
X179317689Y-48650142D01*
X179285319Y-48632346D01*
X179283313Y-48631710D01*
X179281460Y-48630716D01*
X179246163Y-48619925D01*
X179210907Y-48608741D01*
X179208813Y-48608506D01*
X179206804Y-48607892D01*
X179170055Y-48604159D01*
X179133327Y-48600039D01*
X179129220Y-48600010D01*
X179129138Y-48600002D01*
X179129062Y-48600009D01*
X179127742Y-48600000D01*
X173807953Y-48600000D01*
X173771169Y-48603607D01*
X173734373Y-48606826D01*
X173732354Y-48607413D01*
X173730259Y-48607618D01*
X173694923Y-48618287D01*
X173659406Y-48628605D01*
X173657534Y-48629576D01*
X173655525Y-48630182D01*
X173622970Y-48647492D01*
X173590098Y-48664531D01*
X173588451Y-48665846D01*
X173586596Y-48666832D01*
X173558000Y-48690155D01*
X173529087Y-48713235D01*
X173526160Y-48716122D01*
X173526099Y-48716172D01*
X173526052Y-48716229D01*
X173525111Y-48717157D01*
X168767157Y-53475110D01*
X168743677Y-53503695D01*
X168719955Y-53531966D01*
X168718942Y-53533808D01*
X168717606Y-53535435D01*
X168700142Y-53568006D01*
X168682346Y-53600376D01*
X168681710Y-53602382D01*
X168680716Y-53604235D01*
X168669925Y-53639532D01*
X168658741Y-53674788D01*
X168658506Y-53676882D01*
X168657892Y-53678891D01*
X168654159Y-53715640D01*
X168650039Y-53752368D01*
X168650010Y-53756475D01*
X168650002Y-53756557D01*
X168650009Y-53756633D01*
X168650000Y-53757953D01*
X168650000Y-55968532D01*
X168621197Y-55977452D01*
X168550366Y-56024126D01*
X168495343Y-56088685D01*
X168460484Y-56166018D01*
X168448549Y-56250000D01*
X168448549Y-57450000D01*
X168452359Y-57497774D01*
X168477452Y-57578803D01*
X168524126Y-57649634D01*
X168588685Y-57704657D01*
X168666018Y-57739516D01*
X168750000Y-57751451D01*
X169350000Y-57751451D01*
X169397774Y-57747641D01*
X169478803Y-57722548D01*
X169549634Y-57675874D01*
X169604657Y-57611315D01*
X169639516Y-57533982D01*
X169651451Y-57450000D01*
X169651451Y-57175000D01*
X170350000Y-57175000D01*
X170350000Y-57479548D01*
X170361529Y-57537507D01*
X170384144Y-57592104D01*
X170416975Y-57641239D01*
X170458761Y-57683025D01*
X170507897Y-57715857D01*
X170562494Y-57738471D01*
X170620453Y-57750000D01*
X170725000Y-57750000D01*
X170800000Y-57675000D01*
X170800000Y-57100000D01*
X170425000Y-57100000D01*
X170350000Y-57175000D01*
X169651451Y-57175000D01*
X169651451Y-56250000D01*
X169649095Y-56220452D01*
X170350000Y-56220452D01*
X170350000Y-56525000D01*
X170425000Y-56600000D01*
X170800000Y-56600000D01*
X170800000Y-56025000D01*
X170725000Y-55950000D01*
X170620453Y-55950000D01*
X170562494Y-55961529D01*
X170507897Y-55984143D01*
X170458761Y-56016975D01*
X170416975Y-56058761D01*
X170384144Y-56107896D01*
X170361529Y-56162493D01*
X170350000Y-56220452D01*
X169649095Y-56220452D01*
X169647641Y-56202226D01*
X169622548Y-56121197D01*
X169575874Y-56050366D01*
X169511315Y-55995343D01*
X169450000Y-55967704D01*
X169450000Y-53923639D01*
X171362570Y-52011069D01*
X171716131Y-52364630D01*
X171752606Y-52395717D01*
X171827646Y-52435270D01*
X171910735Y-52452351D01*
X171995292Y-52445609D01*
X172074624Y-52415575D01*
X172142447Y-52364630D01*
X172302572Y-52204505D01*
X173290470Y-52204505D01*
X173290470Y-52310571D01*
X173555635Y-52575736D01*
X173962221Y-52169150D01*
X173962221Y-52063084D01*
X173888295Y-51989158D01*
X173839160Y-51956327D01*
X173784563Y-51933712D01*
X173726603Y-51922183D01*
X173667509Y-51922183D01*
X173609550Y-51933712D01*
X173554953Y-51956326D01*
X173505818Y-51989157D01*
X173290470Y-52204505D01*
X172302572Y-52204505D01*
X172990975Y-51516102D01*
X173022062Y-51479627D01*
X173061615Y-51404587D01*
X173078696Y-51321498D01*
X173071954Y-51236941D01*
X173048141Y-51174042D01*
X174372184Y-49849999D01*
X177248549Y-49849999D01*
X177248549Y-50350000D01*
X177252359Y-50397774D01*
X177277452Y-50478803D01*
X177324126Y-50549634D01*
X177388685Y-50604657D01*
X177466018Y-50639516D01*
X177550000Y-50651451D01*
X178485765Y-50651451D01*
X180000000Y-52165685D01*
X180000000Y-56741420D01*
X179950366Y-56774126D01*
X179895343Y-56838685D01*
X179860484Y-56916018D01*
X179848549Y-57000000D01*
X179848549Y-57800000D01*
X179852359Y-57847774D01*
X179877452Y-57928803D01*
X179924126Y-57999634D01*
X179926732Y-58001855D01*
X179895343Y-58038685D01*
X179860484Y-58116018D01*
X179848549Y-58200000D01*
X179848549Y-59000000D01*
X179852359Y-59047774D01*
X179877452Y-59128803D01*
X179924126Y-59199634D01*
X179988685Y-59254657D01*
X180066018Y-59289516D01*
X180150000Y-59301451D01*
X180385765Y-59301451D01*
X182530762Y-61446447D01*
X182559322Y-61469906D01*
X182587617Y-61493649D01*
X182589459Y-61494662D01*
X182591086Y-61495998D01*
X182623657Y-61513462D01*
X182656027Y-61531258D01*
X182658033Y-61531894D01*
X182659886Y-61532888D01*
X182695224Y-61543692D01*
X182730439Y-61554863D01*
X182732528Y-61555097D01*
X182734542Y-61555713D01*
X182771336Y-61559450D01*
X182808019Y-61563565D01*
X182812127Y-61563594D01*
X182812209Y-61563602D01*
X182812285Y-61563595D01*
X182813604Y-61563604D01*
X183003836Y-61563604D01*
X183135188Y-61694956D01*
X183135191Y-61694960D01*
X183240231Y-61800000D01*
X183135191Y-61905040D01*
X183135187Y-61905045D01*
X182604862Y-62435370D01*
X182573775Y-62471845D01*
X182534222Y-62546885D01*
X182525971Y-62587023D01*
X182112994Y-63000000D01*
X178163021Y-63000000D01*
X178199634Y-62975874D01*
X178254657Y-62911315D01*
X178289516Y-62833982D01*
X178301451Y-62750000D01*
X178301451Y-62523217D01*
X178305868Y-62526287D01*
X178413693Y-62573395D01*
X178528614Y-62598662D01*
X178646254Y-62601126D01*
X178762133Y-62580694D01*
X178871835Y-62538143D01*
X178971184Y-62475094D01*
X179056395Y-62393949D01*
X179124221Y-62297799D01*
X179172080Y-62190306D01*
X179198149Y-62075564D01*
X179200026Y-61941167D01*
X179177171Y-61825742D01*
X179132332Y-61716954D01*
X179067216Y-61618948D01*
X178984305Y-61535455D01*
X178901451Y-61479570D01*
X178901451Y-60450000D01*
X178883538Y-60347634D01*
X178843794Y-60272695D01*
X178443794Y-59722695D01*
X178433140Y-59711393D01*
X178425874Y-59700366D01*
X178409961Y-59686804D01*
X178391381Y-59667093D01*
X178375483Y-59657419D01*
X178361315Y-59645343D01*
X178339427Y-59635477D01*
X178318918Y-59622996D01*
X178300949Y-59618132D01*
X178283982Y-59610484D01*
X178260214Y-59607106D01*
X178237038Y-59600833D01*
X178218428Y-59601168D01*
X178200000Y-59598549D01*
X177840527Y-59598549D01*
X178113552Y-59425282D01*
X178369184Y-59181848D01*
X178572663Y-58893397D01*
X178716241Y-58570917D01*
X178794447Y-58226691D01*
X178800077Y-57823501D01*
X178731512Y-57477226D01*
X178596995Y-57150863D01*
X178401649Y-56856843D01*
X178152915Y-56606366D01*
X177860266Y-56408972D01*
X177842374Y-56401451D01*
X178200000Y-56401451D01*
X178221287Y-56399753D01*
X178228599Y-56400091D01*
X178234321Y-56398714D01*
X178247774Y-56397641D01*
X178279142Y-56387927D01*
X178311070Y-56380243D01*
X178319516Y-56375424D01*
X178328803Y-56372548D01*
X178356223Y-56354480D01*
X178384746Y-56338205D01*
X178391514Y-56331225D01*
X178399634Y-56325874D01*
X178420938Y-56300878D01*
X178443794Y-56277305D01*
X178843794Y-55727305D01*
X178889516Y-55633982D01*
X178901451Y-55550000D01*
X178901451Y-54500000D01*
X178897641Y-54452226D01*
X178872548Y-54371197D01*
X178825874Y-54300366D01*
X178761315Y-54245343D01*
X178683982Y-54210484D01*
X178600000Y-54198549D01*
X178000000Y-54198549D01*
X178000000Y-54151451D01*
X178047774Y-54147641D01*
X178128803Y-54122548D01*
X178199634Y-54075874D01*
X178254657Y-54011315D01*
X178289516Y-53933982D01*
X178301451Y-53850000D01*
X178301451Y-53350000D01*
X178297641Y-53302226D01*
X178272548Y-53221197D01*
X178225874Y-53150366D01*
X178161315Y-53095343D01*
X178083982Y-53060484D01*
X178000000Y-53048549D01*
X177200000Y-53048549D01*
X177152226Y-53052359D01*
X177071197Y-53077452D01*
X177000366Y-53124126D01*
X176998145Y-53126732D01*
X176961315Y-53095343D01*
X176883982Y-53060484D01*
X176800000Y-53048549D01*
X176800000Y-52900000D01*
X176796389Y-52863171D01*
X176793174Y-52826420D01*
X176792587Y-52824401D01*
X176792382Y-52822306D01*
X176781699Y-52786923D01*
X176771394Y-52751453D01*
X176770426Y-52749585D01*
X176769818Y-52747572D01*
X176752479Y-52714963D01*
X176735468Y-52682144D01*
X176734155Y-52680499D01*
X176733168Y-52678643D01*
X176709816Y-52650011D01*
X176686764Y-52621134D01*
X176683879Y-52618209D01*
X176683828Y-52618146D01*
X176683770Y-52618098D01*
X176682842Y-52617157D01*
X176250000Y-52184314D01*
X176250000Y-52175000D01*
X177250000Y-52175000D01*
X177250000Y-52279547D01*
X177261529Y-52337506D01*
X177284143Y-52392103D01*
X177316975Y-52441239D01*
X177358761Y-52483025D01*
X177407896Y-52515856D01*
X177462493Y-52538471D01*
X177520452Y-52550000D01*
X177825000Y-52550000D01*
X177900000Y-52475000D01*
X177900000Y-52100000D01*
X178400000Y-52100000D01*
X178400000Y-52475000D01*
X178475000Y-52550000D01*
X178779548Y-52550000D01*
X178837507Y-52538471D01*
X178892104Y-52515856D01*
X178941239Y-52483025D01*
X178983025Y-52441239D01*
X179015857Y-52392103D01*
X179038471Y-52337506D01*
X179050000Y-52279547D01*
X179050000Y-52175000D01*
X178975000Y-52100000D01*
X178400000Y-52100000D01*
X177900000Y-52100000D01*
X177325000Y-52100000D01*
X177250000Y-52175000D01*
X176250000Y-52175000D01*
X176250000Y-51620453D01*
X177250000Y-51620453D01*
X177250000Y-51725000D01*
X177325000Y-51800000D01*
X177900000Y-51800000D01*
X177900000Y-51425000D01*
X178400000Y-51425000D01*
X178400000Y-51800000D01*
X178975000Y-51800000D01*
X179050000Y-51725000D01*
X179050000Y-51620453D01*
X179038471Y-51562494D01*
X179015857Y-51507897D01*
X178983025Y-51458761D01*
X178941239Y-51416975D01*
X178892104Y-51384144D01*
X178837507Y-51361529D01*
X178779548Y-51350000D01*
X178475000Y-51350000D01*
X178400000Y-51425000D01*
X177900000Y-51425000D01*
X177825000Y-51350000D01*
X177520452Y-51350000D01*
X177462493Y-51361529D01*
X177407896Y-51384144D01*
X177358761Y-51416975D01*
X177316975Y-51458761D01*
X177284143Y-51507897D01*
X177261529Y-51562494D01*
X177250000Y-51620453D01*
X176250000Y-51620453D01*
X176250000Y-51601451D01*
X176450000Y-51601451D01*
X176497774Y-51597641D01*
X176578803Y-51572548D01*
X176649634Y-51525874D01*
X176704657Y-51461315D01*
X176739516Y-51383982D01*
X176751451Y-51300000D01*
X176751451Y-50700000D01*
X176747641Y-50652226D01*
X176722548Y-50571197D01*
X176675874Y-50500366D01*
X176611315Y-50445343D01*
X176533982Y-50410484D01*
X176450000Y-50398549D01*
X175250000Y-50398549D01*
X175202226Y-50402359D01*
X175121197Y-50427452D01*
X175050366Y-50474126D01*
X174995343Y-50538685D01*
X174960484Y-50616018D01*
X174948549Y-50700000D01*
X174948549Y-51300000D01*
X174952359Y-51347774D01*
X174977452Y-51428803D01*
X175024126Y-51499634D01*
X175088685Y-51554657D01*
X175166018Y-51589516D01*
X175250000Y-51601451D01*
X175450000Y-51601451D01*
X175450000Y-52350000D01*
X175453607Y-52386784D01*
X175456826Y-52423580D01*
X175457413Y-52425599D01*
X175457618Y-52427694D01*
X175468301Y-52463077D01*
X175478606Y-52498547D01*
X175479574Y-52500415D01*
X175480182Y-52502428D01*
X175497531Y-52535058D01*
X175514532Y-52567855D01*
X175515844Y-52569498D01*
X175516832Y-52571357D01*
X175540202Y-52600011D01*
X175563236Y-52628866D01*
X175566124Y-52631796D01*
X175566172Y-52631854D01*
X175566226Y-52631899D01*
X175567157Y-52632843D01*
X175984129Y-53049815D01*
X175952226Y-53052359D01*
X175871197Y-53077452D01*
X175800366Y-53124126D01*
X175745343Y-53188685D01*
X175710484Y-53266018D01*
X175698549Y-53350000D01*
X175698549Y-53850000D01*
X175702359Y-53897774D01*
X175727452Y-53978803D01*
X175774126Y-54049634D01*
X175838685Y-54104657D01*
X175916018Y-54139516D01*
X176000000Y-54151451D01*
X176800000Y-54151451D01*
X176847774Y-54147641D01*
X176928803Y-54122548D01*
X176999634Y-54075874D01*
X177001855Y-54073268D01*
X177038685Y-54104657D01*
X177116018Y-54139516D01*
X177200000Y-54151451D01*
X177200000Y-54274555D01*
X177145343Y-54338685D01*
X177110484Y-54416018D01*
X177098549Y-54500000D01*
X177098549Y-56100000D01*
X177102359Y-56147774D01*
X177118752Y-56200708D01*
X176882719Y-56199061D01*
X176889516Y-56183982D01*
X176901451Y-56100000D01*
X176901451Y-54500000D01*
X176897641Y-54452226D01*
X176872548Y-54371197D01*
X176825874Y-54300366D01*
X176761315Y-54245343D01*
X176683982Y-54210484D01*
X176600000Y-54198549D01*
X175400000Y-54198549D01*
X175352226Y-54202359D01*
X175271197Y-54227452D01*
X175200366Y-54274126D01*
X175145343Y-54338685D01*
X175110484Y-54416018D01*
X175098549Y-54500000D01*
X175098549Y-55550000D01*
X175116462Y-55652366D01*
X175156206Y-55727305D01*
X175261807Y-55872507D01*
X174134314Y-57000000D01*
X173151451Y-57000000D01*
X173147641Y-56952226D01*
X173122548Y-56871197D01*
X173075874Y-56800366D01*
X173011315Y-56745343D01*
X172933982Y-56710484D01*
X172850000Y-56698549D01*
X172350000Y-56698549D01*
X172302226Y-56702359D01*
X172221197Y-56727452D01*
X172150366Y-56774126D01*
X172095343Y-56838685D01*
X172060484Y-56916018D01*
X172048549Y-57000000D01*
X172048549Y-57800000D01*
X172052359Y-57847774D01*
X172077452Y-57928803D01*
X172124126Y-57999634D01*
X172126732Y-58001855D01*
X172122503Y-58006817D01*
X171950001Y-57834315D01*
X171950001Y-54176347D01*
X171946390Y-54139516D01*
X171943175Y-54102767D01*
X171942588Y-54100748D01*
X171942383Y-54098653D01*
X171931714Y-54063317D01*
X171921396Y-54027800D01*
X171920425Y-54025928D01*
X171919819Y-54023919D01*
X171902509Y-53991364D01*
X171887729Y-53962851D01*
X172036381Y-53814199D01*
X172067468Y-53777724D01*
X172107021Y-53702684D01*
X172124102Y-53619595D01*
X172118395Y-53548008D01*
X173007627Y-53548008D01*
X173007627Y-53654074D01*
X173081553Y-53728000D01*
X173130688Y-53760831D01*
X173185285Y-53783446D01*
X173243245Y-53794975D01*
X173302339Y-53794975D01*
X173360298Y-53783446D01*
X173414895Y-53760832D01*
X173464030Y-53728001D01*
X173679378Y-53512653D01*
X173679378Y-53406587D01*
X173414213Y-53141422D01*
X173007627Y-53548008D01*
X172118395Y-53548008D01*
X172117360Y-53535038D01*
X172087326Y-53455706D01*
X172036381Y-53387883D01*
X171689662Y-53041164D01*
X172548528Y-53041164D01*
X172548528Y-53100258D01*
X172560057Y-53158218D01*
X172582672Y-53212815D01*
X172615503Y-53261950D01*
X172689429Y-53335876D01*
X172795495Y-53335876D01*
X173202081Y-52929290D01*
X173060659Y-52787868D01*
X173767767Y-52787868D01*
X174032932Y-53053033D01*
X174138998Y-53053033D01*
X174354346Y-52837685D01*
X174387177Y-52788550D01*
X174409791Y-52733953D01*
X174421320Y-52675994D01*
X174421320Y-52616900D01*
X174409791Y-52558940D01*
X174387176Y-52504343D01*
X174354345Y-52455208D01*
X174280419Y-52381282D01*
X174174353Y-52381282D01*
X173767767Y-52787868D01*
X173060659Y-52787868D01*
X172936916Y-52664125D01*
X172830850Y-52664125D01*
X172615502Y-52879473D01*
X172582671Y-52928608D01*
X172560057Y-52983205D01*
X172548528Y-53041164D01*
X171689662Y-53041164D01*
X171612117Y-52963619D01*
X171575642Y-52932532D01*
X171500602Y-52892979D01*
X171417513Y-52875898D01*
X171332956Y-52882640D01*
X171253624Y-52912674D01*
X171185801Y-52963619D01*
X170337273Y-53812147D01*
X170306186Y-53848622D01*
X170266633Y-53923662D01*
X170249552Y-54006751D01*
X170256294Y-54091308D01*
X170286328Y-54170640D01*
X170337273Y-54238463D01*
X170761537Y-54662727D01*
X170798012Y-54693814D01*
X170873052Y-54733367D01*
X170956141Y-54750448D01*
X171040698Y-54743706D01*
X171120030Y-54713672D01*
X171150001Y-54691159D01*
X171150001Y-55974999D01*
X171100000Y-56025000D01*
X171100000Y-56600000D01*
X171150001Y-56600000D01*
X171150001Y-57100000D01*
X171100000Y-57100000D01*
X171100000Y-57675000D01*
X171150001Y-57725001D01*
X171150001Y-58000001D01*
X171153608Y-58036785D01*
X171156827Y-58073581D01*
X171157414Y-58075600D01*
X171157619Y-58077695D01*
X171168302Y-58113078D01*
X171178607Y-58148548D01*
X171179575Y-58150416D01*
X171180183Y-58152429D01*
X171197532Y-58185059D01*
X171214533Y-58217856D01*
X171215845Y-58219499D01*
X171216833Y-58221358D01*
X171240203Y-58250012D01*
X171263237Y-58278867D01*
X171266125Y-58281797D01*
X171266173Y-58281855D01*
X171266227Y-58281900D01*
X171267158Y-58282844D01*
X171867157Y-58882843D01*
X171895742Y-58906323D01*
X171924013Y-58930045D01*
X171925855Y-58931058D01*
X171927482Y-58932394D01*
X171960053Y-58949858D01*
X171992423Y-58967654D01*
X171994429Y-58968290D01*
X171996282Y-58969284D01*
X172031620Y-58980088D01*
X172048549Y-58985458D01*
X172048549Y-59000000D01*
X172052359Y-59047774D01*
X172077452Y-59128803D01*
X172124126Y-59199634D01*
X172188685Y-59254657D01*
X172266018Y-59289516D01*
X172350000Y-59301451D01*
X172850000Y-59301451D01*
X172897774Y-59297641D01*
X172978803Y-59272548D01*
X173049634Y-59225874D01*
X173104657Y-59161315D01*
X173139516Y-59083982D01*
X173151451Y-59000000D01*
X173151451Y-58200000D01*
X173147641Y-58152226D01*
X173122548Y-58071197D01*
X173075874Y-58000366D01*
X173073268Y-57998145D01*
X173104657Y-57961315D01*
X173139516Y-57883982D01*
X173151451Y-57800000D01*
X174300000Y-57800000D01*
X174336784Y-57796393D01*
X174373580Y-57793174D01*
X174375599Y-57792587D01*
X174377694Y-57792382D01*
X174413077Y-57781699D01*
X174448547Y-57771394D01*
X174450415Y-57770426D01*
X174452428Y-57769818D01*
X174485058Y-57752469D01*
X174517855Y-57735468D01*
X174519498Y-57734156D01*
X174521357Y-57733168D01*
X174550011Y-57709798D01*
X174578866Y-57686764D01*
X174581796Y-57683876D01*
X174581854Y-57683828D01*
X174581899Y-57683774D01*
X174582843Y-57682843D01*
X175864235Y-56401451D01*
X176155407Y-56401451D01*
X175866656Y-56590404D01*
X175614449Y-56837384D01*
X175415016Y-57128648D01*
X175275955Y-57453101D01*
X175202563Y-57798385D01*
X175197634Y-58151349D01*
X175261357Y-58498548D01*
X175391305Y-58826757D01*
X175582527Y-59123476D01*
X175827740Y-59377401D01*
X176117604Y-59578862D01*
X176162666Y-59598549D01*
X175800000Y-59598549D01*
X175778713Y-59600247D01*
X175771401Y-59599909D01*
X175765679Y-59601286D01*
X175752226Y-59602359D01*
X175720858Y-59612073D01*
X175688930Y-59619757D01*
X175680484Y-59624576D01*
X175671197Y-59627452D01*
X175643777Y-59645520D01*
X175615254Y-59661795D01*
X175608486Y-59668775D01*
X175600366Y-59674126D01*
X175579062Y-59699122D01*
X175556206Y-59722695D01*
X175156206Y-60272695D01*
X175110484Y-60366018D01*
X175098549Y-60450000D01*
X175098549Y-61500000D01*
X175102359Y-61547774D01*
X175127452Y-61628803D01*
X175174126Y-61699634D01*
X175238685Y-61754657D01*
X175316018Y-61789516D01*
X175400000Y-61801451D01*
X176335765Y-61801451D01*
X176482863Y-61948549D01*
X176000000Y-61948549D01*
X175952226Y-61952359D01*
X175871197Y-61977452D01*
X175800366Y-62024126D01*
X175745343Y-62088685D01*
X175740243Y-62100000D01*
X174015685Y-62100000D01*
X170782843Y-58867157D01*
X170754258Y-58843677D01*
X170725987Y-58819955D01*
X170724145Y-58818942D01*
X170722518Y-58817606D01*
X170689947Y-58800142D01*
X170657577Y-58782346D01*
X170655571Y-58781710D01*
X170653718Y-58780716D01*
X170618421Y-58769925D01*
X170601451Y-58764542D01*
X170601451Y-58550000D01*
X170597641Y-58502226D01*
X170572548Y-58421197D01*
X170525874Y-58350366D01*
X170461315Y-58295343D01*
X170383982Y-58260484D01*
X170300000Y-58248549D01*
X169700000Y-58248549D01*
X169652226Y-58252359D01*
X169571197Y-58277452D01*
X169500366Y-58324126D01*
X169445343Y-58388685D01*
X169410484Y-58466018D01*
X169398549Y-58550000D01*
X169398549Y-59750000D01*
X169402359Y-59797774D01*
X169427452Y-59878803D01*
X169474126Y-59949634D01*
X169538685Y-60004657D01*
X169616018Y-60039516D01*
X169700000Y-60051451D01*
X170300000Y-60051451D01*
X170347774Y-60047641D01*
X170428803Y-60022548D01*
X170499634Y-59975874D01*
X170554657Y-59911315D01*
X170589516Y-59833982D01*
X170593097Y-59808783D01*
X173567157Y-62782842D01*
X173595712Y-62806298D01*
X173624013Y-62830045D01*
X173625855Y-62831058D01*
X173627482Y-62832394D01*
X173660018Y-62849839D01*
X173692423Y-62867654D01*
X173694433Y-62868292D01*
X173696282Y-62869283D01*
X173731546Y-62880064D01*
X173766835Y-62891259D01*
X173768928Y-62891494D01*
X173770937Y-62892108D01*
X173807647Y-62895837D01*
X173844415Y-62899961D01*
X173848533Y-62899990D01*
X173848604Y-62899997D01*
X173848670Y-62899991D01*
X173850000Y-62900000D01*
X175741420Y-62900000D01*
X175774126Y-62949634D01*
X175833221Y-63000000D01*
X171590686Y-63000000D01*
X168332843Y-59742157D01*
X168304258Y-59718677D01*
X168275987Y-59694955D01*
X168274145Y-59693942D01*
X168272518Y-59692606D01*
X168239947Y-59675142D01*
X168207577Y-59657346D01*
X168205571Y-59656710D01*
X168203718Y-59655716D01*
X168168421Y-59644925D01*
X168134285Y-59634096D01*
X168122548Y-59596197D01*
X168075874Y-59525366D01*
X168011315Y-59470343D01*
X167933982Y-59435484D01*
X167850000Y-59423549D01*
X166150000Y-59423549D01*
X166102226Y-59427359D01*
X166021197Y-59452452D01*
X165976219Y-59482090D01*
X165998149Y-59385566D01*
X166000026Y-59251169D01*
X165977171Y-59135744D01*
X165932332Y-59026956D01*
X165867216Y-58928950D01*
X165784305Y-58845457D01*
X165686755Y-58779659D01*
X165578283Y-58734062D01*
X165569900Y-58732341D01*
X165588471Y-58687506D01*
X165600000Y-58629547D01*
X165600000Y-58425000D01*
X165525000Y-58350000D01*
X164200000Y-58350000D01*
X163700000Y-58350000D01*
X163680000Y-58350000D01*
X163680000Y-57850000D01*
X163700000Y-57850000D01*
X163700000Y-57375000D01*
X164200000Y-57375000D01*
X164200000Y-57850000D01*
X165525000Y-57850000D01*
X165600000Y-57775000D01*
X165600000Y-57570453D01*
X165588471Y-57512494D01*
X165565857Y-57457897D01*
X165533025Y-57408761D01*
X165491239Y-57366975D01*
X165442104Y-57334144D01*
X165387507Y-57311529D01*
X165329548Y-57300000D01*
X164275000Y-57300000D01*
X164200000Y-57375000D01*
X163700000Y-57375000D01*
X163625000Y-57300000D01*
X162866966Y-57300000D01*
X162913268Y-57098347D01*
X162985010Y-56843541D01*
X163072331Y-56578331D01*
X163174886Y-56303654D01*
X163292324Y-56020294D01*
X163424246Y-55729087D01*
X163570245Y-55430777D01*
X163729877Y-55126149D01*
X163902708Y-54815916D01*
X164088318Y-54500757D01*
X164286261Y-54181354D01*
X164496063Y-53858439D01*
X164717316Y-53532610D01*
X164949562Y-53204540D01*
X165192284Y-52874976D01*
X165445152Y-52544407D01*
X165707635Y-52213572D01*
X165979303Y-51883087D01*
X166259754Y-51553526D01*
X166548429Y-51225651D01*
X166844954Y-50899994D01*
X167148903Y-50577156D01*
X167459763Y-50257828D01*
X167777102Y-49942612D01*
X168100476Y-49632113D01*
X168429458Y-49326930D01*
X168763493Y-49027771D01*
X169102185Y-48735198D01*
X169444484Y-48450314D01*
X169804883Y-48164460D01*
X170177056Y-47885490D01*
X170560602Y-47613275D01*
X170954344Y-47348286D01*
X171357208Y-47090924D01*
X171767947Y-46841692D01*
X172185434Y-46601006D01*
X172402851Y-46481931D01*
X179301875Y-46481931D01*
X179307795Y-46540728D01*
X179325073Y-46597240D01*
X179353044Y-46649297D01*
X179390633Y-46694896D01*
X179436396Y-46732285D01*
X179617000Y-46828314D01*
X179718431Y-46797304D01*
X180340481Y-45627398D01*
X179921081Y-45404399D01*
X179819650Y-45435410D01*
X179352313Y-46314343D01*
X179324569Y-46366520D01*
X179307539Y-46423108D01*
X179301875Y-46481931D01*
X172402851Y-46481931D01*
X172608523Y-46369289D01*
X173036077Y-46146962D01*
X173466961Y-45934437D01*
X173899891Y-45732194D01*
X174333869Y-45540570D01*
X174767566Y-45360053D01*
X175199963Y-45190990D01*
X175629791Y-45033822D01*
X176055895Y-44888949D01*
X176477073Y-44756774D01*
X176892172Y-44637676D01*
X177299907Y-44532062D01*
X177699082Y-44440309D01*
X178088441Y-44362781D01*
X178466770Y-44299827D01*
X178832674Y-44251790D01*
X179184945Y-44218957D01*
X179522057Y-44201602D01*
X179842818Y-44199995D01*
X180145677Y-44214059D01*
G36*
X203448071Y-65163757D02*
X203448071Y-65986244D01*
X202834314Y-66600000D01*
X202023853Y-66600000D01*
X202055856Y-66552104D01*
X202078471Y-66497507D01*
X202090000Y-66439548D01*
X202090000Y-65985000D01*
X202015000Y-65910000D01*
X200770000Y-65910000D01*
X200770000Y-65930000D01*
X200270000Y-65930000D01*
X200270000Y-65910000D01*
X200250000Y-65910000D01*
X200250000Y-65410000D01*
X200270000Y-65410000D01*
X200270000Y-64685000D01*
X200770000Y-64685000D01*
X200770000Y-65410000D01*
X202015000Y-65410000D01*
X202090000Y-65335000D01*
X202090000Y-64880452D01*
X202078471Y-64822493D01*
X202055856Y-64767896D01*
X202023025Y-64718761D01*
X201981239Y-64676975D01*
X201932103Y-64644143D01*
X201877506Y-64621529D01*
X201819547Y-64610000D01*
X200845000Y-64610000D01*
X200770000Y-64685000D01*
X200270000Y-64685000D01*
X200195000Y-64610000D01*
X199816181Y-64610000D01*
X199871184Y-64575094D01*
X199950041Y-64500000D01*
X202784314Y-64500000D01*
X203448071Y-65163757D01*
X203448071Y-65163757D01*
G37*
X203448071Y-65163757D02*
X203448071Y-65986244D01*
X202834314Y-66600000D01*
X202023853Y-66600000D01*
X202055856Y-66552104D01*
X202078471Y-66497507D01*
X202090000Y-66439548D01*
X202090000Y-65985000D01*
X202015000Y-65910000D01*
X200770000Y-65910000D01*
X200770000Y-65930000D01*
X200270000Y-65930000D01*
X200270000Y-65910000D01*
X200250000Y-65910000D01*
X200250000Y-65410000D01*
X200270000Y-65410000D01*
X200270000Y-64685000D01*
X200770000Y-64685000D01*
X200770000Y-65410000D01*
X202015000Y-65410000D01*
X202090000Y-65335000D01*
X202090000Y-64880452D01*
X202078471Y-64822493D01*
X202055856Y-64767896D01*
X202023025Y-64718761D01*
X201981239Y-64676975D01*
X201932103Y-64644143D01*
X201877506Y-64621529D01*
X201819547Y-64610000D01*
X200845000Y-64610000D01*
X200770000Y-64685000D01*
X200270000Y-64685000D01*
X200195000Y-64610000D01*
X199816181Y-64610000D01*
X199871184Y-64575094D01*
X199950041Y-64500000D01*
X202784314Y-64500000D01*
X203448071Y-65163757D01*
G36*
X187109132Y-59345314D02*
X186493949Y-59960496D01*
X186462862Y-59996971D01*
X186427174Y-60064678D01*
X186353553Y-60138299D01*
X186353553Y-60173654D01*
X184410036Y-62117172D01*
X184233259Y-61940395D01*
X184208730Y-61919490D01*
X184186583Y-61847973D01*
X184156278Y-61801983D01*
X184158280Y-61799907D01*
X184197833Y-61724867D01*
X184207230Y-61679157D01*
X184233259Y-61659605D01*
X184445391Y-61447473D01*
X184476478Y-61410998D01*
X184501440Y-61363640D01*
X184518989Y-61356996D01*
X184586812Y-61306051D01*
X184798944Y-61093919D01*
X184830031Y-61057444D01*
X184854992Y-61010087D01*
X184872543Y-61003443D01*
X184940366Y-60952498D01*
X185152498Y-60740366D01*
X185183585Y-60703891D01*
X185208547Y-60656533D01*
X185226096Y-60649889D01*
X185293919Y-60598944D01*
X185506051Y-60386812D01*
X185537138Y-60350337D01*
X185562099Y-60302980D01*
X185579650Y-60296336D01*
X185647473Y-60245391D01*
X185859605Y-60033259D01*
X185880510Y-60008730D01*
X185952027Y-59986583D01*
X185998017Y-59956278D01*
X186000093Y-59958280D01*
X186075133Y-59997833D01*
X186117294Y-60006500D01*
X186120528Y-60011340D01*
X186141421Y-60032233D01*
X186247487Y-60032233D01*
X186289075Y-59990645D01*
X186322111Y-59978138D01*
X186389934Y-59927193D01*
X186637418Y-59679709D01*
X186637422Y-59679706D01*
X187040473Y-59276655D01*
X187109132Y-59345314D01*
X187109132Y-59345314D01*
G37*
X187109132Y-59345314D02*
X186493949Y-59960496D01*
X186462862Y-59996971D01*
X186427174Y-60064678D01*
X186353553Y-60138299D01*
X186353553Y-60173654D01*
X184410036Y-62117172D01*
X184233259Y-61940395D01*
X184208730Y-61919490D01*
X184186583Y-61847973D01*
X184156278Y-61801983D01*
X184158280Y-61799907D01*
X184197833Y-61724867D01*
X184207230Y-61679157D01*
X184233259Y-61659605D01*
X184445391Y-61447473D01*
X184476478Y-61410998D01*
X184501440Y-61363640D01*
X184518989Y-61356996D01*
X184586812Y-61306051D01*
X184798944Y-61093919D01*
X184830031Y-61057444D01*
X184854992Y-61010087D01*
X184872543Y-61003443D01*
X184940366Y-60952498D01*
X185152498Y-60740366D01*
X185183585Y-60703891D01*
X185208547Y-60656533D01*
X185226096Y-60649889D01*
X185293919Y-60598944D01*
X185506051Y-60386812D01*
X185537138Y-60350337D01*
X185562099Y-60302980D01*
X185579650Y-60296336D01*
X185647473Y-60245391D01*
X185859605Y-60033259D01*
X185880510Y-60008730D01*
X185952027Y-59986583D01*
X185998017Y-59956278D01*
X186000093Y-59958280D01*
X186075133Y-59997833D01*
X186117294Y-60006500D01*
X186120528Y-60011340D01*
X186141421Y-60032233D01*
X186247487Y-60032233D01*
X186289075Y-59990645D01*
X186322111Y-59978138D01*
X186389934Y-59927193D01*
X186637418Y-59679709D01*
X186637422Y-59679706D01*
X187040473Y-59276655D01*
X187109132Y-59345314D01*
M02*
