G04 #@! TF.FileFunction,Paste,Bot*
%FSLAX46Y46*%
G04 Gerber Fmt 4.6, Leading zero omitted, Abs format (unit mm)*
G04 Created by KiCad (PCBNEW 4.0.7-e2-6376~58~ubuntu14.04.1) date Wed Aug  8 14:24:41 2018*
%MOMM*%
%LPD*%
G01*
G04 APERTURE LIST*
%ADD10C,0.100000*%
%ADD11R,0.600000X1.700000*%
%ADD12R,1.000000X2.700000*%
%ADD13R,1.700000X0.600000*%
%ADD14R,2.700000X1.000000*%
%ADD15R,2.540000X1.500000*%
%ADD16R,0.750000X1.200000*%
%ADD17R,1.600000X1.600000*%
%ADD18R,1.200000X0.600000*%
%ADD19R,0.600000X1.200000*%
%ADD20R,0.300000X0.800000*%
%ADD21R,0.800000X1.600000*%
%ADD22R,1.200000X1.000000*%
%ADD23R,0.500000X0.800000*%
%ADD24R,0.800000X0.500000*%
G04 APERTURE END LIST*
D10*
D11*
X192540000Y-67690000D03*
X191290000Y-67690000D03*
X193790000Y-67690000D03*
X195040000Y-67690000D03*
D12*
X188040000Y-70740000D03*
X197040000Y-70740000D03*
D11*
X190040000Y-67690000D03*
X177375000Y-67700000D03*
X176125000Y-67700000D03*
X178625000Y-67700000D03*
X179875000Y-67700000D03*
D12*
X174200000Y-70750000D03*
X181800000Y-70750000D03*
D13*
X167000000Y-61275000D03*
X167000000Y-60025000D03*
X167000000Y-62525000D03*
X167000000Y-63775000D03*
D14*
X163950000Y-58100000D03*
X163950000Y-65700000D03*
D10*
G36*
X182489806Y-50904095D02*
X183287908Y-49403084D01*
X183817676Y-49684767D01*
X183019574Y-51185778D01*
X182489806Y-50904095D01*
X182489806Y-50904095D01*
G37*
G36*
X183593490Y-51490934D02*
X184391592Y-49989923D01*
X184921360Y-50271606D01*
X184123258Y-51772617D01*
X183593490Y-51490934D01*
X183593490Y-51490934D01*
G37*
G36*
X181386121Y-50317255D02*
X182184223Y-48816244D01*
X182713991Y-49097927D01*
X181915889Y-50598938D01*
X181386121Y-50317255D01*
X181386121Y-50317255D01*
G37*
G36*
X180282437Y-49730416D02*
X181080539Y-48229405D01*
X181610307Y-48511088D01*
X180812205Y-50012099D01*
X180282437Y-49730416D01*
X180282437Y-49730416D01*
G37*
G36*
X186313727Y-50049256D02*
X187581300Y-47665298D01*
X188464247Y-48134770D01*
X187196674Y-50518728D01*
X186313727Y-50049256D01*
X186313727Y-50049256D01*
G37*
G36*
X179603326Y-46481272D02*
X180870899Y-44097314D01*
X181753846Y-44566786D01*
X180486273Y-46950744D01*
X179603326Y-46481272D01*
X179603326Y-46481272D01*
G37*
D15*
X200500000Y-57160000D03*
X200500000Y-59700000D03*
X200500000Y-62240000D03*
X200520000Y-65660000D03*
X200520000Y-68200000D03*
X200520000Y-70740000D03*
D16*
X198000000Y-59350000D03*
X198000000Y-57450000D03*
X193000000Y-57450000D03*
X193000000Y-59350000D03*
D17*
X197940000Y-62200000D03*
X197940000Y-65800000D03*
X195940000Y-62200000D03*
X195940000Y-65800000D03*
X188490000Y-55900000D03*
X184890000Y-55900000D03*
D10*
G36*
X170550431Y-54025305D02*
X171398959Y-53176777D01*
X171823223Y-53601041D01*
X170974695Y-54449569D01*
X170550431Y-54025305D01*
X170550431Y-54025305D01*
G37*
G36*
X171505025Y-51727208D02*
X172353553Y-50878680D01*
X172777817Y-51302944D01*
X171929289Y-52151472D01*
X171505025Y-51727208D01*
X171505025Y-51727208D01*
G37*
G36*
X172848528Y-53070711D02*
X173697056Y-52222183D01*
X174121320Y-52646447D01*
X173272792Y-53494975D01*
X172848528Y-53070711D01*
X172848528Y-53070711D01*
G37*
D18*
X175850000Y-51000000D03*
X178150000Y-50050000D03*
X178150000Y-51950000D03*
D19*
X170000000Y-59150000D03*
X169050000Y-56850000D03*
X170950000Y-56850000D03*
D20*
X191290000Y-59390000D03*
X190640000Y-59390000D03*
X189990000Y-59390000D03*
X189990000Y-57390000D03*
X191290000Y-57390000D03*
D10*
G36*
X184939340Y-64769848D02*
X185575736Y-64133452D01*
X185787868Y-64345584D01*
X185151472Y-64981980D01*
X184939340Y-64769848D01*
X184939340Y-64769848D01*
G37*
G36*
X184585787Y-64416295D02*
X185434315Y-63567767D01*
X185646447Y-63779899D01*
X184797919Y-64628427D01*
X184585787Y-64416295D01*
X184585787Y-64416295D01*
G37*
G36*
X184232233Y-64062742D02*
X185080761Y-63214214D01*
X185292893Y-63426346D01*
X184444365Y-64274874D01*
X184232233Y-64062742D01*
X184232233Y-64062742D01*
G37*
G36*
X183878680Y-63709188D02*
X184727208Y-62860660D01*
X184939340Y-63072792D01*
X184090812Y-63921320D01*
X183878680Y-63709188D01*
X183878680Y-63709188D01*
G37*
G36*
X183525126Y-63355635D02*
X184373654Y-62507107D01*
X184585786Y-62719239D01*
X183737258Y-63567767D01*
X183525126Y-63355635D01*
X183525126Y-63355635D01*
G37*
G36*
X183171573Y-63002081D02*
X184020101Y-62153553D01*
X184232233Y-62365685D01*
X183383705Y-63214213D01*
X183171573Y-63002081D01*
X183171573Y-63002081D01*
G37*
G36*
X182818020Y-62648528D02*
X183454416Y-62012132D01*
X183666548Y-62224264D01*
X183030152Y-62860660D01*
X182818020Y-62648528D01*
X182818020Y-62648528D01*
G37*
G36*
X183030152Y-60739340D02*
X183666548Y-61375736D01*
X183454416Y-61587868D01*
X182818020Y-60951472D01*
X183030152Y-60739340D01*
X183030152Y-60739340D01*
G37*
G36*
X183383705Y-60385787D02*
X184232233Y-61234315D01*
X184020101Y-61446447D01*
X183171573Y-60597919D01*
X183383705Y-60385787D01*
X183383705Y-60385787D01*
G37*
G36*
X183737258Y-60032233D02*
X184585786Y-60880761D01*
X184373654Y-61092893D01*
X183525126Y-60244365D01*
X183737258Y-60032233D01*
X183737258Y-60032233D01*
G37*
G36*
X184090812Y-59678680D02*
X184939340Y-60527208D01*
X184727208Y-60739340D01*
X183878680Y-59890812D01*
X184090812Y-59678680D01*
X184090812Y-59678680D01*
G37*
G36*
X184444365Y-59325126D02*
X185292893Y-60173654D01*
X185080761Y-60385786D01*
X184232233Y-59537258D01*
X184444365Y-59325126D01*
X184444365Y-59325126D01*
G37*
G36*
X184797919Y-58971573D02*
X185646447Y-59820101D01*
X185434315Y-60032233D01*
X184585787Y-59183705D01*
X184797919Y-58971573D01*
X184797919Y-58971573D01*
G37*
G36*
X185151472Y-58618020D02*
X185787868Y-59254416D01*
X185575736Y-59466548D01*
X184939340Y-58830152D01*
X185151472Y-58618020D01*
X185151472Y-58618020D01*
G37*
G36*
X186212132Y-59254416D02*
X186848528Y-58618020D01*
X187060660Y-58830152D01*
X186424264Y-59466548D01*
X186212132Y-59254416D01*
X186212132Y-59254416D01*
G37*
G36*
X186353553Y-59820101D02*
X187202081Y-58971573D01*
X187414213Y-59183705D01*
X186565685Y-60032233D01*
X186353553Y-59820101D01*
X186353553Y-59820101D01*
G37*
G36*
X186707107Y-60173654D02*
X187555635Y-59325126D01*
X187767767Y-59537258D01*
X186919239Y-60385786D01*
X186707107Y-60173654D01*
X186707107Y-60173654D01*
G37*
G36*
X187060660Y-60527208D02*
X187909188Y-59678680D01*
X188121320Y-59890812D01*
X187272792Y-60739340D01*
X187060660Y-60527208D01*
X187060660Y-60527208D01*
G37*
G36*
X187414214Y-60880761D02*
X188262742Y-60032233D01*
X188474874Y-60244365D01*
X187626346Y-61092893D01*
X187414214Y-60880761D01*
X187414214Y-60880761D01*
G37*
G36*
X187767767Y-61234315D02*
X188616295Y-60385787D01*
X188828427Y-60597919D01*
X187979899Y-61446447D01*
X187767767Y-61234315D01*
X187767767Y-61234315D01*
G37*
G36*
X188333452Y-61375736D02*
X188969848Y-60739340D01*
X189181980Y-60951472D01*
X188545584Y-61587868D01*
X188333452Y-61375736D01*
X188333452Y-61375736D01*
G37*
G36*
X188545584Y-62012132D02*
X189181980Y-62648528D01*
X188969848Y-62860660D01*
X188333452Y-62224264D01*
X188545584Y-62012132D01*
X188545584Y-62012132D01*
G37*
G36*
X187979899Y-62153553D02*
X188828427Y-63002081D01*
X188616295Y-63214213D01*
X187767767Y-62365685D01*
X187979899Y-62153553D01*
X187979899Y-62153553D01*
G37*
G36*
X187626346Y-62507107D02*
X188474874Y-63355635D01*
X188262742Y-63567767D01*
X187414214Y-62719239D01*
X187626346Y-62507107D01*
X187626346Y-62507107D01*
G37*
G36*
X187272792Y-62860660D02*
X188121320Y-63709188D01*
X187909188Y-63921320D01*
X187060660Y-63072792D01*
X187272792Y-62860660D01*
X187272792Y-62860660D01*
G37*
G36*
X186919239Y-63214214D02*
X187767767Y-64062742D01*
X187555635Y-64274874D01*
X186707107Y-63426346D01*
X186919239Y-63214214D01*
X186919239Y-63214214D01*
G37*
G36*
X186565685Y-63567767D02*
X187414213Y-64416295D01*
X187202081Y-64628427D01*
X186353553Y-63779899D01*
X186565685Y-63567767D01*
X186565685Y-63567767D01*
G37*
G36*
X186424264Y-64133452D02*
X187060660Y-64769848D01*
X186848528Y-64981980D01*
X186212132Y-64345584D01*
X186424264Y-64133452D01*
X186424264Y-64133452D01*
G37*
G36*
X185257538Y-64451651D02*
X185823224Y-63885965D01*
X185823224Y-64310229D01*
X185681802Y-64451651D01*
X185257538Y-64451651D01*
X185257538Y-64451651D01*
G37*
G36*
X186176776Y-63885965D02*
X186742462Y-64451651D01*
X186318198Y-64451651D01*
X186176776Y-64310229D01*
X186176776Y-63885965D01*
X186176776Y-63885965D01*
G37*
G36*
X185823224Y-59714035D02*
X185257538Y-59148349D01*
X185681802Y-59148349D01*
X185823224Y-59289771D01*
X185823224Y-59714035D01*
X185823224Y-59714035D01*
G37*
G36*
X186742462Y-59148349D02*
X186176776Y-59714035D01*
X186176776Y-59289771D01*
X186318198Y-59148349D01*
X186742462Y-59148349D01*
X186742462Y-59148349D01*
G37*
G36*
X183914035Y-61976776D02*
X183348349Y-62542462D01*
X183348349Y-62118198D01*
X183489771Y-61976776D01*
X183914035Y-61976776D01*
X183914035Y-61976776D01*
G37*
G36*
X183348349Y-61057538D02*
X183914035Y-61623224D01*
X183489771Y-61623224D01*
X183348349Y-61481802D01*
X183348349Y-61057538D01*
X183348349Y-61057538D01*
G37*
G36*
X188085965Y-61623224D02*
X188651651Y-61057538D01*
X188651651Y-61481802D01*
X188510229Y-61623224D01*
X188085965Y-61623224D01*
X188085965Y-61623224D01*
G37*
G36*
X188651651Y-62542462D02*
X188085965Y-61976776D01*
X188510229Y-61976776D01*
X188651651Y-62118198D01*
X188651651Y-62542462D01*
X188651651Y-62542462D01*
G37*
G36*
X189129708Y-52336238D02*
X189786968Y-51100111D01*
X190669916Y-51569582D01*
X190012656Y-52805709D01*
X189129708Y-52336238D01*
X189129708Y-52336238D01*
G37*
G36*
X192838088Y-54308018D02*
X193495348Y-53071891D01*
X194378296Y-53541362D01*
X193721036Y-54777489D01*
X192838088Y-54308018D01*
X192838088Y-54308018D01*
G37*
G36*
X188555366Y-49369314D02*
X189024837Y-48486367D01*
X190790732Y-49425310D01*
X190321261Y-50308257D01*
X188555366Y-49369314D01*
X188555366Y-49369314D01*
G37*
G36*
X194735999Y-52655615D02*
X195205470Y-51772668D01*
X196971365Y-52711611D01*
X196501894Y-53594558D01*
X194735999Y-52655615D01*
X194735999Y-52655615D01*
G37*
D21*
X176200000Y-60700000D03*
X177800000Y-60700000D03*
X176200000Y-55300000D03*
X177800000Y-55300000D03*
D22*
X176000000Y-55000000D03*
X178000000Y-55000000D03*
X176000000Y-61000000D03*
X178000000Y-61000000D03*
D10*
G36*
X175400000Y-55450000D02*
X175800000Y-54900000D01*
X175800000Y-56100000D01*
X175400000Y-55550000D01*
X175400000Y-55450000D01*
X175400000Y-55450000D01*
G37*
G36*
X178600000Y-55550000D02*
X178200000Y-56100000D01*
X178200000Y-54900000D01*
X178600000Y-55450000D01*
X178600000Y-55550000D01*
X178600000Y-55550000D01*
G37*
G36*
X175400000Y-60450000D02*
X175800000Y-59900000D01*
X175800000Y-61100000D01*
X175400000Y-60550000D01*
X175400000Y-60450000D01*
X175400000Y-60450000D01*
G37*
G36*
X178600000Y-60550000D02*
X178200000Y-61100000D01*
X178200000Y-59900000D01*
X178600000Y-60450000D01*
X178600000Y-60550000D01*
X178600000Y-60550000D01*
G37*
D23*
X182400000Y-57400000D03*
X182400000Y-58600000D03*
X181400000Y-57400000D03*
X181400000Y-58600000D03*
X180400000Y-57400000D03*
X180400000Y-58600000D03*
D24*
X185400000Y-66000000D03*
X186600000Y-66000000D03*
X177600000Y-62500000D03*
X176400000Y-62500000D03*
D23*
X172600000Y-57400000D03*
X172600000Y-58600000D03*
D24*
X177600000Y-53600000D03*
X176400000Y-53600000D03*
D19*
X195500000Y-59550000D03*
X196450000Y-59550000D03*
X194550000Y-59550000D03*
X194550000Y-57250000D03*
X196450000Y-57250000D03*
D23*
X193940000Y-64590000D03*
X193940000Y-63390000D03*
D24*
X186615000Y-57390000D03*
X185415000Y-57390000D03*
M02*
