M48
;DRILL file {KiCad 4.0.7-e2-6376~58~ubuntu14.04.1} date Wed Aug  8 16:19:53 2018
;FORMAT={-:-/ absolute / metric / decimal}
FMAT,2
METRIC,TZ
T1C0.400
T2C3.000
%
G90
G05
M71
T1
X165.4Y-59.31
X165.4Y-64.2
X175.41Y-69.4
X178.6Y-62.
X180.Y-69.4
X180.4Y-61.8
X181.2Y-47.5
X185.48Y-62.461
X186.04Y-58.54
X190.04Y-69.79
X190.44Y-56.69
X190.74Y-70.49
X191.94Y-58.49
X192.61Y-55.09
X192.755Y-64.1
X193.04Y-65.29
X199.5Y-64.1
X199.997Y-65.66
X200.5Y-57.16
X200.52Y-59.7
X200.52Y-62.24
X200.52Y-68.2
X200.52Y-70.74
X202.3Y-57.16
X202.3Y-59.7
X202.3Y-62.24
X202.3Y-68.2
X202.3Y-70.74
X202.798Y-65.662
T2
X177.Y-58.
T0
M30
