G04 #@! TF.FileFunction,Legend,Top*
%FSLAX46Y46*%
G04 Gerber Fmt 4.6, Leading zero omitted, Abs format (unit mm)*
G04 Created by KiCad (PCBNEW 4.0.7-e2-6376~58~ubuntu14.04.1) date Wed Aug  8 14:24:41 2018*
%MOMM*%
%LPD*%
G01*
G04 APERTURE LIST*
%ADD10C,0.100000*%
%ADD11C,0.140000*%
%ADD12C,0.010000*%
G04 APERTURE END LIST*
D10*
D11*
X187538095Y-62985714D02*
X187538095Y-63652381D01*
X187538095Y-63080952D02*
X187585714Y-63033333D01*
X187680952Y-62985714D01*
X187823810Y-62985714D01*
X187919048Y-63033333D01*
X187966667Y-63128571D01*
X187966667Y-63652381D01*
X188823810Y-63604762D02*
X188728572Y-63652381D01*
X188538095Y-63652381D01*
X188442857Y-63604762D01*
X188395238Y-63509524D01*
X188395238Y-63128571D01*
X188442857Y-63033333D01*
X188538095Y-62985714D01*
X188728572Y-62985714D01*
X188823810Y-63033333D01*
X188871429Y-63128571D01*
X188871429Y-63223810D01*
X188395238Y-63319048D01*
X189728572Y-62985714D02*
X189728572Y-63652381D01*
X189300000Y-62985714D02*
X189300000Y-63509524D01*
X189347619Y-63604762D01*
X189442857Y-63652381D01*
X189585715Y-63652381D01*
X189680953Y-63604762D01*
X189728572Y-63557143D01*
X190204762Y-63652381D02*
X190204762Y-62985714D01*
X190204762Y-63176190D02*
X190252381Y-63080952D01*
X190300000Y-63033333D01*
X190395238Y-62985714D01*
X190490477Y-62985714D01*
X190966667Y-63652381D02*
X190871429Y-63604762D01*
X190823810Y-63557143D01*
X190776191Y-63461905D01*
X190776191Y-63176190D01*
X190823810Y-63080952D01*
X190871429Y-63033333D01*
X190966667Y-62985714D01*
X191109525Y-62985714D01*
X191204763Y-63033333D01*
X191252382Y-63080952D01*
X191300001Y-63176190D01*
X191300001Y-63461905D01*
X191252382Y-63557143D01*
X191204763Y-63604762D01*
X191109525Y-63652381D01*
X190966667Y-63652381D01*
X191585715Y-62985714D02*
X191966667Y-62985714D01*
X191728572Y-62652381D02*
X191728572Y-63509524D01*
X191776191Y-63604762D01*
X191871429Y-63652381D01*
X191966667Y-63652381D01*
X192300001Y-63652381D02*
X192300001Y-62985714D01*
X192300001Y-62652381D02*
X192252382Y-62700000D01*
X192300001Y-62747619D01*
X192347620Y-62700000D01*
X192300001Y-62652381D01*
X192300001Y-62747619D01*
X192776191Y-62985714D02*
X192776191Y-63652381D01*
X192776191Y-63080952D02*
X192823810Y-63033333D01*
X192919048Y-62985714D01*
X193061906Y-62985714D01*
X193157144Y-63033333D01*
X193204763Y-63128571D01*
X193204763Y-63652381D01*
X193680953Y-63652381D02*
X193680953Y-62652381D01*
X193776191Y-63271429D02*
X194061906Y-63652381D01*
X194061906Y-62985714D02*
X193680953Y-63366667D01*
X194871430Y-63604762D02*
X194776192Y-63652381D01*
X194585715Y-63652381D01*
X194490477Y-63604762D01*
X194442858Y-63509524D01*
X194442858Y-63128571D01*
X194490477Y-63033333D01*
X194585715Y-62985714D01*
X194776192Y-62985714D01*
X194871430Y-63033333D01*
X194919049Y-63128571D01*
X194919049Y-63223810D01*
X194442858Y-63319048D01*
X195347620Y-63652381D02*
X195347620Y-62985714D01*
X195347620Y-63176190D02*
X195395239Y-63080952D01*
X195442858Y-63033333D01*
X195538096Y-62985714D01*
X195633335Y-62985714D01*
X195966668Y-63557143D02*
X196014287Y-63604762D01*
X195966668Y-63652381D01*
X195919049Y-63604762D01*
X195966668Y-63557143D01*
X195966668Y-63652381D01*
X196871430Y-63604762D02*
X196776192Y-63652381D01*
X196585715Y-63652381D01*
X196490477Y-63604762D01*
X196442858Y-63557143D01*
X196395239Y-63461905D01*
X196395239Y-63176190D01*
X196442858Y-63080952D01*
X196490477Y-63033333D01*
X196585715Y-62985714D01*
X196776192Y-62985714D01*
X196871430Y-63033333D01*
X197442858Y-63652381D02*
X197347620Y-63604762D01*
X197300001Y-63557143D01*
X197252382Y-63461905D01*
X197252382Y-63176190D01*
X197300001Y-63080952D01*
X197347620Y-63033333D01*
X197442858Y-62985714D01*
X197585716Y-62985714D01*
X197680954Y-63033333D01*
X197728573Y-63080952D01*
X197776192Y-63176190D01*
X197776192Y-63461905D01*
X197728573Y-63557143D01*
X197680954Y-63604762D01*
X197585716Y-63652381D01*
X197442858Y-63652381D01*
X198204763Y-63652381D02*
X198204763Y-62985714D01*
X198204763Y-63080952D02*
X198252382Y-63033333D01*
X198347620Y-62985714D01*
X198490478Y-62985714D01*
X198585716Y-63033333D01*
X198633335Y-63128571D01*
X198633335Y-63652381D01*
X198633335Y-63128571D02*
X198680954Y-63033333D01*
X198776192Y-62985714D01*
X198919049Y-62985714D01*
X199014287Y-63033333D01*
X199061906Y-63128571D01*
X199061906Y-63652381D01*
X187452976Y-62152381D02*
X187577976Y-61152381D01*
X187822025Y-61866667D01*
X188244643Y-61152381D01*
X188119643Y-62152381D01*
X188911309Y-61152381D02*
X189101786Y-61152381D01*
X189191072Y-61200000D01*
X189274405Y-61295238D01*
X189298215Y-61485714D01*
X189256548Y-61819048D01*
X189185120Y-62009524D01*
X189077977Y-62104762D01*
X188976786Y-62152381D01*
X188786309Y-62152381D01*
X188697024Y-62104762D01*
X188613691Y-62009524D01*
X188589881Y-61819048D01*
X188631548Y-61485714D01*
X188702976Y-61295238D01*
X188810119Y-61200000D01*
X188911309Y-61152381D01*
X189625595Y-61152381D02*
X190197024Y-61152381D01*
X189786309Y-62152381D02*
X189911309Y-61152381D01*
X190720833Y-61152381D02*
X190911310Y-61152381D01*
X191000596Y-61200000D01*
X191083929Y-61295238D01*
X191107739Y-61485714D01*
X191066072Y-61819048D01*
X190994644Y-62009524D01*
X190887501Y-62104762D01*
X190786310Y-62152381D01*
X190595833Y-62152381D01*
X190506548Y-62104762D01*
X190423215Y-62009524D01*
X190399405Y-61819048D01*
X190441072Y-61485714D01*
X190512500Y-61295238D01*
X190619643Y-61200000D01*
X190720833Y-61152381D01*
X192024405Y-62152381D02*
X191750595Y-61676190D01*
X191452976Y-62152381D02*
X191577976Y-61152381D01*
X191958929Y-61152381D01*
X192048215Y-61200000D01*
X192089882Y-61247619D01*
X192125596Y-61342857D01*
X192107739Y-61485714D01*
X192048215Y-61580952D01*
X191994644Y-61628571D01*
X191893453Y-61676190D01*
X191512500Y-61676190D01*
X193214881Y-62152381D02*
X193339881Y-61152381D01*
X193786310Y-62152381D01*
X193911310Y-61152381D01*
X194327977Y-61628571D02*
X194661311Y-61628571D01*
X194738691Y-62152381D02*
X194262500Y-62152381D01*
X194387500Y-61152381D01*
X194863691Y-61152381D01*
X195292262Y-61152381D02*
X195191072Y-61961905D01*
X195226786Y-62057143D01*
X195268453Y-62104762D01*
X195357738Y-62152381D01*
X195548215Y-62152381D01*
X195649406Y-62104762D01*
X195702977Y-62057143D01*
X195762501Y-61961905D01*
X195863691Y-61152381D01*
X196786310Y-62152381D02*
X196512500Y-61676190D01*
X196214881Y-62152381D02*
X196339881Y-61152381D01*
X196720834Y-61152381D01*
X196810120Y-61200000D01*
X196851787Y-61247619D01*
X196887501Y-61342857D01*
X196869644Y-61485714D01*
X196810120Y-61580952D01*
X196756549Y-61628571D01*
X196655358Y-61676190D01*
X196274405Y-61676190D01*
X197530357Y-61152381D02*
X197720834Y-61152381D01*
X197810120Y-61200000D01*
X197893453Y-61295238D01*
X197917263Y-61485714D01*
X197875596Y-61819048D01*
X197804168Y-62009524D01*
X197697025Y-62104762D01*
X197595834Y-62152381D01*
X197405357Y-62152381D01*
X197316072Y-62104762D01*
X197232739Y-62009524D01*
X197208929Y-61819048D01*
X197250596Y-61485714D01*
X197322024Y-61295238D01*
X197429167Y-61200000D01*
X197530357Y-61152381D01*
X198262500Y-62152381D02*
X198387500Y-61152381D01*
X198833929Y-62152381D01*
X198958929Y-61152381D01*
D12*
G36*
X210491434Y-56730800D02*
X210502202Y-57173755D01*
X210509966Y-57682056D01*
X210514465Y-58219485D01*
X210515439Y-58749826D01*
X210512629Y-59236860D01*
X210510593Y-59397800D01*
X210503136Y-59832934D01*
X210494065Y-60188151D01*
X210481733Y-60485134D01*
X210464491Y-60745564D01*
X210440689Y-60991125D01*
X210408680Y-61243499D01*
X210366814Y-61524370D01*
X210332658Y-61737880D01*
X210065724Y-63659240D01*
X209882188Y-65619396D01*
X209783776Y-67596708D01*
X209766261Y-68835902D01*
X209770025Y-69368145D01*
X209783109Y-69825995D01*
X209807791Y-70236412D01*
X209846353Y-70626358D01*
X209901071Y-71022795D01*
X209974225Y-71452685D01*
X209998542Y-71583887D01*
X210044632Y-71834102D01*
X210082861Y-72051312D01*
X210109634Y-72214381D01*
X210121360Y-72302173D01*
X210121600Y-72307787D01*
X210101157Y-72337795D01*
X210030500Y-72358181D01*
X209895635Y-72370483D01*
X209682570Y-72376239D01*
X209490201Y-72377200D01*
X208858803Y-72377200D01*
X208807312Y-72110500D01*
X208677459Y-71332624D01*
X208613256Y-70810260D01*
X208856714Y-70810260D01*
X208872266Y-70989952D01*
X208906550Y-71244896D01*
X208927300Y-71386600D01*
X208968587Y-71672502D01*
X209001082Y-71873515D01*
X209035560Y-72004444D01*
X209082791Y-72080099D01*
X209153548Y-72115288D01*
X209258603Y-72124818D01*
X209408727Y-72123498D01*
X209463135Y-72123200D01*
X209664283Y-72121825D01*
X209783142Y-72113828D01*
X209839020Y-72093400D01*
X209851223Y-72054731D01*
X209843013Y-72008900D01*
X209772119Y-71680113D01*
X209707582Y-71338404D01*
X209657028Y-71025950D01*
X209635733Y-70862592D01*
X209605725Y-70682439D01*
X209564016Y-70537537D01*
X209526835Y-70468892D01*
X209395929Y-70405053D01*
X209221134Y-70412375D01*
X209029579Y-70489362D01*
X209016700Y-70497043D01*
X208939887Y-70549213D01*
X208888781Y-70607239D01*
X208861638Y-70688472D01*
X208856714Y-70810260D01*
X208613256Y-70810260D01*
X208574950Y-70498598D01*
X208501462Y-69636332D01*
X208458673Y-68773735D01*
X208454963Y-68476224D01*
X208683700Y-68476224D01*
X208716348Y-69296412D01*
X208729271Y-69582352D01*
X208743730Y-69838696D01*
X208758377Y-70045467D01*
X208771866Y-70182691D01*
X208778862Y-70223402D01*
X208802123Y-70288690D01*
X208840833Y-70303612D01*
X208924658Y-70269511D01*
X208995264Y-70233194D01*
X209217348Y-70160948D01*
X209366631Y-70164186D01*
X209551463Y-70192187D01*
X209526159Y-69316193D01*
X209514943Y-68973611D01*
X209500775Y-68719440D01*
X209478969Y-68540509D01*
X209444843Y-68423644D01*
X209393714Y-68355673D01*
X209320899Y-68323423D01*
X209221713Y-68313720D01*
X209169567Y-68313200D01*
X208999298Y-68338012D01*
X208841327Y-68394712D01*
X208683700Y-68476224D01*
X208454963Y-68476224D01*
X208448260Y-67938716D01*
X208448786Y-67921370D01*
X208688216Y-67921370D01*
X208690195Y-68047056D01*
X208701443Y-68115684D01*
X208723433Y-68142063D01*
X208757636Y-68141002D01*
X208775400Y-68136114D01*
X208899403Y-68105138D01*
X209038816Y-68076508D01*
X209207466Y-68071971D01*
X209352359Y-68099863D01*
X209504085Y-68152755D01*
X209531672Y-67788477D01*
X209545677Y-67578678D01*
X209561046Y-67308824D01*
X209575508Y-67020393D01*
X209583046Y-66849895D01*
X209606833Y-66275591D01*
X209445116Y-66176985D01*
X209230503Y-66088941D01*
X209037131Y-66088086D01*
X208880979Y-66167075D01*
X208778028Y-66318564D01*
X208744280Y-66499078D01*
X208739909Y-66628585D01*
X208731930Y-66833860D01*
X208721385Y-67089181D01*
X208709317Y-67368824D01*
X208706180Y-67439591D01*
X208694035Y-67723818D01*
X208688216Y-67921370D01*
X208448786Y-67921370D01*
X208471901Y-67159184D01*
X208491844Y-66861884D01*
X208513445Y-66610891D01*
X208544437Y-66280194D01*
X208582687Y-65891035D01*
X208583789Y-65880198D01*
X208806311Y-65880198D01*
X209019455Y-65852994D01*
X209204828Y-65850846D01*
X209384969Y-65880762D01*
X209410400Y-65888880D01*
X209588200Y-65951972D01*
X209621115Y-65748286D01*
X209636412Y-65628277D01*
X209657227Y-65429481D01*
X209681391Y-65174420D01*
X209706732Y-64885617D01*
X209721527Y-64706400D01*
X209744159Y-64423422D01*
X209763710Y-64175324D01*
X209778787Y-63980063D01*
X209787999Y-63855594D01*
X209790212Y-63820247D01*
X209748057Y-63754797D01*
X209642961Y-63685175D01*
X209511254Y-63628839D01*
X209389266Y-63603249D01*
X209345904Y-63606736D01*
X209247328Y-63635787D01*
X209172395Y-63676115D01*
X209115766Y-63741991D01*
X209072101Y-63847684D01*
X209036061Y-64007464D01*
X209002305Y-64235601D01*
X208965493Y-64546365D01*
X208953259Y-64655999D01*
X208919423Y-64958172D01*
X208887692Y-65236393D01*
X208860439Y-65470229D01*
X208840041Y-65639247D01*
X208830493Y-65712399D01*
X208806311Y-65880198D01*
X208583789Y-65880198D01*
X208626066Y-65464653D01*
X208672442Y-65022291D01*
X208719684Y-64585189D01*
X208725917Y-64528600D01*
X208832328Y-63533041D01*
X208852816Y-63324554D01*
X209105568Y-63324554D01*
X209122062Y-63375882D01*
X209187490Y-63397377D01*
X209325697Y-63395624D01*
X209355775Y-63393652D01*
X209522527Y-63393631D01*
X209658351Y-63413443D01*
X209698706Y-63428589D01*
X209785661Y-63456407D01*
X209821460Y-63445936D01*
X209840914Y-63382987D01*
X209867673Y-63243910D01*
X209897240Y-63053489D01*
X209910763Y-62953800D01*
X209944438Y-62705595D01*
X209987844Y-62402096D01*
X210034461Y-62088298D01*
X210064240Y-61894718D01*
X210158474Y-61292837D01*
X210000337Y-61196408D01*
X209868319Y-61131072D01*
X209756943Y-61100162D01*
X209748277Y-61099789D01*
X209604703Y-61128131D01*
X209454509Y-61199219D01*
X209334654Y-61291369D01*
X209283696Y-61372349D01*
X209272271Y-61453728D01*
X209254415Y-61615716D01*
X209232012Y-61837662D01*
X209206946Y-62098915D01*
X209181102Y-62378826D01*
X209156364Y-62656743D01*
X209134616Y-62912017D01*
X209117742Y-63123997D01*
X209107626Y-63272032D01*
X209105568Y-63324554D01*
X208852816Y-63324554D01*
X208921768Y-62622914D01*
X208995071Y-61783626D01*
X209052776Y-61004515D01*
X209303305Y-61004515D01*
X209412565Y-60946040D01*
X209526205Y-60915740D01*
X209692030Y-60904577D01*
X209783612Y-60908044D01*
X209950801Y-60926905D01*
X210084013Y-60952053D01*
X210126796Y-60965816D01*
X210164353Y-60965627D01*
X210195763Y-60921205D01*
X210222307Y-60823209D01*
X210245270Y-60662297D01*
X210265936Y-60429127D01*
X210285588Y-60114357D01*
X210305509Y-59708645D01*
X210308379Y-59644376D01*
X210340160Y-58925752D01*
X210182603Y-58844276D01*
X210029285Y-58786717D01*
X209882822Y-58762989D01*
X209719979Y-58795487D01*
X209559654Y-58877604D01*
X209436932Y-58986890D01*
X209389420Y-59078724D01*
X209380002Y-59165886D01*
X209368608Y-59335635D01*
X209356259Y-59569001D01*
X209343975Y-59847016D01*
X209334510Y-60099557D01*
X209303305Y-61004515D01*
X209052776Y-61004515D01*
X209053068Y-61000580D01*
X209096591Y-60259181D01*
X209126473Y-59544834D01*
X209143544Y-58842943D01*
X209144938Y-58650185D01*
X209407876Y-58650185D01*
X209620161Y-58577047D01*
X209836412Y-58530584D01*
X210054483Y-58551264D01*
X210276520Y-58598620D01*
X210248600Y-57010200D01*
X210030463Y-56934795D01*
X209886372Y-56891682D01*
X209784346Y-56890609D01*
X209672548Y-56934820D01*
X209624063Y-56960229D01*
X209435800Y-57061067D01*
X209407876Y-58650185D01*
X209144938Y-58650185D01*
X209148637Y-58138913D01*
X209142584Y-57418149D01*
X209139991Y-57264200D01*
X209132298Y-56863674D01*
X209124402Y-56492645D01*
X209116641Y-56164156D01*
X209109351Y-55891248D01*
X209102871Y-55686964D01*
X209101873Y-55664000D01*
X209359600Y-55664000D01*
X209360293Y-56108500D01*
X209363808Y-56323658D01*
X209372569Y-56509824D01*
X209384922Y-56636024D01*
X209389703Y-56659976D01*
X209414914Y-56724782D01*
X209462500Y-56742081D01*
X209563021Y-56716771D01*
X209621207Y-56697087D01*
X209807950Y-56654398D01*
X209988573Y-56672217D01*
X210028725Y-56682349D01*
X210156562Y-56712902D01*
X210232679Y-56723691D01*
X210241027Y-56721438D01*
X210242712Y-56667216D01*
X210241260Y-56533558D01*
X210237021Y-56342569D01*
X210232526Y-56184700D01*
X210216452Y-55664000D01*
X209359600Y-55664000D01*
X209101873Y-55664000D01*
X209097538Y-55564347D01*
X209095302Y-55537000D01*
X209094217Y-55496209D01*
X209115566Y-55468101D01*
X209174893Y-55450320D01*
X209287737Y-55440513D01*
X209469640Y-55436326D01*
X209736144Y-55435403D01*
X209766000Y-55435400D01*
X210451800Y-55435400D01*
X210491434Y-56730800D01*
X210491434Y-56730800D01*
G37*
X210491434Y-56730800D02*
X210502202Y-57173755D01*
X210509966Y-57682056D01*
X210514465Y-58219485D01*
X210515439Y-58749826D01*
X210512629Y-59236860D01*
X210510593Y-59397800D01*
X210503136Y-59832934D01*
X210494065Y-60188151D01*
X210481733Y-60485134D01*
X210464491Y-60745564D01*
X210440689Y-60991125D01*
X210408680Y-61243499D01*
X210366814Y-61524370D01*
X210332658Y-61737880D01*
X210065724Y-63659240D01*
X209882188Y-65619396D01*
X209783776Y-67596708D01*
X209766261Y-68835902D01*
X209770025Y-69368145D01*
X209783109Y-69825995D01*
X209807791Y-70236412D01*
X209846353Y-70626358D01*
X209901071Y-71022795D01*
X209974225Y-71452685D01*
X209998542Y-71583887D01*
X210044632Y-71834102D01*
X210082861Y-72051312D01*
X210109634Y-72214381D01*
X210121360Y-72302173D01*
X210121600Y-72307787D01*
X210101157Y-72337795D01*
X210030500Y-72358181D01*
X209895635Y-72370483D01*
X209682570Y-72376239D01*
X209490201Y-72377200D01*
X208858803Y-72377200D01*
X208807312Y-72110500D01*
X208677459Y-71332624D01*
X208613256Y-70810260D01*
X208856714Y-70810260D01*
X208872266Y-70989952D01*
X208906550Y-71244896D01*
X208927300Y-71386600D01*
X208968587Y-71672502D01*
X209001082Y-71873515D01*
X209035560Y-72004444D01*
X209082791Y-72080099D01*
X209153548Y-72115288D01*
X209258603Y-72124818D01*
X209408727Y-72123498D01*
X209463135Y-72123200D01*
X209664283Y-72121825D01*
X209783142Y-72113828D01*
X209839020Y-72093400D01*
X209851223Y-72054731D01*
X209843013Y-72008900D01*
X209772119Y-71680113D01*
X209707582Y-71338404D01*
X209657028Y-71025950D01*
X209635733Y-70862592D01*
X209605725Y-70682439D01*
X209564016Y-70537537D01*
X209526835Y-70468892D01*
X209395929Y-70405053D01*
X209221134Y-70412375D01*
X209029579Y-70489362D01*
X209016700Y-70497043D01*
X208939887Y-70549213D01*
X208888781Y-70607239D01*
X208861638Y-70688472D01*
X208856714Y-70810260D01*
X208613256Y-70810260D01*
X208574950Y-70498598D01*
X208501462Y-69636332D01*
X208458673Y-68773735D01*
X208454963Y-68476224D01*
X208683700Y-68476224D01*
X208716348Y-69296412D01*
X208729271Y-69582352D01*
X208743730Y-69838696D01*
X208758377Y-70045467D01*
X208771866Y-70182691D01*
X208778862Y-70223402D01*
X208802123Y-70288690D01*
X208840833Y-70303612D01*
X208924658Y-70269511D01*
X208995264Y-70233194D01*
X209217348Y-70160948D01*
X209366631Y-70164186D01*
X209551463Y-70192187D01*
X209526159Y-69316193D01*
X209514943Y-68973611D01*
X209500775Y-68719440D01*
X209478969Y-68540509D01*
X209444843Y-68423644D01*
X209393714Y-68355673D01*
X209320899Y-68323423D01*
X209221713Y-68313720D01*
X209169567Y-68313200D01*
X208999298Y-68338012D01*
X208841327Y-68394712D01*
X208683700Y-68476224D01*
X208454963Y-68476224D01*
X208448260Y-67938716D01*
X208448786Y-67921370D01*
X208688216Y-67921370D01*
X208690195Y-68047056D01*
X208701443Y-68115684D01*
X208723433Y-68142063D01*
X208757636Y-68141002D01*
X208775400Y-68136114D01*
X208899403Y-68105138D01*
X209038816Y-68076508D01*
X209207466Y-68071971D01*
X209352359Y-68099863D01*
X209504085Y-68152755D01*
X209531672Y-67788477D01*
X209545677Y-67578678D01*
X209561046Y-67308824D01*
X209575508Y-67020393D01*
X209583046Y-66849895D01*
X209606833Y-66275591D01*
X209445116Y-66176985D01*
X209230503Y-66088941D01*
X209037131Y-66088086D01*
X208880979Y-66167075D01*
X208778028Y-66318564D01*
X208744280Y-66499078D01*
X208739909Y-66628585D01*
X208731930Y-66833860D01*
X208721385Y-67089181D01*
X208709317Y-67368824D01*
X208706180Y-67439591D01*
X208694035Y-67723818D01*
X208688216Y-67921370D01*
X208448786Y-67921370D01*
X208471901Y-67159184D01*
X208491844Y-66861884D01*
X208513445Y-66610891D01*
X208544437Y-66280194D01*
X208582687Y-65891035D01*
X208583789Y-65880198D01*
X208806311Y-65880198D01*
X209019455Y-65852994D01*
X209204828Y-65850846D01*
X209384969Y-65880762D01*
X209410400Y-65888880D01*
X209588200Y-65951972D01*
X209621115Y-65748286D01*
X209636412Y-65628277D01*
X209657227Y-65429481D01*
X209681391Y-65174420D01*
X209706732Y-64885617D01*
X209721527Y-64706400D01*
X209744159Y-64423422D01*
X209763710Y-64175324D01*
X209778787Y-63980063D01*
X209787999Y-63855594D01*
X209790212Y-63820247D01*
X209748057Y-63754797D01*
X209642961Y-63685175D01*
X209511254Y-63628839D01*
X209389266Y-63603249D01*
X209345904Y-63606736D01*
X209247328Y-63635787D01*
X209172395Y-63676115D01*
X209115766Y-63741991D01*
X209072101Y-63847684D01*
X209036061Y-64007464D01*
X209002305Y-64235601D01*
X208965493Y-64546365D01*
X208953259Y-64655999D01*
X208919423Y-64958172D01*
X208887692Y-65236393D01*
X208860439Y-65470229D01*
X208840041Y-65639247D01*
X208830493Y-65712399D01*
X208806311Y-65880198D01*
X208583789Y-65880198D01*
X208626066Y-65464653D01*
X208672442Y-65022291D01*
X208719684Y-64585189D01*
X208725917Y-64528600D01*
X208832328Y-63533041D01*
X208852816Y-63324554D01*
X209105568Y-63324554D01*
X209122062Y-63375882D01*
X209187490Y-63397377D01*
X209325697Y-63395624D01*
X209355775Y-63393652D01*
X209522527Y-63393631D01*
X209658351Y-63413443D01*
X209698706Y-63428589D01*
X209785661Y-63456407D01*
X209821460Y-63445936D01*
X209840914Y-63382987D01*
X209867673Y-63243910D01*
X209897240Y-63053489D01*
X209910763Y-62953800D01*
X209944438Y-62705595D01*
X209987844Y-62402096D01*
X210034461Y-62088298D01*
X210064240Y-61894718D01*
X210158474Y-61292837D01*
X210000337Y-61196408D01*
X209868319Y-61131072D01*
X209756943Y-61100162D01*
X209748277Y-61099789D01*
X209604703Y-61128131D01*
X209454509Y-61199219D01*
X209334654Y-61291369D01*
X209283696Y-61372349D01*
X209272271Y-61453728D01*
X209254415Y-61615716D01*
X209232012Y-61837662D01*
X209206946Y-62098915D01*
X209181102Y-62378826D01*
X209156364Y-62656743D01*
X209134616Y-62912017D01*
X209117742Y-63123997D01*
X209107626Y-63272032D01*
X209105568Y-63324554D01*
X208852816Y-63324554D01*
X208921768Y-62622914D01*
X208995071Y-61783626D01*
X209052776Y-61004515D01*
X209303305Y-61004515D01*
X209412565Y-60946040D01*
X209526205Y-60915740D01*
X209692030Y-60904577D01*
X209783612Y-60908044D01*
X209950801Y-60926905D01*
X210084013Y-60952053D01*
X210126796Y-60965816D01*
X210164353Y-60965627D01*
X210195763Y-60921205D01*
X210222307Y-60823209D01*
X210245270Y-60662297D01*
X210265936Y-60429127D01*
X210285588Y-60114357D01*
X210305509Y-59708645D01*
X210308379Y-59644376D01*
X210340160Y-58925752D01*
X210182603Y-58844276D01*
X210029285Y-58786717D01*
X209882822Y-58762989D01*
X209719979Y-58795487D01*
X209559654Y-58877604D01*
X209436932Y-58986890D01*
X209389420Y-59078724D01*
X209380002Y-59165886D01*
X209368608Y-59335635D01*
X209356259Y-59569001D01*
X209343975Y-59847016D01*
X209334510Y-60099557D01*
X209303305Y-61004515D01*
X209052776Y-61004515D01*
X209053068Y-61000580D01*
X209096591Y-60259181D01*
X209126473Y-59544834D01*
X209143544Y-58842943D01*
X209144938Y-58650185D01*
X209407876Y-58650185D01*
X209620161Y-58577047D01*
X209836412Y-58530584D01*
X210054483Y-58551264D01*
X210276520Y-58598620D01*
X210248600Y-57010200D01*
X210030463Y-56934795D01*
X209886372Y-56891682D01*
X209784346Y-56890609D01*
X209672548Y-56934820D01*
X209624063Y-56960229D01*
X209435800Y-57061067D01*
X209407876Y-58650185D01*
X209144938Y-58650185D01*
X209148637Y-58138913D01*
X209142584Y-57418149D01*
X209139991Y-57264200D01*
X209132298Y-56863674D01*
X209124402Y-56492645D01*
X209116641Y-56164156D01*
X209109351Y-55891248D01*
X209102871Y-55686964D01*
X209101873Y-55664000D01*
X209359600Y-55664000D01*
X209360293Y-56108500D01*
X209363808Y-56323658D01*
X209372569Y-56509824D01*
X209384922Y-56636024D01*
X209389703Y-56659976D01*
X209414914Y-56724782D01*
X209462500Y-56742081D01*
X209563021Y-56716771D01*
X209621207Y-56697087D01*
X209807950Y-56654398D01*
X209988573Y-56672217D01*
X210028725Y-56682349D01*
X210156562Y-56712902D01*
X210232679Y-56723691D01*
X210241027Y-56721438D01*
X210242712Y-56667216D01*
X210241260Y-56533558D01*
X210237021Y-56342569D01*
X210232526Y-56184700D01*
X210216452Y-55664000D01*
X209359600Y-55664000D01*
X209101873Y-55664000D01*
X209097538Y-55564347D01*
X209095302Y-55537000D01*
X209094217Y-55496209D01*
X209115566Y-55468101D01*
X209174893Y-55450320D01*
X209287737Y-55440513D01*
X209469640Y-55436326D01*
X209736144Y-55435403D01*
X209766000Y-55435400D01*
X210451800Y-55435400D01*
X210491434Y-56730800D01*
G36*
X212646909Y-55549700D02*
X212655177Y-55629783D01*
X212662845Y-55799874D01*
X212669713Y-56048380D01*
X212675580Y-56363709D01*
X212680246Y-56734269D01*
X212683510Y-57148467D01*
X212685172Y-57594712D01*
X212685342Y-57772200D01*
X212685258Y-58210710D01*
X212684274Y-58597595D01*
X212681553Y-58943927D01*
X212676259Y-59260778D01*
X212667553Y-59559218D01*
X212654599Y-59850321D01*
X212636559Y-60145158D01*
X212612598Y-60454801D01*
X212581877Y-60790321D01*
X212543559Y-61162791D01*
X212496809Y-61583283D01*
X212440787Y-62062867D01*
X212374658Y-62612617D01*
X212297584Y-63243604D01*
X212230226Y-63792000D01*
X212141339Y-64534450D01*
X212068281Y-65191065D01*
X212010093Y-65776211D01*
X211965813Y-66304255D01*
X211934478Y-66789565D01*
X211915129Y-67246507D01*
X211906803Y-67689448D01*
X211908538Y-68132755D01*
X211916170Y-68484935D01*
X211929224Y-68918391D01*
X211942590Y-69274007D01*
X211958553Y-69575522D01*
X211979400Y-69846678D01*
X212007416Y-70111214D01*
X212044888Y-70392870D01*
X212094103Y-70715387D01*
X212157345Y-71102505D01*
X212183105Y-71256985D01*
X212235215Y-71570513D01*
X212281075Y-71850036D01*
X212318189Y-72080050D01*
X212344062Y-72245046D01*
X212356201Y-72329520D01*
X212356800Y-72336485D01*
X212309091Y-72351377D01*
X212178312Y-72363826D01*
X211982984Y-72372730D01*
X211741628Y-72376989D01*
X211671967Y-72377200D01*
X211396714Y-72376549D01*
X211206499Y-72372819D01*
X211084759Y-72363342D01*
X211014932Y-72345450D01*
X210980458Y-72316476D01*
X210964775Y-72273752D01*
X210962344Y-72262900D01*
X210928622Y-72062657D01*
X210895455Y-71788098D01*
X211137600Y-71788098D01*
X211142477Y-71940529D01*
X211169476Y-72037949D01*
X211237146Y-72092651D01*
X211364037Y-72116923D01*
X211568698Y-72123058D01*
X211643344Y-72123200D01*
X212087419Y-72123200D01*
X212042567Y-71831100D01*
X212001714Y-71649195D01*
X211947194Y-71516930D01*
X211913548Y-71475500D01*
X211769823Y-71421510D01*
X211581138Y-71420703D01*
X211387540Y-71470619D01*
X211302700Y-71513043D01*
X211187471Y-71603091D01*
X211142364Y-71709098D01*
X211137600Y-71788098D01*
X210895455Y-71788098D01*
X210893785Y-71774281D01*
X210858615Y-71411223D01*
X210823898Y-70986933D01*
X210790418Y-70514859D01*
X210767357Y-70143637D01*
X211017395Y-70143637D01*
X211024311Y-70380411D01*
X211037782Y-70602321D01*
X211055477Y-70848691D01*
X211070269Y-71059944D01*
X211080669Y-71214453D01*
X211085191Y-71290590D01*
X211085244Y-71292223D01*
X211125618Y-71310811D01*
X211236829Y-71271494D01*
X211277300Y-71251398D01*
X211538564Y-71171503D01*
X211683700Y-71168340D01*
X211771911Y-71175729D01*
X211833965Y-71173559D01*
X211872034Y-71147712D01*
X211888294Y-71084067D01*
X211884917Y-70968506D01*
X211864078Y-70786909D01*
X211827951Y-70525156D01*
X211806425Y-70371265D01*
X211769413Y-70113720D01*
X211738981Y-69938306D01*
X211708943Y-69826358D01*
X211673115Y-69759214D01*
X211625311Y-69718209D01*
X211582507Y-69695589D01*
X211472907Y-69657587D01*
X211369042Y-69669911D01*
X211263250Y-69714245D01*
X211134168Y-69791158D01*
X211046332Y-69871456D01*
X211037582Y-69885043D01*
X211021817Y-69972652D01*
X211017395Y-70143637D01*
X210767357Y-70143637D01*
X210758958Y-70008452D01*
X210730302Y-69481161D01*
X210705236Y-68946437D01*
X210684544Y-68417729D01*
X210677481Y-68186200D01*
X210883947Y-68186200D01*
X210933746Y-68770400D01*
X210953797Y-69014566D01*
X210970144Y-69230607D01*
X210980939Y-69392973D01*
X210984373Y-69470204D01*
X210990502Y-69544402D01*
X211025774Y-69558140D01*
X211117798Y-69517189D01*
X211144181Y-69503596D01*
X211338932Y-69445367D01*
X211504930Y-69440625D01*
X211706698Y-69459866D01*
X211670543Y-68746833D01*
X211653937Y-68484219D01*
X211633323Y-68255752D01*
X211610998Y-68081785D01*
X211589257Y-67982670D01*
X211582973Y-67970300D01*
X211476092Y-67911282D01*
X211323488Y-67910825D01*
X211158934Y-67964215D01*
X211036975Y-68046500D01*
X210883947Y-68186200D01*
X210677481Y-68186200D01*
X210669008Y-67908486D01*
X210659415Y-67432160D01*
X210656524Y-67017800D01*
X210657931Y-66639825D01*
X210658479Y-66595031D01*
X210883600Y-66595031D01*
X210883600Y-67200115D01*
X210885734Y-67434512D01*
X210891549Y-67626628D01*
X210900157Y-67756757D01*
X210910674Y-67805194D01*
X210910787Y-67805200D01*
X210968385Y-67780193D01*
X211064182Y-67722505D01*
X211226997Y-67663552D01*
X211411133Y-67664691D01*
X211631877Y-67689572D01*
X211664138Y-67307921D01*
X211688546Y-66984372D01*
X211696076Y-66747031D01*
X211682404Y-66581287D01*
X211643206Y-66472526D01*
X211574156Y-66406137D01*
X211470931Y-66367507D01*
X211380622Y-66349899D01*
X211241423Y-66346888D01*
X211118973Y-66401968D01*
X211045889Y-66458473D01*
X210883600Y-66595031D01*
X210658479Y-66595031D01*
X210662048Y-66303753D01*
X210665417Y-66174902D01*
X210887032Y-66174902D01*
X210899748Y-66229495D01*
X210902796Y-66230400D01*
X210957221Y-66212650D01*
X211070236Y-66168236D01*
X211116253Y-66149232D01*
X211273052Y-66099071D01*
X211412537Y-66102865D01*
X211508403Y-66127353D01*
X211634397Y-66160782D01*
X211709752Y-66172558D01*
X211717671Y-66170420D01*
X211726596Y-66116615D01*
X211742750Y-65981417D01*
X211763921Y-65784595D01*
X211787899Y-65545917D01*
X211790493Y-65519200D01*
X211815298Y-65255866D01*
X211828759Y-65074793D01*
X211829643Y-64957147D01*
X211816718Y-64884093D01*
X211788753Y-64836797D01*
X211744516Y-64796425D01*
X211743139Y-64795300D01*
X211570806Y-64715076D01*
X211375053Y-64719722D01*
X211184497Y-64806846D01*
X211135517Y-64846100D01*
X211061557Y-64919292D01*
X211012173Y-64996348D01*
X210979184Y-65102388D01*
X210954412Y-65262529D01*
X210932892Y-65468400D01*
X210903432Y-65798691D01*
X210888203Y-66032746D01*
X210887032Y-66174902D01*
X210665417Y-66174902D01*
X210670119Y-65995123D01*
X210683386Y-65699478D01*
X210703092Y-65402358D01*
X210730481Y-65089306D01*
X210766794Y-64745862D01*
X210796844Y-64494824D01*
X211043743Y-64494824D01*
X211057928Y-64552449D01*
X211090243Y-64569006D01*
X211141977Y-64556463D01*
X211214419Y-64526794D01*
X211239684Y-64516617D01*
X211398185Y-64467945D01*
X211535778Y-64469925D01*
X211651029Y-64498824D01*
X211782204Y-64533134D01*
X211865166Y-64545451D01*
X211876853Y-64542879D01*
X211889913Y-64488394D01*
X211912342Y-64353528D01*
X211941402Y-64158774D01*
X211974352Y-63924627D01*
X212008456Y-63671582D01*
X212040973Y-63420133D01*
X212069166Y-63190775D01*
X212090296Y-63004001D01*
X212101624Y-62880306D01*
X212102800Y-62852076D01*
X212063723Y-62746584D01*
X211937344Y-62658304D01*
X211930022Y-62654788D01*
X211704151Y-62581766D01*
X211515878Y-62598725D01*
X211374363Y-62687100D01*
X211325948Y-62739913D01*
X211287275Y-62809050D01*
X211254189Y-62911124D01*
X211222537Y-63062749D01*
X211188163Y-63280541D01*
X211146912Y-63581113D01*
X211142535Y-63614200D01*
X211097085Y-63955816D01*
X211064610Y-64208478D01*
X211046400Y-64384157D01*
X211043743Y-64494824D01*
X210796844Y-64494824D01*
X210813275Y-64357569D01*
X210871167Y-63909966D01*
X210941712Y-63388597D01*
X211012418Y-62877600D01*
X211091520Y-62306700D01*
X211341865Y-62306700D01*
X211374923Y-62346389D01*
X211485260Y-62346829D01*
X211532824Y-62340094D01*
X211781173Y-62347750D01*
X211901124Y-62386150D01*
X212043482Y-62444689D01*
X212119101Y-62450993D01*
X212154836Y-62392352D01*
X212177545Y-62256058D01*
X212177651Y-62255300D01*
X212194974Y-62118925D01*
X212219289Y-61910637D01*
X212247269Y-61659593D01*
X212273605Y-61413897D01*
X212339281Y-60788394D01*
X212214190Y-60689997D01*
X212040015Y-60608985D01*
X211843966Y-60600856D01*
X211668438Y-60666112D01*
X211645257Y-60683262D01*
X211598531Y-60732102D01*
X211560976Y-60804545D01*
X211528315Y-60917593D01*
X211496269Y-61088244D01*
X211460558Y-61333498D01*
X211437494Y-61508762D01*
X211403757Y-61774249D01*
X211375183Y-62006096D01*
X211354144Y-62184521D01*
X211343010Y-62289739D01*
X211341865Y-62306700D01*
X211091520Y-62306700D01*
X211098904Y-62253409D01*
X211172022Y-61714910D01*
X211232886Y-61247233D01*
X211282608Y-60835507D01*
X211322303Y-60464861D01*
X211326808Y-60414452D01*
X211557973Y-60414452D01*
X211620486Y-60406473D01*
X211668508Y-60389347D01*
X211913398Y-60341887D01*
X212143747Y-60382997D01*
X212204400Y-60411733D01*
X212297100Y-60453984D01*
X212341356Y-60429273D01*
X212364840Y-60360129D01*
X212380280Y-60264170D01*
X212398248Y-60090540D01*
X212416611Y-59863060D01*
X212433237Y-59605551D01*
X212434687Y-59579709D01*
X212471094Y-58921426D01*
X212299647Y-58816903D01*
X212106538Y-58728937D01*
X211942755Y-58727676D01*
X211786400Y-58811820D01*
X211735242Y-58857378D01*
X211698702Y-58912267D01*
X211673020Y-58994734D01*
X211654440Y-59123026D01*
X211639201Y-59315392D01*
X211623547Y-59590078D01*
X211622661Y-59606761D01*
X211607273Y-59866680D01*
X211590854Y-60093037D01*
X211575140Y-60264943D01*
X211561868Y-60361509D01*
X211559113Y-60371487D01*
X211557973Y-60414452D01*
X211326808Y-60414452D01*
X211353085Y-60120426D01*
X211376067Y-59787330D01*
X211392363Y-59450704D01*
X211403086Y-59095676D01*
X211409350Y-58707376D01*
X211412269Y-58270934D01*
X211412922Y-57796385D01*
X211696400Y-57796385D01*
X211696400Y-58551410D01*
X211868072Y-58504009D01*
X212071397Y-58485812D01*
X212236372Y-58524567D01*
X212369914Y-58558731D01*
X212463111Y-58561016D01*
X212477608Y-58554315D01*
X212491902Y-58492493D01*
X212501211Y-58348111D01*
X212504999Y-58140110D01*
X212502732Y-57887435D01*
X212499751Y-57769375D01*
X212489530Y-57474271D01*
X212477925Y-57264249D01*
X212462555Y-57122796D01*
X212441035Y-57033398D01*
X212410984Y-56979543D01*
X212381933Y-56952923D01*
X212235105Y-56896487D01*
X212049023Y-56888475D01*
X211873307Y-56928075D01*
X211809303Y-56962280D01*
X211765656Y-56997794D01*
X211734991Y-57044284D01*
X211715025Y-57118629D01*
X211703472Y-57237709D01*
X211698048Y-57418402D01*
X211696467Y-57677586D01*
X211696400Y-57796385D01*
X211412922Y-57796385D01*
X211412957Y-57771479D01*
X211412841Y-57530900D01*
X211411411Y-55664000D01*
X211645600Y-55664000D01*
X211645600Y-56200823D01*
X211646274Y-56438791D01*
X211650857Y-56591801D01*
X211663189Y-56676497D01*
X211687111Y-56709521D01*
X211726464Y-56707515D01*
X211759900Y-56696123D01*
X211873921Y-56673472D01*
X212044275Y-56659804D01*
X212166300Y-56657780D01*
X212458400Y-56660960D01*
X212458400Y-56474732D01*
X212452908Y-56319116D01*
X212438773Y-56116250D01*
X212425763Y-55976251D01*
X212393126Y-55664000D01*
X211645600Y-55664000D01*
X211411411Y-55664000D01*
X211411216Y-55410000D01*
X212010040Y-55410000D01*
X212608864Y-55409999D01*
X212646909Y-55549700D01*
X212646909Y-55549700D01*
G37*
X212646909Y-55549700D02*
X212655177Y-55629783D01*
X212662845Y-55799874D01*
X212669713Y-56048380D01*
X212675580Y-56363709D01*
X212680246Y-56734269D01*
X212683510Y-57148467D01*
X212685172Y-57594712D01*
X212685342Y-57772200D01*
X212685258Y-58210710D01*
X212684274Y-58597595D01*
X212681553Y-58943927D01*
X212676259Y-59260778D01*
X212667553Y-59559218D01*
X212654599Y-59850321D01*
X212636559Y-60145158D01*
X212612598Y-60454801D01*
X212581877Y-60790321D01*
X212543559Y-61162791D01*
X212496809Y-61583283D01*
X212440787Y-62062867D01*
X212374658Y-62612617D01*
X212297584Y-63243604D01*
X212230226Y-63792000D01*
X212141339Y-64534450D01*
X212068281Y-65191065D01*
X212010093Y-65776211D01*
X211965813Y-66304255D01*
X211934478Y-66789565D01*
X211915129Y-67246507D01*
X211906803Y-67689448D01*
X211908538Y-68132755D01*
X211916170Y-68484935D01*
X211929224Y-68918391D01*
X211942590Y-69274007D01*
X211958553Y-69575522D01*
X211979400Y-69846678D01*
X212007416Y-70111214D01*
X212044888Y-70392870D01*
X212094103Y-70715387D01*
X212157345Y-71102505D01*
X212183105Y-71256985D01*
X212235215Y-71570513D01*
X212281075Y-71850036D01*
X212318189Y-72080050D01*
X212344062Y-72245046D01*
X212356201Y-72329520D01*
X212356800Y-72336485D01*
X212309091Y-72351377D01*
X212178312Y-72363826D01*
X211982984Y-72372730D01*
X211741628Y-72376989D01*
X211671967Y-72377200D01*
X211396714Y-72376549D01*
X211206499Y-72372819D01*
X211084759Y-72363342D01*
X211014932Y-72345450D01*
X210980458Y-72316476D01*
X210964775Y-72273752D01*
X210962344Y-72262900D01*
X210928622Y-72062657D01*
X210895455Y-71788098D01*
X211137600Y-71788098D01*
X211142477Y-71940529D01*
X211169476Y-72037949D01*
X211237146Y-72092651D01*
X211364037Y-72116923D01*
X211568698Y-72123058D01*
X211643344Y-72123200D01*
X212087419Y-72123200D01*
X212042567Y-71831100D01*
X212001714Y-71649195D01*
X211947194Y-71516930D01*
X211913548Y-71475500D01*
X211769823Y-71421510D01*
X211581138Y-71420703D01*
X211387540Y-71470619D01*
X211302700Y-71513043D01*
X211187471Y-71603091D01*
X211142364Y-71709098D01*
X211137600Y-71788098D01*
X210895455Y-71788098D01*
X210893785Y-71774281D01*
X210858615Y-71411223D01*
X210823898Y-70986933D01*
X210790418Y-70514859D01*
X210767357Y-70143637D01*
X211017395Y-70143637D01*
X211024311Y-70380411D01*
X211037782Y-70602321D01*
X211055477Y-70848691D01*
X211070269Y-71059944D01*
X211080669Y-71214453D01*
X211085191Y-71290590D01*
X211085244Y-71292223D01*
X211125618Y-71310811D01*
X211236829Y-71271494D01*
X211277300Y-71251398D01*
X211538564Y-71171503D01*
X211683700Y-71168340D01*
X211771911Y-71175729D01*
X211833965Y-71173559D01*
X211872034Y-71147712D01*
X211888294Y-71084067D01*
X211884917Y-70968506D01*
X211864078Y-70786909D01*
X211827951Y-70525156D01*
X211806425Y-70371265D01*
X211769413Y-70113720D01*
X211738981Y-69938306D01*
X211708943Y-69826358D01*
X211673115Y-69759214D01*
X211625311Y-69718209D01*
X211582507Y-69695589D01*
X211472907Y-69657587D01*
X211369042Y-69669911D01*
X211263250Y-69714245D01*
X211134168Y-69791158D01*
X211046332Y-69871456D01*
X211037582Y-69885043D01*
X211021817Y-69972652D01*
X211017395Y-70143637D01*
X210767357Y-70143637D01*
X210758958Y-70008452D01*
X210730302Y-69481161D01*
X210705236Y-68946437D01*
X210684544Y-68417729D01*
X210677481Y-68186200D01*
X210883947Y-68186200D01*
X210933746Y-68770400D01*
X210953797Y-69014566D01*
X210970144Y-69230607D01*
X210980939Y-69392973D01*
X210984373Y-69470204D01*
X210990502Y-69544402D01*
X211025774Y-69558140D01*
X211117798Y-69517189D01*
X211144181Y-69503596D01*
X211338932Y-69445367D01*
X211504930Y-69440625D01*
X211706698Y-69459866D01*
X211670543Y-68746833D01*
X211653937Y-68484219D01*
X211633323Y-68255752D01*
X211610998Y-68081785D01*
X211589257Y-67982670D01*
X211582973Y-67970300D01*
X211476092Y-67911282D01*
X211323488Y-67910825D01*
X211158934Y-67964215D01*
X211036975Y-68046500D01*
X210883947Y-68186200D01*
X210677481Y-68186200D01*
X210669008Y-67908486D01*
X210659415Y-67432160D01*
X210656524Y-67017800D01*
X210657931Y-66639825D01*
X210658479Y-66595031D01*
X210883600Y-66595031D01*
X210883600Y-67200115D01*
X210885734Y-67434512D01*
X210891549Y-67626628D01*
X210900157Y-67756757D01*
X210910674Y-67805194D01*
X210910787Y-67805200D01*
X210968385Y-67780193D01*
X211064182Y-67722505D01*
X211226997Y-67663552D01*
X211411133Y-67664691D01*
X211631877Y-67689572D01*
X211664138Y-67307921D01*
X211688546Y-66984372D01*
X211696076Y-66747031D01*
X211682404Y-66581287D01*
X211643206Y-66472526D01*
X211574156Y-66406137D01*
X211470931Y-66367507D01*
X211380622Y-66349899D01*
X211241423Y-66346888D01*
X211118973Y-66401968D01*
X211045889Y-66458473D01*
X210883600Y-66595031D01*
X210658479Y-66595031D01*
X210662048Y-66303753D01*
X210665417Y-66174902D01*
X210887032Y-66174902D01*
X210899748Y-66229495D01*
X210902796Y-66230400D01*
X210957221Y-66212650D01*
X211070236Y-66168236D01*
X211116253Y-66149232D01*
X211273052Y-66099071D01*
X211412537Y-66102865D01*
X211508403Y-66127353D01*
X211634397Y-66160782D01*
X211709752Y-66172558D01*
X211717671Y-66170420D01*
X211726596Y-66116615D01*
X211742750Y-65981417D01*
X211763921Y-65784595D01*
X211787899Y-65545917D01*
X211790493Y-65519200D01*
X211815298Y-65255866D01*
X211828759Y-65074793D01*
X211829643Y-64957147D01*
X211816718Y-64884093D01*
X211788753Y-64836797D01*
X211744516Y-64796425D01*
X211743139Y-64795300D01*
X211570806Y-64715076D01*
X211375053Y-64719722D01*
X211184497Y-64806846D01*
X211135517Y-64846100D01*
X211061557Y-64919292D01*
X211012173Y-64996348D01*
X210979184Y-65102388D01*
X210954412Y-65262529D01*
X210932892Y-65468400D01*
X210903432Y-65798691D01*
X210888203Y-66032746D01*
X210887032Y-66174902D01*
X210665417Y-66174902D01*
X210670119Y-65995123D01*
X210683386Y-65699478D01*
X210703092Y-65402358D01*
X210730481Y-65089306D01*
X210766794Y-64745862D01*
X210796844Y-64494824D01*
X211043743Y-64494824D01*
X211057928Y-64552449D01*
X211090243Y-64569006D01*
X211141977Y-64556463D01*
X211214419Y-64526794D01*
X211239684Y-64516617D01*
X211398185Y-64467945D01*
X211535778Y-64469925D01*
X211651029Y-64498824D01*
X211782204Y-64533134D01*
X211865166Y-64545451D01*
X211876853Y-64542879D01*
X211889913Y-64488394D01*
X211912342Y-64353528D01*
X211941402Y-64158774D01*
X211974352Y-63924627D01*
X212008456Y-63671582D01*
X212040973Y-63420133D01*
X212069166Y-63190775D01*
X212090296Y-63004001D01*
X212101624Y-62880306D01*
X212102800Y-62852076D01*
X212063723Y-62746584D01*
X211937344Y-62658304D01*
X211930022Y-62654788D01*
X211704151Y-62581766D01*
X211515878Y-62598725D01*
X211374363Y-62687100D01*
X211325948Y-62739913D01*
X211287275Y-62809050D01*
X211254189Y-62911124D01*
X211222537Y-63062749D01*
X211188163Y-63280541D01*
X211146912Y-63581113D01*
X211142535Y-63614200D01*
X211097085Y-63955816D01*
X211064610Y-64208478D01*
X211046400Y-64384157D01*
X211043743Y-64494824D01*
X210796844Y-64494824D01*
X210813275Y-64357569D01*
X210871167Y-63909966D01*
X210941712Y-63388597D01*
X211012418Y-62877600D01*
X211091520Y-62306700D01*
X211341865Y-62306700D01*
X211374923Y-62346389D01*
X211485260Y-62346829D01*
X211532824Y-62340094D01*
X211781173Y-62347750D01*
X211901124Y-62386150D01*
X212043482Y-62444689D01*
X212119101Y-62450993D01*
X212154836Y-62392352D01*
X212177545Y-62256058D01*
X212177651Y-62255300D01*
X212194974Y-62118925D01*
X212219289Y-61910637D01*
X212247269Y-61659593D01*
X212273605Y-61413897D01*
X212339281Y-60788394D01*
X212214190Y-60689997D01*
X212040015Y-60608985D01*
X211843966Y-60600856D01*
X211668438Y-60666112D01*
X211645257Y-60683262D01*
X211598531Y-60732102D01*
X211560976Y-60804545D01*
X211528315Y-60917593D01*
X211496269Y-61088244D01*
X211460558Y-61333498D01*
X211437494Y-61508762D01*
X211403757Y-61774249D01*
X211375183Y-62006096D01*
X211354144Y-62184521D01*
X211343010Y-62289739D01*
X211341865Y-62306700D01*
X211091520Y-62306700D01*
X211098904Y-62253409D01*
X211172022Y-61714910D01*
X211232886Y-61247233D01*
X211282608Y-60835507D01*
X211322303Y-60464861D01*
X211326808Y-60414452D01*
X211557973Y-60414452D01*
X211620486Y-60406473D01*
X211668508Y-60389347D01*
X211913398Y-60341887D01*
X212143747Y-60382997D01*
X212204400Y-60411733D01*
X212297100Y-60453984D01*
X212341356Y-60429273D01*
X212364840Y-60360129D01*
X212380280Y-60264170D01*
X212398248Y-60090540D01*
X212416611Y-59863060D01*
X212433237Y-59605551D01*
X212434687Y-59579709D01*
X212471094Y-58921426D01*
X212299647Y-58816903D01*
X212106538Y-58728937D01*
X211942755Y-58727676D01*
X211786400Y-58811820D01*
X211735242Y-58857378D01*
X211698702Y-58912267D01*
X211673020Y-58994734D01*
X211654440Y-59123026D01*
X211639201Y-59315392D01*
X211623547Y-59590078D01*
X211622661Y-59606761D01*
X211607273Y-59866680D01*
X211590854Y-60093037D01*
X211575140Y-60264943D01*
X211561868Y-60361509D01*
X211559113Y-60371487D01*
X211557973Y-60414452D01*
X211326808Y-60414452D01*
X211353085Y-60120426D01*
X211376067Y-59787330D01*
X211392363Y-59450704D01*
X211403086Y-59095676D01*
X211409350Y-58707376D01*
X211412269Y-58270934D01*
X211412922Y-57796385D01*
X211696400Y-57796385D01*
X211696400Y-58551410D01*
X211868072Y-58504009D01*
X212071397Y-58485812D01*
X212236372Y-58524567D01*
X212369914Y-58558731D01*
X212463111Y-58561016D01*
X212477608Y-58554315D01*
X212491902Y-58492493D01*
X212501211Y-58348111D01*
X212504999Y-58140110D01*
X212502732Y-57887435D01*
X212499751Y-57769375D01*
X212489530Y-57474271D01*
X212477925Y-57264249D01*
X212462555Y-57122796D01*
X212441035Y-57033398D01*
X212410984Y-56979543D01*
X212381933Y-56952923D01*
X212235105Y-56896487D01*
X212049023Y-56888475D01*
X211873307Y-56928075D01*
X211809303Y-56962280D01*
X211765656Y-56997794D01*
X211734991Y-57044284D01*
X211715025Y-57118629D01*
X211703472Y-57237709D01*
X211698048Y-57418402D01*
X211696467Y-57677586D01*
X211696400Y-57796385D01*
X211412922Y-57796385D01*
X211412957Y-57771479D01*
X211412841Y-57530900D01*
X211411411Y-55664000D01*
X211645600Y-55664000D01*
X211645600Y-56200823D01*
X211646274Y-56438791D01*
X211650857Y-56591801D01*
X211663189Y-56676497D01*
X211687111Y-56709521D01*
X211726464Y-56707515D01*
X211759900Y-56696123D01*
X211873921Y-56673472D01*
X212044275Y-56659804D01*
X212166300Y-56657780D01*
X212458400Y-56660960D01*
X212458400Y-56474732D01*
X212452908Y-56319116D01*
X212438773Y-56116250D01*
X212425763Y-55976251D01*
X212393126Y-55664000D01*
X211645600Y-55664000D01*
X211411411Y-55664000D01*
X211411216Y-55410000D01*
X212010040Y-55410000D01*
X212608864Y-55409999D01*
X212646909Y-55549700D01*
G36*
X191452294Y-68224904D02*
X191657324Y-68261457D01*
X191916605Y-68316215D01*
X192210135Y-68384135D01*
X192517911Y-68460174D01*
X192819931Y-68539290D01*
X193096192Y-68616439D01*
X193326691Y-68686580D01*
X193491426Y-68744668D01*
X193556076Y-68774954D01*
X193724230Y-68919366D01*
X193851160Y-69107726D01*
X193913469Y-69302877D01*
X193916210Y-69346922D01*
X193875227Y-69562633D01*
X193767339Y-69770514D01*
X193615945Y-69927658D01*
X193590265Y-69944607D01*
X193463976Y-70000733D01*
X193305589Y-70029072D01*
X193102973Y-70028638D01*
X192843997Y-69998442D01*
X192516528Y-69937498D01*
X192108437Y-69844819D01*
X191980362Y-69813612D01*
X191603059Y-69718516D01*
X191311637Y-69638838D01*
X191092587Y-69568933D01*
X190932398Y-69503155D01*
X190817559Y-69435859D01*
X190734558Y-69361401D01*
X190669887Y-69274134D01*
X190663143Y-69263233D01*
X190569944Y-69026625D01*
X190568137Y-68868797D01*
X190783739Y-68868797D01*
X190789460Y-68947398D01*
X190820317Y-69059316D01*
X190871638Y-69151841D01*
X190955669Y-69231218D01*
X191084655Y-69303694D01*
X191270842Y-69375515D01*
X191526477Y-69452925D01*
X191863804Y-69542172D01*
X192044873Y-69587698D01*
X192446221Y-69684798D01*
X192762884Y-69753432D01*
X193007530Y-69794207D01*
X193192827Y-69807730D01*
X193331442Y-69794608D01*
X193436042Y-69755447D01*
X193519295Y-69690855D01*
X193548020Y-69659708D01*
X193645621Y-69479512D01*
X193653141Y-69290232D01*
X193577359Y-69113463D01*
X193425051Y-68970801D01*
X193314621Y-68916021D01*
X193223135Y-68887553D01*
X193051468Y-68839882D01*
X192818132Y-68777931D01*
X192541641Y-68706620D01*
X192265400Y-68637063D01*
X191933587Y-68555732D01*
X191683874Y-68498341D01*
X191500259Y-68462379D01*
X191366745Y-68445336D01*
X191267333Y-68444703D01*
X191186024Y-68457969D01*
X191163225Y-68464152D01*
X190969025Y-68558737D01*
X190837197Y-68700513D01*
X190783739Y-68868797D01*
X190568137Y-68868797D01*
X190567268Y-68792975D01*
X190644914Y-68578576D01*
X190792683Y-68399719D01*
X191000376Y-68272696D01*
X191257794Y-68213798D01*
X191321519Y-68211600D01*
X191452294Y-68224904D01*
X191452294Y-68224904D01*
G37*
X191452294Y-68224904D02*
X191657324Y-68261457D01*
X191916605Y-68316215D01*
X192210135Y-68384135D01*
X192517911Y-68460174D01*
X192819931Y-68539290D01*
X193096192Y-68616439D01*
X193326691Y-68686580D01*
X193491426Y-68744668D01*
X193556076Y-68774954D01*
X193724230Y-68919366D01*
X193851160Y-69107726D01*
X193913469Y-69302877D01*
X193916210Y-69346922D01*
X193875227Y-69562633D01*
X193767339Y-69770514D01*
X193615945Y-69927658D01*
X193590265Y-69944607D01*
X193463976Y-70000733D01*
X193305589Y-70029072D01*
X193102973Y-70028638D01*
X192843997Y-69998442D01*
X192516528Y-69937498D01*
X192108437Y-69844819D01*
X191980362Y-69813612D01*
X191603059Y-69718516D01*
X191311637Y-69638838D01*
X191092587Y-69568933D01*
X190932398Y-69503155D01*
X190817559Y-69435859D01*
X190734558Y-69361401D01*
X190669887Y-69274134D01*
X190663143Y-69263233D01*
X190569944Y-69026625D01*
X190568137Y-68868797D01*
X190783739Y-68868797D01*
X190789460Y-68947398D01*
X190820317Y-69059316D01*
X190871638Y-69151841D01*
X190955669Y-69231218D01*
X191084655Y-69303694D01*
X191270842Y-69375515D01*
X191526477Y-69452925D01*
X191863804Y-69542172D01*
X192044873Y-69587698D01*
X192446221Y-69684798D01*
X192762884Y-69753432D01*
X193007530Y-69794207D01*
X193192827Y-69807730D01*
X193331442Y-69794608D01*
X193436042Y-69755447D01*
X193519295Y-69690855D01*
X193548020Y-69659708D01*
X193645621Y-69479512D01*
X193653141Y-69290232D01*
X193577359Y-69113463D01*
X193425051Y-68970801D01*
X193314621Y-68916021D01*
X193223135Y-68887553D01*
X193051468Y-68839882D01*
X192818132Y-68777931D01*
X192541641Y-68706620D01*
X192265400Y-68637063D01*
X191933587Y-68555732D01*
X191683874Y-68498341D01*
X191500259Y-68462379D01*
X191366745Y-68445336D01*
X191267333Y-68444703D01*
X191186024Y-68457969D01*
X191163225Y-68464152D01*
X190969025Y-68558737D01*
X190837197Y-68700513D01*
X190783739Y-68868797D01*
X190568137Y-68868797D01*
X190567268Y-68792975D01*
X190644914Y-68578576D01*
X190792683Y-68399719D01*
X191000376Y-68272696D01*
X191257794Y-68213798D01*
X191321519Y-68211600D01*
X191452294Y-68224904D01*
G36*
X197029882Y-68079675D02*
X197163639Y-68110554D01*
X197275186Y-68171759D01*
X197374707Y-68258492D01*
X197506666Y-68456719D01*
X197561045Y-68689947D01*
X197539707Y-68930102D01*
X197444516Y-69149114D01*
X197305660Y-69298650D01*
X197208215Y-69348855D01*
X197030790Y-69417784D01*
X196792081Y-69499964D01*
X196510787Y-69589926D01*
X196205603Y-69682198D01*
X195895228Y-69771310D01*
X195598358Y-69851792D01*
X195333691Y-69918171D01*
X195119923Y-69964977D01*
X194975752Y-69986740D01*
X194951059Y-69987611D01*
X194797064Y-69964969D01*
X194648691Y-69917392D01*
X194435609Y-69776866D01*
X194299820Y-69586390D01*
X194244004Y-69364975D01*
X194246284Y-69345150D01*
X194475200Y-69345150D01*
X194510105Y-69462380D01*
X194595503Y-69587414D01*
X194609127Y-69601672D01*
X194688945Y-69667366D01*
X194782547Y-69709351D01*
X194902607Y-69726433D01*
X195061795Y-69717418D01*
X195272786Y-69681112D01*
X195548251Y-69616320D01*
X195900863Y-69521849D01*
X196125258Y-69458798D01*
X196472321Y-69358531D01*
X196734440Y-69278025D01*
X196925175Y-69212160D01*
X197058088Y-69155813D01*
X197146739Y-69103864D01*
X197204689Y-69051191D01*
X197204758Y-69051110D01*
X197304051Y-68871435D01*
X197318134Y-68685400D01*
X197257067Y-68515891D01*
X197130910Y-68385796D01*
X196949724Y-68318000D01*
X196880379Y-68313200D01*
X196768243Y-68326614D01*
X196579064Y-68363362D01*
X196333296Y-68418205D01*
X196051395Y-68485901D01*
X195753816Y-68561212D01*
X195461014Y-68638895D01*
X195193445Y-68713711D01*
X194971564Y-68780420D01*
X194815826Y-68833781D01*
X194768159Y-68854318D01*
X194621727Y-68977061D01*
X194515333Y-69156501D01*
X194475200Y-69345150D01*
X194246284Y-69345150D01*
X194270845Y-69131635D01*
X194383023Y-68905381D01*
X194488856Y-68784310D01*
X194562293Y-68719756D01*
X194644027Y-68663579D01*
X194747317Y-68611095D01*
X194885419Y-68557621D01*
X195071591Y-68498473D01*
X195319090Y-68428967D01*
X195641174Y-68344419D01*
X195973800Y-68259678D01*
X196345874Y-68169124D01*
X196635947Y-68108947D01*
X196858968Y-68079135D01*
X197029882Y-68079675D01*
X197029882Y-68079675D01*
G37*
X197029882Y-68079675D02*
X197163639Y-68110554D01*
X197275186Y-68171759D01*
X197374707Y-68258492D01*
X197506666Y-68456719D01*
X197561045Y-68689947D01*
X197539707Y-68930102D01*
X197444516Y-69149114D01*
X197305660Y-69298650D01*
X197208215Y-69348855D01*
X197030790Y-69417784D01*
X196792081Y-69499964D01*
X196510787Y-69589926D01*
X196205603Y-69682198D01*
X195895228Y-69771310D01*
X195598358Y-69851792D01*
X195333691Y-69918171D01*
X195119923Y-69964977D01*
X194975752Y-69986740D01*
X194951059Y-69987611D01*
X194797064Y-69964969D01*
X194648691Y-69917392D01*
X194435609Y-69776866D01*
X194299820Y-69586390D01*
X194244004Y-69364975D01*
X194246284Y-69345150D01*
X194475200Y-69345150D01*
X194510105Y-69462380D01*
X194595503Y-69587414D01*
X194609127Y-69601672D01*
X194688945Y-69667366D01*
X194782547Y-69709351D01*
X194902607Y-69726433D01*
X195061795Y-69717418D01*
X195272786Y-69681112D01*
X195548251Y-69616320D01*
X195900863Y-69521849D01*
X196125258Y-69458798D01*
X196472321Y-69358531D01*
X196734440Y-69278025D01*
X196925175Y-69212160D01*
X197058088Y-69155813D01*
X197146739Y-69103864D01*
X197204689Y-69051191D01*
X197204758Y-69051110D01*
X197304051Y-68871435D01*
X197318134Y-68685400D01*
X197257067Y-68515891D01*
X197130910Y-68385796D01*
X196949724Y-68318000D01*
X196880379Y-68313200D01*
X196768243Y-68326614D01*
X196579064Y-68363362D01*
X196333296Y-68418205D01*
X196051395Y-68485901D01*
X195753816Y-68561212D01*
X195461014Y-68638895D01*
X195193445Y-68713711D01*
X194971564Y-68780420D01*
X194815826Y-68833781D01*
X194768159Y-68854318D01*
X194621727Y-68977061D01*
X194515333Y-69156501D01*
X194475200Y-69345150D01*
X194246284Y-69345150D01*
X194270845Y-69131635D01*
X194383023Y-68905381D01*
X194488856Y-68784310D01*
X194562293Y-68719756D01*
X194644027Y-68663579D01*
X194747317Y-68611095D01*
X194885419Y-68557621D01*
X195071591Y-68498473D01*
X195319090Y-68428967D01*
X195641174Y-68344419D01*
X195973800Y-68259678D01*
X196345874Y-68169124D01*
X196635947Y-68108947D01*
X196858968Y-68079135D01*
X197029882Y-68079675D01*
G36*
X188213947Y-66146387D02*
X188370880Y-66190136D01*
X188553773Y-66280261D01*
X188776299Y-66422959D01*
X189052130Y-66624431D01*
X189243064Y-66771545D01*
X189584177Y-67039944D01*
X189852208Y-67257877D01*
X190055818Y-67435216D01*
X190203664Y-67581836D01*
X190304407Y-67707612D01*
X190366705Y-67822416D01*
X190399217Y-67936123D01*
X190410602Y-68058608D01*
X190411200Y-68103579D01*
X190363662Y-68319717D01*
X190233721Y-68516294D01*
X190040380Y-68667529D01*
X189970703Y-68701107D01*
X189803368Y-68756632D01*
X189659571Y-68759805D01*
X189497734Y-68707399D01*
X189390650Y-68656100D01*
X189279981Y-68588885D01*
X189106789Y-68470316D01*
X188887877Y-68312515D01*
X188640054Y-68127605D01*
X188380125Y-67927706D01*
X188372435Y-67921697D01*
X188089369Y-67698236D01*
X187876657Y-67524126D01*
X187722842Y-67388477D01*
X187616463Y-67280401D01*
X187546062Y-67189007D01*
X187500178Y-67103407D01*
X187492877Y-67085878D01*
X187453426Y-66899541D01*
X187669165Y-66899541D01*
X187719898Y-67045252D01*
X187764711Y-67104265D01*
X187853722Y-67191637D01*
X187993795Y-67313012D01*
X188191796Y-67474037D01*
X188454589Y-67680358D01*
X188789038Y-67937621D01*
X189002889Y-68100500D01*
X189272362Y-68297544D01*
X189482404Y-68430102D01*
X189647633Y-68503252D01*
X189782665Y-68522073D01*
X189902120Y-68491643D01*
X189986495Y-68442223D01*
X190083751Y-68340397D01*
X190153633Y-68220211D01*
X190186575Y-68104434D01*
X190180077Y-67991723D01*
X190126306Y-67871500D01*
X190017428Y-67733186D01*
X189845609Y-67566204D01*
X189603017Y-67359976D01*
X189390063Y-67189103D01*
X189074691Y-66940748D01*
X188826805Y-66749074D01*
X188634931Y-66606821D01*
X188487597Y-66506730D01*
X188373331Y-66441542D01*
X188280660Y-66403997D01*
X188198111Y-66386836D01*
X188115801Y-66382800D01*
X187914733Y-66426321D01*
X187764326Y-66541920D01*
X187677997Y-66707143D01*
X187669165Y-66899541D01*
X187453426Y-66899541D01*
X187438777Y-66830356D01*
X187475837Y-66589680D01*
X187595082Y-66382881D01*
X187787539Y-66228990D01*
X187923260Y-66173220D01*
X188069298Y-66142815D01*
X188213947Y-66146387D01*
X188213947Y-66146387D01*
G37*
X188213947Y-66146387D02*
X188370880Y-66190136D01*
X188553773Y-66280261D01*
X188776299Y-66422959D01*
X189052130Y-66624431D01*
X189243064Y-66771545D01*
X189584177Y-67039944D01*
X189852208Y-67257877D01*
X190055818Y-67435216D01*
X190203664Y-67581836D01*
X190304407Y-67707612D01*
X190366705Y-67822416D01*
X190399217Y-67936123D01*
X190410602Y-68058608D01*
X190411200Y-68103579D01*
X190363662Y-68319717D01*
X190233721Y-68516294D01*
X190040380Y-68667529D01*
X189970703Y-68701107D01*
X189803368Y-68756632D01*
X189659571Y-68759805D01*
X189497734Y-68707399D01*
X189390650Y-68656100D01*
X189279981Y-68588885D01*
X189106789Y-68470316D01*
X188887877Y-68312515D01*
X188640054Y-68127605D01*
X188380125Y-67927706D01*
X188372435Y-67921697D01*
X188089369Y-67698236D01*
X187876657Y-67524126D01*
X187722842Y-67388477D01*
X187616463Y-67280401D01*
X187546062Y-67189007D01*
X187500178Y-67103407D01*
X187492877Y-67085878D01*
X187453426Y-66899541D01*
X187669165Y-66899541D01*
X187719898Y-67045252D01*
X187764711Y-67104265D01*
X187853722Y-67191637D01*
X187993795Y-67313012D01*
X188191796Y-67474037D01*
X188454589Y-67680358D01*
X188789038Y-67937621D01*
X189002889Y-68100500D01*
X189272362Y-68297544D01*
X189482404Y-68430102D01*
X189647633Y-68503252D01*
X189782665Y-68522073D01*
X189902120Y-68491643D01*
X189986495Y-68442223D01*
X190083751Y-68340397D01*
X190153633Y-68220211D01*
X190186575Y-68104434D01*
X190180077Y-67991723D01*
X190126306Y-67871500D01*
X190017428Y-67733186D01*
X189845609Y-67566204D01*
X189603017Y-67359976D01*
X189390063Y-67189103D01*
X189074691Y-66940748D01*
X188826805Y-66749074D01*
X188634931Y-66606821D01*
X188487597Y-66506730D01*
X188373331Y-66441542D01*
X188280660Y-66403997D01*
X188198111Y-66386836D01*
X188115801Y-66382800D01*
X187914733Y-66426321D01*
X187764326Y-66541920D01*
X187677997Y-66707143D01*
X187669165Y-66899541D01*
X187453426Y-66899541D01*
X187438777Y-66830356D01*
X187475837Y-66589680D01*
X187595082Y-66382881D01*
X187787539Y-66228990D01*
X187923260Y-66173220D01*
X188069298Y-66142815D01*
X188213947Y-66146387D01*
G36*
X200271612Y-66104544D02*
X200491407Y-66200793D01*
X200671057Y-66369673D01*
X200789163Y-66584738D01*
X200825200Y-66788701D01*
X200815060Y-66921093D01*
X200778383Y-67043894D01*
X200705777Y-67167388D01*
X200587852Y-67301858D01*
X200415220Y-67457589D01*
X200178489Y-67644863D01*
X199868270Y-67873965D01*
X199768725Y-67945742D01*
X199502016Y-68135208D01*
X199255410Y-68306366D01*
X199043536Y-68449380D01*
X198881023Y-68554416D01*
X198782499Y-68611637D01*
X198770283Y-68617055D01*
X198513490Y-68666038D01*
X198263231Y-68624511D01*
X198148260Y-68569435D01*
X197960473Y-68420406D01*
X197859585Y-68244029D01*
X197833537Y-68016037D01*
X197836599Y-67962206D01*
X198039604Y-67962206D01*
X198050187Y-68076664D01*
X198052840Y-68087708D01*
X198143172Y-68261867D01*
X198296689Y-68375712D01*
X198488658Y-68419848D01*
X198694343Y-68384878D01*
X198758439Y-68355755D01*
X198863471Y-68291464D01*
X199025842Y-68182006D01*
X199229805Y-68038981D01*
X199459611Y-67873989D01*
X199699511Y-67698631D01*
X199933757Y-67524507D01*
X200146601Y-67363217D01*
X200322295Y-67226362D01*
X200445089Y-67125541D01*
X200497861Y-67074499D01*
X200566599Y-66896230D01*
X200562249Y-66693957D01*
X200488708Y-66509974D01*
X200440338Y-66450520D01*
X200351631Y-66376944D01*
X200256861Y-66337743D01*
X200144968Y-66337123D01*
X200004895Y-66379291D01*
X199825583Y-66468452D01*
X199595974Y-66608813D01*
X199305011Y-66804581D01*
X199061465Y-66975032D01*
X198721527Y-67219913D01*
X198460219Y-67420764D01*
X198269456Y-67586501D01*
X198141154Y-67726042D01*
X198067232Y-67848305D01*
X198039604Y-67962206D01*
X197836599Y-67962206D01*
X197837619Y-67944292D01*
X197867960Y-67761127D01*
X197919862Y-67598460D01*
X197949384Y-67541427D01*
X198023946Y-67463240D01*
X198168030Y-67341407D01*
X198365686Y-67187210D01*
X198600966Y-67011935D01*
X198857920Y-66826864D01*
X199120600Y-66643281D01*
X199373055Y-66472469D01*
X199599338Y-66325712D01*
X199783498Y-66214293D01*
X199909587Y-66149497D01*
X199925333Y-66143501D01*
X200090885Y-66105587D01*
X200243974Y-66100200D01*
X200271612Y-66104544D01*
X200271612Y-66104544D01*
G37*
X200271612Y-66104544D02*
X200491407Y-66200793D01*
X200671057Y-66369673D01*
X200789163Y-66584738D01*
X200825200Y-66788701D01*
X200815060Y-66921093D01*
X200778383Y-67043894D01*
X200705777Y-67167388D01*
X200587852Y-67301858D01*
X200415220Y-67457589D01*
X200178489Y-67644863D01*
X199868270Y-67873965D01*
X199768725Y-67945742D01*
X199502016Y-68135208D01*
X199255410Y-68306366D01*
X199043536Y-68449380D01*
X198881023Y-68554416D01*
X198782499Y-68611637D01*
X198770283Y-68617055D01*
X198513490Y-68666038D01*
X198263231Y-68624511D01*
X198148260Y-68569435D01*
X197960473Y-68420406D01*
X197859585Y-68244029D01*
X197833537Y-68016037D01*
X197836599Y-67962206D01*
X198039604Y-67962206D01*
X198050187Y-68076664D01*
X198052840Y-68087708D01*
X198143172Y-68261867D01*
X198296689Y-68375712D01*
X198488658Y-68419848D01*
X198694343Y-68384878D01*
X198758439Y-68355755D01*
X198863471Y-68291464D01*
X199025842Y-68182006D01*
X199229805Y-68038981D01*
X199459611Y-67873989D01*
X199699511Y-67698631D01*
X199933757Y-67524507D01*
X200146601Y-67363217D01*
X200322295Y-67226362D01*
X200445089Y-67125541D01*
X200497861Y-67074499D01*
X200566599Y-66896230D01*
X200562249Y-66693957D01*
X200488708Y-66509974D01*
X200440338Y-66450520D01*
X200351631Y-66376944D01*
X200256861Y-66337743D01*
X200144968Y-66337123D01*
X200004895Y-66379291D01*
X199825583Y-66468452D01*
X199595974Y-66608813D01*
X199305011Y-66804581D01*
X199061465Y-66975032D01*
X198721527Y-67219913D01*
X198460219Y-67420764D01*
X198269456Y-67586501D01*
X198141154Y-67726042D01*
X198067232Y-67848305D01*
X198039604Y-67962206D01*
X197836599Y-67962206D01*
X197837619Y-67944292D01*
X197867960Y-67761127D01*
X197919862Y-67598460D01*
X197949384Y-67541427D01*
X198023946Y-67463240D01*
X198168030Y-67341407D01*
X198365686Y-67187210D01*
X198600966Y-67011935D01*
X198857920Y-66826864D01*
X199120600Y-66643281D01*
X199373055Y-66472469D01*
X199599338Y-66325712D01*
X199783498Y-66214293D01*
X199909587Y-66149497D01*
X199925333Y-66143501D01*
X200090885Y-66105587D01*
X200243974Y-66100200D01*
X200271612Y-66104544D01*
G36*
X185593649Y-63539675D02*
X185680175Y-63570608D01*
X185775349Y-63623867D01*
X185890559Y-63708911D01*
X186037194Y-63835196D01*
X186226639Y-64012181D01*
X186470284Y-64249322D01*
X186587040Y-64364699D01*
X186821896Y-64601445D01*
X187035540Y-64824316D01*
X187215864Y-65020079D01*
X187350762Y-65175500D01*
X187428124Y-65277347D01*
X187437940Y-65294698D01*
X187509040Y-65549710D01*
X187485127Y-65799866D01*
X187399775Y-65980847D01*
X187219157Y-66169448D01*
X186999369Y-66268870D01*
X186753411Y-66277115D01*
X186494285Y-66192186D01*
X186395245Y-66135181D01*
X186287810Y-66052438D01*
X186125853Y-65910801D01*
X185925070Y-65724803D01*
X185701161Y-65508977D01*
X185476139Y-65284281D01*
X185216997Y-65017289D01*
X185023149Y-64808492D01*
X184885508Y-64646882D01*
X184794985Y-64521448D01*
X184742490Y-64421179D01*
X184727869Y-64377801D01*
X184713965Y-64235195D01*
X184924800Y-64235195D01*
X184940614Y-64297730D01*
X184993089Y-64385931D01*
X185089769Y-64508736D01*
X185238201Y-64675083D01*
X185445931Y-64893912D01*
X185699500Y-65152915D01*
X185936402Y-65388864D01*
X186158539Y-65602993D01*
X186353027Y-65783436D01*
X186506981Y-65918330D01*
X186607516Y-65995808D01*
X186626600Y-66006675D01*
X186834540Y-66051297D01*
X187032910Y-66000463D01*
X187127729Y-65934342D01*
X187252955Y-65767308D01*
X187278587Y-65580596D01*
X187243480Y-65453270D01*
X187187413Y-65368711D01*
X187070481Y-65226957D01*
X186904803Y-65041492D01*
X186702498Y-64825798D01*
X186475687Y-64593362D01*
X186424829Y-64542441D01*
X186153525Y-64274911D01*
X185941484Y-64073398D01*
X185778789Y-63929513D01*
X185655521Y-63834867D01*
X185561760Y-63781072D01*
X185501969Y-63761929D01*
X185275537Y-63762246D01*
X185094133Y-63846769D01*
X184972396Y-64003496D01*
X184924963Y-64220423D01*
X184924800Y-64235195D01*
X184713965Y-64235195D01*
X184702630Y-64118945D01*
X184765192Y-63880717D01*
X184909019Y-63686533D01*
X184924542Y-63673012D01*
X185140640Y-63542921D01*
X185378386Y-63505653D01*
X185593649Y-63539675D01*
X185593649Y-63539675D01*
G37*
X185593649Y-63539675D02*
X185680175Y-63570608D01*
X185775349Y-63623867D01*
X185890559Y-63708911D01*
X186037194Y-63835196D01*
X186226639Y-64012181D01*
X186470284Y-64249322D01*
X186587040Y-64364699D01*
X186821896Y-64601445D01*
X187035540Y-64824316D01*
X187215864Y-65020079D01*
X187350762Y-65175500D01*
X187428124Y-65277347D01*
X187437940Y-65294698D01*
X187509040Y-65549710D01*
X187485127Y-65799866D01*
X187399775Y-65980847D01*
X187219157Y-66169448D01*
X186999369Y-66268870D01*
X186753411Y-66277115D01*
X186494285Y-66192186D01*
X186395245Y-66135181D01*
X186287810Y-66052438D01*
X186125853Y-65910801D01*
X185925070Y-65724803D01*
X185701161Y-65508977D01*
X185476139Y-65284281D01*
X185216997Y-65017289D01*
X185023149Y-64808492D01*
X184885508Y-64646882D01*
X184794985Y-64521448D01*
X184742490Y-64421179D01*
X184727869Y-64377801D01*
X184713965Y-64235195D01*
X184924800Y-64235195D01*
X184940614Y-64297730D01*
X184993089Y-64385931D01*
X185089769Y-64508736D01*
X185238201Y-64675083D01*
X185445931Y-64893912D01*
X185699500Y-65152915D01*
X185936402Y-65388864D01*
X186158539Y-65602993D01*
X186353027Y-65783436D01*
X186506981Y-65918330D01*
X186607516Y-65995808D01*
X186626600Y-66006675D01*
X186834540Y-66051297D01*
X187032910Y-66000463D01*
X187127729Y-65934342D01*
X187252955Y-65767308D01*
X187278587Y-65580596D01*
X187243480Y-65453270D01*
X187187413Y-65368711D01*
X187070481Y-65226957D01*
X186904803Y-65041492D01*
X186702498Y-64825798D01*
X186475687Y-64593362D01*
X186424829Y-64542441D01*
X186153525Y-64274911D01*
X185941484Y-64073398D01*
X185778789Y-63929513D01*
X185655521Y-63834867D01*
X185561760Y-63781072D01*
X185501969Y-63761929D01*
X185275537Y-63762246D01*
X185094133Y-63846769D01*
X184972396Y-64003496D01*
X184924963Y-64220423D01*
X184924800Y-64235195D01*
X184713965Y-64235195D01*
X184702630Y-64118945D01*
X184765192Y-63880717D01*
X184909019Y-63686533D01*
X184924542Y-63673012D01*
X185140640Y-63542921D01*
X185378386Y-63505653D01*
X185593649Y-63539675D01*
G36*
X202762355Y-63127077D02*
X202804875Y-63145788D01*
X202983500Y-63289118D01*
X203102643Y-63492783D01*
X203154603Y-63729706D01*
X203131680Y-63972809D01*
X203079022Y-64109906D01*
X203010023Y-64223349D01*
X202893659Y-64393344D01*
X202741668Y-64604596D01*
X202565785Y-64841811D01*
X202377744Y-65089694D01*
X202189283Y-65332951D01*
X202012137Y-65556287D01*
X201858042Y-65744407D01*
X201738733Y-65882018D01*
X201665946Y-65953824D01*
X201662056Y-65956551D01*
X201469010Y-66034281D01*
X201235703Y-66060086D01*
X201011043Y-66030740D01*
X200937792Y-66004314D01*
X200775320Y-65879937D01*
X200672208Y-65711434D01*
X200592758Y-65480598D01*
X200587242Y-65298933D01*
X200821009Y-65298933D01*
X200838073Y-65487473D01*
X200919404Y-65648389D01*
X201049458Y-65766137D01*
X201212694Y-65825171D01*
X201393570Y-65809947D01*
X201528124Y-65742798D01*
X201593097Y-65678467D01*
X201707224Y-65546005D01*
X201859415Y-65359091D01*
X202038578Y-65131403D01*
X202233622Y-64876623D01*
X202276028Y-64820336D01*
X202489942Y-64534037D01*
X202649607Y-64315085D01*
X202762843Y-64150393D01*
X202837474Y-64026875D01*
X202881322Y-63931445D01*
X202902208Y-63851015D01*
X202907956Y-63772499D01*
X202908000Y-63763054D01*
X202893127Y-63604831D01*
X202832264Y-63492805D01*
X202746353Y-63411015D01*
X202565227Y-63312182D01*
X202379718Y-63314330D01*
X202193933Y-63417195D01*
X202158226Y-63448775D01*
X202086347Y-63527845D01*
X201967312Y-63671225D01*
X201814129Y-63862081D01*
X201639803Y-64083576D01*
X201457344Y-64318876D01*
X201279757Y-64551147D01*
X201120049Y-64763553D01*
X200991229Y-64939258D01*
X200906303Y-65061429D01*
X200883752Y-65098314D01*
X200821009Y-65298933D01*
X200587242Y-65298933D01*
X200586455Y-65273031D01*
X200638564Y-65076762D01*
X200694410Y-64971472D01*
X200802649Y-64806054D01*
X200951183Y-64596069D01*
X201127918Y-64357081D01*
X201320755Y-64104653D01*
X201517601Y-63854346D01*
X201706357Y-63621725D01*
X201874928Y-63422350D01*
X202011217Y-63271787D01*
X202103129Y-63185596D01*
X202114539Y-63177805D01*
X202315117Y-63103202D01*
X202547829Y-63085515D01*
X202762355Y-63127077D01*
X202762355Y-63127077D01*
G37*
X202762355Y-63127077D02*
X202804875Y-63145788D01*
X202983500Y-63289118D01*
X203102643Y-63492783D01*
X203154603Y-63729706D01*
X203131680Y-63972809D01*
X203079022Y-64109906D01*
X203010023Y-64223349D01*
X202893659Y-64393344D01*
X202741668Y-64604596D01*
X202565785Y-64841811D01*
X202377744Y-65089694D01*
X202189283Y-65332951D01*
X202012137Y-65556287D01*
X201858042Y-65744407D01*
X201738733Y-65882018D01*
X201665946Y-65953824D01*
X201662056Y-65956551D01*
X201469010Y-66034281D01*
X201235703Y-66060086D01*
X201011043Y-66030740D01*
X200937792Y-66004314D01*
X200775320Y-65879937D01*
X200672208Y-65711434D01*
X200592758Y-65480598D01*
X200587242Y-65298933D01*
X200821009Y-65298933D01*
X200838073Y-65487473D01*
X200919404Y-65648389D01*
X201049458Y-65766137D01*
X201212694Y-65825171D01*
X201393570Y-65809947D01*
X201528124Y-65742798D01*
X201593097Y-65678467D01*
X201707224Y-65546005D01*
X201859415Y-65359091D01*
X202038578Y-65131403D01*
X202233622Y-64876623D01*
X202276028Y-64820336D01*
X202489942Y-64534037D01*
X202649607Y-64315085D01*
X202762843Y-64150393D01*
X202837474Y-64026875D01*
X202881322Y-63931445D01*
X202902208Y-63851015D01*
X202907956Y-63772499D01*
X202908000Y-63763054D01*
X202893127Y-63604831D01*
X202832264Y-63492805D01*
X202746353Y-63411015D01*
X202565227Y-63312182D01*
X202379718Y-63314330D01*
X202193933Y-63417195D01*
X202158226Y-63448775D01*
X202086347Y-63527845D01*
X201967312Y-63671225D01*
X201814129Y-63862081D01*
X201639803Y-64083576D01*
X201457344Y-64318876D01*
X201279757Y-64551147D01*
X201120049Y-64763553D01*
X200991229Y-64939258D01*
X200906303Y-65061429D01*
X200883752Y-65098314D01*
X200821009Y-65298933D01*
X200587242Y-65298933D01*
X200586455Y-65273031D01*
X200638564Y-65076762D01*
X200694410Y-64971472D01*
X200802649Y-64806054D01*
X200951183Y-64596069D01*
X201127918Y-64357081D01*
X201320755Y-64104653D01*
X201517601Y-63854346D01*
X201706357Y-63621725D01*
X201874928Y-63422350D01*
X202011217Y-63271787D01*
X202103129Y-63185596D01*
X202114539Y-63177805D01*
X202315117Y-63103202D01*
X202547829Y-63085515D01*
X202762355Y-63127077D01*
G36*
X183044911Y-60857642D02*
X183076106Y-60870026D01*
X183169689Y-60929973D01*
X183318804Y-61049643D01*
X183508900Y-61215206D01*
X183725425Y-61412827D01*
X183953827Y-61628674D01*
X184179555Y-61848914D01*
X184388055Y-62059714D01*
X184564776Y-62247241D01*
X184695166Y-62397662D01*
X184728445Y-62440721D01*
X184841437Y-62666351D01*
X184874808Y-62907221D01*
X184833625Y-63140156D01*
X184722951Y-63341979D01*
X184547851Y-63489516D01*
X184493519Y-63515656D01*
X184272122Y-63579172D01*
X184066995Y-63564218D01*
X183917578Y-63511414D01*
X183828809Y-63453249D01*
X183683189Y-63335985D01*
X183495013Y-63173052D01*
X183278575Y-62977884D01*
X183048170Y-62763911D01*
X182818094Y-62544566D01*
X182602640Y-62333280D01*
X182416104Y-62143486D01*
X182272781Y-61988614D01*
X182193301Y-61891247D01*
X182096797Y-61675997D01*
X182078525Y-61492534D01*
X182296707Y-61492534D01*
X182320966Y-61608474D01*
X182387898Y-61736010D01*
X182506493Y-61889043D01*
X182685743Y-62081476D01*
X182901883Y-62295503D01*
X183211681Y-62595229D01*
X183458433Y-62831244D01*
X183651500Y-63011109D01*
X183800242Y-63142388D01*
X183914018Y-63232641D01*
X184002191Y-63289432D01*
X184074119Y-63320321D01*
X184139164Y-63332872D01*
X184188336Y-63334800D01*
X184357775Y-63305126D01*
X184506200Y-63202058D01*
X184522307Y-63186307D01*
X184641705Y-63021654D01*
X184663856Y-62854568D01*
X184614522Y-62709160D01*
X184555981Y-62629468D01*
X184437689Y-62494303D01*
X184273808Y-62317900D01*
X184078499Y-62114494D01*
X183865926Y-61898321D01*
X183650250Y-61683616D01*
X183445634Y-61484614D01*
X183266240Y-61315551D01*
X183126231Y-61190662D01*
X183039769Y-61124183D01*
X183035022Y-61121511D01*
X182822474Y-61051308D01*
X182620761Y-61059014D01*
X182451701Y-61137062D01*
X182337113Y-61277887D01*
X182306132Y-61374288D01*
X182296707Y-61492534D01*
X182078525Y-61492534D01*
X182072121Y-61428239D01*
X182120874Y-61188886D01*
X182162434Y-61102725D01*
X182319852Y-60929617D01*
X182533614Y-60827448D01*
X182782405Y-60801647D01*
X183044911Y-60857642D01*
X183044911Y-60857642D01*
G37*
X183044911Y-60857642D02*
X183076106Y-60870026D01*
X183169689Y-60929973D01*
X183318804Y-61049643D01*
X183508900Y-61215206D01*
X183725425Y-61412827D01*
X183953827Y-61628674D01*
X184179555Y-61848914D01*
X184388055Y-62059714D01*
X184564776Y-62247241D01*
X184695166Y-62397662D01*
X184728445Y-62440721D01*
X184841437Y-62666351D01*
X184874808Y-62907221D01*
X184833625Y-63140156D01*
X184722951Y-63341979D01*
X184547851Y-63489516D01*
X184493519Y-63515656D01*
X184272122Y-63579172D01*
X184066995Y-63564218D01*
X183917578Y-63511414D01*
X183828809Y-63453249D01*
X183683189Y-63335985D01*
X183495013Y-63173052D01*
X183278575Y-62977884D01*
X183048170Y-62763911D01*
X182818094Y-62544566D01*
X182602640Y-62333280D01*
X182416104Y-62143486D01*
X182272781Y-61988614D01*
X182193301Y-61891247D01*
X182096797Y-61675997D01*
X182078525Y-61492534D01*
X182296707Y-61492534D01*
X182320966Y-61608474D01*
X182387898Y-61736010D01*
X182506493Y-61889043D01*
X182685743Y-62081476D01*
X182901883Y-62295503D01*
X183211681Y-62595229D01*
X183458433Y-62831244D01*
X183651500Y-63011109D01*
X183800242Y-63142388D01*
X183914018Y-63232641D01*
X184002191Y-63289432D01*
X184074119Y-63320321D01*
X184139164Y-63332872D01*
X184188336Y-63334800D01*
X184357775Y-63305126D01*
X184506200Y-63202058D01*
X184522307Y-63186307D01*
X184641705Y-63021654D01*
X184663856Y-62854568D01*
X184614522Y-62709160D01*
X184555981Y-62629468D01*
X184437689Y-62494303D01*
X184273808Y-62317900D01*
X184078499Y-62114494D01*
X183865926Y-61898321D01*
X183650250Y-61683616D01*
X183445634Y-61484614D01*
X183266240Y-61315551D01*
X183126231Y-61190662D01*
X183039769Y-61124183D01*
X183035022Y-61121511D01*
X182822474Y-61051308D01*
X182620761Y-61059014D01*
X182451701Y-61137062D01*
X182337113Y-61277887D01*
X182306132Y-61374288D01*
X182296707Y-61492534D01*
X182078525Y-61492534D01*
X182072121Y-61428239D01*
X182120874Y-61188886D01*
X182162434Y-61102725D01*
X182319852Y-60929617D01*
X182533614Y-60827448D01*
X182782405Y-60801647D01*
X183044911Y-60857642D01*
M02*
