G04 #@! TF.FileFunction,Other,Fab,Top*
%FSLAX46Y46*%
G04 Gerber Fmt 4.6, Leading zero omitted, Abs format (unit mm)*
G04 Created by KiCad (PCBNEW 4.0.7-e2-6376~58~ubuntu14.04.1) date Wed Aug  8 14:24:41 2018*
%MOMM*%
%LPD*%
G01*
G04 APERTURE LIST*
%ADD10C,0.100000*%
%ADD11C,0.200000*%
%ADD12C,0.300000*%
G04 APERTURE END LIST*
D10*
D11*
X162440000Y-74790000D02*
X162440000Y-69790000D01*
X159940000Y-72290000D02*
X164940000Y-72290000D01*
D12*
X146547143Y-103993571D02*
X146547143Y-102493571D01*
X147404286Y-103993571D01*
X147404286Y-102493571D01*
X148404286Y-102493571D02*
X148690000Y-102493571D01*
X148832858Y-102565000D01*
X148975715Y-102707857D01*
X149047143Y-102993571D01*
X149047143Y-103493571D01*
X148975715Y-103779286D01*
X148832858Y-103922143D01*
X148690000Y-103993571D01*
X148404286Y-103993571D01*
X148261429Y-103922143D01*
X148118572Y-103779286D01*
X148047143Y-103493571D01*
X148047143Y-102993571D01*
X148118572Y-102707857D01*
X148261429Y-102565000D01*
X148404286Y-102493571D01*
X149475715Y-102493571D02*
X150332858Y-102493571D01*
X149904287Y-103993571D02*
X149904287Y-102493571D01*
X150832858Y-103207857D02*
X151332858Y-103207857D01*
X151547144Y-103993571D02*
X150832858Y-103993571D01*
X150832858Y-102493571D01*
X151547144Y-102493571D01*
X152118572Y-103922143D02*
X152332858Y-103993571D01*
X152690001Y-103993571D01*
X152832858Y-103922143D01*
X152904287Y-103850714D01*
X152975715Y-103707857D01*
X152975715Y-103565000D01*
X152904287Y-103422143D01*
X152832858Y-103350714D01*
X152690001Y-103279286D01*
X152404287Y-103207857D01*
X152261429Y-103136429D01*
X152190001Y-103065000D01*
X152118572Y-102922143D01*
X152118572Y-102779286D01*
X152190001Y-102636429D01*
X152261429Y-102565000D01*
X152404287Y-102493571D01*
X152761429Y-102493571D01*
X152975715Y-102565000D01*
X153618572Y-103850714D02*
X153690000Y-103922143D01*
X153618572Y-103993571D01*
X153547143Y-103922143D01*
X153618572Y-103850714D01*
X153618572Y-103993571D01*
X153618572Y-103065000D02*
X153690000Y-103136429D01*
X153618572Y-103207857D01*
X153547143Y-103136429D01*
X153618572Y-103065000D01*
X153618572Y-103207857D01*
X147332857Y-106543571D02*
X146475714Y-106543571D01*
X146904286Y-106543571D02*
X146904286Y-105043571D01*
X146761429Y-105257857D01*
X146618571Y-105400714D01*
X146475714Y-105472143D01*
X147975714Y-106400714D02*
X148047142Y-106472143D01*
X147975714Y-106543571D01*
X147904285Y-106472143D01*
X147975714Y-106400714D01*
X147975714Y-106543571D01*
X150332857Y-105757857D02*
X149832857Y-105757857D01*
X149832857Y-106543571D02*
X149832857Y-105043571D01*
X150547143Y-105043571D01*
X151404285Y-105043571D02*
X151689999Y-105043571D01*
X151832857Y-105115000D01*
X151975714Y-105257857D01*
X152047142Y-105543571D01*
X152047142Y-106043571D01*
X151975714Y-106329286D01*
X151832857Y-106472143D01*
X151689999Y-106543571D01*
X151404285Y-106543571D01*
X151261428Y-106472143D01*
X151118571Y-106329286D01*
X151047142Y-106043571D01*
X151047142Y-105543571D01*
X151118571Y-105257857D01*
X151261428Y-105115000D01*
X151404285Y-105043571D01*
X152975714Y-105043571D02*
X153261428Y-105043571D01*
X153404286Y-105115000D01*
X153547143Y-105257857D01*
X153618571Y-105543571D01*
X153618571Y-106043571D01*
X153547143Y-106329286D01*
X153404286Y-106472143D01*
X153261428Y-106543571D01*
X152975714Y-106543571D01*
X152832857Y-106472143D01*
X152690000Y-106329286D01*
X152618571Y-106043571D01*
X152618571Y-105543571D01*
X152690000Y-105257857D01*
X152832857Y-105115000D01*
X152975714Y-105043571D01*
X154047143Y-105043571D02*
X154904286Y-105043571D01*
X154475715Y-106543571D02*
X154475715Y-105043571D01*
X155404286Y-106543571D02*
X155404286Y-105043571D01*
X155975714Y-105043571D01*
X156118572Y-105115000D01*
X156190000Y-105186429D01*
X156261429Y-105329286D01*
X156261429Y-105543571D01*
X156190000Y-105686429D01*
X156118572Y-105757857D01*
X155975714Y-105829286D01*
X155404286Y-105829286D01*
X157761429Y-106543571D02*
X157261429Y-105829286D01*
X156904286Y-106543571D02*
X156904286Y-105043571D01*
X157475714Y-105043571D01*
X157618572Y-105115000D01*
X157690000Y-105186429D01*
X157761429Y-105329286D01*
X157761429Y-105543571D01*
X157690000Y-105686429D01*
X157618572Y-105757857D01*
X157475714Y-105829286D01*
X156904286Y-105829286D01*
X158404286Y-106543571D02*
X158404286Y-105043571D01*
X159118572Y-106543571D02*
X159118572Y-105043571D01*
X159975715Y-106543571D01*
X159975715Y-105043571D01*
X160475715Y-105043571D02*
X161332858Y-105043571D01*
X160904287Y-106543571D02*
X160904287Y-105043571D01*
X161761429Y-106472143D02*
X161975715Y-106543571D01*
X162332858Y-106543571D01*
X162475715Y-106472143D01*
X162547144Y-106400714D01*
X162618572Y-106257857D01*
X162618572Y-106115000D01*
X162547144Y-105972143D01*
X162475715Y-105900714D01*
X162332858Y-105829286D01*
X162047144Y-105757857D01*
X161904286Y-105686429D01*
X161832858Y-105615000D01*
X161761429Y-105472143D01*
X161761429Y-105329286D01*
X161832858Y-105186429D01*
X161904286Y-105115000D01*
X162047144Y-105043571D01*
X162404286Y-105043571D01*
X162618572Y-105115000D01*
X164690000Y-105043571D02*
X164975714Y-105043571D01*
X165118572Y-105115000D01*
X165261429Y-105257857D01*
X165332857Y-105543571D01*
X165332857Y-106043571D01*
X165261429Y-106329286D01*
X165118572Y-106472143D01*
X164975714Y-106543571D01*
X164690000Y-106543571D01*
X164547143Y-106472143D01*
X164404286Y-106329286D01*
X164332857Y-106043571D01*
X164332857Y-105543571D01*
X164404286Y-105257857D01*
X164547143Y-105115000D01*
X164690000Y-105043571D01*
X166832858Y-106543571D02*
X166332858Y-105829286D01*
X165975715Y-106543571D02*
X165975715Y-105043571D01*
X166547143Y-105043571D01*
X166690001Y-105115000D01*
X166761429Y-105186429D01*
X166832858Y-105329286D01*
X166832858Y-105543571D01*
X166761429Y-105686429D01*
X166690001Y-105757857D01*
X166547143Y-105829286D01*
X165975715Y-105829286D01*
X167475715Y-106543571D02*
X167475715Y-105043571D01*
X168190001Y-105757857D02*
X168690001Y-105757857D01*
X168904287Y-106543571D02*
X168190001Y-106543571D01*
X168190001Y-105043571D01*
X168904287Y-105043571D01*
X169547144Y-106543571D02*
X169547144Y-105043571D01*
X170404287Y-106543571D01*
X170404287Y-105043571D01*
X170904287Y-105043571D02*
X171761430Y-105043571D01*
X171332859Y-106543571D02*
X171332859Y-105043571D01*
X172261430Y-105757857D02*
X172761430Y-105757857D01*
X172975716Y-106543571D02*
X172261430Y-106543571D01*
X172261430Y-105043571D01*
X172975716Y-105043571D01*
X173618573Y-106543571D02*
X173618573Y-105043571D01*
X173975716Y-105043571D01*
X174190001Y-105115000D01*
X174332859Y-105257857D01*
X174404287Y-105400714D01*
X174475716Y-105686429D01*
X174475716Y-105900714D01*
X174404287Y-106186429D01*
X174332859Y-106329286D01*
X174190001Y-106472143D01*
X173975716Y-106543571D01*
X173618573Y-106543571D01*
X176261430Y-106543571D02*
X176261430Y-105043571D01*
X176832858Y-105043571D01*
X176975716Y-105115000D01*
X177047144Y-105186429D01*
X177118573Y-105329286D01*
X177118573Y-105543571D01*
X177047144Y-105686429D01*
X176975716Y-105757857D01*
X176832858Y-105829286D01*
X176261430Y-105829286D01*
X177761430Y-105757857D02*
X178261430Y-105757857D01*
X178475716Y-106543571D02*
X177761430Y-106543571D01*
X177761430Y-105043571D01*
X178475716Y-105043571D01*
X179975716Y-106543571D02*
X179475716Y-105829286D01*
X179118573Y-106543571D02*
X179118573Y-105043571D01*
X179690001Y-105043571D01*
X179832859Y-105115000D01*
X179904287Y-105186429D01*
X179975716Y-105329286D01*
X179975716Y-105543571D01*
X179904287Y-105686429D01*
X179832859Y-105757857D01*
X179690001Y-105829286D01*
X179118573Y-105829286D01*
X181761430Y-106543571D02*
X181761430Y-105043571D01*
X182475716Y-106543571D02*
X182475716Y-105043571D01*
X183047144Y-105043571D01*
X183190002Y-105115000D01*
X183261430Y-105186429D01*
X183332859Y-105329286D01*
X183332859Y-105543571D01*
X183261430Y-105686429D01*
X183190002Y-105757857D01*
X183047144Y-105829286D01*
X182475716Y-105829286D01*
X184832859Y-106400714D02*
X184761430Y-106472143D01*
X184547144Y-106543571D01*
X184404287Y-106543571D01*
X184190002Y-106472143D01*
X184047144Y-106329286D01*
X183975716Y-106186429D01*
X183904287Y-105900714D01*
X183904287Y-105686429D01*
X183975716Y-105400714D01*
X184047144Y-105257857D01*
X184190002Y-105115000D01*
X184404287Y-105043571D01*
X184547144Y-105043571D01*
X184761430Y-105115000D01*
X184832859Y-105186429D01*
X185475716Y-105972143D02*
X186618573Y-105972143D01*
X187190002Y-105043571D02*
X188190002Y-105043571D01*
X187547145Y-106543571D01*
X188618573Y-105043571D02*
X189547144Y-105043571D01*
X189047144Y-105615000D01*
X189261430Y-105615000D01*
X189404287Y-105686429D01*
X189475716Y-105757857D01*
X189547144Y-105900714D01*
X189547144Y-106257857D01*
X189475716Y-106400714D01*
X189404287Y-106472143D01*
X189261430Y-106543571D01*
X188832858Y-106543571D01*
X188690001Y-106472143D01*
X188618573Y-106400714D01*
X190904287Y-105043571D02*
X190190001Y-105043571D01*
X190118572Y-105757857D01*
X190190001Y-105686429D01*
X190332858Y-105615000D01*
X190690001Y-105615000D01*
X190832858Y-105686429D01*
X190904287Y-105757857D01*
X190975715Y-105900714D01*
X190975715Y-106257857D01*
X190904287Y-106400714D01*
X190832858Y-106472143D01*
X190690001Y-106543571D01*
X190332858Y-106543571D01*
X190190001Y-106472143D01*
X190118572Y-106400714D01*
X192404286Y-106543571D02*
X191547143Y-106543571D01*
X191975715Y-106543571D02*
X191975715Y-105043571D01*
X191832858Y-105257857D01*
X191690000Y-105400714D01*
X191547143Y-105472143D01*
X193547143Y-105757857D02*
X193047143Y-105757857D01*
X193047143Y-106543571D02*
X193047143Y-105043571D01*
X193761429Y-105043571D01*
X195190000Y-106400714D02*
X195118571Y-106472143D01*
X194904285Y-106543571D01*
X194761428Y-106543571D01*
X194547143Y-106472143D01*
X194404285Y-106329286D01*
X194332857Y-106186429D01*
X194261428Y-105900714D01*
X194261428Y-105686429D01*
X194332857Y-105400714D01*
X194404285Y-105257857D01*
X194547143Y-105115000D01*
X194761428Y-105043571D01*
X194904285Y-105043571D01*
X195118571Y-105115000D01*
X195190000Y-105186429D01*
X197690000Y-106543571D02*
X196975714Y-106543571D01*
X196975714Y-105043571D01*
X198190000Y-105757857D02*
X198690000Y-105757857D01*
X198904286Y-106543571D02*
X198190000Y-106543571D01*
X198190000Y-105043571D01*
X198904286Y-105043571D01*
X199332857Y-105043571D02*
X199832857Y-106543571D01*
X200332857Y-105043571D01*
X200832857Y-105757857D02*
X201332857Y-105757857D01*
X201547143Y-106543571D02*
X200832857Y-106543571D01*
X200832857Y-105043571D01*
X201547143Y-105043571D01*
X202904286Y-106543571D02*
X202190000Y-106543571D01*
X202190000Y-105043571D01*
X205047143Y-105757857D02*
X205261429Y-105829286D01*
X205332857Y-105900714D01*
X205404286Y-106043571D01*
X205404286Y-106257857D01*
X205332857Y-106400714D01*
X205261429Y-106472143D01*
X205118571Y-106543571D01*
X204547143Y-106543571D01*
X204547143Y-105043571D01*
X205047143Y-105043571D01*
X205190000Y-105115000D01*
X205261429Y-105186429D01*
X205332857Y-105329286D01*
X205332857Y-105472143D01*
X205261429Y-105615000D01*
X205190000Y-105686429D01*
X205047143Y-105757857D01*
X204547143Y-105757857D01*
X207618571Y-107115000D02*
X207547143Y-107043571D01*
X207404286Y-106829286D01*
X207332857Y-106686429D01*
X207261428Y-106472143D01*
X207190000Y-106115000D01*
X207190000Y-105829286D01*
X207261428Y-105472143D01*
X207332857Y-105257857D01*
X207404286Y-105115000D01*
X207547143Y-104900714D01*
X207618571Y-104829286D01*
X208190000Y-106543571D02*
X208190000Y-105043571D01*
X208761428Y-105043571D01*
X208904286Y-105115000D01*
X208975714Y-105186429D01*
X209047143Y-105329286D01*
X209047143Y-105543571D01*
X208975714Y-105686429D01*
X208904286Y-105757857D01*
X208761428Y-105829286D01*
X208190000Y-105829286D01*
X209690000Y-106543571D02*
X209690000Y-105043571D01*
X210404286Y-106543571D02*
X210404286Y-105043571D01*
X211261429Y-106543571D01*
X211261429Y-105043571D01*
X213904286Y-106543571D02*
X213047143Y-106543571D01*
X213475715Y-106543571D02*
X213475715Y-105043571D01*
X213332858Y-105257857D01*
X213190000Y-105400714D01*
X213047143Y-105472143D01*
X215690000Y-106543571D02*
X215690000Y-105043571D01*
X216404286Y-106543571D02*
X216404286Y-105043571D01*
X217261429Y-106543571D01*
X217261429Y-105043571D01*
X219832858Y-106543571D02*
X219118572Y-106543571D01*
X219118572Y-105043571D01*
X220618572Y-105043571D02*
X220904286Y-105043571D01*
X221047144Y-105115000D01*
X221190001Y-105257857D01*
X221261429Y-105543571D01*
X221261429Y-106043571D01*
X221190001Y-106329286D01*
X221047144Y-106472143D01*
X220904286Y-106543571D01*
X220618572Y-106543571D01*
X220475715Y-106472143D01*
X220332858Y-106329286D01*
X220261429Y-106043571D01*
X220261429Y-105543571D01*
X220332858Y-105257857D01*
X220475715Y-105115000D01*
X220618572Y-105043571D01*
X221761430Y-105043571D02*
X222118573Y-106543571D01*
X222404287Y-105472143D01*
X222690001Y-106543571D01*
X223047144Y-105043571D01*
X223618573Y-105757857D02*
X224118573Y-105757857D01*
X224332859Y-106543571D02*
X223618573Y-106543571D01*
X223618573Y-105043571D01*
X224332859Y-105043571D01*
X225832859Y-106543571D02*
X225332859Y-105829286D01*
X224975716Y-106543571D02*
X224975716Y-105043571D01*
X225547144Y-105043571D01*
X225690002Y-105115000D01*
X225761430Y-105186429D01*
X225832859Y-105329286D01*
X225832859Y-105543571D01*
X225761430Y-105686429D01*
X225690002Y-105757857D01*
X225547144Y-105829286D01*
X224975716Y-105829286D01*
X228332859Y-106543571D02*
X227618573Y-106543571D01*
X227618573Y-105043571D01*
X228832859Y-105757857D02*
X229332859Y-105757857D01*
X229547145Y-106543571D02*
X228832859Y-106543571D01*
X228832859Y-105043571D01*
X229547145Y-105043571D01*
X230690002Y-105757857D02*
X230190002Y-105757857D01*
X230190002Y-106543571D02*
X230190002Y-105043571D01*
X230904288Y-105043571D01*
X231261430Y-105043571D02*
X232118573Y-105043571D01*
X231690002Y-106543571D02*
X231690002Y-105043571D01*
X232475716Y-107115000D02*
X232547144Y-107043571D01*
X232690001Y-106829286D01*
X232761430Y-106686429D01*
X232832859Y-106472143D01*
X232904287Y-106115000D01*
X232904287Y-105829286D01*
X232832859Y-105472143D01*
X232761430Y-105257857D01*
X232690001Y-105115000D01*
X232547144Y-104900714D01*
X232475716Y-104829286D01*
X146475714Y-107736429D02*
X146547143Y-107665000D01*
X146690000Y-107593571D01*
X147047143Y-107593571D01*
X147190000Y-107665000D01*
X147261429Y-107736429D01*
X147332857Y-107879286D01*
X147332857Y-108022143D01*
X147261429Y-108236429D01*
X146404286Y-109093571D01*
X147332857Y-109093571D01*
X147975714Y-108950714D02*
X148047142Y-109022143D01*
X147975714Y-109093571D01*
X147904285Y-109022143D01*
X147975714Y-108950714D01*
X147975714Y-109093571D01*
X150690000Y-108950714D02*
X150618571Y-109022143D01*
X150404285Y-109093571D01*
X150261428Y-109093571D01*
X150047143Y-109022143D01*
X149904285Y-108879286D01*
X149832857Y-108736429D01*
X149761428Y-108450714D01*
X149761428Y-108236429D01*
X149832857Y-107950714D01*
X149904285Y-107807857D01*
X150047143Y-107665000D01*
X150261428Y-107593571D01*
X150404285Y-107593571D01*
X150618571Y-107665000D01*
X150690000Y-107736429D01*
X151618571Y-107593571D02*
X151904285Y-107593571D01*
X152047143Y-107665000D01*
X152190000Y-107807857D01*
X152261428Y-108093571D01*
X152261428Y-108593571D01*
X152190000Y-108879286D01*
X152047143Y-109022143D01*
X151904285Y-109093571D01*
X151618571Y-109093571D01*
X151475714Y-109022143D01*
X151332857Y-108879286D01*
X151261428Y-108593571D01*
X151261428Y-108093571D01*
X151332857Y-107807857D01*
X151475714Y-107665000D01*
X151618571Y-107593571D01*
X152904286Y-109093571D02*
X152904286Y-107593571D01*
X153404286Y-108665000D01*
X153904286Y-107593571D01*
X153904286Y-109093571D01*
X154618572Y-109093571D02*
X154618572Y-107593571D01*
X155190000Y-107593571D01*
X155332858Y-107665000D01*
X155404286Y-107736429D01*
X155475715Y-107879286D01*
X155475715Y-108093571D01*
X155404286Y-108236429D01*
X155332858Y-108307857D01*
X155190000Y-108379286D01*
X154618572Y-108379286D01*
X156404286Y-107593571D02*
X156690000Y-107593571D01*
X156832858Y-107665000D01*
X156975715Y-107807857D01*
X157047143Y-108093571D01*
X157047143Y-108593571D01*
X156975715Y-108879286D01*
X156832858Y-109022143D01*
X156690000Y-109093571D01*
X156404286Y-109093571D01*
X156261429Y-109022143D01*
X156118572Y-108879286D01*
X156047143Y-108593571D01*
X156047143Y-108093571D01*
X156118572Y-107807857D01*
X156261429Y-107665000D01*
X156404286Y-107593571D01*
X157690001Y-109093571D02*
X157690001Y-107593571D01*
X158547144Y-109093571D01*
X158547144Y-107593571D01*
X159261430Y-108307857D02*
X159761430Y-108307857D01*
X159975716Y-109093571D02*
X159261430Y-109093571D01*
X159261430Y-107593571D01*
X159975716Y-107593571D01*
X160618573Y-109093571D02*
X160618573Y-107593571D01*
X161475716Y-109093571D01*
X161475716Y-107593571D01*
X161975716Y-107593571D02*
X162832859Y-107593571D01*
X162404288Y-109093571D02*
X162404288Y-107593571D01*
X165332859Y-109093571D02*
X164832859Y-108379286D01*
X164475716Y-109093571D02*
X164475716Y-107593571D01*
X165047144Y-107593571D01*
X165190002Y-107665000D01*
X165261430Y-107736429D01*
X165332859Y-107879286D01*
X165332859Y-108093571D01*
X165261430Y-108236429D01*
X165190002Y-108307857D01*
X165047144Y-108379286D01*
X164475716Y-108379286D01*
X166261430Y-107593571D02*
X166547144Y-107593571D01*
X166690002Y-107665000D01*
X166832859Y-107807857D01*
X166904287Y-108093571D01*
X166904287Y-108593571D01*
X166832859Y-108879286D01*
X166690002Y-109022143D01*
X166547144Y-109093571D01*
X166261430Y-109093571D01*
X166118573Y-109022143D01*
X165975716Y-108879286D01*
X165904287Y-108593571D01*
X165904287Y-108093571D01*
X165975716Y-107807857D01*
X166118573Y-107665000D01*
X166261430Y-107593571D01*
X167332859Y-107593571D02*
X168190002Y-107593571D01*
X167761431Y-109093571D02*
X167761431Y-107593571D01*
X168618573Y-108665000D02*
X169332859Y-108665000D01*
X168475716Y-109093571D02*
X168975716Y-107593571D01*
X169475716Y-109093571D01*
X169761430Y-107593571D02*
X170618573Y-107593571D01*
X170190002Y-109093571D02*
X170190002Y-107593571D01*
X171118573Y-109093571D02*
X171118573Y-107593571D01*
X172118573Y-107593571D02*
X172404287Y-107593571D01*
X172547145Y-107665000D01*
X172690002Y-107807857D01*
X172761430Y-108093571D01*
X172761430Y-108593571D01*
X172690002Y-108879286D01*
X172547145Y-109022143D01*
X172404287Y-109093571D01*
X172118573Y-109093571D01*
X171975716Y-109022143D01*
X171832859Y-108879286D01*
X171761430Y-108593571D01*
X171761430Y-108093571D01*
X171832859Y-107807857D01*
X171975716Y-107665000D01*
X172118573Y-107593571D01*
X173404288Y-109093571D02*
X173404288Y-107593571D01*
X174261431Y-109093571D01*
X174261431Y-107593571D01*
X176118574Y-109093571D02*
X176118574Y-107593571D01*
X176832860Y-109093571D02*
X176832860Y-107593571D01*
X177690003Y-109093571D01*
X177690003Y-107593571D01*
X179547146Y-109093571D02*
X179547146Y-107593571D01*
X179904289Y-107593571D01*
X180118574Y-107665000D01*
X180261432Y-107807857D01*
X180332860Y-107950714D01*
X180404289Y-108236429D01*
X180404289Y-108450714D01*
X180332860Y-108736429D01*
X180261432Y-108879286D01*
X180118574Y-109022143D01*
X179904289Y-109093571D01*
X179547146Y-109093571D01*
X181047146Y-108307857D02*
X181547146Y-108307857D01*
X181761432Y-109093571D02*
X181047146Y-109093571D01*
X181047146Y-107593571D01*
X181761432Y-107593571D01*
X183190003Y-107665000D02*
X183047146Y-107593571D01*
X182832860Y-107593571D01*
X182618575Y-107665000D01*
X182475717Y-107807857D01*
X182404289Y-107950714D01*
X182332860Y-108236429D01*
X182332860Y-108450714D01*
X182404289Y-108736429D01*
X182475717Y-108879286D01*
X182618575Y-109022143D01*
X182832860Y-109093571D01*
X182975717Y-109093571D01*
X183190003Y-109022143D01*
X183261432Y-108950714D01*
X183261432Y-108450714D01*
X182975717Y-108450714D01*
X184761432Y-109093571D02*
X184261432Y-108379286D01*
X183904289Y-109093571D02*
X183904289Y-107593571D01*
X184475717Y-107593571D01*
X184618575Y-107665000D01*
X184690003Y-107736429D01*
X184761432Y-107879286D01*
X184761432Y-108093571D01*
X184690003Y-108236429D01*
X184618575Y-108307857D01*
X184475717Y-108379286D01*
X183904289Y-108379286D01*
X185404289Y-108307857D02*
X185904289Y-108307857D01*
X186118575Y-109093571D02*
X185404289Y-109093571D01*
X185404289Y-107593571D01*
X186118575Y-107593571D01*
X186761432Y-108307857D02*
X187261432Y-108307857D01*
X187475718Y-109093571D02*
X186761432Y-109093571D01*
X186761432Y-107593571D01*
X187475718Y-107593571D01*
X188047146Y-109022143D02*
X188261432Y-109093571D01*
X188618575Y-109093571D01*
X188761432Y-109022143D01*
X188832861Y-108950714D01*
X188904289Y-108807857D01*
X188904289Y-108665000D01*
X188832861Y-108522143D01*
X188761432Y-108450714D01*
X188618575Y-108379286D01*
X188332861Y-108307857D01*
X188190003Y-108236429D01*
X188118575Y-108165000D01*
X188047146Y-108022143D01*
X188047146Y-107879286D01*
X188118575Y-107736429D01*
X188190003Y-107665000D01*
X188332861Y-107593571D01*
X188690003Y-107593571D01*
X188904289Y-107665000D01*
X191547146Y-108950714D02*
X191475717Y-109022143D01*
X191261431Y-109093571D01*
X191118574Y-109093571D01*
X190904289Y-109022143D01*
X190761431Y-108879286D01*
X190690003Y-108736429D01*
X190618574Y-108450714D01*
X190618574Y-108236429D01*
X190690003Y-107950714D01*
X190761431Y-107807857D01*
X190904289Y-107665000D01*
X191118574Y-107593571D01*
X191261431Y-107593571D01*
X191475717Y-107665000D01*
X191547146Y-107736429D01*
X192475717Y-107593571D02*
X192761431Y-107593571D01*
X192904289Y-107665000D01*
X193047146Y-107807857D01*
X193118574Y-108093571D01*
X193118574Y-108593571D01*
X193047146Y-108879286D01*
X192904289Y-109022143D01*
X192761431Y-109093571D01*
X192475717Y-109093571D01*
X192332860Y-109022143D01*
X192190003Y-108879286D01*
X192118574Y-108593571D01*
X192118574Y-108093571D01*
X192190003Y-107807857D01*
X192332860Y-107665000D01*
X192475717Y-107593571D01*
X193761432Y-107593571D02*
X193761432Y-108807857D01*
X193832860Y-108950714D01*
X193904289Y-109022143D01*
X194047146Y-109093571D01*
X194332860Y-109093571D01*
X194475718Y-109022143D01*
X194547146Y-108950714D01*
X194618575Y-108807857D01*
X194618575Y-107593571D01*
X195332861Y-109093571D02*
X195332861Y-107593571D01*
X196190004Y-109093571D01*
X196190004Y-107593571D01*
X196690004Y-107593571D02*
X197547147Y-107593571D01*
X197118576Y-109093571D02*
X197118576Y-107593571D01*
X198047147Y-108307857D02*
X198547147Y-108307857D01*
X198761433Y-109093571D02*
X198047147Y-109093571D01*
X198047147Y-107593571D01*
X198761433Y-107593571D01*
X200261433Y-109093571D02*
X199761433Y-108379286D01*
X199404290Y-109093571D02*
X199404290Y-107593571D01*
X199975718Y-107593571D01*
X200118576Y-107665000D01*
X200190004Y-107736429D01*
X200261433Y-107879286D01*
X200261433Y-108093571D01*
X200190004Y-108236429D01*
X200118576Y-108307857D01*
X199975718Y-108379286D01*
X199404290Y-108379286D01*
X200904290Y-108522143D02*
X202047147Y-108522143D01*
X203618576Y-108950714D02*
X203547147Y-109022143D01*
X203332861Y-109093571D01*
X203190004Y-109093571D01*
X202975719Y-109022143D01*
X202832861Y-108879286D01*
X202761433Y-108736429D01*
X202690004Y-108450714D01*
X202690004Y-108236429D01*
X202761433Y-107950714D01*
X202832861Y-107807857D01*
X202975719Y-107665000D01*
X203190004Y-107593571D01*
X203332861Y-107593571D01*
X203547147Y-107665000D01*
X203618576Y-107736429D01*
X204975719Y-109093571D02*
X204261433Y-109093571D01*
X204261433Y-107593571D01*
X205761433Y-107593571D02*
X206047147Y-107593571D01*
X206190005Y-107665000D01*
X206332862Y-107807857D01*
X206404290Y-108093571D01*
X206404290Y-108593571D01*
X206332862Y-108879286D01*
X206190005Y-109022143D01*
X206047147Y-109093571D01*
X205761433Y-109093571D01*
X205618576Y-109022143D01*
X205475719Y-108879286D01*
X205404290Y-108593571D01*
X205404290Y-108093571D01*
X205475719Y-107807857D01*
X205618576Y-107665000D01*
X205761433Y-107593571D01*
X207904291Y-108950714D02*
X207832862Y-109022143D01*
X207618576Y-109093571D01*
X207475719Y-109093571D01*
X207261434Y-109022143D01*
X207118576Y-108879286D01*
X207047148Y-108736429D01*
X206975719Y-108450714D01*
X206975719Y-108236429D01*
X207047148Y-107950714D01*
X207118576Y-107807857D01*
X207261434Y-107665000D01*
X207475719Y-107593571D01*
X207618576Y-107593571D01*
X207832862Y-107665000D01*
X207904291Y-107736429D01*
X208547148Y-109093571D02*
X208547148Y-107593571D01*
X209404291Y-109093571D02*
X208761434Y-108236429D01*
X209404291Y-107593571D02*
X208547148Y-108450714D01*
X209904291Y-107593571D02*
X210261434Y-109093571D01*
X210547148Y-108022143D01*
X210832862Y-109093571D01*
X211190005Y-107593571D01*
X211761434Y-109093571D02*
X211761434Y-107593571D01*
X212404291Y-109022143D02*
X212618577Y-109093571D01*
X212975720Y-109093571D01*
X213118577Y-109022143D01*
X213190006Y-108950714D01*
X213261434Y-108807857D01*
X213261434Y-108665000D01*
X213190006Y-108522143D01*
X213118577Y-108450714D01*
X212975720Y-108379286D01*
X212690006Y-108307857D01*
X212547148Y-108236429D01*
X212475720Y-108165000D01*
X212404291Y-108022143D01*
X212404291Y-107879286D01*
X212475720Y-107736429D01*
X212547148Y-107665000D01*
X212690006Y-107593571D01*
X213047148Y-107593571D01*
X213261434Y-107665000D01*
X213904291Y-108307857D02*
X214404291Y-108307857D01*
X214618577Y-109093571D02*
X213904291Y-109093571D01*
X213904291Y-107593571D01*
X214618577Y-107593571D01*
X146404286Y-110143571D02*
X147332857Y-110143571D01*
X146832857Y-110715000D01*
X147047143Y-110715000D01*
X147190000Y-110786429D01*
X147261429Y-110857857D01*
X147332857Y-111000714D01*
X147332857Y-111357857D01*
X147261429Y-111500714D01*
X147190000Y-111572143D01*
X147047143Y-111643571D01*
X146618571Y-111643571D01*
X146475714Y-111572143D01*
X146404286Y-111500714D01*
X147975714Y-111500714D02*
X148047142Y-111572143D01*
X147975714Y-111643571D01*
X147904285Y-111572143D01*
X147975714Y-111500714D01*
X147975714Y-111643571D01*
X149761428Y-111215000D02*
X150475714Y-111215000D01*
X149618571Y-111643571D02*
X150118571Y-110143571D01*
X150618571Y-111643571D01*
X151832857Y-111643571D02*
X151118571Y-111643571D01*
X151118571Y-110143571D01*
X153047143Y-111643571D02*
X152332857Y-111643571D01*
X152332857Y-110143571D01*
X155547143Y-111500714D02*
X155475714Y-111572143D01*
X155261428Y-111643571D01*
X155118571Y-111643571D01*
X154904286Y-111572143D01*
X154761428Y-111429286D01*
X154690000Y-111286429D01*
X154618571Y-111000714D01*
X154618571Y-110786429D01*
X154690000Y-110500714D01*
X154761428Y-110357857D01*
X154904286Y-110215000D01*
X155118571Y-110143571D01*
X155261428Y-110143571D01*
X155475714Y-110215000D01*
X155547143Y-110286429D01*
X156475714Y-110143571D02*
X156761428Y-110143571D01*
X156904286Y-110215000D01*
X157047143Y-110357857D01*
X157118571Y-110643571D01*
X157118571Y-111143571D01*
X157047143Y-111429286D01*
X156904286Y-111572143D01*
X156761428Y-111643571D01*
X156475714Y-111643571D01*
X156332857Y-111572143D01*
X156190000Y-111429286D01*
X156118571Y-111143571D01*
X156118571Y-110643571D01*
X156190000Y-110357857D01*
X156332857Y-110215000D01*
X156475714Y-110143571D01*
X157761429Y-111643571D02*
X157761429Y-110143571D01*
X158261429Y-111215000D01*
X158761429Y-110143571D01*
X158761429Y-111643571D01*
X159475715Y-111643571D02*
X159475715Y-110143571D01*
X160047143Y-110143571D01*
X160190001Y-110215000D01*
X160261429Y-110286429D01*
X160332858Y-110429286D01*
X160332858Y-110643571D01*
X160261429Y-110786429D01*
X160190001Y-110857857D01*
X160047143Y-110929286D01*
X159475715Y-110929286D01*
X161261429Y-110143571D02*
X161547143Y-110143571D01*
X161690001Y-110215000D01*
X161832858Y-110357857D01*
X161904286Y-110643571D01*
X161904286Y-111143571D01*
X161832858Y-111429286D01*
X161690001Y-111572143D01*
X161547143Y-111643571D01*
X161261429Y-111643571D01*
X161118572Y-111572143D01*
X160975715Y-111429286D01*
X160904286Y-111143571D01*
X160904286Y-110643571D01*
X160975715Y-110357857D01*
X161118572Y-110215000D01*
X161261429Y-110143571D01*
X162547144Y-111643571D02*
X162547144Y-110143571D01*
X163404287Y-111643571D01*
X163404287Y-110143571D01*
X164118573Y-110857857D02*
X164618573Y-110857857D01*
X164832859Y-111643571D02*
X164118573Y-111643571D01*
X164118573Y-110143571D01*
X164832859Y-110143571D01*
X165475716Y-111643571D02*
X165475716Y-110143571D01*
X166332859Y-111643571D01*
X166332859Y-110143571D01*
X166832859Y-110143571D02*
X167690002Y-110143571D01*
X167261431Y-111643571D02*
X167261431Y-110143571D01*
X168118573Y-111572143D02*
X168332859Y-111643571D01*
X168690002Y-111643571D01*
X168832859Y-111572143D01*
X168904288Y-111500714D01*
X168975716Y-111357857D01*
X168975716Y-111215000D01*
X168904288Y-111072143D01*
X168832859Y-111000714D01*
X168690002Y-110929286D01*
X168404288Y-110857857D01*
X168261430Y-110786429D01*
X168190002Y-110715000D01*
X168118573Y-110572143D01*
X168118573Y-110429286D01*
X168190002Y-110286429D01*
X168261430Y-110215000D01*
X168404288Y-110143571D01*
X168761430Y-110143571D01*
X168975716Y-110215000D01*
X170761430Y-111643571D02*
X170761430Y-110143571D01*
X171261430Y-111215000D01*
X171761430Y-110143571D01*
X171761430Y-111643571D01*
X172761430Y-110143571D02*
X173047144Y-110143571D01*
X173190002Y-110215000D01*
X173332859Y-110357857D01*
X173404287Y-110643571D01*
X173404287Y-111143571D01*
X173332859Y-111429286D01*
X173190002Y-111572143D01*
X173047144Y-111643571D01*
X172761430Y-111643571D01*
X172618573Y-111572143D01*
X172475716Y-111429286D01*
X172404287Y-111143571D01*
X172404287Y-110643571D01*
X172475716Y-110357857D01*
X172618573Y-110215000D01*
X172761430Y-110143571D01*
X174047145Y-110143571D02*
X174047145Y-111357857D01*
X174118573Y-111500714D01*
X174190002Y-111572143D01*
X174332859Y-111643571D01*
X174618573Y-111643571D01*
X174761431Y-111572143D01*
X174832859Y-111500714D01*
X174904288Y-111357857D01*
X174904288Y-110143571D01*
X175618574Y-111643571D02*
X175618574Y-110143571D01*
X176475717Y-111643571D01*
X176475717Y-110143571D01*
X176975717Y-110143571D02*
X177832860Y-110143571D01*
X177404289Y-111643571D02*
X177404289Y-110143571D01*
X178332860Y-110857857D02*
X178832860Y-110857857D01*
X179047146Y-111643571D02*
X178332860Y-111643571D01*
X178332860Y-110143571D01*
X179047146Y-110143571D01*
X179690003Y-111643571D02*
X179690003Y-110143571D01*
X180047146Y-110143571D01*
X180261431Y-110215000D01*
X180404289Y-110357857D01*
X180475717Y-110500714D01*
X180547146Y-110786429D01*
X180547146Y-111000714D01*
X180475717Y-111286429D01*
X180404289Y-111429286D01*
X180261431Y-111572143D01*
X180047146Y-111643571D01*
X179690003Y-111643571D01*
X182618574Y-110143571D02*
X182904288Y-110143571D01*
X183047146Y-110215000D01*
X183190003Y-110357857D01*
X183261431Y-110643571D01*
X183261431Y-111143571D01*
X183190003Y-111429286D01*
X183047146Y-111572143D01*
X182904288Y-111643571D01*
X182618574Y-111643571D01*
X182475717Y-111572143D01*
X182332860Y-111429286D01*
X182261431Y-111143571D01*
X182261431Y-110643571D01*
X182332860Y-110357857D01*
X182475717Y-110215000D01*
X182618574Y-110143571D01*
X183904289Y-111643571D02*
X183904289Y-110143571D01*
X184761432Y-111643571D01*
X184761432Y-110143571D01*
X187118575Y-110857857D02*
X187332861Y-110929286D01*
X187404289Y-111000714D01*
X187475718Y-111143571D01*
X187475718Y-111357857D01*
X187404289Y-111500714D01*
X187332861Y-111572143D01*
X187190003Y-111643571D01*
X186618575Y-111643571D01*
X186618575Y-110143571D01*
X187118575Y-110143571D01*
X187261432Y-110215000D01*
X187332861Y-110286429D01*
X187404289Y-110429286D01*
X187404289Y-110572143D01*
X187332861Y-110715000D01*
X187261432Y-110786429D01*
X187118575Y-110857857D01*
X186618575Y-110857857D01*
X188118575Y-111500714D02*
X188190003Y-111572143D01*
X188118575Y-111643571D01*
X188047146Y-111572143D01*
X188118575Y-111500714D01*
X188118575Y-111643571D01*
X189690004Y-111500714D02*
X189618575Y-111572143D01*
X189404289Y-111643571D01*
X189261432Y-111643571D01*
X189047147Y-111572143D01*
X188904289Y-111429286D01*
X188832861Y-111286429D01*
X188761432Y-111000714D01*
X188761432Y-110786429D01*
X188832861Y-110500714D01*
X188904289Y-110357857D01*
X189047147Y-110215000D01*
X189261432Y-110143571D01*
X189404289Y-110143571D01*
X189618575Y-110215000D01*
X189690004Y-110286429D01*
X190332861Y-110143571D02*
X190332861Y-111357857D01*
X190404289Y-111500714D01*
X190475718Y-111572143D01*
X190618575Y-111643571D01*
X190904289Y-111643571D01*
X191047147Y-111572143D01*
X191118575Y-111500714D01*
X191190004Y-111357857D01*
X191190004Y-110143571D01*
X193761433Y-111643571D02*
X193047147Y-111643571D01*
X193047147Y-110143571D01*
X194190004Y-111215000D02*
X194904290Y-111215000D01*
X194047147Y-111643571D02*
X194547147Y-110143571D01*
X195047147Y-111643571D01*
X195832861Y-110929286D02*
X195832861Y-111643571D01*
X195332861Y-110143571D02*
X195832861Y-110929286D01*
X196332861Y-110143571D01*
X196832861Y-110857857D02*
X197332861Y-110857857D01*
X197547147Y-111643571D02*
X196832861Y-111643571D01*
X196832861Y-110143571D01*
X197547147Y-110143571D01*
X199047147Y-111643571D02*
X198547147Y-110929286D01*
X198190004Y-111643571D02*
X198190004Y-110143571D01*
X198761432Y-110143571D01*
X198904290Y-110215000D01*
X198975718Y-110286429D01*
X199047147Y-110429286D01*
X199047147Y-110643571D01*
X198975718Y-110786429D01*
X198904290Y-110857857D01*
X198761432Y-110929286D01*
X198190004Y-110929286D01*
X201261432Y-112215000D02*
X201190004Y-112143571D01*
X201047147Y-111929286D01*
X200975718Y-111786429D01*
X200904289Y-111572143D01*
X200832861Y-111215000D01*
X200832861Y-110929286D01*
X200904289Y-110572143D01*
X200975718Y-110357857D01*
X201047147Y-110215000D01*
X201190004Y-110000714D01*
X201261432Y-109929286D01*
X202547147Y-111643571D02*
X201832861Y-111643571D01*
X201832861Y-110143571D01*
X203047147Y-110857857D02*
X203547147Y-110857857D01*
X203761433Y-111643571D02*
X203047147Y-111643571D01*
X203047147Y-110143571D01*
X203761433Y-110143571D01*
X204404290Y-111643571D02*
X204404290Y-110143571D01*
X204761433Y-110143571D01*
X204975718Y-110215000D01*
X205118576Y-110357857D01*
X205190004Y-110500714D01*
X205261433Y-110786429D01*
X205261433Y-111000714D01*
X205190004Y-111286429D01*
X205118576Y-111429286D01*
X204975718Y-111572143D01*
X204761433Y-111643571D01*
X204404290Y-111643571D01*
X207047147Y-111643571D02*
X207047147Y-110143571D01*
X207690004Y-111572143D02*
X207904290Y-111643571D01*
X208261433Y-111643571D01*
X208404290Y-111572143D01*
X208475719Y-111500714D01*
X208547147Y-111357857D01*
X208547147Y-111215000D01*
X208475719Y-111072143D01*
X208404290Y-111000714D01*
X208261433Y-110929286D01*
X207975719Y-110857857D01*
X207832861Y-110786429D01*
X207761433Y-110715000D01*
X207690004Y-110572143D01*
X207690004Y-110429286D01*
X207761433Y-110286429D01*
X207832861Y-110215000D01*
X207975719Y-110143571D01*
X208332861Y-110143571D01*
X208547147Y-110215000D01*
X210832861Y-110857857D02*
X211047147Y-110929286D01*
X211118575Y-111000714D01*
X211190004Y-111143571D01*
X211190004Y-111357857D01*
X211118575Y-111500714D01*
X211047147Y-111572143D01*
X210904289Y-111643571D01*
X210332861Y-111643571D01*
X210332861Y-110143571D01*
X210832861Y-110143571D01*
X210975718Y-110215000D01*
X211047147Y-110286429D01*
X211118575Y-110429286D01*
X211118575Y-110572143D01*
X211047147Y-110715000D01*
X210975718Y-110786429D01*
X210832861Y-110857857D01*
X210332861Y-110857857D01*
X212118575Y-110143571D02*
X212404289Y-110143571D01*
X212547147Y-110215000D01*
X212690004Y-110357857D01*
X212761432Y-110643571D01*
X212761432Y-111143571D01*
X212690004Y-111429286D01*
X212547147Y-111572143D01*
X212404289Y-111643571D01*
X212118575Y-111643571D01*
X211975718Y-111572143D01*
X211832861Y-111429286D01*
X211761432Y-111143571D01*
X211761432Y-110643571D01*
X211832861Y-110357857D01*
X211975718Y-110215000D01*
X212118575Y-110143571D01*
X213190004Y-110143571D02*
X214047147Y-110143571D01*
X213618576Y-111643571D02*
X213618576Y-110143571D01*
X214332861Y-110143571D02*
X215190004Y-110143571D01*
X214761433Y-111643571D02*
X214761433Y-110143571D01*
X215975718Y-110143571D02*
X216261432Y-110143571D01*
X216404290Y-110215000D01*
X216547147Y-110357857D01*
X216618575Y-110643571D01*
X216618575Y-111143571D01*
X216547147Y-111429286D01*
X216404290Y-111572143D01*
X216261432Y-111643571D01*
X215975718Y-111643571D01*
X215832861Y-111572143D01*
X215690004Y-111429286D01*
X215618575Y-111143571D01*
X215618575Y-110643571D01*
X215690004Y-110357857D01*
X215832861Y-110215000D01*
X215975718Y-110143571D01*
X217261433Y-111643571D02*
X217261433Y-110143571D01*
X217761433Y-111215000D01*
X218261433Y-110143571D01*
X218261433Y-111643571D01*
X218975719Y-111072143D02*
X220118576Y-111072143D01*
X220832862Y-111643571D02*
X220832862Y-110143571D01*
X221332862Y-111215000D01*
X221832862Y-110143571D01*
X221832862Y-111643571D01*
X222832862Y-110143571D02*
X223118576Y-110143571D01*
X223261434Y-110215000D01*
X223404291Y-110357857D01*
X223475719Y-110643571D01*
X223475719Y-111143571D01*
X223404291Y-111429286D01*
X223261434Y-111572143D01*
X223118576Y-111643571D01*
X222832862Y-111643571D01*
X222690005Y-111572143D01*
X222547148Y-111429286D01*
X222475719Y-111143571D01*
X222475719Y-110643571D01*
X222547148Y-110357857D01*
X222690005Y-110215000D01*
X222832862Y-110143571D01*
X224118577Y-110143571D02*
X224118577Y-111357857D01*
X224190005Y-111500714D01*
X224261434Y-111572143D01*
X224404291Y-111643571D01*
X224690005Y-111643571D01*
X224832863Y-111572143D01*
X224904291Y-111500714D01*
X224975720Y-111357857D01*
X224975720Y-110143571D01*
X225690006Y-111643571D02*
X225690006Y-110143571D01*
X226547149Y-111643571D01*
X226547149Y-110143571D01*
X227047149Y-110143571D02*
X227904292Y-110143571D01*
X227475721Y-111643571D02*
X227475721Y-110143571D01*
X228261435Y-112215000D02*
X228332863Y-112143571D01*
X228475720Y-111929286D01*
X228547149Y-111786429D01*
X228618578Y-111572143D01*
X228690006Y-111215000D01*
X228690006Y-110929286D01*
X228618578Y-110572143D01*
X228547149Y-110357857D01*
X228475720Y-110215000D01*
X228332863Y-110000714D01*
X228261435Y-109929286D01*
X147190000Y-113193571D02*
X147190000Y-114193571D01*
X146832857Y-112622143D02*
X146475714Y-113693571D01*
X147404286Y-113693571D01*
X147975714Y-114050714D02*
X148047142Y-114122143D01*
X147975714Y-114193571D01*
X147904285Y-114122143D01*
X147975714Y-114050714D01*
X147975714Y-114193571D01*
X149832857Y-114193571D02*
X149832857Y-112693571D01*
X150404285Y-112693571D01*
X150547143Y-112765000D01*
X150618571Y-112836429D01*
X150690000Y-112979286D01*
X150690000Y-113193571D01*
X150618571Y-113336429D01*
X150547143Y-113407857D01*
X150404285Y-113479286D01*
X149832857Y-113479286D01*
X152190000Y-114050714D02*
X152118571Y-114122143D01*
X151904285Y-114193571D01*
X151761428Y-114193571D01*
X151547143Y-114122143D01*
X151404285Y-113979286D01*
X151332857Y-113836429D01*
X151261428Y-113550714D01*
X151261428Y-113336429D01*
X151332857Y-113050714D01*
X151404285Y-112907857D01*
X151547143Y-112765000D01*
X151761428Y-112693571D01*
X151904285Y-112693571D01*
X152118571Y-112765000D01*
X152190000Y-112836429D01*
X153332857Y-113407857D02*
X153547143Y-113479286D01*
X153618571Y-113550714D01*
X153690000Y-113693571D01*
X153690000Y-113907857D01*
X153618571Y-114050714D01*
X153547143Y-114122143D01*
X153404285Y-114193571D01*
X152832857Y-114193571D01*
X152832857Y-112693571D01*
X153332857Y-112693571D01*
X153475714Y-112765000D01*
X153547143Y-112836429D01*
X153618571Y-112979286D01*
X153618571Y-113122143D01*
X153547143Y-113265000D01*
X153475714Y-113336429D01*
X153332857Y-113407857D01*
X152832857Y-113407857D01*
X155475714Y-114193571D02*
X155475714Y-112693571D01*
X156118571Y-114122143D02*
X156332857Y-114193571D01*
X156690000Y-114193571D01*
X156832857Y-114122143D01*
X156904286Y-114050714D01*
X156975714Y-113907857D01*
X156975714Y-113765000D01*
X156904286Y-113622143D01*
X156832857Y-113550714D01*
X156690000Y-113479286D01*
X156404286Y-113407857D01*
X156261428Y-113336429D01*
X156190000Y-113265000D01*
X156118571Y-113122143D01*
X156118571Y-112979286D01*
X156190000Y-112836429D01*
X156261428Y-112765000D01*
X156404286Y-112693571D01*
X156761428Y-112693571D01*
X156975714Y-112765000D01*
X159547142Y-114193571D02*
X158689999Y-114193571D01*
X159118571Y-114193571D02*
X159118571Y-112693571D01*
X158975714Y-112907857D01*
X158832856Y-113050714D01*
X158689999Y-113122143D01*
X160189999Y-114050714D02*
X160261427Y-114122143D01*
X160189999Y-114193571D01*
X160118570Y-114122143D01*
X160189999Y-114050714D01*
X160189999Y-114193571D01*
X161547142Y-112693571D02*
X161261428Y-112693571D01*
X161118571Y-112765000D01*
X161047142Y-112836429D01*
X160904285Y-113050714D01*
X160832856Y-113336429D01*
X160832856Y-113907857D01*
X160904285Y-114050714D01*
X160975713Y-114122143D01*
X161118571Y-114193571D01*
X161404285Y-114193571D01*
X161547142Y-114122143D01*
X161618571Y-114050714D01*
X161689999Y-113907857D01*
X161689999Y-113550714D01*
X161618571Y-113407857D01*
X161547142Y-113336429D01*
X161404285Y-113265000D01*
X161118571Y-113265000D01*
X160975713Y-113336429D01*
X160904285Y-113407857D01*
X160832856Y-113550714D01*
X162332856Y-114193571D02*
X162332856Y-113193571D01*
X162332856Y-113336429D02*
X162404284Y-113265000D01*
X162547142Y-113193571D01*
X162761427Y-113193571D01*
X162904284Y-113265000D01*
X162975713Y-113407857D01*
X162975713Y-114193571D01*
X162975713Y-113407857D02*
X163047142Y-113265000D01*
X163189999Y-113193571D01*
X163404284Y-113193571D01*
X163547142Y-113265000D01*
X163618570Y-113407857D01*
X163618570Y-114193571D01*
X164332856Y-114193571D02*
X164332856Y-113193571D01*
X164332856Y-113336429D02*
X164404284Y-113265000D01*
X164547142Y-113193571D01*
X164761427Y-113193571D01*
X164904284Y-113265000D01*
X164975713Y-113407857D01*
X164975713Y-114193571D01*
X164975713Y-113407857D02*
X165047142Y-113265000D01*
X165189999Y-113193571D01*
X165404284Y-113193571D01*
X165547142Y-113265000D01*
X165618570Y-113407857D01*
X165618570Y-114193571D01*
X167975713Y-113407857D02*
X167475713Y-113407857D01*
X167475713Y-114193571D02*
X167475713Y-112693571D01*
X168189999Y-112693571D01*
X169618570Y-114193571D02*
X169118570Y-113479286D01*
X168761427Y-114193571D02*
X168761427Y-112693571D01*
X169332855Y-112693571D01*
X169475713Y-112765000D01*
X169547141Y-112836429D01*
X169618570Y-112979286D01*
X169618570Y-113193571D01*
X169547141Y-113336429D01*
X169475713Y-113407857D01*
X169332855Y-113479286D01*
X168761427Y-113479286D01*
X170904284Y-113193571D02*
X170904284Y-114193571D01*
X170547141Y-112622143D02*
X170189998Y-113693571D01*
X171118570Y-113693571D01*
X173689998Y-114193571D02*
X173189998Y-113479286D01*
X172832855Y-114193571D02*
X172832855Y-112693571D01*
X173404283Y-112693571D01*
X173547141Y-112765000D01*
X173618569Y-112836429D01*
X173689998Y-112979286D01*
X173689998Y-113193571D01*
X173618569Y-113336429D01*
X173547141Y-113407857D01*
X173404283Y-113479286D01*
X172832855Y-113479286D01*
X174261426Y-113765000D02*
X174975712Y-113765000D01*
X174118569Y-114193571D02*
X174618569Y-112693571D01*
X175118569Y-114193571D01*
X175404283Y-112693571D02*
X176261426Y-112693571D01*
X175832855Y-114193571D02*
X175832855Y-112693571D01*
X176761426Y-113407857D02*
X177261426Y-113407857D01*
X177475712Y-114193571D02*
X176761426Y-114193571D01*
X176761426Y-112693571D01*
X177475712Y-112693571D01*
X178118569Y-114193571D02*
X178118569Y-112693571D01*
X178475712Y-112693571D01*
X178689997Y-112765000D01*
X178832855Y-112907857D01*
X178904283Y-113050714D01*
X178975712Y-113336429D01*
X178975712Y-113550714D01*
X178904283Y-113836429D01*
X178832855Y-113979286D01*
X178689997Y-114122143D01*
X178475712Y-114193571D01*
X178118569Y-114193571D01*
X181261426Y-113407857D02*
X180761426Y-113407857D01*
X180761426Y-114193571D02*
X180761426Y-112693571D01*
X181475712Y-112693571D01*
X182332854Y-112693571D02*
X182618568Y-112693571D01*
X182761426Y-112765000D01*
X182904283Y-112907857D01*
X182975711Y-113193571D01*
X182975711Y-113693571D01*
X182904283Y-113979286D01*
X182761426Y-114122143D01*
X182618568Y-114193571D01*
X182332854Y-114193571D01*
X182189997Y-114122143D01*
X182047140Y-113979286D01*
X181975711Y-113693571D01*
X181975711Y-113193571D01*
X182047140Y-112907857D01*
X182189997Y-112765000D01*
X182332854Y-112693571D01*
X184475712Y-114193571D02*
X183975712Y-113479286D01*
X183618569Y-114193571D02*
X183618569Y-112693571D01*
X184189997Y-112693571D01*
X184332855Y-112765000D01*
X184404283Y-112836429D01*
X184475712Y-112979286D01*
X184475712Y-113193571D01*
X184404283Y-113336429D01*
X184332855Y-113407857D01*
X184189997Y-113479286D01*
X183618569Y-113479286D01*
X187118569Y-114193571D02*
X186618569Y-113479286D01*
X186261426Y-114193571D02*
X186261426Y-112693571D01*
X186832854Y-112693571D01*
X186975712Y-112765000D01*
X187047140Y-112836429D01*
X187118569Y-112979286D01*
X187118569Y-113193571D01*
X187047140Y-113336429D01*
X186975712Y-113407857D01*
X186832854Y-113479286D01*
X186261426Y-113479286D01*
X188047140Y-112693571D02*
X188332854Y-112693571D01*
X188475712Y-112765000D01*
X188618569Y-112907857D01*
X188689997Y-113193571D01*
X188689997Y-113693571D01*
X188618569Y-113979286D01*
X188475712Y-114122143D01*
X188332854Y-114193571D01*
X188047140Y-114193571D01*
X187904283Y-114122143D01*
X187761426Y-113979286D01*
X187689997Y-113693571D01*
X187689997Y-113193571D01*
X187761426Y-112907857D01*
X187904283Y-112765000D01*
X188047140Y-112693571D01*
X189332855Y-114193571D02*
X189332855Y-112693571D01*
X189332855Y-113407857D02*
X190189998Y-113407857D01*
X190189998Y-114193571D02*
X190189998Y-112693571D01*
X190832855Y-114122143D02*
X191047141Y-114193571D01*
X191404284Y-114193571D01*
X191547141Y-114122143D01*
X191618570Y-114050714D01*
X191689998Y-113907857D01*
X191689998Y-113765000D01*
X191618570Y-113622143D01*
X191547141Y-113550714D01*
X191404284Y-113479286D01*
X191118570Y-113407857D01*
X190975712Y-113336429D01*
X190904284Y-113265000D01*
X190832855Y-113122143D01*
X190832855Y-112979286D01*
X190904284Y-112836429D01*
X190975712Y-112765000D01*
X191118570Y-112693571D01*
X191475712Y-112693571D01*
X191689998Y-112765000D01*
X194332855Y-114193571D02*
X193832855Y-113479286D01*
X193475712Y-114193571D02*
X193475712Y-112693571D01*
X194047140Y-112693571D01*
X194189998Y-112765000D01*
X194261426Y-112836429D01*
X194332855Y-112979286D01*
X194332855Y-113193571D01*
X194261426Y-113336429D01*
X194189998Y-113407857D01*
X194047140Y-113479286D01*
X193475712Y-113479286D01*
X194975712Y-113407857D02*
X195475712Y-113407857D01*
X195689998Y-114193571D02*
X194975712Y-114193571D01*
X194975712Y-112693571D01*
X195689998Y-112693571D01*
X196832855Y-113407857D02*
X196332855Y-113407857D01*
X196332855Y-114193571D02*
X196332855Y-112693571D01*
X197047141Y-112693571D01*
X198332855Y-114193571D02*
X197618569Y-114193571D01*
X197618569Y-112693571D01*
X199118569Y-112693571D02*
X199404283Y-112693571D01*
X199547141Y-112765000D01*
X199689998Y-112907857D01*
X199761426Y-113193571D01*
X199761426Y-113693571D01*
X199689998Y-113979286D01*
X199547141Y-114122143D01*
X199404283Y-114193571D01*
X199118569Y-114193571D01*
X198975712Y-114122143D01*
X198832855Y-113979286D01*
X198761426Y-113693571D01*
X198761426Y-113193571D01*
X198832855Y-112907857D01*
X198975712Y-112765000D01*
X199118569Y-112693571D01*
X200261427Y-112693571D02*
X200618570Y-114193571D01*
X200904284Y-113122143D01*
X201189998Y-114193571D01*
X201547141Y-112693571D01*
X202189998Y-114122143D02*
X202189998Y-114193571D01*
X202118570Y-114336429D01*
X202047141Y-114407857D01*
X204761427Y-114193571D02*
X203904284Y-114193571D01*
X204332856Y-114193571D02*
X204332856Y-112693571D01*
X204189999Y-112907857D01*
X204047141Y-113050714D01*
X203904284Y-113122143D01*
X205689998Y-112693571D02*
X205975712Y-112693571D01*
X206118570Y-112765000D01*
X206261427Y-112907857D01*
X206332855Y-113193571D01*
X206332855Y-113693571D01*
X206261427Y-113979286D01*
X206118570Y-114122143D01*
X205975712Y-114193571D01*
X205689998Y-114193571D01*
X205547141Y-114122143D01*
X205404284Y-113979286D01*
X205332855Y-113693571D01*
X205332855Y-113193571D01*
X205404284Y-112907857D01*
X205547141Y-112765000D01*
X205689998Y-112693571D01*
X206832856Y-112693571D02*
X207832856Y-112693571D01*
X206832856Y-114193571D01*
X207832856Y-114193571D01*
X210404284Y-114050714D02*
X210332855Y-114122143D01*
X210118569Y-114193571D01*
X209975712Y-114193571D01*
X209761427Y-114122143D01*
X209618569Y-113979286D01*
X209547141Y-113836429D01*
X209475712Y-113550714D01*
X209475712Y-113336429D01*
X209547141Y-113050714D01*
X209618569Y-112907857D01*
X209761427Y-112765000D01*
X209975712Y-112693571D01*
X210118569Y-112693571D01*
X210332855Y-112765000D01*
X210404284Y-112836429D01*
X211332855Y-112693571D02*
X211618569Y-112693571D01*
X211761427Y-112765000D01*
X211904284Y-112907857D01*
X211975712Y-113193571D01*
X211975712Y-113693571D01*
X211904284Y-113979286D01*
X211761427Y-114122143D01*
X211618569Y-114193571D01*
X211332855Y-114193571D01*
X211189998Y-114122143D01*
X211047141Y-113979286D01*
X210975712Y-113693571D01*
X210975712Y-113193571D01*
X211047141Y-112907857D01*
X211189998Y-112765000D01*
X211332855Y-112693571D01*
X212618570Y-114193571D02*
X212618570Y-112693571D01*
X213189998Y-112693571D01*
X213332856Y-112765000D01*
X213404284Y-112836429D01*
X213475713Y-112979286D01*
X213475713Y-113193571D01*
X213404284Y-113336429D01*
X213332856Y-113407857D01*
X213189998Y-113479286D01*
X212618570Y-113479286D01*
X214118570Y-114193571D02*
X214118570Y-112693571D01*
X214689998Y-112693571D01*
X214832856Y-112765000D01*
X214904284Y-112836429D01*
X214975713Y-112979286D01*
X214975713Y-113193571D01*
X214904284Y-113336429D01*
X214832856Y-113407857D01*
X214689998Y-113479286D01*
X214118570Y-113479286D01*
X215618570Y-113407857D02*
X216118570Y-113407857D01*
X216332856Y-114193571D02*
X215618570Y-114193571D01*
X215618570Y-112693571D01*
X216332856Y-112693571D01*
X217832856Y-114193571D02*
X217332856Y-113479286D01*
X216975713Y-114193571D02*
X216975713Y-112693571D01*
X217547141Y-112693571D01*
X217689999Y-112765000D01*
X217761427Y-112836429D01*
X217832856Y-112979286D01*
X217832856Y-113193571D01*
X217761427Y-113336429D01*
X217689999Y-113407857D01*
X217547141Y-113479286D01*
X216975713Y-113479286D01*
X218547141Y-114122143D02*
X218547141Y-114193571D01*
X218475713Y-114336429D01*
X218404284Y-114407857D01*
X220332856Y-113407857D02*
X220832856Y-113407857D01*
X221047142Y-114193571D02*
X220332856Y-114193571D01*
X220332856Y-112693571D01*
X221047142Y-112693571D01*
X221689999Y-114193571D02*
X221689999Y-112693571D01*
X222547142Y-114193571D01*
X222547142Y-112693571D01*
X223261428Y-114193571D02*
X223261428Y-112693571D01*
X224761428Y-112765000D02*
X224618571Y-112693571D01*
X224404285Y-112693571D01*
X224190000Y-112765000D01*
X224047142Y-112907857D01*
X223975714Y-113050714D01*
X223904285Y-113336429D01*
X223904285Y-113550714D01*
X223975714Y-113836429D01*
X224047142Y-113979286D01*
X224190000Y-114122143D01*
X224404285Y-114193571D01*
X224547142Y-114193571D01*
X224761428Y-114122143D01*
X224832857Y-114050714D01*
X224832857Y-113550714D01*
X224547142Y-113550714D01*
X227118571Y-113407857D02*
X226618571Y-113407857D01*
X226618571Y-114193571D02*
X226618571Y-112693571D01*
X227332857Y-112693571D01*
X227904285Y-114193571D02*
X227904285Y-112693571D01*
X228618571Y-114193571D02*
X228618571Y-112693571D01*
X229475714Y-114193571D01*
X229475714Y-112693571D01*
X230190000Y-114193571D02*
X230190000Y-112693571D01*
X230832857Y-114122143D02*
X231047143Y-114193571D01*
X231404286Y-114193571D01*
X231547143Y-114122143D01*
X231618572Y-114050714D01*
X231690000Y-113907857D01*
X231690000Y-113765000D01*
X231618572Y-113622143D01*
X231547143Y-113550714D01*
X231404286Y-113479286D01*
X231118572Y-113407857D01*
X230975714Y-113336429D01*
X230904286Y-113265000D01*
X230832857Y-113122143D01*
X230832857Y-112979286D01*
X230904286Y-112836429D01*
X230975714Y-112765000D01*
X231118572Y-112693571D01*
X231475714Y-112693571D01*
X231690000Y-112765000D01*
X232332857Y-114193571D02*
X232332857Y-112693571D01*
X232332857Y-113407857D02*
X233190000Y-113407857D01*
X233190000Y-114193571D02*
X233190000Y-112693571D01*
X147261429Y-115243571D02*
X146547143Y-115243571D01*
X146475714Y-115957857D01*
X146547143Y-115886429D01*
X146690000Y-115815000D01*
X147047143Y-115815000D01*
X147190000Y-115886429D01*
X147261429Y-115957857D01*
X147332857Y-116100714D01*
X147332857Y-116457857D01*
X147261429Y-116600714D01*
X147190000Y-116672143D01*
X147047143Y-116743571D01*
X146690000Y-116743571D01*
X146547143Y-116672143D01*
X146475714Y-116600714D01*
X147975714Y-116600714D02*
X148047142Y-116672143D01*
X147975714Y-116743571D01*
X147904285Y-116672143D01*
X147975714Y-116600714D01*
X147975714Y-116743571D01*
X149832857Y-116743571D02*
X149832857Y-115243571D01*
X150332857Y-116315000D01*
X150832857Y-115243571D01*
X150832857Y-116743571D01*
X151475714Y-116315000D02*
X152190000Y-116315000D01*
X151332857Y-116743571D02*
X151832857Y-115243571D01*
X152332857Y-116743571D01*
X152618571Y-115243571D02*
X153475714Y-115243571D01*
X153047143Y-116743571D02*
X153047143Y-115243571D01*
X153761428Y-115243571D02*
X154618571Y-115243571D01*
X154190000Y-116743571D02*
X154190000Y-115243571D01*
X155118571Y-115957857D02*
X155618571Y-115957857D01*
X155832857Y-116743571D02*
X155118571Y-116743571D01*
X155118571Y-115243571D01*
X155832857Y-115243571D01*
X158118571Y-115957857D02*
X158332857Y-116029286D01*
X158404285Y-116100714D01*
X158475714Y-116243571D01*
X158475714Y-116457857D01*
X158404285Y-116600714D01*
X158332857Y-116672143D01*
X158189999Y-116743571D01*
X157618571Y-116743571D01*
X157618571Y-115243571D01*
X158118571Y-115243571D01*
X158261428Y-115315000D01*
X158332857Y-115386429D01*
X158404285Y-115529286D01*
X158404285Y-115672143D01*
X158332857Y-115815000D01*
X158261428Y-115886429D01*
X158118571Y-115957857D01*
X157618571Y-115957857D01*
X159832857Y-116743571D02*
X159118571Y-116743571D01*
X159118571Y-115243571D01*
X160261428Y-116315000D02*
X160975714Y-116315000D01*
X160118571Y-116743571D02*
X160618571Y-115243571D01*
X161118571Y-116743571D01*
X162475714Y-116600714D02*
X162404285Y-116672143D01*
X162189999Y-116743571D01*
X162047142Y-116743571D01*
X161832857Y-116672143D01*
X161689999Y-116529286D01*
X161618571Y-116386429D01*
X161547142Y-116100714D01*
X161547142Y-115886429D01*
X161618571Y-115600714D01*
X161689999Y-115457857D01*
X161832857Y-115315000D01*
X162047142Y-115243571D01*
X162189999Y-115243571D01*
X162404285Y-115315000D01*
X162475714Y-115386429D01*
X163118571Y-116743571D02*
X163118571Y-115243571D01*
X163975714Y-116743571D02*
X163332857Y-115886429D01*
X163975714Y-115243571D02*
X163118571Y-116100714D01*
X165689999Y-116672143D02*
X165904285Y-116743571D01*
X166261428Y-116743571D01*
X166404285Y-116672143D01*
X166475714Y-116600714D01*
X166547142Y-116457857D01*
X166547142Y-116315000D01*
X166475714Y-116172143D01*
X166404285Y-116100714D01*
X166261428Y-116029286D01*
X165975714Y-115957857D01*
X165832856Y-115886429D01*
X165761428Y-115815000D01*
X165689999Y-115672143D01*
X165689999Y-115529286D01*
X165761428Y-115386429D01*
X165832856Y-115315000D01*
X165975714Y-115243571D01*
X166332856Y-115243571D01*
X166547142Y-115315000D01*
X167475713Y-115243571D02*
X167761427Y-115243571D01*
X167904285Y-115315000D01*
X168047142Y-115457857D01*
X168118570Y-115743571D01*
X168118570Y-116243571D01*
X168047142Y-116529286D01*
X167904285Y-116672143D01*
X167761427Y-116743571D01*
X167475713Y-116743571D01*
X167332856Y-116672143D01*
X167189999Y-116529286D01*
X167118570Y-116243571D01*
X167118570Y-115743571D01*
X167189999Y-115457857D01*
X167332856Y-115315000D01*
X167475713Y-115243571D01*
X169475714Y-116743571D02*
X168761428Y-116743571D01*
X168761428Y-115243571D01*
X169975714Y-116743571D02*
X169975714Y-115243571D01*
X170332857Y-115243571D01*
X170547142Y-115315000D01*
X170690000Y-115457857D01*
X170761428Y-115600714D01*
X170832857Y-115886429D01*
X170832857Y-116100714D01*
X170761428Y-116386429D01*
X170690000Y-116529286D01*
X170547142Y-116672143D01*
X170332857Y-116743571D01*
X169975714Y-116743571D01*
X171475714Y-115957857D02*
X171975714Y-115957857D01*
X172190000Y-116743571D02*
X171475714Y-116743571D01*
X171475714Y-115243571D01*
X172190000Y-115243571D01*
X173690000Y-116743571D02*
X173190000Y-116029286D01*
X172832857Y-116743571D02*
X172832857Y-115243571D01*
X173404285Y-115243571D01*
X173547143Y-115315000D01*
X173618571Y-115386429D01*
X173690000Y-115529286D01*
X173690000Y-115743571D01*
X173618571Y-115886429D01*
X173547143Y-115957857D01*
X173404285Y-116029286D01*
X172832857Y-116029286D01*
X175475714Y-116743571D02*
X175475714Y-115243571D01*
X175975714Y-116315000D01*
X176475714Y-115243571D01*
X176475714Y-116743571D01*
X177118571Y-116315000D02*
X177832857Y-116315000D01*
X176975714Y-116743571D02*
X177475714Y-115243571D01*
X177975714Y-116743571D01*
X178404285Y-116672143D02*
X178618571Y-116743571D01*
X178975714Y-116743571D01*
X179118571Y-116672143D01*
X179190000Y-116600714D01*
X179261428Y-116457857D01*
X179261428Y-116315000D01*
X179190000Y-116172143D01*
X179118571Y-116100714D01*
X178975714Y-116029286D01*
X178690000Y-115957857D01*
X178547142Y-115886429D01*
X178475714Y-115815000D01*
X178404285Y-115672143D01*
X178404285Y-115529286D01*
X178475714Y-115386429D01*
X178547142Y-115315000D01*
X178690000Y-115243571D01*
X179047142Y-115243571D01*
X179261428Y-115315000D01*
X179904285Y-116743571D02*
X179904285Y-115243571D01*
X180761428Y-116743571D02*
X180118571Y-115886429D01*
X180761428Y-115243571D02*
X179904285Y-116100714D01*
X182404285Y-115243571D02*
X182761428Y-116743571D01*
X183047142Y-115672143D01*
X183332856Y-116743571D01*
X183689999Y-115243571D01*
X184261428Y-116743571D02*
X184261428Y-115243571D01*
X184761428Y-115243571D02*
X185618571Y-115243571D01*
X185190000Y-116743571D02*
X185190000Y-115243571D01*
X186118571Y-116743571D02*
X186118571Y-115243571D01*
X186118571Y-115957857D02*
X186975714Y-115957857D01*
X186975714Y-116743571D02*
X186975714Y-115243571D01*
X188690000Y-115243571D02*
X189047143Y-116743571D01*
X189332857Y-115672143D01*
X189618571Y-116743571D01*
X189975714Y-115243571D01*
X190547143Y-116743571D02*
X190547143Y-115243571D01*
X190547143Y-115957857D02*
X191404286Y-115957857D01*
X191404286Y-116743571D02*
X191404286Y-115243571D01*
X192118572Y-116743571D02*
X192118572Y-115243571D01*
X192618572Y-115243571D02*
X193475715Y-115243571D01*
X193047144Y-116743571D02*
X193047144Y-115243571D01*
X193975715Y-115957857D02*
X194475715Y-115957857D01*
X194690001Y-116743571D02*
X193975715Y-116743571D01*
X193975715Y-115243571D01*
X194690001Y-115243571D01*
X196404286Y-116672143D02*
X196618572Y-116743571D01*
X196975715Y-116743571D01*
X197118572Y-116672143D01*
X197190001Y-116600714D01*
X197261429Y-116457857D01*
X197261429Y-116315000D01*
X197190001Y-116172143D01*
X197118572Y-116100714D01*
X196975715Y-116029286D01*
X196690001Y-115957857D01*
X196547143Y-115886429D01*
X196475715Y-115815000D01*
X196404286Y-115672143D01*
X196404286Y-115529286D01*
X196475715Y-115386429D01*
X196547143Y-115315000D01*
X196690001Y-115243571D01*
X197047143Y-115243571D01*
X197261429Y-115315000D01*
X197904286Y-116743571D02*
X197904286Y-115243571D01*
X199332858Y-116743571D02*
X198618572Y-116743571D01*
X198618572Y-115243571D01*
X199832858Y-116743571D02*
X199832858Y-115243571D01*
X200690001Y-116743571D02*
X200047144Y-115886429D01*
X200690001Y-115243571D02*
X199832858Y-116100714D01*
X201261429Y-116672143D02*
X201475715Y-116743571D01*
X201832858Y-116743571D01*
X201975715Y-116672143D01*
X202047144Y-116600714D01*
X202118572Y-116457857D01*
X202118572Y-116315000D01*
X202047144Y-116172143D01*
X201975715Y-116100714D01*
X201832858Y-116029286D01*
X201547144Y-115957857D01*
X201404286Y-115886429D01*
X201332858Y-115815000D01*
X201261429Y-115672143D01*
X201261429Y-115529286D01*
X201332858Y-115386429D01*
X201404286Y-115315000D01*
X201547144Y-115243571D01*
X201904286Y-115243571D01*
X202118572Y-115315000D01*
X203618572Y-116600714D02*
X203547143Y-116672143D01*
X203332857Y-116743571D01*
X203190000Y-116743571D01*
X202975715Y-116672143D01*
X202832857Y-116529286D01*
X202761429Y-116386429D01*
X202690000Y-116100714D01*
X202690000Y-115886429D01*
X202761429Y-115600714D01*
X202832857Y-115457857D01*
X202975715Y-115315000D01*
X203190000Y-115243571D01*
X203332857Y-115243571D01*
X203547143Y-115315000D01*
X203618572Y-115386429D01*
X205118572Y-116743571D02*
X204618572Y-116029286D01*
X204261429Y-116743571D02*
X204261429Y-115243571D01*
X204832857Y-115243571D01*
X204975715Y-115315000D01*
X205047143Y-115386429D01*
X205118572Y-115529286D01*
X205118572Y-115743571D01*
X205047143Y-115886429D01*
X204975715Y-115957857D01*
X204832857Y-116029286D01*
X204261429Y-116029286D01*
X205761429Y-115957857D02*
X206261429Y-115957857D01*
X206475715Y-116743571D02*
X205761429Y-116743571D01*
X205761429Y-115243571D01*
X206475715Y-115243571D01*
X207118572Y-115957857D02*
X207618572Y-115957857D01*
X207832858Y-116743571D02*
X207118572Y-116743571D01*
X207118572Y-115243571D01*
X207832858Y-115243571D01*
X208475715Y-116743571D02*
X208475715Y-115243571D01*
X209332858Y-116743571D01*
X209332858Y-115243571D01*
X147190000Y-117793571D02*
X146904286Y-117793571D01*
X146761429Y-117865000D01*
X146690000Y-117936429D01*
X146547143Y-118150714D01*
X146475714Y-118436429D01*
X146475714Y-119007857D01*
X146547143Y-119150714D01*
X146618571Y-119222143D01*
X146761429Y-119293571D01*
X147047143Y-119293571D01*
X147190000Y-119222143D01*
X147261429Y-119150714D01*
X147332857Y-119007857D01*
X147332857Y-118650714D01*
X147261429Y-118507857D01*
X147190000Y-118436429D01*
X147047143Y-118365000D01*
X146761429Y-118365000D01*
X146618571Y-118436429D01*
X146547143Y-118507857D01*
X146475714Y-118650714D01*
X147975714Y-119150714D02*
X148047142Y-119222143D01*
X147975714Y-119293571D01*
X147904285Y-119222143D01*
X147975714Y-119150714D01*
X147975714Y-119293571D01*
X149761428Y-119222143D02*
X149975714Y-119293571D01*
X150332857Y-119293571D01*
X150475714Y-119222143D01*
X150547143Y-119150714D01*
X150618571Y-119007857D01*
X150618571Y-118865000D01*
X150547143Y-118722143D01*
X150475714Y-118650714D01*
X150332857Y-118579286D01*
X150047143Y-118507857D01*
X149904285Y-118436429D01*
X149832857Y-118365000D01*
X149761428Y-118222143D01*
X149761428Y-118079286D01*
X149832857Y-117936429D01*
X149904285Y-117865000D01*
X150047143Y-117793571D01*
X150404285Y-117793571D01*
X150618571Y-117865000D01*
X151547142Y-117793571D02*
X151832856Y-117793571D01*
X151975714Y-117865000D01*
X152118571Y-118007857D01*
X152189999Y-118293571D01*
X152189999Y-118793571D01*
X152118571Y-119079286D01*
X151975714Y-119222143D01*
X151832856Y-119293571D01*
X151547142Y-119293571D01*
X151404285Y-119222143D01*
X151261428Y-119079286D01*
X151189999Y-118793571D01*
X151189999Y-118293571D01*
X151261428Y-118007857D01*
X151404285Y-117865000D01*
X151547142Y-117793571D01*
X153547143Y-119293571D02*
X152832857Y-119293571D01*
X152832857Y-117793571D01*
X154047143Y-119293571D02*
X154047143Y-117793571D01*
X154404286Y-117793571D01*
X154618571Y-117865000D01*
X154761429Y-118007857D01*
X154832857Y-118150714D01*
X154904286Y-118436429D01*
X154904286Y-118650714D01*
X154832857Y-118936429D01*
X154761429Y-119079286D01*
X154618571Y-119222143D01*
X154404286Y-119293571D01*
X154047143Y-119293571D01*
X155547143Y-118507857D02*
X156047143Y-118507857D01*
X156261429Y-119293571D02*
X155547143Y-119293571D01*
X155547143Y-117793571D01*
X156261429Y-117793571D01*
X157761429Y-119293571D02*
X157261429Y-118579286D01*
X156904286Y-119293571D02*
X156904286Y-117793571D01*
X157475714Y-117793571D01*
X157618572Y-117865000D01*
X157690000Y-117936429D01*
X157761429Y-118079286D01*
X157761429Y-118293571D01*
X157690000Y-118436429D01*
X157618572Y-118507857D01*
X157475714Y-118579286D01*
X156904286Y-118579286D01*
X159547143Y-119293571D02*
X159547143Y-117793571D01*
X160118571Y-117793571D01*
X160261429Y-117865000D01*
X160332857Y-117936429D01*
X160404286Y-118079286D01*
X160404286Y-118293571D01*
X160332857Y-118436429D01*
X160261429Y-118507857D01*
X160118571Y-118579286D01*
X159547143Y-118579286D01*
X160975714Y-118865000D02*
X161690000Y-118865000D01*
X160832857Y-119293571D02*
X161332857Y-117793571D01*
X161832857Y-119293571D01*
X162261428Y-119222143D02*
X162475714Y-119293571D01*
X162832857Y-119293571D01*
X162975714Y-119222143D01*
X163047143Y-119150714D01*
X163118571Y-119007857D01*
X163118571Y-118865000D01*
X163047143Y-118722143D01*
X162975714Y-118650714D01*
X162832857Y-118579286D01*
X162547143Y-118507857D01*
X162404285Y-118436429D01*
X162332857Y-118365000D01*
X162261428Y-118222143D01*
X162261428Y-118079286D01*
X162332857Y-117936429D01*
X162404285Y-117865000D01*
X162547143Y-117793571D01*
X162904285Y-117793571D01*
X163118571Y-117865000D01*
X163547142Y-117793571D02*
X164404285Y-117793571D01*
X163975714Y-119293571D02*
X163975714Y-117793571D01*
X164904285Y-118507857D02*
X165404285Y-118507857D01*
X165618571Y-119293571D02*
X164904285Y-119293571D01*
X164904285Y-117793571D01*
X165618571Y-117793571D01*
X167404285Y-119293571D02*
X167404285Y-117793571D01*
X167904285Y-118865000D01*
X168404285Y-117793571D01*
X168404285Y-119293571D01*
X169118571Y-117793571D02*
X169118571Y-119007857D01*
X169189999Y-119150714D01*
X169261428Y-119222143D01*
X169404285Y-119293571D01*
X169689999Y-119293571D01*
X169832857Y-119222143D01*
X169904285Y-119150714D01*
X169975714Y-119007857D01*
X169975714Y-117793571D01*
X170618571Y-119222143D02*
X170832857Y-119293571D01*
X171190000Y-119293571D01*
X171332857Y-119222143D01*
X171404286Y-119150714D01*
X171475714Y-119007857D01*
X171475714Y-118865000D01*
X171404286Y-118722143D01*
X171332857Y-118650714D01*
X171190000Y-118579286D01*
X170904286Y-118507857D01*
X170761428Y-118436429D01*
X170690000Y-118365000D01*
X170618571Y-118222143D01*
X170618571Y-118079286D01*
X170690000Y-117936429D01*
X170761428Y-117865000D01*
X170904286Y-117793571D01*
X171261428Y-117793571D01*
X171475714Y-117865000D01*
X171904285Y-117793571D02*
X172761428Y-117793571D01*
X172332857Y-119293571D02*
X172332857Y-117793571D01*
X174904285Y-118507857D02*
X175118571Y-118579286D01*
X175189999Y-118650714D01*
X175261428Y-118793571D01*
X175261428Y-119007857D01*
X175189999Y-119150714D01*
X175118571Y-119222143D01*
X174975713Y-119293571D01*
X174404285Y-119293571D01*
X174404285Y-117793571D01*
X174904285Y-117793571D01*
X175047142Y-117865000D01*
X175118571Y-117936429D01*
X175189999Y-118079286D01*
X175189999Y-118222143D01*
X175118571Y-118365000D01*
X175047142Y-118436429D01*
X174904285Y-118507857D01*
X174404285Y-118507857D01*
X175904285Y-118507857D02*
X176404285Y-118507857D01*
X176618571Y-119293571D02*
X175904285Y-119293571D01*
X175904285Y-117793571D01*
X176618571Y-117793571D01*
X179261428Y-119293571D02*
X178761428Y-118579286D01*
X178404285Y-119293571D02*
X178404285Y-117793571D01*
X178975713Y-117793571D01*
X179118571Y-117865000D01*
X179189999Y-117936429D01*
X179261428Y-118079286D01*
X179261428Y-118293571D01*
X179189999Y-118436429D01*
X179118571Y-118507857D01*
X178975713Y-118579286D01*
X178404285Y-118579286D01*
X180189999Y-117793571D02*
X180475713Y-117793571D01*
X180618571Y-117865000D01*
X180761428Y-118007857D01*
X180832856Y-118293571D01*
X180832856Y-118793571D01*
X180761428Y-119079286D01*
X180618571Y-119222143D01*
X180475713Y-119293571D01*
X180189999Y-119293571D01*
X180047142Y-119222143D01*
X179904285Y-119079286D01*
X179832856Y-118793571D01*
X179832856Y-118293571D01*
X179904285Y-118007857D01*
X180047142Y-117865000D01*
X180189999Y-117793571D01*
X181475714Y-119293571D02*
X181475714Y-117793571D01*
X181475714Y-118507857D02*
X182332857Y-118507857D01*
X182332857Y-119293571D02*
X182332857Y-117793571D01*
X182975714Y-119222143D02*
X183190000Y-119293571D01*
X183547143Y-119293571D01*
X183690000Y-119222143D01*
X183761429Y-119150714D01*
X183832857Y-119007857D01*
X183832857Y-118865000D01*
X183761429Y-118722143D01*
X183690000Y-118650714D01*
X183547143Y-118579286D01*
X183261429Y-118507857D01*
X183118571Y-118436429D01*
X183047143Y-118365000D01*
X182975714Y-118222143D01*
X182975714Y-118079286D01*
X183047143Y-117936429D01*
X183118571Y-117865000D01*
X183261429Y-117793571D01*
X183618571Y-117793571D01*
X183832857Y-117865000D01*
X186475714Y-119150714D02*
X186404285Y-119222143D01*
X186189999Y-119293571D01*
X186047142Y-119293571D01*
X185832857Y-119222143D01*
X185689999Y-119079286D01*
X185618571Y-118936429D01*
X185547142Y-118650714D01*
X185547142Y-118436429D01*
X185618571Y-118150714D01*
X185689999Y-118007857D01*
X185832857Y-117865000D01*
X186047142Y-117793571D01*
X186189999Y-117793571D01*
X186404285Y-117865000D01*
X186475714Y-117936429D01*
X187404285Y-117793571D02*
X187689999Y-117793571D01*
X187832857Y-117865000D01*
X187975714Y-118007857D01*
X188047142Y-118293571D01*
X188047142Y-118793571D01*
X187975714Y-119079286D01*
X187832857Y-119222143D01*
X187689999Y-119293571D01*
X187404285Y-119293571D01*
X187261428Y-119222143D01*
X187118571Y-119079286D01*
X187047142Y-118793571D01*
X187047142Y-118293571D01*
X187118571Y-118007857D01*
X187261428Y-117865000D01*
X187404285Y-117793571D01*
X188690000Y-119293571D02*
X188690000Y-117793571D01*
X189190000Y-118865000D01*
X189690000Y-117793571D01*
X189690000Y-119293571D01*
X190404286Y-119293571D02*
X190404286Y-117793571D01*
X190975714Y-117793571D01*
X191118572Y-117865000D01*
X191190000Y-117936429D01*
X191261429Y-118079286D01*
X191261429Y-118293571D01*
X191190000Y-118436429D01*
X191118572Y-118507857D01*
X190975714Y-118579286D01*
X190404286Y-118579286D01*
X192618572Y-119293571D02*
X191904286Y-119293571D01*
X191904286Y-117793571D01*
X193118572Y-119293571D02*
X193118572Y-117793571D01*
X193761429Y-118865000D02*
X194475715Y-118865000D01*
X193618572Y-119293571D02*
X194118572Y-117793571D01*
X194618572Y-119293571D01*
X195118572Y-119293571D02*
X195118572Y-117793571D01*
X195975715Y-119293571D01*
X195975715Y-117793571D01*
X196475715Y-117793571D02*
X197332858Y-117793571D01*
X196904287Y-119293571D02*
X196904287Y-117793571D01*
X199404286Y-119865000D02*
X199332858Y-119793571D01*
X199190001Y-119579286D01*
X199118572Y-119436429D01*
X199047143Y-119222143D01*
X198975715Y-118865000D01*
X198975715Y-118579286D01*
X199047143Y-118222143D01*
X199118572Y-118007857D01*
X199190001Y-117865000D01*
X199332858Y-117650714D01*
X199404286Y-117579286D01*
X200690001Y-119293571D02*
X199975715Y-119293571D01*
X199975715Y-117793571D01*
X201190001Y-118507857D02*
X201690001Y-118507857D01*
X201904287Y-119293571D02*
X201190001Y-119293571D01*
X201190001Y-117793571D01*
X201904287Y-117793571D01*
X202475715Y-118865000D02*
X203190001Y-118865000D01*
X202332858Y-119293571D02*
X202832858Y-117793571D01*
X203332858Y-119293571D01*
X203832858Y-119293571D02*
X203832858Y-117793571D01*
X204190001Y-117793571D01*
X204404286Y-117865000D01*
X204547144Y-118007857D01*
X204618572Y-118150714D01*
X204690001Y-118436429D01*
X204690001Y-118650714D01*
X204618572Y-118936429D01*
X204547144Y-119079286D01*
X204404286Y-119222143D01*
X204190001Y-119293571D01*
X203832858Y-119293571D01*
X205332858Y-118722143D02*
X206475715Y-118722143D01*
X207690001Y-118507857D02*
X207190001Y-118507857D01*
X207190001Y-119293571D02*
X207190001Y-117793571D01*
X207904287Y-117793571D01*
X209332858Y-119293571D02*
X208832858Y-118579286D01*
X208475715Y-119293571D02*
X208475715Y-117793571D01*
X209047143Y-117793571D01*
X209190001Y-117865000D01*
X209261429Y-117936429D01*
X209332858Y-118079286D01*
X209332858Y-118293571D01*
X209261429Y-118436429D01*
X209190001Y-118507857D01*
X209047143Y-118579286D01*
X208475715Y-118579286D01*
X209975715Y-118507857D02*
X210475715Y-118507857D01*
X210690001Y-119293571D02*
X209975715Y-119293571D01*
X209975715Y-117793571D01*
X210690001Y-117793571D01*
X211332858Y-118507857D02*
X211832858Y-118507857D01*
X212047144Y-119293571D02*
X211332858Y-119293571D01*
X211332858Y-117793571D01*
X212047144Y-117793571D01*
X212547144Y-119865000D02*
X212618572Y-119793571D01*
X212761429Y-119579286D01*
X212832858Y-119436429D01*
X212904287Y-119222143D01*
X212975715Y-118865000D01*
X212975715Y-118579286D01*
X212904287Y-118222143D01*
X212832858Y-118007857D01*
X212761429Y-117865000D01*
X212618572Y-117650714D01*
X212547144Y-117579286D01*
X146404286Y-120343571D02*
X147404286Y-120343571D01*
X146761429Y-121843571D01*
X147975714Y-121700714D02*
X148047142Y-121772143D01*
X147975714Y-121843571D01*
X147904285Y-121772143D01*
X147975714Y-121700714D01*
X147975714Y-121843571D01*
X149832857Y-121843571D02*
X149832857Y-120343571D01*
X150690000Y-121843571D01*
X150690000Y-120343571D01*
X151690000Y-120343571D02*
X151975714Y-120343571D01*
X152118572Y-120415000D01*
X152261429Y-120557857D01*
X152332857Y-120843571D01*
X152332857Y-121343571D01*
X152261429Y-121629286D01*
X152118572Y-121772143D01*
X151975714Y-121843571D01*
X151690000Y-121843571D01*
X151547143Y-121772143D01*
X151404286Y-121629286D01*
X151332857Y-121343571D01*
X151332857Y-120843571D01*
X151404286Y-120557857D01*
X151547143Y-120415000D01*
X151690000Y-120343571D01*
X154118572Y-121843571D02*
X154118572Y-120343571D01*
X154618572Y-121415000D01*
X155118572Y-120343571D01*
X155118572Y-121843571D01*
X155761429Y-121415000D02*
X156475715Y-121415000D01*
X155618572Y-121843571D02*
X156118572Y-120343571D01*
X156618572Y-121843571D01*
X157975715Y-121843571D02*
X157475715Y-121129286D01*
X157118572Y-121843571D02*
X157118572Y-120343571D01*
X157690000Y-120343571D01*
X157832858Y-120415000D01*
X157904286Y-120486429D01*
X157975715Y-120629286D01*
X157975715Y-120843571D01*
X157904286Y-120986429D01*
X157832858Y-121057857D01*
X157690000Y-121129286D01*
X157118572Y-121129286D01*
X158618572Y-121843571D02*
X158618572Y-120343571D01*
X159475715Y-121843571D02*
X158832858Y-120986429D01*
X159475715Y-120343571D02*
X158618572Y-121200714D01*
X160047143Y-121772143D02*
X160261429Y-121843571D01*
X160618572Y-121843571D01*
X160761429Y-121772143D01*
X160832858Y-121700714D01*
X160904286Y-121557857D01*
X160904286Y-121415000D01*
X160832858Y-121272143D01*
X160761429Y-121200714D01*
X160618572Y-121129286D01*
X160332858Y-121057857D01*
X160190000Y-120986429D01*
X160118572Y-120915000D01*
X160047143Y-120772143D01*
X160047143Y-120629286D01*
X160118572Y-120486429D01*
X160190000Y-120415000D01*
X160332858Y-120343571D01*
X160690000Y-120343571D01*
X160904286Y-120415000D01*
X163118571Y-122415000D02*
X163047143Y-122343571D01*
X162904286Y-122129286D01*
X162832857Y-121986429D01*
X162761428Y-121772143D01*
X162690000Y-121415000D01*
X162690000Y-121129286D01*
X162761428Y-120772143D01*
X162832857Y-120557857D01*
X162904286Y-120415000D01*
X163047143Y-120200714D01*
X163118571Y-120129286D01*
X163690000Y-121057857D02*
X164190000Y-121057857D01*
X164404286Y-121843571D02*
X163690000Y-121843571D01*
X163690000Y-120343571D01*
X164404286Y-120343571D01*
X165047143Y-121272143D02*
X166190000Y-121272143D01*
X166690000Y-120343571D02*
X167547143Y-120343571D01*
X167118572Y-121843571D02*
X167118572Y-120343571D01*
X168047143Y-121057857D02*
X168547143Y-121057857D01*
X168761429Y-121843571D02*
X168047143Y-121843571D01*
X168047143Y-120343571D01*
X168761429Y-120343571D01*
X169332857Y-121772143D02*
X169547143Y-121843571D01*
X169904286Y-121843571D01*
X170047143Y-121772143D01*
X170118572Y-121700714D01*
X170190000Y-121557857D01*
X170190000Y-121415000D01*
X170118572Y-121272143D01*
X170047143Y-121200714D01*
X169904286Y-121129286D01*
X169618572Y-121057857D01*
X169475714Y-120986429D01*
X169404286Y-120915000D01*
X169332857Y-120772143D01*
X169332857Y-120629286D01*
X169404286Y-120486429D01*
X169475714Y-120415000D01*
X169618572Y-120343571D01*
X169975714Y-120343571D01*
X170190000Y-120415000D01*
X170618571Y-120343571D02*
X171475714Y-120343571D01*
X171047143Y-121843571D02*
X171047143Y-120343571D01*
X172047142Y-121772143D02*
X172047142Y-121843571D01*
X171975714Y-121986429D01*
X171904285Y-122057857D01*
X174832857Y-121986429D02*
X174690000Y-121915000D01*
X174547143Y-121772143D01*
X174332857Y-121557857D01*
X174190000Y-121486429D01*
X174047143Y-121486429D01*
X174118571Y-121843571D02*
X173975714Y-121772143D01*
X173832857Y-121629286D01*
X173761428Y-121343571D01*
X173761428Y-120843571D01*
X173832857Y-120557857D01*
X173975714Y-120415000D01*
X174118571Y-120343571D01*
X174404285Y-120343571D01*
X174547143Y-120415000D01*
X174690000Y-120557857D01*
X174761428Y-120843571D01*
X174761428Y-121343571D01*
X174690000Y-121629286D01*
X174547143Y-121772143D01*
X174404285Y-121843571D01*
X174118571Y-121843571D01*
X175332857Y-121415000D02*
X176047143Y-121415000D01*
X175190000Y-121843571D02*
X175690000Y-120343571D01*
X176190000Y-121843571D01*
X176761428Y-121772143D02*
X176761428Y-121843571D01*
X176690000Y-121986429D01*
X176618571Y-122057857D01*
X178475714Y-121772143D02*
X178690000Y-121843571D01*
X179047143Y-121843571D01*
X179190000Y-121772143D01*
X179261429Y-121700714D01*
X179332857Y-121557857D01*
X179332857Y-121415000D01*
X179261429Y-121272143D01*
X179190000Y-121200714D01*
X179047143Y-121129286D01*
X178761429Y-121057857D01*
X178618571Y-120986429D01*
X178547143Y-120915000D01*
X178475714Y-120772143D01*
X178475714Y-120629286D01*
X178547143Y-120486429D01*
X178618571Y-120415000D01*
X178761429Y-120343571D01*
X179118571Y-120343571D01*
X179332857Y-120415000D01*
X179975714Y-121057857D02*
X180475714Y-121057857D01*
X180690000Y-121843571D02*
X179975714Y-121843571D01*
X179975714Y-120343571D01*
X180690000Y-120343571D01*
X182190000Y-121843571D02*
X181690000Y-121129286D01*
X181332857Y-121843571D02*
X181332857Y-120343571D01*
X181904285Y-120343571D01*
X182047143Y-120415000D01*
X182118571Y-120486429D01*
X182190000Y-120629286D01*
X182190000Y-120843571D01*
X182118571Y-120986429D01*
X182047143Y-121057857D01*
X181904285Y-121129286D01*
X181332857Y-121129286D01*
X182832857Y-121843571D02*
X182832857Y-120343571D01*
X183475714Y-121415000D02*
X184190000Y-121415000D01*
X183332857Y-121843571D02*
X183832857Y-120343571D01*
X184332857Y-121843571D01*
X185547143Y-121843571D02*
X184832857Y-121843571D01*
X184832857Y-120343571D01*
X187190000Y-121843571D02*
X187190000Y-120343571D01*
X188047143Y-121843571D01*
X188047143Y-120343571D01*
X188761429Y-120343571D02*
X188761429Y-121557857D01*
X188832857Y-121700714D01*
X188904286Y-121772143D01*
X189047143Y-121843571D01*
X189332857Y-121843571D01*
X189475715Y-121772143D01*
X189547143Y-121700714D01*
X189618572Y-121557857D01*
X189618572Y-120343571D01*
X190332858Y-121843571D02*
X190332858Y-120343571D01*
X190832858Y-121415000D01*
X191332858Y-120343571D01*
X191332858Y-121843571D01*
X192547144Y-121057857D02*
X192761430Y-121129286D01*
X192832858Y-121200714D01*
X192904287Y-121343571D01*
X192904287Y-121557857D01*
X192832858Y-121700714D01*
X192761430Y-121772143D01*
X192618572Y-121843571D01*
X192047144Y-121843571D01*
X192047144Y-120343571D01*
X192547144Y-120343571D01*
X192690001Y-120415000D01*
X192761430Y-120486429D01*
X192832858Y-120629286D01*
X192832858Y-120772143D01*
X192761430Y-120915000D01*
X192690001Y-120986429D01*
X192547144Y-121057857D01*
X192047144Y-121057857D01*
X193547144Y-121057857D02*
X194047144Y-121057857D01*
X194261430Y-121843571D02*
X193547144Y-121843571D01*
X193547144Y-120343571D01*
X194261430Y-120343571D01*
X195761430Y-121843571D02*
X195261430Y-121129286D01*
X194904287Y-121843571D02*
X194904287Y-120343571D01*
X195475715Y-120343571D01*
X195618573Y-120415000D01*
X195690001Y-120486429D01*
X195761430Y-120629286D01*
X195761430Y-120843571D01*
X195690001Y-120986429D01*
X195618573Y-121057857D01*
X195475715Y-121129286D01*
X194904287Y-121129286D01*
X196475715Y-121772143D02*
X196475715Y-121843571D01*
X196404287Y-121986429D01*
X196332858Y-122057857D01*
X198261430Y-121057857D02*
X198761430Y-121057857D01*
X198975716Y-121843571D02*
X198261430Y-121843571D01*
X198261430Y-120343571D01*
X198975716Y-120343571D01*
X199404287Y-120343571D02*
X200261430Y-120343571D01*
X199832859Y-121843571D02*
X199832859Y-120343571D01*
X201618573Y-121700714D02*
X201547144Y-121772143D01*
X201332858Y-121843571D01*
X201190001Y-121843571D01*
X200975716Y-121772143D01*
X200832858Y-121629286D01*
X200761430Y-121486429D01*
X200690001Y-121200714D01*
X200690001Y-120986429D01*
X200761430Y-120700714D01*
X200832858Y-120557857D01*
X200975716Y-120415000D01*
X201190001Y-120343571D01*
X201332858Y-120343571D01*
X201547144Y-120415000D01*
X201618573Y-120486429D01*
X202118573Y-122415000D02*
X202190001Y-122343571D01*
X202332858Y-122129286D01*
X202404287Y-121986429D01*
X202475716Y-121772143D01*
X202547144Y-121415000D01*
X202547144Y-121129286D01*
X202475716Y-120772143D01*
X202404287Y-120557857D01*
X202332858Y-120415000D01*
X202190001Y-120200714D01*
X202118573Y-120129286D01*
X204690001Y-120343571D02*
X204975715Y-120343571D01*
X205118573Y-120415000D01*
X205261430Y-120557857D01*
X205332858Y-120843571D01*
X205332858Y-121343571D01*
X205261430Y-121629286D01*
X205118573Y-121772143D01*
X204975715Y-121843571D01*
X204690001Y-121843571D01*
X204547144Y-121772143D01*
X204404287Y-121629286D01*
X204332858Y-121343571D01*
X204332858Y-120843571D01*
X204404287Y-120557857D01*
X204547144Y-120415000D01*
X204690001Y-120343571D01*
X205975716Y-121843571D02*
X205975716Y-120343571D01*
X206832859Y-121843571D01*
X206832859Y-120343571D01*
X209190002Y-121057857D02*
X208690002Y-121057857D01*
X208690002Y-121843571D02*
X208690002Y-120343571D01*
X209404288Y-120343571D01*
X210832859Y-121843571D02*
X210332859Y-121129286D01*
X209975716Y-121843571D02*
X209975716Y-120343571D01*
X210547144Y-120343571D01*
X210690002Y-120415000D01*
X210761430Y-120486429D01*
X210832859Y-120629286D01*
X210832859Y-120843571D01*
X210761430Y-120986429D01*
X210690002Y-121057857D01*
X210547144Y-121129286D01*
X209975716Y-121129286D01*
X211761430Y-120343571D02*
X212047144Y-120343571D01*
X212190002Y-120415000D01*
X212332859Y-120557857D01*
X212404287Y-120843571D01*
X212404287Y-121343571D01*
X212332859Y-121629286D01*
X212190002Y-121772143D01*
X212047144Y-121843571D01*
X211761430Y-121843571D01*
X211618573Y-121772143D01*
X211475716Y-121629286D01*
X211404287Y-121343571D01*
X211404287Y-120843571D01*
X211475716Y-120557857D01*
X211618573Y-120415000D01*
X211761430Y-120343571D01*
X213047145Y-121843571D02*
X213047145Y-120343571D01*
X213904288Y-121843571D01*
X213904288Y-120343571D01*
X214404288Y-120343571D02*
X215261431Y-120343571D01*
X214832860Y-121843571D02*
X214832860Y-120343571D01*
X217332859Y-122415000D02*
X217261431Y-122343571D01*
X217118574Y-122129286D01*
X217047145Y-121986429D01*
X216975716Y-121772143D01*
X216904288Y-121415000D01*
X216904288Y-121129286D01*
X216975716Y-120772143D01*
X217047145Y-120557857D01*
X217118574Y-120415000D01*
X217261431Y-120200714D01*
X217332859Y-120129286D01*
X218618574Y-121843571D02*
X217904288Y-121843571D01*
X217904288Y-120343571D01*
X219404288Y-120343571D02*
X219690002Y-120343571D01*
X219832860Y-120415000D01*
X219975717Y-120557857D01*
X220047145Y-120843571D01*
X220047145Y-121343571D01*
X219975717Y-121629286D01*
X219832860Y-121772143D01*
X219690002Y-121843571D01*
X219404288Y-121843571D01*
X219261431Y-121772143D01*
X219118574Y-121629286D01*
X219047145Y-121343571D01*
X219047145Y-120843571D01*
X219118574Y-120557857D01*
X219261431Y-120415000D01*
X219404288Y-120343571D01*
X221475717Y-120415000D02*
X221332860Y-120343571D01*
X221118574Y-120343571D01*
X220904289Y-120415000D01*
X220761431Y-120557857D01*
X220690003Y-120700714D01*
X220618574Y-120986429D01*
X220618574Y-121200714D01*
X220690003Y-121486429D01*
X220761431Y-121629286D01*
X220904289Y-121772143D01*
X221118574Y-121843571D01*
X221261431Y-121843571D01*
X221475717Y-121772143D01*
X221547146Y-121700714D01*
X221547146Y-121200714D01*
X221261431Y-121200714D01*
X222475717Y-120343571D02*
X222761431Y-120343571D01*
X222904289Y-120415000D01*
X223047146Y-120557857D01*
X223118574Y-120843571D01*
X223118574Y-121343571D01*
X223047146Y-121629286D01*
X222904289Y-121772143D01*
X222761431Y-121843571D01*
X222475717Y-121843571D01*
X222332860Y-121772143D01*
X222190003Y-121629286D01*
X222118574Y-121343571D01*
X222118574Y-120843571D01*
X222190003Y-120557857D01*
X222332860Y-120415000D01*
X222475717Y-120343571D01*
X224832860Y-121772143D02*
X225047146Y-121843571D01*
X225404289Y-121843571D01*
X225547146Y-121772143D01*
X225618575Y-121700714D01*
X225690003Y-121557857D01*
X225690003Y-121415000D01*
X225618575Y-121272143D01*
X225547146Y-121200714D01*
X225404289Y-121129286D01*
X225118575Y-121057857D01*
X224975717Y-120986429D01*
X224904289Y-120915000D01*
X224832860Y-120772143D01*
X224832860Y-120629286D01*
X224904289Y-120486429D01*
X224975717Y-120415000D01*
X225118575Y-120343571D01*
X225475717Y-120343571D01*
X225690003Y-120415000D01*
X226332860Y-121843571D02*
X226332860Y-120343571D01*
X227047146Y-121843571D02*
X227047146Y-120343571D01*
X227404289Y-120343571D01*
X227618574Y-120415000D01*
X227761432Y-120557857D01*
X227832860Y-120700714D01*
X227904289Y-120986429D01*
X227904289Y-121200714D01*
X227832860Y-121486429D01*
X227761432Y-121629286D01*
X227618574Y-121772143D01*
X227404289Y-121843571D01*
X227047146Y-121843571D01*
X228547146Y-121057857D02*
X229047146Y-121057857D01*
X229261432Y-121843571D02*
X228547146Y-121843571D01*
X228547146Y-120343571D01*
X229261432Y-120343571D01*
X229761432Y-122415000D02*
X229832860Y-122343571D01*
X229975717Y-122129286D01*
X230047146Y-121986429D01*
X230118575Y-121772143D01*
X230190003Y-121415000D01*
X230190003Y-121129286D01*
X230118575Y-120772143D01*
X230047146Y-120557857D01*
X229975717Y-120415000D01*
X229832860Y-120200714D01*
X229761432Y-120129286D01*
X232332860Y-120343571D02*
X232618574Y-120343571D01*
X232761432Y-120415000D01*
X232904289Y-120557857D01*
X232975717Y-120843571D01*
X232975717Y-121343571D01*
X232904289Y-121629286D01*
X232761432Y-121772143D01*
X232618574Y-121843571D01*
X232332860Y-121843571D01*
X232190003Y-121772143D01*
X232047146Y-121629286D01*
X231975717Y-121343571D01*
X231975717Y-120843571D01*
X232047146Y-120557857D01*
X232190003Y-120415000D01*
X232332860Y-120343571D01*
X234118575Y-121057857D02*
X233618575Y-121057857D01*
X233618575Y-121843571D02*
X233618575Y-120343571D01*
X234332861Y-120343571D01*
X236547146Y-121057857D02*
X236761432Y-121129286D01*
X236832860Y-121200714D01*
X236904289Y-121343571D01*
X236904289Y-121557857D01*
X236832860Y-121700714D01*
X236761432Y-121772143D01*
X236618574Y-121843571D01*
X236047146Y-121843571D01*
X236047146Y-120343571D01*
X236547146Y-120343571D01*
X236690003Y-120415000D01*
X236761432Y-120486429D01*
X236832860Y-120629286D01*
X236832860Y-120772143D01*
X236761432Y-120915000D01*
X236690003Y-120986429D01*
X236547146Y-121057857D01*
X236047146Y-121057857D01*
X237832860Y-120343571D02*
X238118574Y-120343571D01*
X238261432Y-120415000D01*
X238404289Y-120557857D01*
X238475717Y-120843571D01*
X238475717Y-121343571D01*
X238404289Y-121629286D01*
X238261432Y-121772143D01*
X238118574Y-121843571D01*
X237832860Y-121843571D01*
X237690003Y-121772143D01*
X237547146Y-121629286D01*
X237475717Y-121343571D01*
X237475717Y-120843571D01*
X237547146Y-120557857D01*
X237690003Y-120415000D01*
X237832860Y-120343571D01*
X239047146Y-121415000D02*
X239761432Y-121415000D01*
X238904289Y-121843571D02*
X239404289Y-120343571D01*
X239904289Y-121843571D01*
X241261432Y-121843571D02*
X240761432Y-121129286D01*
X240404289Y-121843571D02*
X240404289Y-120343571D01*
X240975717Y-120343571D01*
X241118575Y-120415000D01*
X241190003Y-120486429D01*
X241261432Y-120629286D01*
X241261432Y-120843571D01*
X241190003Y-120986429D01*
X241118575Y-121057857D01*
X240975717Y-121129286D01*
X240404289Y-121129286D01*
X241904289Y-121843571D02*
X241904289Y-120343571D01*
X242261432Y-120343571D01*
X242475717Y-120415000D01*
X242618575Y-120557857D01*
X242690003Y-120700714D01*
X242761432Y-120986429D01*
X242761432Y-121200714D01*
X242690003Y-121486429D01*
X242618575Y-121629286D01*
X242475717Y-121772143D01*
X242261432Y-121843571D01*
X241904289Y-121843571D01*
X146761429Y-123536429D02*
X146618571Y-123465000D01*
X146547143Y-123393571D01*
X146475714Y-123250714D01*
X146475714Y-123179286D01*
X146547143Y-123036429D01*
X146618571Y-122965000D01*
X146761429Y-122893571D01*
X147047143Y-122893571D01*
X147190000Y-122965000D01*
X147261429Y-123036429D01*
X147332857Y-123179286D01*
X147332857Y-123250714D01*
X147261429Y-123393571D01*
X147190000Y-123465000D01*
X147047143Y-123536429D01*
X146761429Y-123536429D01*
X146618571Y-123607857D01*
X146547143Y-123679286D01*
X146475714Y-123822143D01*
X146475714Y-124107857D01*
X146547143Y-124250714D01*
X146618571Y-124322143D01*
X146761429Y-124393571D01*
X147047143Y-124393571D01*
X147190000Y-124322143D01*
X147261429Y-124250714D01*
X147332857Y-124107857D01*
X147332857Y-123822143D01*
X147261429Y-123679286D01*
X147190000Y-123607857D01*
X147047143Y-123536429D01*
X147975714Y-124250714D02*
X148047142Y-124322143D01*
X147975714Y-124393571D01*
X147904285Y-124322143D01*
X147975714Y-124250714D01*
X147975714Y-124393571D01*
X150332857Y-123607857D02*
X150547143Y-123679286D01*
X150618571Y-123750714D01*
X150690000Y-123893571D01*
X150690000Y-124107857D01*
X150618571Y-124250714D01*
X150547143Y-124322143D01*
X150404285Y-124393571D01*
X149832857Y-124393571D01*
X149832857Y-122893571D01*
X150332857Y-122893571D01*
X150475714Y-122965000D01*
X150547143Y-123036429D01*
X150618571Y-123179286D01*
X150618571Y-123322143D01*
X150547143Y-123465000D01*
X150475714Y-123536429D01*
X150332857Y-123607857D01*
X149832857Y-123607857D01*
X151618571Y-122893571D02*
X151904285Y-122893571D01*
X152047143Y-122965000D01*
X152190000Y-123107857D01*
X152261428Y-123393571D01*
X152261428Y-123893571D01*
X152190000Y-124179286D01*
X152047143Y-124322143D01*
X151904285Y-124393571D01*
X151618571Y-124393571D01*
X151475714Y-124322143D01*
X151332857Y-124179286D01*
X151261428Y-123893571D01*
X151261428Y-123393571D01*
X151332857Y-123107857D01*
X151475714Y-122965000D01*
X151618571Y-122893571D01*
X152832857Y-123965000D02*
X153547143Y-123965000D01*
X152690000Y-124393571D02*
X153190000Y-122893571D01*
X153690000Y-124393571D01*
X155047143Y-124393571D02*
X154547143Y-123679286D01*
X154190000Y-124393571D02*
X154190000Y-122893571D01*
X154761428Y-122893571D01*
X154904286Y-122965000D01*
X154975714Y-123036429D01*
X155047143Y-123179286D01*
X155047143Y-123393571D01*
X154975714Y-123536429D01*
X154904286Y-123607857D01*
X154761428Y-123679286D01*
X154190000Y-123679286D01*
X155690000Y-124393571D02*
X155690000Y-122893571D01*
X156047143Y-122893571D01*
X156261428Y-122965000D01*
X156404286Y-123107857D01*
X156475714Y-123250714D01*
X156547143Y-123536429D01*
X156547143Y-123750714D01*
X156475714Y-124036429D01*
X156404286Y-124179286D01*
X156261428Y-124322143D01*
X156047143Y-124393571D01*
X155690000Y-124393571D01*
X157118571Y-124322143D02*
X157332857Y-124393571D01*
X157690000Y-124393571D01*
X157832857Y-124322143D01*
X157904286Y-124250714D01*
X157975714Y-124107857D01*
X157975714Y-123965000D01*
X157904286Y-123822143D01*
X157832857Y-123750714D01*
X157690000Y-123679286D01*
X157404286Y-123607857D01*
X157261428Y-123536429D01*
X157190000Y-123465000D01*
X157118571Y-123322143D01*
X157118571Y-123179286D01*
X157190000Y-123036429D01*
X157261428Y-122965000D01*
X157404286Y-122893571D01*
X157761428Y-122893571D01*
X157975714Y-122965000D01*
X159547142Y-122893571D02*
X160404285Y-122893571D01*
X159975714Y-124393571D02*
X159975714Y-122893571D01*
X161189999Y-122893571D02*
X161475713Y-122893571D01*
X161618571Y-122965000D01*
X161761428Y-123107857D01*
X161832856Y-123393571D01*
X161832856Y-123893571D01*
X161761428Y-124179286D01*
X161618571Y-124322143D01*
X161475713Y-124393571D01*
X161189999Y-124393571D01*
X161047142Y-124322143D01*
X160904285Y-124179286D01*
X160832856Y-123893571D01*
X160832856Y-123393571D01*
X160904285Y-123107857D01*
X161047142Y-122965000D01*
X161189999Y-122893571D01*
X164118571Y-123607857D02*
X164332857Y-123679286D01*
X164404285Y-123750714D01*
X164475714Y-123893571D01*
X164475714Y-124107857D01*
X164404285Y-124250714D01*
X164332857Y-124322143D01*
X164189999Y-124393571D01*
X163618571Y-124393571D01*
X163618571Y-122893571D01*
X164118571Y-122893571D01*
X164261428Y-122965000D01*
X164332857Y-123036429D01*
X164404285Y-123179286D01*
X164404285Y-123322143D01*
X164332857Y-123465000D01*
X164261428Y-123536429D01*
X164118571Y-123607857D01*
X163618571Y-123607857D01*
X165118571Y-123607857D02*
X165618571Y-123607857D01*
X165832857Y-124393571D02*
X165118571Y-124393571D01*
X165118571Y-122893571D01*
X165832857Y-122893571D01*
X167547142Y-124322143D02*
X167761428Y-124393571D01*
X168118571Y-124393571D01*
X168261428Y-124322143D01*
X168332857Y-124250714D01*
X168404285Y-124107857D01*
X168404285Y-123965000D01*
X168332857Y-123822143D01*
X168261428Y-123750714D01*
X168118571Y-123679286D01*
X167832857Y-123607857D01*
X167689999Y-123536429D01*
X167618571Y-123465000D01*
X167547142Y-123322143D01*
X167547142Y-123179286D01*
X167618571Y-123036429D01*
X167689999Y-122965000D01*
X167832857Y-122893571D01*
X168189999Y-122893571D01*
X168404285Y-122965000D01*
X169047142Y-124393571D02*
X169047142Y-122893571D01*
X169047142Y-123607857D02*
X169904285Y-123607857D01*
X169904285Y-124393571D02*
X169904285Y-122893571D01*
X170618571Y-124393571D02*
X170618571Y-122893571D01*
X171332857Y-124393571D02*
X171332857Y-122893571D01*
X171904285Y-122893571D01*
X172047143Y-122965000D01*
X172118571Y-123036429D01*
X172190000Y-123179286D01*
X172190000Y-123393571D01*
X172118571Y-123536429D01*
X172047143Y-123607857D01*
X171904285Y-123679286D01*
X171332857Y-123679286D01*
X172832857Y-124393571D02*
X172832857Y-122893571D01*
X173404285Y-122893571D01*
X173547143Y-122965000D01*
X173618571Y-123036429D01*
X173690000Y-123179286D01*
X173690000Y-123393571D01*
X173618571Y-123536429D01*
X173547143Y-123607857D01*
X173404285Y-123679286D01*
X172832857Y-123679286D01*
X174332857Y-123607857D02*
X174832857Y-123607857D01*
X175047143Y-124393571D02*
X174332857Y-124393571D01*
X174332857Y-122893571D01*
X175047143Y-122893571D01*
X175690000Y-124393571D02*
X175690000Y-122893571D01*
X176047143Y-122893571D01*
X176261428Y-122965000D01*
X176404286Y-123107857D01*
X176475714Y-123250714D01*
X176547143Y-123536429D01*
X176547143Y-123750714D01*
X176475714Y-124036429D01*
X176404286Y-124179286D01*
X176261428Y-124322143D01*
X176047143Y-124393571D01*
X175690000Y-124393571D01*
X178332857Y-124393571D02*
X178332857Y-122893571D01*
X179047143Y-124393571D02*
X179047143Y-122893571D01*
X179904286Y-124393571D01*
X179904286Y-122893571D01*
X182618572Y-124250714D02*
X182547143Y-124322143D01*
X182332857Y-124393571D01*
X182190000Y-124393571D01*
X181975715Y-124322143D01*
X181832857Y-124179286D01*
X181761429Y-124036429D01*
X181690000Y-123750714D01*
X181690000Y-123536429D01*
X181761429Y-123250714D01*
X181832857Y-123107857D01*
X181975715Y-122965000D01*
X182190000Y-122893571D01*
X182332857Y-122893571D01*
X182547143Y-122965000D01*
X182618572Y-123036429D01*
X183261429Y-122893571D02*
X183261429Y-124107857D01*
X183332857Y-124250714D01*
X183404286Y-124322143D01*
X183547143Y-124393571D01*
X183832857Y-124393571D01*
X183975715Y-124322143D01*
X184047143Y-124250714D01*
X184118572Y-124107857D01*
X184118572Y-122893571D01*
X184761429Y-124322143D02*
X184975715Y-124393571D01*
X185332858Y-124393571D01*
X185475715Y-124322143D01*
X185547144Y-124250714D01*
X185618572Y-124107857D01*
X185618572Y-123965000D01*
X185547144Y-123822143D01*
X185475715Y-123750714D01*
X185332858Y-123679286D01*
X185047144Y-123607857D01*
X184904286Y-123536429D01*
X184832858Y-123465000D01*
X184761429Y-123322143D01*
X184761429Y-123179286D01*
X184832858Y-123036429D01*
X184904286Y-122965000D01*
X185047144Y-122893571D01*
X185404286Y-122893571D01*
X185618572Y-122965000D01*
X186047143Y-122893571D02*
X186904286Y-122893571D01*
X186475715Y-124393571D02*
X186475715Y-122893571D01*
X187690000Y-122893571D02*
X187975714Y-122893571D01*
X188118572Y-122965000D01*
X188261429Y-123107857D01*
X188332857Y-123393571D01*
X188332857Y-123893571D01*
X188261429Y-124179286D01*
X188118572Y-124322143D01*
X187975714Y-124393571D01*
X187690000Y-124393571D01*
X187547143Y-124322143D01*
X187404286Y-124179286D01*
X187332857Y-123893571D01*
X187332857Y-123393571D01*
X187404286Y-123107857D01*
X187547143Y-122965000D01*
X187690000Y-122893571D01*
X188975715Y-124393571D02*
X188975715Y-122893571D01*
X189475715Y-123965000D01*
X189975715Y-122893571D01*
X189975715Y-124393571D01*
X190690001Y-123607857D02*
X191190001Y-123607857D01*
X191404287Y-124393571D02*
X190690001Y-124393571D01*
X190690001Y-122893571D01*
X191404287Y-122893571D01*
X192904287Y-124393571D02*
X192404287Y-123679286D01*
X192047144Y-124393571D02*
X192047144Y-122893571D01*
X192618572Y-122893571D01*
X192761430Y-122965000D01*
X192832858Y-123036429D01*
X192904287Y-123179286D01*
X192904287Y-123393571D01*
X192832858Y-123536429D01*
X192761430Y-123607857D01*
X192618572Y-123679286D01*
X192047144Y-123679286D01*
X193547144Y-123822143D02*
X194690001Y-123822143D01*
X195332858Y-124322143D02*
X195547144Y-124393571D01*
X195904287Y-124393571D01*
X196047144Y-124322143D01*
X196118573Y-124250714D01*
X196190001Y-124107857D01*
X196190001Y-123965000D01*
X196118573Y-123822143D01*
X196047144Y-123750714D01*
X195904287Y-123679286D01*
X195618573Y-123607857D01*
X195475715Y-123536429D01*
X195404287Y-123465000D01*
X195332858Y-123322143D01*
X195332858Y-123179286D01*
X195404287Y-123036429D01*
X195475715Y-122965000D01*
X195618573Y-122893571D01*
X195975715Y-122893571D01*
X196190001Y-122965000D01*
X196832858Y-122893571D02*
X196832858Y-124107857D01*
X196904286Y-124250714D01*
X196975715Y-124322143D01*
X197118572Y-124393571D01*
X197404286Y-124393571D01*
X197547144Y-124322143D01*
X197618572Y-124250714D01*
X197690001Y-124107857D01*
X197690001Y-122893571D01*
X198404287Y-124393571D02*
X198404287Y-122893571D01*
X198975715Y-122893571D01*
X199118573Y-122965000D01*
X199190001Y-123036429D01*
X199261430Y-123179286D01*
X199261430Y-123393571D01*
X199190001Y-123536429D01*
X199118573Y-123607857D01*
X198975715Y-123679286D01*
X198404287Y-123679286D01*
X199904287Y-124393571D02*
X199904287Y-122893571D01*
X200475715Y-122893571D01*
X200618573Y-122965000D01*
X200690001Y-123036429D01*
X200761430Y-123179286D01*
X200761430Y-123393571D01*
X200690001Y-123536429D01*
X200618573Y-123607857D01*
X200475715Y-123679286D01*
X199904287Y-123679286D01*
X202118573Y-124393571D02*
X201404287Y-124393571D01*
X201404287Y-122893571D01*
X202618573Y-124393571D02*
X202618573Y-122893571D01*
X203332859Y-123607857D02*
X203832859Y-123607857D01*
X204047145Y-124393571D02*
X203332859Y-124393571D01*
X203332859Y-122893571D01*
X204047145Y-122893571D01*
X204690002Y-124393571D02*
X204690002Y-122893571D01*
X205047145Y-122893571D01*
X205261430Y-122965000D01*
X205404288Y-123107857D01*
X205475716Y-123250714D01*
X205547145Y-123536429D01*
X205547145Y-123750714D01*
X205475716Y-124036429D01*
X205404288Y-124179286D01*
X205261430Y-124322143D01*
X205047145Y-124393571D01*
X204690002Y-124393571D01*
X207832859Y-123607857D02*
X207332859Y-123607857D01*
X207332859Y-124393571D02*
X207332859Y-122893571D01*
X208047145Y-122893571D01*
X208904287Y-122893571D02*
X209190001Y-122893571D01*
X209332859Y-122965000D01*
X209475716Y-123107857D01*
X209547144Y-123393571D01*
X209547144Y-123893571D01*
X209475716Y-124179286D01*
X209332859Y-124322143D01*
X209190001Y-124393571D01*
X208904287Y-124393571D01*
X208761430Y-124322143D01*
X208618573Y-124179286D01*
X208547144Y-123893571D01*
X208547144Y-123393571D01*
X208618573Y-123107857D01*
X208761430Y-122965000D01*
X208904287Y-122893571D01*
X210118573Y-123965000D02*
X210832859Y-123965000D01*
X209975716Y-124393571D02*
X210475716Y-122893571D01*
X210975716Y-124393571D01*
X211475716Y-124393571D02*
X211475716Y-122893571D01*
X211975716Y-123965000D01*
X212475716Y-122893571D01*
X212475716Y-124393571D01*
X214118573Y-122893571D02*
X214975716Y-122893571D01*
X214547145Y-124393571D02*
X214547145Y-122893571D01*
X216332859Y-124393571D02*
X215832859Y-123679286D01*
X215475716Y-124393571D02*
X215475716Y-122893571D01*
X216047144Y-122893571D01*
X216190002Y-122965000D01*
X216261430Y-123036429D01*
X216332859Y-123179286D01*
X216332859Y-123393571D01*
X216261430Y-123536429D01*
X216190002Y-123607857D01*
X216047144Y-123679286D01*
X215475716Y-123679286D01*
X216904287Y-123965000D02*
X217618573Y-123965000D01*
X216761430Y-124393571D02*
X217261430Y-122893571D01*
X217761430Y-124393571D01*
X218547144Y-123679286D02*
X218547144Y-124393571D01*
X218047144Y-122893571D02*
X218547144Y-123679286D01*
X219047144Y-122893571D01*
X219475715Y-124322143D02*
X219690001Y-124393571D01*
X220047144Y-124393571D01*
X220190001Y-124322143D01*
X220261430Y-124250714D01*
X220332858Y-124107857D01*
X220332858Y-123965000D01*
X220261430Y-123822143D01*
X220190001Y-123750714D01*
X220047144Y-123679286D01*
X219761430Y-123607857D01*
X219618572Y-123536429D01*
X219547144Y-123465000D01*
X219475715Y-123322143D01*
X219475715Y-123179286D01*
X219547144Y-123036429D01*
X219618572Y-122965000D01*
X219761430Y-122893571D01*
X220118572Y-122893571D01*
X220332858Y-122965000D01*
X146618571Y-126943571D02*
X146904286Y-126943571D01*
X147047143Y-126872143D01*
X147118571Y-126800714D01*
X147261429Y-126586429D01*
X147332857Y-126300714D01*
X147332857Y-125729286D01*
X147261429Y-125586429D01*
X147190000Y-125515000D01*
X147047143Y-125443571D01*
X146761429Y-125443571D01*
X146618571Y-125515000D01*
X146547143Y-125586429D01*
X146475714Y-125729286D01*
X146475714Y-126086429D01*
X146547143Y-126229286D01*
X146618571Y-126300714D01*
X146761429Y-126372143D01*
X147047143Y-126372143D01*
X147190000Y-126300714D01*
X147261429Y-126229286D01*
X147332857Y-126086429D01*
X147975714Y-126800714D02*
X148047142Y-126872143D01*
X147975714Y-126943571D01*
X147904285Y-126872143D01*
X147975714Y-126800714D01*
X147975714Y-126943571D01*
X149690000Y-125443571D02*
X150618571Y-125443571D01*
X150118571Y-126015000D01*
X150332857Y-126015000D01*
X150475714Y-126086429D01*
X150547143Y-126157857D01*
X150618571Y-126300714D01*
X150618571Y-126657857D01*
X150547143Y-126800714D01*
X150475714Y-126872143D01*
X150332857Y-126943571D01*
X149904285Y-126943571D01*
X149761428Y-126872143D01*
X149690000Y-126800714D01*
X151261428Y-126943571D02*
X151261428Y-125443571D01*
X151761428Y-126515000D01*
X152261428Y-125443571D01*
X152261428Y-126943571D01*
X152975714Y-126943571D02*
X152975714Y-125443571D01*
X153475714Y-126515000D01*
X153975714Y-125443571D01*
X153975714Y-126943571D01*
X156547143Y-126943571D02*
X155832857Y-126943571D01*
X155832857Y-125443571D01*
X157047143Y-126157857D02*
X157547143Y-126157857D01*
X157761429Y-126943571D02*
X157047143Y-126943571D01*
X157047143Y-125443571D01*
X157761429Y-125443571D01*
X158404286Y-126943571D02*
X158404286Y-125443571D01*
X158761429Y-125443571D01*
X158975714Y-125515000D01*
X159118572Y-125657857D01*
X159190000Y-125800714D01*
X159261429Y-126086429D01*
X159261429Y-126300714D01*
X159190000Y-126586429D01*
X159118572Y-126729286D01*
X158975714Y-126872143D01*
X158761429Y-126943571D01*
X158404286Y-126943571D01*
X161047143Y-126943571D02*
X161047143Y-125443571D01*
X161047143Y-126157857D02*
X161904286Y-126157857D01*
X161904286Y-126943571D02*
X161904286Y-125443571D01*
X162904286Y-125443571D02*
X163190000Y-125443571D01*
X163332858Y-125515000D01*
X163475715Y-125657857D01*
X163547143Y-125943571D01*
X163547143Y-126443571D01*
X163475715Y-126729286D01*
X163332858Y-126872143D01*
X163190000Y-126943571D01*
X162904286Y-126943571D01*
X162761429Y-126872143D01*
X162618572Y-126729286D01*
X162547143Y-126443571D01*
X162547143Y-125943571D01*
X162618572Y-125657857D01*
X162761429Y-125515000D01*
X162904286Y-125443571D01*
X164904287Y-126943571D02*
X164190001Y-126943571D01*
X164190001Y-125443571D01*
X165404287Y-126157857D02*
X165904287Y-126157857D01*
X166118573Y-126943571D02*
X165404287Y-126943571D01*
X165404287Y-125443571D01*
X166118573Y-125443571D01*
X167904287Y-126943571D02*
X167904287Y-125443571D01*
X168547144Y-126872143D02*
X168761430Y-126943571D01*
X169118573Y-126943571D01*
X169261430Y-126872143D01*
X169332859Y-126800714D01*
X169404287Y-126657857D01*
X169404287Y-126515000D01*
X169332859Y-126372143D01*
X169261430Y-126300714D01*
X169118573Y-126229286D01*
X168832859Y-126157857D01*
X168690001Y-126086429D01*
X168618573Y-126015000D01*
X168547144Y-125872143D01*
X168547144Y-125729286D01*
X168618573Y-125586429D01*
X168690001Y-125515000D01*
X168832859Y-125443571D01*
X169190001Y-125443571D01*
X169404287Y-125515000D01*
X171190001Y-126943571D02*
X171190001Y-125443571D01*
X171761429Y-125443571D01*
X171904287Y-125515000D01*
X171975715Y-125586429D01*
X172047144Y-125729286D01*
X172047144Y-125943571D01*
X171975715Y-126086429D01*
X171904287Y-126157857D01*
X171761429Y-126229286D01*
X171190001Y-126229286D01*
X173404287Y-126943571D02*
X172690001Y-126943571D01*
X172690001Y-125443571D01*
X173832858Y-126515000D02*
X174547144Y-126515000D01*
X173690001Y-126943571D02*
X174190001Y-125443571D01*
X174690001Y-126943571D01*
X174975715Y-125443571D02*
X175832858Y-125443571D01*
X175404287Y-126943571D02*
X175404287Y-125443571D01*
X176332858Y-126157857D02*
X176832858Y-126157857D01*
X177047144Y-126943571D02*
X176332858Y-126943571D01*
X176332858Y-125443571D01*
X177047144Y-125443571D01*
X177690001Y-126943571D02*
X177690001Y-125443571D01*
X178047144Y-125443571D01*
X178261429Y-125515000D01*
X178404287Y-125657857D01*
X178475715Y-125800714D01*
X178547144Y-126086429D01*
X178547144Y-126300714D01*
X178475715Y-126586429D01*
X178404287Y-126729286D01*
X178261429Y-126872143D01*
X178047144Y-126943571D01*
X177690001Y-126943571D01*
D11*
X205440000Y-80290000D02*
X233440000Y-80290000D01*
D12*
X207689999Y-76693571D02*
X207189999Y-75979286D01*
X206832856Y-76693571D02*
X206832856Y-75193571D01*
X207404284Y-75193571D01*
X207547142Y-75265000D01*
X207618570Y-75336429D01*
X207689999Y-75479286D01*
X207689999Y-75693571D01*
X207618570Y-75836429D01*
X207547142Y-75907857D01*
X207404284Y-75979286D01*
X206832856Y-75979286D01*
X208618570Y-75193571D02*
X208904284Y-75193571D01*
X209047142Y-75265000D01*
X209189999Y-75407857D01*
X209261427Y-75693571D01*
X209261427Y-76193571D01*
X209189999Y-76479286D01*
X209047142Y-76622143D01*
X208904284Y-76693571D01*
X208618570Y-76693571D01*
X208475713Y-76622143D01*
X208332856Y-76479286D01*
X208261427Y-76193571D01*
X208261427Y-75693571D01*
X208332856Y-75407857D01*
X208475713Y-75265000D01*
X208618570Y-75193571D01*
X209904285Y-75193571D02*
X209904285Y-76407857D01*
X209975713Y-76550714D01*
X210047142Y-76622143D01*
X210189999Y-76693571D01*
X210475713Y-76693571D01*
X210618571Y-76622143D01*
X210689999Y-76550714D01*
X210761428Y-76407857D01*
X210761428Y-75193571D01*
X211261428Y-75193571D02*
X212118571Y-75193571D01*
X211690000Y-76693571D02*
X211690000Y-75193571D01*
X212618571Y-75907857D02*
X213118571Y-75907857D01*
X213332857Y-76693571D02*
X212618571Y-76693571D01*
X212618571Y-75193571D01*
X213332857Y-75193571D01*
X215618571Y-75907857D02*
X215832857Y-75979286D01*
X215904285Y-76050714D01*
X215975714Y-76193571D01*
X215975714Y-76407857D01*
X215904285Y-76550714D01*
X215832857Y-76622143D01*
X215689999Y-76693571D01*
X215118571Y-76693571D01*
X215118571Y-75193571D01*
X215618571Y-75193571D01*
X215761428Y-75265000D01*
X215832857Y-75336429D01*
X215904285Y-75479286D01*
X215904285Y-75622143D01*
X215832857Y-75765000D01*
X215761428Y-75836429D01*
X215618571Y-75907857D01*
X215118571Y-75907857D01*
X216904285Y-75193571D02*
X217189999Y-75193571D01*
X217332857Y-75265000D01*
X217475714Y-75407857D01*
X217547142Y-75693571D01*
X217547142Y-76193571D01*
X217475714Y-76479286D01*
X217332857Y-76622143D01*
X217189999Y-76693571D01*
X216904285Y-76693571D01*
X216761428Y-76622143D01*
X216618571Y-76479286D01*
X216547142Y-76193571D01*
X216547142Y-75693571D01*
X216618571Y-75407857D01*
X216761428Y-75265000D01*
X216904285Y-75193571D01*
X218118571Y-76265000D02*
X218832857Y-76265000D01*
X217975714Y-76693571D02*
X218475714Y-75193571D01*
X218975714Y-76693571D01*
X220332857Y-76693571D02*
X219832857Y-75979286D01*
X219475714Y-76693571D02*
X219475714Y-75193571D01*
X220047142Y-75193571D01*
X220190000Y-75265000D01*
X220261428Y-75336429D01*
X220332857Y-75479286D01*
X220332857Y-75693571D01*
X220261428Y-75836429D01*
X220190000Y-75907857D01*
X220047142Y-75979286D01*
X219475714Y-75979286D01*
X220975714Y-76693571D02*
X220975714Y-75193571D01*
X221332857Y-75193571D01*
X221547142Y-75265000D01*
X221690000Y-75407857D01*
X221761428Y-75550714D01*
X221832857Y-75836429D01*
X221832857Y-76050714D01*
X221761428Y-76336429D01*
X221690000Y-76479286D01*
X221547142Y-76622143D01*
X221332857Y-76693571D01*
X220975714Y-76693571D01*
X223904285Y-75193571D02*
X224189999Y-75193571D01*
X224332857Y-75265000D01*
X224475714Y-75407857D01*
X224547142Y-75693571D01*
X224547142Y-76193571D01*
X224475714Y-76479286D01*
X224332857Y-76622143D01*
X224189999Y-76693571D01*
X223904285Y-76693571D01*
X223761428Y-76622143D01*
X223618571Y-76479286D01*
X223547142Y-76193571D01*
X223547142Y-75693571D01*
X223618571Y-75407857D01*
X223761428Y-75265000D01*
X223904285Y-75193571D01*
X225190000Y-75193571D02*
X225190000Y-76407857D01*
X225261428Y-76550714D01*
X225332857Y-76622143D01*
X225475714Y-76693571D01*
X225761428Y-76693571D01*
X225904286Y-76622143D01*
X225975714Y-76550714D01*
X226047143Y-76407857D01*
X226047143Y-75193571D01*
X226547143Y-75193571D02*
X227404286Y-75193571D01*
X226975715Y-76693571D02*
X226975715Y-75193571D01*
X228618572Y-76693571D02*
X227904286Y-76693571D01*
X227904286Y-75193571D01*
X229118572Y-76693571D02*
X229118572Y-75193571D01*
X229832858Y-76693571D02*
X229832858Y-75193571D01*
X230690001Y-76693571D01*
X230690001Y-75193571D01*
X231404287Y-75907857D02*
X231904287Y-75907857D01*
X232118573Y-76693571D02*
X231404287Y-76693571D01*
X231404287Y-75193571D01*
X232118573Y-75193571D01*
X206618572Y-78457857D02*
X207118572Y-78457857D01*
X207332858Y-79243571D02*
X206618572Y-79243571D01*
X206618572Y-77743571D01*
X207332858Y-77743571D01*
X207832858Y-77743571D02*
X208832858Y-79243571D01*
X208832858Y-77743571D02*
X207832858Y-79243571D01*
X210261429Y-79100714D02*
X210190000Y-79172143D01*
X209975714Y-79243571D01*
X209832857Y-79243571D01*
X209618572Y-79172143D01*
X209475714Y-79029286D01*
X209404286Y-78886429D01*
X209332857Y-78600714D01*
X209332857Y-78386429D01*
X209404286Y-78100714D01*
X209475714Y-77957857D01*
X209618572Y-77815000D01*
X209832857Y-77743571D01*
X209975714Y-77743571D01*
X210190000Y-77815000D01*
X210261429Y-77886429D01*
X210904286Y-78457857D02*
X211404286Y-78457857D01*
X211618572Y-79243571D02*
X210904286Y-79243571D01*
X210904286Y-77743571D01*
X211618572Y-77743571D01*
X212261429Y-79243571D02*
X212261429Y-77743571D01*
X212832857Y-77743571D01*
X212975715Y-77815000D01*
X213047143Y-77886429D01*
X213118572Y-78029286D01*
X213118572Y-78243571D01*
X213047143Y-78386429D01*
X212975715Y-78457857D01*
X212832857Y-78529286D01*
X212261429Y-78529286D01*
X213547143Y-77743571D02*
X214404286Y-77743571D01*
X213975715Y-79243571D02*
X213975715Y-77743571D01*
X216547143Y-78457857D02*
X216047143Y-78457857D01*
X216047143Y-79243571D02*
X216047143Y-77743571D01*
X216761429Y-77743571D01*
X217618571Y-77743571D02*
X217904285Y-77743571D01*
X218047143Y-77815000D01*
X218190000Y-77957857D01*
X218261428Y-78243571D01*
X218261428Y-78743571D01*
X218190000Y-79029286D01*
X218047143Y-79172143D01*
X217904285Y-79243571D01*
X217618571Y-79243571D01*
X217475714Y-79172143D01*
X217332857Y-79029286D01*
X217261428Y-78743571D01*
X217261428Y-78243571D01*
X217332857Y-77957857D01*
X217475714Y-77815000D01*
X217618571Y-77743571D01*
X219761429Y-79243571D02*
X219261429Y-78529286D01*
X218904286Y-79243571D02*
X218904286Y-77743571D01*
X219475714Y-77743571D01*
X219618572Y-77815000D01*
X219690000Y-77886429D01*
X219761429Y-78029286D01*
X219761429Y-78243571D01*
X219690000Y-78386429D01*
X219618572Y-78457857D01*
X219475714Y-78529286D01*
X218904286Y-78529286D01*
X221332857Y-77743571D02*
X222190000Y-77743571D01*
X221761429Y-79243571D02*
X221761429Y-77743571D01*
X222547143Y-77743571D02*
X222904286Y-79243571D01*
X223190000Y-78172143D01*
X223475714Y-79243571D01*
X223832857Y-77743571D01*
X224690000Y-77743571D02*
X224975714Y-77743571D01*
X225118572Y-77815000D01*
X225261429Y-77957857D01*
X225332857Y-78243571D01*
X225332857Y-78743571D01*
X225261429Y-79029286D01*
X225118572Y-79172143D01*
X224975714Y-79243571D01*
X224690000Y-79243571D01*
X224547143Y-79172143D01*
X224404286Y-79029286D01*
X224332857Y-78743571D01*
X224332857Y-78243571D01*
X224404286Y-77957857D01*
X224547143Y-77815000D01*
X224690000Y-77743571D01*
X227118572Y-78457857D02*
X227618572Y-78457857D01*
X227832858Y-79243571D02*
X227118572Y-79243571D01*
X227118572Y-77743571D01*
X227832858Y-77743571D01*
X228475715Y-79243571D02*
X228475715Y-77743571D01*
X229332858Y-79243571D01*
X229332858Y-77743571D01*
X230047144Y-79243571D02*
X230047144Y-77743571D01*
X230404287Y-77743571D01*
X230618572Y-77815000D01*
X230761430Y-77957857D01*
X230832858Y-78100714D01*
X230904287Y-78386429D01*
X230904287Y-78600714D01*
X230832858Y-78886429D01*
X230761430Y-79029286D01*
X230618572Y-79172143D01*
X230404287Y-79243571D01*
X230047144Y-79243571D01*
X231475715Y-79172143D02*
X231690001Y-79243571D01*
X232047144Y-79243571D01*
X232190001Y-79172143D01*
X232261430Y-79100714D01*
X232332858Y-78957857D01*
X232332858Y-78815000D01*
X232261430Y-78672143D01*
X232190001Y-78600714D01*
X232047144Y-78529286D01*
X231761430Y-78457857D01*
X231618572Y-78386429D01*
X231547144Y-78315000D01*
X231475715Y-78172143D01*
X231475715Y-78029286D01*
X231547144Y-77886429D01*
X231618572Y-77815000D01*
X231761430Y-77743571D01*
X232118572Y-77743571D01*
X232332858Y-77815000D01*
D11*
X198440000Y-73290000D02*
X205440000Y-80290000D01*
X198440000Y-73290000D02*
X198440000Y-75290000D01*
X200440000Y-73290000D02*
X198440000Y-73290000D01*
D12*
X173975714Y-35468571D02*
X174475714Y-36968571D01*
X174975714Y-35468571D01*
X175475714Y-36397143D02*
X176618571Y-36397143D01*
X177261428Y-36897143D02*
X177475714Y-36968571D01*
X177832857Y-36968571D01*
X177975714Y-36897143D01*
X178047143Y-36825714D01*
X178118571Y-36682857D01*
X178118571Y-36540000D01*
X178047143Y-36397143D01*
X177975714Y-36325714D01*
X177832857Y-36254286D01*
X177547143Y-36182857D01*
X177404285Y-36111429D01*
X177332857Y-36040000D01*
X177261428Y-35897143D01*
X177261428Y-35754286D01*
X177332857Y-35611429D01*
X177404285Y-35540000D01*
X177547143Y-35468571D01*
X177904285Y-35468571D01*
X178118571Y-35540000D01*
X179618571Y-36825714D02*
X179547142Y-36897143D01*
X179332856Y-36968571D01*
X179189999Y-36968571D01*
X178975714Y-36897143D01*
X178832856Y-36754286D01*
X178761428Y-36611429D01*
X178689999Y-36325714D01*
X178689999Y-36111429D01*
X178761428Y-35825714D01*
X178832856Y-35682857D01*
X178975714Y-35540000D01*
X179189999Y-35468571D01*
X179332856Y-35468571D01*
X179547142Y-35540000D01*
X179618571Y-35611429D01*
X180547142Y-35468571D02*
X180832856Y-35468571D01*
X180975714Y-35540000D01*
X181118571Y-35682857D01*
X181189999Y-35968571D01*
X181189999Y-36468571D01*
X181118571Y-36754286D01*
X180975714Y-36897143D01*
X180832856Y-36968571D01*
X180547142Y-36968571D01*
X180404285Y-36897143D01*
X180261428Y-36754286D01*
X180189999Y-36468571D01*
X180189999Y-35968571D01*
X180261428Y-35682857D01*
X180404285Y-35540000D01*
X180547142Y-35468571D01*
X182690000Y-36968571D02*
X182190000Y-36254286D01*
X181832857Y-36968571D02*
X181832857Y-35468571D01*
X182404285Y-35468571D01*
X182547143Y-35540000D01*
X182618571Y-35611429D01*
X182690000Y-35754286D01*
X182690000Y-35968571D01*
X182618571Y-36111429D01*
X182547143Y-36182857D01*
X182404285Y-36254286D01*
X181832857Y-36254286D01*
X183332857Y-36182857D02*
X183832857Y-36182857D01*
X184047143Y-36968571D02*
X183332857Y-36968571D01*
X183332857Y-35468571D01*
X184047143Y-35468571D01*
X185832857Y-36968571D02*
X185832857Y-35468571D01*
X186404285Y-35468571D01*
X186547143Y-35540000D01*
X186618571Y-35611429D01*
X186690000Y-35754286D01*
X186690000Y-35968571D01*
X186618571Y-36111429D01*
X186547143Y-36182857D01*
X186404285Y-36254286D01*
X185832857Y-36254286D01*
X187261428Y-36540000D02*
X187975714Y-36540000D01*
X187118571Y-36968571D02*
X187618571Y-35468571D01*
X188118571Y-36968571D01*
X189475714Y-36968571D02*
X188975714Y-36254286D01*
X188618571Y-36968571D02*
X188618571Y-35468571D01*
X189189999Y-35468571D01*
X189332857Y-35540000D01*
X189404285Y-35611429D01*
X189475714Y-35754286D01*
X189475714Y-35968571D01*
X189404285Y-36111429D01*
X189332857Y-36182857D01*
X189189999Y-36254286D01*
X188618571Y-36254286D01*
X190047142Y-36540000D02*
X190761428Y-36540000D01*
X189904285Y-36968571D02*
X190404285Y-35468571D01*
X190904285Y-36968571D01*
X192118571Y-36968571D02*
X191404285Y-36968571D01*
X191404285Y-35468571D01*
X193332857Y-36968571D02*
X192618571Y-36968571D01*
X192618571Y-35468571D01*
X193832857Y-36182857D02*
X194332857Y-36182857D01*
X194547143Y-36968571D02*
X193832857Y-36968571D01*
X193832857Y-35468571D01*
X194547143Y-35468571D01*
X195904286Y-36968571D02*
X195190000Y-36968571D01*
X195190000Y-35468571D01*
X197547143Y-36182857D02*
X198047143Y-36182857D01*
X198261429Y-36968571D02*
X197547143Y-36968571D01*
X197547143Y-35468571D01*
X198261429Y-35468571D01*
X198904286Y-36968571D02*
X198904286Y-35468571D01*
X199761429Y-36968571D01*
X199761429Y-35468571D01*
X200475715Y-36968571D02*
X200475715Y-35468571D01*
X200832858Y-35468571D01*
X201047143Y-35540000D01*
X201190001Y-35682857D01*
X201261429Y-35825714D01*
X201332858Y-36111429D01*
X201332858Y-36325714D01*
X201261429Y-36611429D01*
X201190001Y-36754286D01*
X201047143Y-36897143D01*
X200832858Y-36968571D01*
X200475715Y-36968571D01*
X201904286Y-36897143D02*
X202118572Y-36968571D01*
X202475715Y-36968571D01*
X202618572Y-36897143D01*
X202690001Y-36825714D01*
X202761429Y-36682857D01*
X202761429Y-36540000D01*
X202690001Y-36397143D01*
X202618572Y-36325714D01*
X202475715Y-36254286D01*
X202190001Y-36182857D01*
X202047143Y-36111429D01*
X201975715Y-36040000D01*
X201904286Y-35897143D01*
X201904286Y-35754286D01*
X201975715Y-35611429D01*
X202047143Y-35540000D01*
X202190001Y-35468571D01*
X202547143Y-35468571D01*
X202761429Y-35540000D01*
D11*
X214440000Y-61290000D02*
X216440000Y-61290000D01*
X214440000Y-59290000D02*
X214440000Y-59290000D01*
X214440000Y-61290000D02*
X214440000Y-59290000D01*
X220440000Y-55290000D02*
X214440000Y-61290000D01*
X220440000Y-47290000D02*
X220440000Y-55290000D01*
X210440000Y-37290000D02*
X220440000Y-47290000D01*
X166440000Y-37290000D02*
X210440000Y-37290000D01*
X158440000Y-45290000D02*
X166440000Y-37290000D01*
X158440000Y-55290000D02*
X158440000Y-45290000D01*
X161440000Y-58290000D02*
X158440000Y-55290000D01*
X163440000Y-73290000D02*
X165440000Y-73290000D01*
X163440000Y-73290000D02*
X163440000Y-75290000D01*
X161440000Y-58290000D02*
X159440000Y-58290000D01*
X161440000Y-56290000D02*
X161440000Y-58290000D01*
X161440000Y-58290000D02*
X161440000Y-56290000D01*
X169440000Y-79290000D02*
X189440000Y-79290000D01*
X163440000Y-73290000D02*
X169440000Y-79290000D01*
D12*
X173904285Y-75550714D02*
X173832856Y-75622143D01*
X173618570Y-75693571D01*
X173475713Y-75693571D01*
X173261428Y-75622143D01*
X173118570Y-75479286D01*
X173047142Y-75336429D01*
X172975713Y-75050714D01*
X172975713Y-74836429D01*
X173047142Y-74550714D01*
X173118570Y-74407857D01*
X173261428Y-74265000D01*
X173475713Y-74193571D01*
X173618570Y-74193571D01*
X173832856Y-74265000D01*
X173904285Y-74336429D01*
X174832856Y-74193571D02*
X175118570Y-74193571D01*
X175261428Y-74265000D01*
X175404285Y-74407857D01*
X175475713Y-74693571D01*
X175475713Y-75193571D01*
X175404285Y-75479286D01*
X175261428Y-75622143D01*
X175118570Y-75693571D01*
X174832856Y-75693571D01*
X174689999Y-75622143D01*
X174547142Y-75479286D01*
X174475713Y-75193571D01*
X174475713Y-74693571D01*
X174547142Y-74407857D01*
X174689999Y-74265000D01*
X174832856Y-74193571D01*
X176118571Y-75693571D02*
X176118571Y-74193571D01*
X176618571Y-75265000D01*
X177118571Y-74193571D01*
X177118571Y-75693571D01*
X177832857Y-75693571D02*
X177832857Y-74193571D01*
X178404285Y-74193571D01*
X178547143Y-74265000D01*
X178618571Y-74336429D01*
X178690000Y-74479286D01*
X178690000Y-74693571D01*
X178618571Y-74836429D01*
X178547143Y-74907857D01*
X178404285Y-74979286D01*
X177832857Y-74979286D01*
X179618571Y-74193571D02*
X179904285Y-74193571D01*
X180047143Y-74265000D01*
X180190000Y-74407857D01*
X180261428Y-74693571D01*
X180261428Y-75193571D01*
X180190000Y-75479286D01*
X180047143Y-75622143D01*
X179904285Y-75693571D01*
X179618571Y-75693571D01*
X179475714Y-75622143D01*
X179332857Y-75479286D01*
X179261428Y-75193571D01*
X179261428Y-74693571D01*
X179332857Y-74407857D01*
X179475714Y-74265000D01*
X179618571Y-74193571D01*
X180904286Y-75693571D02*
X180904286Y-74193571D01*
X181761429Y-75693571D01*
X181761429Y-74193571D01*
X182475715Y-74907857D02*
X182975715Y-74907857D01*
X183190001Y-75693571D02*
X182475715Y-75693571D01*
X182475715Y-74193571D01*
X183190001Y-74193571D01*
X183832858Y-75693571D02*
X183832858Y-74193571D01*
X184690001Y-75693571D01*
X184690001Y-74193571D01*
X185190001Y-74193571D02*
X186047144Y-74193571D01*
X185618573Y-75693571D02*
X185618573Y-74193571D01*
X170332856Y-78243571D02*
X170332856Y-76743571D01*
X170904284Y-76743571D01*
X171047142Y-76815000D01*
X171118570Y-76886429D01*
X171189999Y-77029286D01*
X171189999Y-77243571D01*
X171118570Y-77386429D01*
X171047142Y-77457857D01*
X170904284Y-77529286D01*
X170332856Y-77529286D01*
X172118570Y-76743571D02*
X172404284Y-76743571D01*
X172547142Y-76815000D01*
X172689999Y-76957857D01*
X172761427Y-77243571D01*
X172761427Y-77743571D01*
X172689999Y-78029286D01*
X172547142Y-78172143D01*
X172404284Y-78243571D01*
X172118570Y-78243571D01*
X171975713Y-78172143D01*
X171832856Y-78029286D01*
X171761427Y-77743571D01*
X171761427Y-77243571D01*
X171832856Y-76957857D01*
X171975713Y-76815000D01*
X172118570Y-76743571D01*
X173332856Y-78172143D02*
X173547142Y-78243571D01*
X173904285Y-78243571D01*
X174047142Y-78172143D01*
X174118571Y-78100714D01*
X174189999Y-77957857D01*
X174189999Y-77815000D01*
X174118571Y-77672143D01*
X174047142Y-77600714D01*
X173904285Y-77529286D01*
X173618571Y-77457857D01*
X173475713Y-77386429D01*
X173404285Y-77315000D01*
X173332856Y-77172143D01*
X173332856Y-77029286D01*
X173404285Y-76886429D01*
X173475713Y-76815000D01*
X173618571Y-76743571D01*
X173975713Y-76743571D01*
X174189999Y-76815000D01*
X174832856Y-78243571D02*
X174832856Y-76743571D01*
X175332856Y-76743571D02*
X176189999Y-76743571D01*
X175761428Y-78243571D02*
X175761428Y-76743571D01*
X176689999Y-78243571D02*
X176689999Y-76743571D01*
X177689999Y-76743571D02*
X177975713Y-76743571D01*
X178118571Y-76815000D01*
X178261428Y-76957857D01*
X178332856Y-77243571D01*
X178332856Y-77743571D01*
X178261428Y-78029286D01*
X178118571Y-78172143D01*
X177975713Y-78243571D01*
X177689999Y-78243571D01*
X177547142Y-78172143D01*
X177404285Y-78029286D01*
X177332856Y-77743571D01*
X177332856Y-77243571D01*
X177404285Y-76957857D01*
X177547142Y-76815000D01*
X177689999Y-76743571D01*
X178975714Y-78243571D02*
X178975714Y-76743571D01*
X179832857Y-78243571D01*
X179832857Y-76743571D01*
X181975714Y-76743571D02*
X182261428Y-76743571D01*
X182404286Y-76815000D01*
X182547143Y-76957857D01*
X182618571Y-77243571D01*
X182618571Y-77743571D01*
X182547143Y-78029286D01*
X182404286Y-78172143D01*
X182261428Y-78243571D01*
X181975714Y-78243571D01*
X181832857Y-78172143D01*
X181690000Y-78029286D01*
X181618571Y-77743571D01*
X181618571Y-77243571D01*
X181690000Y-76957857D01*
X181832857Y-76815000D01*
X181975714Y-76743571D01*
X184118572Y-78243571D02*
X183618572Y-77529286D01*
X183261429Y-78243571D02*
X183261429Y-76743571D01*
X183832857Y-76743571D01*
X183975715Y-76815000D01*
X184047143Y-76886429D01*
X184118572Y-77029286D01*
X184118572Y-77243571D01*
X184047143Y-77386429D01*
X183975715Y-77457857D01*
X183832857Y-77529286D01*
X183261429Y-77529286D01*
X184761429Y-78243571D02*
X184761429Y-76743571D01*
X186261429Y-76815000D02*
X186118572Y-76743571D01*
X185904286Y-76743571D01*
X185690001Y-76815000D01*
X185547143Y-76957857D01*
X185475715Y-77100714D01*
X185404286Y-77386429D01*
X185404286Y-77600714D01*
X185475715Y-77886429D01*
X185547143Y-78029286D01*
X185690001Y-78172143D01*
X185904286Y-78243571D01*
X186047143Y-78243571D01*
X186261429Y-78172143D01*
X186332858Y-78100714D01*
X186332858Y-77600714D01*
X186047143Y-77600714D01*
X186975715Y-78243571D02*
X186975715Y-76743571D01*
X187690001Y-78243571D02*
X187690001Y-76743571D01*
X188547144Y-78243571D01*
X188547144Y-76743571D01*
M02*
