  0
SECTION
  2
HEADER
  9
$ACADVER
  1
AC1014
  9
$HANDSEED
  5
FFFF
  9
$MEASUREMENT
 70
     1
  0
ENDSEC
  0
SECTION
  2
TABLES
  0
TABLE
  2
VPORT
  5
8
330
0
100
AcDbSymbolTable
 70
     4
  0
VPORT
  5
2E
330
8
100
AcDbSymbolTableRecord
100
AcDbViewportTableRecord
  2
*ACTIVE
 70
     0
 10
0.0
 20
0.0
 11
1.0
 21
1.0
 12
210.0
 22
148.5
 13
0.0
 23
0.0
 14
10.0
 24
10.0
 15
10.0
 25
10.0
 16
0.0
 26
0.0
 36
1.0
 17
0.0
 27
0.0
 37
0.0
 40
341.0
 41
1.24
 42
50.0
 43
0.0
 44
0.0
 50
0.0
 51
0.0
 71
     0
 72
   100
 73
     1
 74
     3
 75
     0
 76
     0
 77
     0
 78
     0
  0
ENDTAB
  0
TABLE
  2
LTYPE
  5
5
330
0
100
AcDbSymbolTable
 70
     1
  0
LTYPE
  5
14
330
5
100
AcDbSymbolTableRecord
100
AcDbLinetypeTableRecord
  2
BYBLOCK
 70
     0
  3

 72
    65
 73
     0
 40
0.0
  0
LTYPE
  5
15
330
5
100
AcDbSymbolTableRecord
100
AcDbLinetypeTableRecord
  2
BYLAYER
 70
     0
  3

 72
    65
 73
     0
 40
0.0
  0
LTYPE
  5
16
330
5
100
AcDbSymbolTableRecord
100
AcDbLinetypeTableRecord
  2
CONTINUOUS
 70
     0
  3
Solid line
 72
    65
 73
     0
 40
0.0
  0
ENDTAB
  0
TABLE
  2
LAYER
  5
2
100
AcDbSymbolTable
 70
9
  0
LAYER
  5
50
100
AcDbSymbolTableRecord
100
AcDbLayerTableRecord
  2
0
 70
0
  6
CONTINUOUS
  0
LAYER
  5
51
100
AcDbSymbolTableRecord
100
AcDbLayerTableRecord
  2
background-white
 70
0
  6
CONTINUOUS
  0
LAYER
  5
52
100
AcDbSymbolTableRecord
100
AcDbLayerTableRecord
  2
pads
 70
0
  6
CONTINUOUS
  0
LAYER
  5
53
100
AcDbSymbolTableRecord
100
AcDbLayerTableRecord
  2
silk
 70
0
  6
CONTINUOUS
  0
LAYER
  5
54
100
AcDbSymbolTableRecord
100
AcDbLayerTableRecord
  2
copper
 70
0
  6
CONTINUOUS
  0
LAYER
  5
55
100
AcDbSymbolTableRecord
100
AcDbLayerTableRecord
  2
mask
 70
0
  6
CONTINUOUS
  0
LAYER
  5
56
100
AcDbSymbolTableRecord
100
AcDbLayerTableRecord
  2
gear
 70
0
  6
CONTINUOUS
  0
LAYER
  5
57
100
AcDbSymbolTableRecord
100
AcDbLayerTableRecord
  2
outline
 70
0
  6
CONTINUOUS
  0
LAYER
  5
58
100
AcDbSymbolTableRecord
100
AcDbLayerTableRecord
  2
outline-segments
 70
0
  6
CONTINUOUS
  0
ENDTAB
  0
TABLE
  2
STYLE
  5
3
330
0
100
AcDbSymbolTable
 70
     1
  0
STYLE
  5
11
330
3
100
AcDbSymbolTableRecord
100
AcDbTextStyleTableRecord
  2
STANDARD
 70
     0
 40
0.0
 41
1.0
 50
0.0
 71
     0
 42
2.5
  3
txt
  4

  0
ENDTAB
  0
TABLE
  2
VIEW
  5
6
330
0
100
AcDbSymbolTable
 70
     0
  0
ENDTAB
  0
TABLE
  2
UCS
  5
7
330
0
100
AcDbSymbolTable
 70
     0
  0
ENDTAB
  0
TABLE
  2
APPID
  5
9
330
0
100
AcDbSymbolTable
 70
     2
  0
APPID
  5
12
330
9
100
AcDbSymbolTableRecord
100
AcDbRegAppTableRecord
  2
ACAD
 70
     0
  0
ENDTAB
  0
TABLE
  2
DIMSTYLE
  5
A
330
0
100
AcDbSymbolTable
 70
     1
  0
DIMSTYLE
105
27
330
A
100
AcDbSymbolTableRecord
100
AcDbDimStyleTableRecord
  2
ISO-25
 70
     0
  3

  4

  5

  6

  7

 40
1.0
 41
2.5
 42
0.625
 43
3.75
 44
1.25
 45
0.0
 46
0.0
 47
0.0
 48
0.0
140
2.5
141
2.5
142
0.0
143
0.03937007874016
144
1.0
145
0.0
146
1.0
147
0.625
 71
     0
 72
     0
 73
     0
 74
     0
 75
     0
 76
     0
 77
     1
 78
     8
170
     0
171
     3
172
     1
173
     0
174
     0
175
     0
176
     0
177
     0
178
     0
270
     2
271
     2
272
     2
273
     2
274
     3
340
11
275
     0
280
     0
281
     0
282
     0
283
     0
284
     8
285
     0
286
     0
287
     3
288
     0
  0
ENDTAB
  0
TABLE
  2
BLOCK_RECORD
  5
1
330
0
100
AcDbSymbolTable
 70
     1
  0
BLOCK_RECORD
  5
1F
330
1
100
AcDbSymbolTableRecord
100
AcDbBlockTableRecord
  2
*MODEL_SPACE
  0
BLOCK_RECORD
  5
1B
330
1
100
AcDbSymbolTableRecord
100
AcDbBlockTableRecord
  2
*PAPER_SPACE
  0
ENDTAB
  0
ENDSEC
  0
SECTION
  2
BLOCKS
  0
BLOCK
  5
20
330
1F
100
AcDbEntity
  8
0
100
AcDbBlockBegin
  2
*MODEL_SPACE
 70
     0
 10
0.0
 20
0.0
 30
0.0
  3
*MODEL_SPACE
  1

  0
ENDBLK
  5
21
330
1F
100
AcDbEntity
  8
0
100
AcDbBlockEnd
  0
BLOCK
  5
1C
330
1B
100
AcDbEntity
 67
     1
  8
0
100
AcDbBlockBegin
  2
*PAPER_SPACE
  1

  0
ENDBLK
  5
1D
330
1B
100
AcDbEntity
 67
     1
  8
0
100
AcDbBlockEnd
  0
ENDSEC
  0
SECTION
  2
ENTITIES
  0
LINE
  5
100
100
AcDbEntity
  8
outline-segments
 62
7
100
AcDbLine
 10
145.939648
 20
187.930664
 30
0.0
 11
106.845269
 21
187.930664
 31
0.0
  0
LINE
  5
101
100
AcDbEntity
  8
outline-segments
 62
7
100
AcDbLine
 10
106.845269
 20
187.930664
 30
0.0
 11
106.491594
 21
187.945622
 31
0.0
  0
LINE
  5
102
100
AcDbEntity
  8
outline-segments
 62
7
100
AcDbLine
 10
106.491594
 20
187.945622
 30
0.0
 11
106.141091
 21
187.988695
 31
0.0
  0
LINE
  5
103
100
AcDbEntity
  8
outline-segments
 62
7
100
AcDbLine
 10
106.141091
 20
187.988695
 30
0.0
 11
105.794802
 21
188.057249
 31
0.0
  0
LINE
  5
104
100
AcDbEntity
  8
outline-segments
 62
7
100
AcDbLine
 10
105.794802
 20
188.057249
 30
0.0
 11
105.453761
 21
188.148644
 31
0.0
  0
LINE
  5
105
100
AcDbEntity
  8
outline-segments
 62
7
100
AcDbLine
 10
105.453761
 20
188.148644
 30
0.0
 11
105.119015
 21
188.260232
 31
0.0
  0
LINE
  5
106
100
AcDbEntity
  8
outline-segments
 62
7
100
AcDbLine
 10
105.119015
 20
188.260232
 30
0.0
 11
104.791603
 21
188.389374
 31
0.0
  0
LINE
  5
107
100
AcDbEntity
  8
outline-segments
 62
7
100
AcDbLine
 10
104.791603
 20
188.389374
 30
0.0
 11
104.472562
 21
188.533420
 31
0.0
  0
LINE
  5
108
100
AcDbEntity
  8
outline-segments
 62
7
100
AcDbLine
 10
104.472562
 20
188.533420
 30
0.0
 11
104.162939
 21
188.689732
 31
0.0
  0
LINE
  5
109
100
AcDbEntity
  8
outline-segments
 62
7
100
AcDbLine
 10
104.162939
 20
188.689732
 30
0.0
 11
95.775930
 21
193.138675
 31
0.0
  0
LINE
  5
10a
100
AcDbEntity
  8
outline-segments
 62
7
100
AcDbLine
 10
95.775930
 20
193.138675
 30
0.0
 11
95.545475
 21
193.275541
 31
0.0
  0
LINE
  5
10b
100
AcDbEntity
  8
outline-segments
 62
7
100
AcDbLine
 10
95.545475
 20
193.275541
 30
0.0
 11
95.343805
 21
193.425926
 31
0.0
  0
LINE
  5
10c
100
AcDbEntity
  8
outline-segments
 62
7
100
AcDbLine
 10
95.343805
 20
193.425926
 30
0.0
 11
95.171520
 21
193.588828
 31
0.0
  0
LINE
  5
10d
100
AcDbEntity
  8
outline-segments
 62
7
100
AcDbLine
 10
95.171520
 20
193.588828
 30
0.0
 11
95.029212
 21
193.763255
 31
0.0
  0
LINE
  5
10e
100
AcDbEntity
  8
outline-segments
 62
7
100
AcDbLine
 10
95.029212
 20
193.763255
 30
0.0
 11
94.917486
 21
193.948201
 31
0.0
  0
LINE
  5
10f
100
AcDbEntity
  8
outline-segments
 62
7
100
AcDbLine
 10
94.917486
 20
193.948201
 30
0.0
 11
94.836942
 21
194.142675
 31
0.0
  0
LINE
  5
110
100
AcDbEntity
  8
outline-segments
 62
7
100
AcDbLine
 10
94.836942
 20
194.142675
 30
0.0
 11
94.788174
 21
194.345671
 31
0.0
  0
LINE
  5
111
100
AcDbEntity
  8
outline-segments
 62
7
100
AcDbLine
 10
94.788174
 20
194.345671
 30
0.0
 11
94.771777
 21
194.556195
 31
0.0
  0
LINE
  5
112
100
AcDbEntity
  8
outline-segments
 62
7
100
AcDbLine
 10
94.771777
 20
194.556195
 30
0.0
 11
94.771777
 21
202.224314
 31
0.0
  0
LINE
  5
113
100
AcDbEntity
  8
outline-segments
 62
7
100
AcDbLine
 10
94.771777
 20
202.224314
 30
0.0
 11
94.780667
 21
202.454235
 31
0.0
  0
LINE
  5
114
100
AcDbEntity
  8
outline-segments
 62
7
100
AcDbLine
 10
94.780667
 20
202.454235
 30
0.0
 11
94.806999
 21
202.695182
 31
0.0
  0
LINE
  5
115
100
AcDbEntity
  8
outline-segments
 62
7
100
AcDbLine
 10
94.806999
 20
202.695182
 30
0.0
 11
94.850373
 21
202.946546
 31
0.0
  0
LINE
  5
116
100
AcDbEntity
  8
outline-segments
 62
7
100
AcDbLine
 10
94.850373
 20
202.946546
 30
0.0
 11
94.910343
 21
203.207720
 31
0.0
  0
LINE
  5
117
100
AcDbEntity
  8
outline-segments
 62
7
100
AcDbLine
 10
94.910343
 20
203.207720
 30
0.0
 11
94.986469
 21
203.478100
 31
0.0
  0
LINE
  5
118
100
AcDbEntity
  8
outline-segments
 62
7
100
AcDbLine
 10
94.986469
 20
203.478100
 30
0.0
 11
95.078324
 21
203.757080
 31
0.0
  0
LINE
  5
119
100
AcDbEntity
  8
outline-segments
 62
7
100
AcDbLine
 10
95.078324
 20
203.757080
 30
0.0
 11
95.185467
 21
204.044046
 31
0.0
  0
LINE
  5
11a
100
AcDbEntity
  8
outline-segments
 62
7
100
AcDbLine
 10
95.185467
 20
204.044046
 30
0.0
 11
95.307463
 21
204.338401
 31
0.0
  0
LINE
  5
11b
100
AcDbEntity
  8
outline-segments
 62
7
100
AcDbLine
 10
95.307463
 20
204.338401
 30
0.0
 11
95.443881
 21
204.639532
 31
0.0
  0
LINE
  5
11c
100
AcDbEntity
  8
outline-segments
 62
7
100
AcDbLine
 10
95.443881
 20
204.639532
 30
0.0
 11
95.594280
 21
204.946833
 31
0.0
  0
LINE
  5
11d
100
AcDbEntity
  8
outline-segments
 62
7
100
AcDbLine
 10
95.594280
 20
204.946833
 30
0.0
 11
95.758229
 21
205.259699
 31
0.0
  0
LINE
  5
11e
100
AcDbEntity
  8
outline-segments
 62
7
100
AcDbLine
 10
95.758229
 20
205.259699
 30
0.0
 11
95.935289
 21
205.577523
 31
0.0
  0
LINE
  5
11f
100
AcDbEntity
  8
outline-segments
 62
7
100
AcDbLine
 10
95.935289
 20
205.577523
 30
0.0
 11
96.125030
 21
205.899697
 31
0.0
  0
LINE
  5
120
100
AcDbEntity
  8
outline-segments
 62
7
100
AcDbLine
 10
96.125030
 20
205.899697
 30
0.0
 11
96.327011
 21
206.225615
 31
0.0
  0
LINE
  5
121
100
AcDbEntity
  8
outline-segments
 62
7
100
AcDbLine
 10
96.327011
 20
206.225615
 30
0.0
 11
96.540803
 21
206.554672
 31
0.0
  0
LINE
  5
122
100
AcDbEntity
  8
outline-segments
 62
7
100
AcDbLine
 10
96.540803
 20
206.554672
 30
0.0
 11
96.765965
 21
206.886258
 31
0.0
  0
LINE
  5
123
100
AcDbEntity
  8
outline-segments
 62
7
100
AcDbLine
 10
96.765965
 20
206.886258
 30
0.0
 11
97.002064
 21
207.219771
 31
0.0
  0
LINE
  5
124
100
AcDbEntity
  8
outline-segments
 62
7
100
AcDbLine
 10
97.002064
 20
207.219771
 30
0.0
 11
97.248664
 21
207.554600
 31
0.0
  0
LINE
  5
125
100
AcDbEntity
  8
outline-segments
 62
7
100
AcDbLine
 10
97.248664
 20
207.554600
 30
0.0
 11
97.505334
 21
207.890140
 31
0.0
  0
LINE
  5
126
100
AcDbEntity
  8
outline-segments
 62
7
100
AcDbLine
 10
97.505334
 20
207.890140
 30
0.0
 11
97.771633
 21
208.225784
 31
0.0
  0
LINE
  5
127
100
AcDbEntity
  8
outline-segments
 62
7
100
AcDbLine
 10
97.771633
 20
208.225784
 30
0.0
 11
98.047127
 21
208.560923
 31
0.0
  0
LINE
  5
128
100
AcDbEntity
  8
outline-segments
 62
7
100
AcDbLine
 10
98.047127
 20
208.560923
 30
0.0
 11
98.331384
 21
208.894955
 31
0.0
  0
LINE
  5
129
100
AcDbEntity
  8
outline-segments
 62
7
100
AcDbLine
 10
98.331384
 20
208.894955
 30
0.0
 11
98.623967
 21
209.227269
 31
0.0
  0
LINE
  5
12a
100
AcDbEntity
  8
outline-segments
 62
7
100
AcDbLine
 10
98.623967
 20
209.227269
 30
0.0
 11
98.924440
 21
209.557263
 31
0.0
  0
LINE
  5
12b
100
AcDbEntity
  8
outline-segments
 62
7
100
AcDbLine
 10
98.924440
 20
209.557263
 30
0.0
 11
99.232367
 21
209.884325
 31
0.0
  0
LINE
  5
12c
100
AcDbEntity
  8
outline-segments
 62
7
100
AcDbLine
 10
99.232367
 20
209.884325
 30
0.0
 11
99.547316
 21
210.207853
 31
0.0
  0
LINE
  5
12d
100
AcDbEntity
  8
outline-segments
 62
7
100
AcDbLine
 10
99.547316
 20
210.207853
 30
0.0
 11
99.868849
 21
210.527235
 31
0.0
  0
LINE
  5
12e
100
AcDbEntity
  8
outline-segments
 62
7
100
AcDbLine
 10
99.868849
 20
210.527235
 30
0.0
 11
100.196531
 21
210.841871
 31
0.0
  0
LINE
  5
12f
100
AcDbEntity
  8
outline-segments
 62
7
100
AcDbLine
 10
100.196531
 20
210.841871
 30
0.0
 11
100.529929
 21
211.151150
 31
0.0
  0
LINE
  5
130
100
AcDbEntity
  8
outline-segments
 62
7
100
AcDbLine
 10
100.529929
 20
211.151150
 30
0.0
 11
100.868604
 21
211.454465
 31
0.0
  0
LINE
  5
131
100
AcDbEntity
  8
outline-segments
 62
7
100
AcDbLine
 10
100.868604
 20
211.454465
 30
0.0
 11
101.212125
 21
211.751210
 31
0.0
  0
LINE
  5
132
100
AcDbEntity
  8
outline-segments
 62
7
100
AcDbLine
 10
101.212125
 20
211.751210
 30
0.0
 11
101.560054
 21
212.040779
 31
0.0
  0
LINE
  5
133
100
AcDbEntity
  8
outline-segments
 62
7
100
AcDbLine
 10
101.560054
 20
212.040779
 30
0.0
 11
101.927414
 21
212.332154
 31
0.0
  0
LINE
  5
134
100
AcDbEntity
  8
outline-segments
 62
7
100
AcDbLine
 10
101.927414
 20
212.332154
 30
0.0
 11
102.307057
 21
212.616724
 31
0.0
  0
LINE
  5
135
100
AcDbEntity
  8
outline-segments
 62
7
100
AcDbLine
 10
102.307057
 20
212.616724
 30
0.0
 11
102.697859
 21
212.894089
 31
0.0
  0
LINE
  5
136
100
AcDbEntity
  8
outline-segments
 62
7
100
AcDbLine
 10
102.697859
 20
212.894089
 30
0.0
 11
103.098699
 21
213.163854
 31
0.0
  0
LINE
  5
137
100
AcDbEntity
  8
outline-segments
 62
7
100
AcDbLine
 10
103.098699
 20
213.163854
 30
0.0
 11
103.508457
 21
213.425621
 31
0.0
  0
LINE
  5
138
100
AcDbEntity
  8
outline-segments
 62
7
100
AcDbLine
 10
103.508457
 20
213.425621
 30
0.0
 11
103.926011
 21
213.678989
 31
0.0
  0
LINE
  5
139
100
AcDbEntity
  8
outline-segments
 62
7
100
AcDbLine
 10
103.926011
 20
213.678989
 30
0.0
 11
104.350236
 21
213.923560
 31
0.0
  0
LINE
  5
13a
100
AcDbEntity
  8
outline-segments
 62
7
100
AcDbLine
 10
104.350236
 20
213.923560
 30
0.0
 11
104.780012
 21
214.158939
 31
0.0
  0
LINE
  5
13b
100
AcDbEntity
  8
outline-segments
 62
7
100
AcDbLine
 10
104.780012
 20
214.158939
 30
0.0
 11
105.214220
 21
214.384725
 31
0.0
  0
LINE
  5
13c
100
AcDbEntity
  8
outline-segments
 62
7
100
AcDbLine
 10
105.214220
 20
214.384725
 30
0.0
 11
105.651732
 21
214.600520
 31
0.0
  0
LINE
  5
13d
100
AcDbEntity
  8
outline-segments
 62
7
100
AcDbLine
 10
105.651732
 20
214.600520
 30
0.0
 11
106.091431
 21
214.805925
 31
0.0
  0
LINE
  5
13e
100
AcDbEntity
  8
outline-segments
 62
7
100
AcDbLine
 10
106.091431
 20
214.805925
 30
0.0
 11
106.532195
 21
215.000545
 31
0.0
  0
LINE
  5
13f
100
AcDbEntity
  8
outline-segments
 62
7
100
AcDbLine
 10
106.532195
 20
215.000545
 30
0.0
 11
106.972899
 21
215.183978
 31
0.0
  0
LINE
  5
140
100
AcDbEntity
  8
outline-segments
 62
7
100
AcDbLine
 10
106.972899
 20
215.183978
 30
0.0
 11
107.412426
 21
215.355829
 31
0.0
  0
LINE
  5
141
100
AcDbEntity
  8
outline-segments
 62
7
100
AcDbLine
 10
107.412426
 20
215.355829
 30
0.0
 11
107.849647
 21
215.515699
 31
0.0
  0
LINE
  5
142
100
AcDbEntity
  8
outline-segments
 62
7
100
AcDbLine
 10
107.849647
 20
215.515699
 30
0.0
 11
108.283448
 21
215.663189
 31
0.0
  0
LINE
  5
143
100
AcDbEntity
  8
outline-segments
 62
7
100
AcDbLine
 10
108.283448
 20
215.663189
 30
0.0
 11
108.712703
 21
215.797899
 31
0.0
  0
LINE
  5
144
100
AcDbEntity
  8
outline-segments
 62
7
100
AcDbLine
 10
108.712703
 20
215.797899
 30
0.0
 11
109.136290
 21
215.919432
 31
0.0
  0
LINE
  5
145
100
AcDbEntity
  8
outline-segments
 62
7
100
AcDbLine
 10
109.136290
 20
215.919432
 30
0.0
 11
109.553087
 21
216.027394
 31
0.0
  0
LINE
  5
146
100
AcDbEntity
  8
outline-segments
 62
7
100
AcDbLine
 10
109.553087
 20
216.027394
 30
0.0
 11
109.961974
 21
216.121379
 31
0.0
  0
LINE
  5
147
100
AcDbEntity
  8
outline-segments
 62
7
100
AcDbLine
 10
109.961974
 20
216.121379
 30
0.0
 11
110.361829
 21
216.200997
 31
0.0
  0
LINE
  5
148
100
AcDbEntity
  8
outline-segments
 62
7
100
AcDbLine
 10
110.361829
 20
216.200997
 30
0.0
 11
110.751527
 21
216.265843
 31
0.0
  0
LINE
  5
149
100
AcDbEntity
  8
outline-segments
 62
7
100
AcDbLine
 10
110.751527
 20
216.265843
 30
0.0
 11
111.129950
 21
216.315523
 31
0.0
  0
LINE
  5
14a
100
AcDbEntity
  8
outline-segments
 62
7
100
AcDbLine
 10
111.129950
 20
216.315523
 30
0.0
 11
111.495975
 21
216.349638
 31
0.0
  0
LINE
  5
14b
100
AcDbEntity
  8
outline-segments
 62
7
100
AcDbLine
 10
111.495975
 20
216.349638
 30
0.0
 11
111.848479
 21
216.367785
 31
0.0
  0
LINE
  5
14c
100
AcDbEntity
  8
outline-segments
 62
7
100
AcDbLine
 10
111.848479
 20
216.367785
 30
0.0
 11
112.186342
 21
216.369478
 31
0.0
  0
LINE
  5
14d
100
AcDbEntity
  8
outline-segments
 62
7
100
AcDbLine
 10
112.186342
 20
216.369478
 30
0.0
 11
112.508442
 21
216.354520
 31
0.0
  0
LINE
  5
14e
100
AcDbEntity
  8
outline-segments
 62
7
100
AcDbLine
 10
112.508442
 20
216.354520
 30
0.0
 11
112.813654
 21
216.322389
 31
0.0
  0
LINE
  5
14f
100
AcDbEntity
  8
outline-segments
 62
7
100
AcDbLine
 10
112.813654
 20
216.322389
 30
0.0
 11
113.100860
 21
216.272701
 31
0.0
  0
LINE
  5
150
100
AcDbEntity
  8
outline-segments
 62
7
100
AcDbLine
 10
113.100860
 20
216.272701
 30
0.0
 11
113.368935
 21
216.205058
 31
0.0
  0
LINE
  5
151
100
AcDbEntity
  8
outline-segments
 62
7
100
AcDbLine
 10
113.368935
 20
216.205058
 30
0.0
 11
113.616760
 21
216.119062
 31
0.0
  0
LINE
  5
152
100
AcDbEntity
  8
outline-segments
 62
7
100
AcDbLine
 10
113.616760
 20
216.119062
 30
0.0
 11
113.843212
 21
216.014315
 31
0.0
  0
LINE
  5
153
100
AcDbEntity
  8
outline-segments
 62
7
100
AcDbLine
 10
113.843212
 20
216.014315
 30
0.0
 11
132.778308
 21
205.970072
 31
0.0
  0
LINE
  5
154
100
AcDbEntity
  8
outline-segments
 62
7
100
AcDbLine
 10
132.778308
 20
205.970072
 30
0.0
 11
133.110749
 21
205.793666
 31
0.0
  0
LINE
  5
155
100
AcDbEntity
  8
outline-segments
 62
7
100
AcDbLine
 10
133.110749
 20
205.793666
 30
0.0
 11
133.418402
 21
205.631038
 31
0.0
  0
LINE
  5
156
100
AcDbEntity
  8
outline-segments
 62
7
100
AcDbLine
 10
133.418402
 20
205.631038
 30
0.0
 11
133.704011
 21
205.481858
 31
0.0
  0
LINE
  5
157
100
AcDbEntity
  8
outline-segments
 62
7
100
AcDbLine
 10
133.704011
 20
205.481858
 30
0.0
 11
133.970333
 21
205.345796
 31
0.0
  0
LINE
  5
158
100
AcDbEntity
  8
outline-segments
 62
7
100
AcDbLine
 10
133.970333
 20
205.345796
 30
0.0
 11
134.220111
 21
205.222521
 31
0.0
  0
LINE
  5
159
100
AcDbEntity
  8
outline-segments
 62
7
100
AcDbLine
 10
134.220111
 20
205.222521
 30
0.0
 11
134.456102
 21
205.111701
 31
0.0
  0
LINE
  5
15a
100
AcDbEntity
  8
outline-segments
 62
7
100
AcDbLine
 10
134.456102
 20
205.111701
 30
0.0
 11
134.681047
 21
205.013008
 31
0.0
  0
LINE
  5
15b
100
AcDbEntity
  8
outline-segments
 62
7
100
AcDbLine
 10
134.681047
 20
205.013008
 30
0.0
 11
134.897707
 21
204.926106
 31
0.0
  0
LINE
  5
15c
100
AcDbEntity
  8
outline-segments
 62
7
100
AcDbLine
 10
134.897707
 20
204.926106
 30
0.0
 11
135.108820
 21
204.850671
 31
0.0
  0
LINE
  5
15d
100
AcDbEntity
  8
outline-segments
 62
7
100
AcDbLine
 10
135.108820
 20
204.850671
 30
0.0
 11
135.317145
 21
204.786364
 31
0.0
  0
LINE
  5
15e
100
AcDbEntity
  8
outline-segments
 62
7
100
AcDbLine
 10
135.317145
 20
204.786364
 30
0.0
 11
135.525428
 21
204.732860
 31
0.0
  0
LINE
  5
15f
100
AcDbEntity
  8
outline-segments
 62
7
100
AcDbLine
 10
135.525428
 20
204.732860
 30
0.0
 11
135.736417
 21
204.689827
 31
0.0
  0
LINE
  5
160
100
AcDbEntity
  8
outline-segments
 62
7
100
AcDbLine
 10
135.736417
 20
204.689827
 30
0.0
 11
135.952868
 21
204.656931
 31
0.0
  0
LINE
  5
161
100
AcDbEntity
  8
outline-segments
 62
7
100
AcDbLine
 10
135.952868
 20
204.656931
 30
0.0
 11
136.177525
 21
204.633845
 31
0.0
  0
LINE
  5
162
100
AcDbEntity
  8
outline-segments
 62
7
100
AcDbLine
 10
136.177525
 20
204.633845
 30
0.0
 11
136.413138
 21
204.620242
 31
0.0
  0
LINE
  5
163
100
AcDbEntity
  8
outline-segments
 62
7
100
AcDbLine
 10
136.413138
 20
204.620242
 30
0.0
 11
136.662462
 21
204.615783
 31
0.0
  0
LINE
  5
164
100
AcDbEntity
  8
outline-segments
 62
7
100
AcDbLine
 10
136.662462
 20
204.615783
 30
0.0
 11
145.939640
 21
204.615783
 31
0.0
  0
LINE
  5
165
100
AcDbEntity
  8
outline-segments
 62
7
100
AcDbLine
 10
145.939640
 20
204.615783
 30
0.0
 11
145.939648
 21
187.930664
 31
0.0
  0
ENDSEC
  0
SECTION
  2
OBJECTS
  0
DICTIONARY
  5
C
330
0
100
AcDbDictionary
  3
ACAD_GROUP
350
D
  3
ACAD_MLINESTYLE
350
17
  0
DICTIONARY
  5
D
330
C
100
AcDbDictionary
  0
DICTIONARY
  5
1A
330
C
100
AcDbDictionary
  0
DICTIONARY
  5
17
330
C
100
AcDbDictionary
  3
STANDARD
350
18
  0
DICTIONARY
  5
19
330
C
100
AcDbDictionary
  0
ENDSEC
  0
EOF
