  0
SECTION
  2
HEADER
  9
$ACADVER
  1
AC1014
  9
$HANDSEED
  5
FFFF
  9
$MEASUREMENT
 70
     1
  0
ENDSEC
  0
SECTION
  2
TABLES
  0
TABLE
  2
VPORT
  5
8
330
0
100
AcDbSymbolTable
 70
     4
  0
VPORT
  5
2E
330
8
100
AcDbSymbolTableRecord
100
AcDbViewportTableRecord
  2
*ACTIVE
 70
     0
 10
0.0
 20
0.0
 11
1.0
 21
1.0
 12
210.0
 22
148.5
 13
0.0
 23
0.0
 14
10.0
 24
10.0
 15
10.0
 25
10.0
 16
0.0
 26
0.0
 36
1.0
 17
0.0
 27
0.0
 37
0.0
 40
341.0
 41
1.24
 42
50.0
 43
0.0
 44
0.0
 50
0.0
 51
0.0
 71
     0
 72
   100
 73
     1
 74
     3
 75
     0
 76
     0
 77
     0
 78
     0
  0
ENDTAB
  0
TABLE
  2
LTYPE
  5
5
330
0
100
AcDbSymbolTable
 70
     1
  0
LTYPE
  5
14
330
5
100
AcDbSymbolTableRecord
100
AcDbLinetypeTableRecord
  2
BYBLOCK
 70
     0
  3

 72
    65
 73
     0
 40
0.0
  0
LTYPE
  5
15
330
5
100
AcDbSymbolTableRecord
100
AcDbLinetypeTableRecord
  2
BYLAYER
 70
     0
  3

 72
    65
 73
     0
 40
0.0
  0
LTYPE
  5
16
330
5
100
AcDbSymbolTableRecord
100
AcDbLinetypeTableRecord
  2
CONTINUOUS
 70
     0
  3
Solid line
 72
    65
 73
     0
 40
0.0
  0
ENDTAB
  0
TABLE
  2
LAYER
  5
2
100
AcDbSymbolTable
 70
8
  0
LAYER
  5
50
100
AcDbSymbolTableRecord
100
AcDbLayerTableRecord
  2
0
 70
0
  6
CONTINUOUS
  0
LAYER
  5
51
100
AcDbSymbolTableRecord
100
AcDbLayerTableRecord
  2
pads
 70
0
  6
CONTINUOUS
  0
LAYER
  5
52
100
AcDbSymbolTableRecord
100
AcDbLayerTableRecord
  2
copper
 70
0
  6
CONTINUOUS
  0
LAYER
  5
53
100
AcDbSymbolTableRecord
100
AcDbLayerTableRecord
  2
copper_corners
 70
0
  6
CONTINUOUS
  0
LAYER
  5
54
100
AcDbSymbolTableRecord
100
AcDbLayerTableRecord
  2
gear
 70
0
  6
CONTINUOUS
  0
LAYER
  5
55
100
AcDbSymbolTableRecord
100
AcDbLayerTableRecord
  2
gear_corners
 70
0
  6
CONTINUOUS
  0
LAYER
  5
56
100
AcDbSymbolTableRecord
100
AcDbLayerTableRecord
  2
outline
 70
0
  6
CONTINUOUS
  0
LAYER
  5
57
100
AcDbSymbolTableRecord
100
AcDbLayerTableRecord
  2
outline_corners
 70
0
  6
CONTINUOUS
  0
ENDTAB
  0
TABLE
  2
STYLE
  5
3
330
0
100
AcDbSymbolTable
 70
     1
  0
STYLE
  5
11
330
3
100
AcDbSymbolTableRecord
100
AcDbTextStyleTableRecord
  2
STANDARD
 70
     0
 40
0.0
 41
1.0
 50
0.0
 71
     0
 42
2.5
  3
txt
  4

  0
ENDTAB
  0
TABLE
  2
VIEW
  5
6
330
0
100
AcDbSymbolTable
 70
     0
  0
ENDTAB
  0
TABLE
  2
UCS
  5
7
330
0
100
AcDbSymbolTable
 70
     0
  0
ENDTAB
  0
TABLE
  2
APPID
  5
9
330
0
100
AcDbSymbolTable
 70
     2
  0
APPID
  5
12
330
9
100
AcDbSymbolTableRecord
100
AcDbRegAppTableRecord
  2
ACAD
 70
     0
  0
ENDTAB
  0
TABLE
  2
DIMSTYLE
  5
A
330
0
100
AcDbSymbolTable
 70
     1
  0
DIMSTYLE
105
27
330
A
100
AcDbSymbolTableRecord
100
AcDbDimStyleTableRecord
  2
ISO-25
 70
     0
  3

  4

  5

  6

  7

 40
1.0
 41
2.5
 42
0.625
 43
3.75
 44
1.25
 45
0.0
 46
0.0
 47
0.0
 48
0.0
140
2.5
141
2.5
142
0.0
143
0.03937007874016
144
1.0
145
0.0
146
1.0
147
0.625
 71
     0
 72
     0
 73
     0
 74
     0
 75
     0
 76
     0
 77
     1
 78
     8
170
     0
171
     3
172
     1
173
     0
174
     0
175
     0
176
     0
177
     0
178
     0
270
     2
271
     2
272
     2
273
     2
274
     3
340
11
275
     0
280
     0
281
     0
282
     0
283
     0
284
     8
285
     0
286
     0
287
     3
288
     0
  0
ENDTAB
  0
TABLE
  2
BLOCK_RECORD
  5
1
330
0
100
AcDbSymbolTable
 70
     1
  0
BLOCK_RECORD
  5
1F
330
1
100
AcDbSymbolTableRecord
100
AcDbBlockTableRecord
  2
*MODEL_SPACE
  0
BLOCK_RECORD
  5
1B
330
1
100
AcDbSymbolTableRecord
100
AcDbBlockTableRecord
  2
*PAPER_SPACE
  0
ENDTAB
  0
ENDSEC
  0
SECTION
  2
BLOCKS
  0
BLOCK
  5
20
330
1F
100
AcDbEntity
  8
0
100
AcDbBlockBegin
  2
*MODEL_SPACE
 70
     0
 10
0.0
 20
0.0
 30
0.0
  3
*MODEL_SPACE
  1

  0
ENDBLK
  5
21
330
1F
100
AcDbEntity
  8
0
100
AcDbBlockEnd
  0
BLOCK
  5
1C
330
1B
100
AcDbEntity
 67
     1
  8
0
100
AcDbBlockBegin
  2
*PAPER_SPACE
  1

  0
ENDBLK
  5
1D
330
1B
100
AcDbEntity
 67
     1
  8
0
100
AcDbBlockEnd
  0
ENDSEC
  0
SECTION
  2
ENTITIES
  0
LINE
  5
100
100
AcDbEntity
  8
outline_corners
 62
7
100
AcDbLine
 10
13.793076
 20
156.340073
 30
0.0
 11
13.793076
 21
147.496930
 31
0.0
  0
LINE
  5
101
100
AcDbEntity
  8
outline_corners
 62
7
100
AcDbLine
 10
13.793076
 20
147.496930
 30
0.0
 11
13.802703
 21
147.497032
 31
0.0
  0
LINE
  5
102
100
AcDbEntity
  8
outline_corners
 62
7
100
AcDbLine
 10
13.802703
 20
147.497032
 30
0.0
 11
13.831040
 21
147.497258
 31
0.0
  0
LINE
  5
103
100
AcDbEntity
  8
outline_corners
 62
7
100
AcDbLine
 10
13.831040
 20
147.497258
 30
0.0
 11
13.877263
 21
147.497489
 31
0.0
  0
LINE
  5
104
100
AcDbEntity
  8
outline_corners
 62
7
100
AcDbLine
 10
13.877263
 20
147.497489
 30
0.0
 11
13.940553
 21
147.497610
 31
0.0
  0
LINE
  5
105
100
AcDbEntity
  8
outline_corners
 62
7
100
AcDbLine
 10
13.940553
 20
147.497610
 30
0.0
 11
14.020086
 21
147.497503
 31
0.0
  0
LINE
  5
106
100
AcDbEntity
  8
outline_corners
 62
7
100
AcDbLine
 10
14.020086
 20
147.497503
 30
0.0
 11
14.115042
 21
147.496939
 31
0.0
  0
LINE
  5
107
100
AcDbEntity
  8
outline_corners
 62
7
100
AcDbLine
 10
14.115042
 20
147.496939
 30
0.0
 11
14.224599
 21
147.496092
 31
0.0
  0
LINE
  5
108
100
AcDbEntity
  8
outline_corners
 62
7
100
AcDbLine
 10
14.224599
 20
147.496092
 30
0.0
 11
14.347935
 21
147.494681
 31
0.0
  0
LINE
  5
109
100
AcDbEntity
  8
outline_corners
 62
7
100
AcDbLine
 10
14.347935
 20
147.494681
 30
0.0
 11
14.484229
 21
147.492423
 31
0.0
  0
LINE
  5
10a
100
AcDbEntity
  8
outline_corners
 62
7
100
AcDbLine
 10
14.484229
 20
147.492423
 30
0.0
 11
14.632659
 21
147.489403
 31
0.0
  0
LINE
  5
10b
100
AcDbEntity
  8
outline_corners
 62
7
100
AcDbLine
 10
14.632659
 20
147.489403
 30
0.0
 11
14.792404
 21
147.485480
 31
0.0
  0
LINE
  5
10c
100
AcDbEntity
  8
outline_corners
 62
7
100
AcDbLine
 10
14.792404
 20
147.485480
 30
0.0
 11
14.962643
 21
147.480485
 31
0.0
  0
LINE
  5
10d
100
AcDbEntity
  8
outline_corners
 62
7
100
AcDbLine
 10
14.962643
 20
147.480485
 30
0.0
 11
15.142553
 21
147.474333
 31
0.0
  0
LINE
  5
10e
100
AcDbEntity
  8
outline_corners
 62
7
100
AcDbLine
 10
15.142553
 20
147.474333
 30
0.0
 11
15.331314
 21
147.466882
 31
0.0
  0
LINE
  5
10f
100
AcDbEntity
  8
outline_corners
 62
7
100
AcDbLine
 10
15.331314
 20
147.466882
 30
0.0
 11
15.528103
 21
147.458048
 31
0.0
  0
LINE
  5
110
100
AcDbEntity
  8
outline_corners
 62
7
100
AcDbLine
 10
15.528103
 20
147.458048
 30
0.0
 11
15.732099
 21
147.447691
 31
0.0
  0
LINE
  5
111
100
AcDbEntity
  8
outline_corners
 62
7
100
AcDbLine
 10
15.732099
 20
147.447691
 30
0.0
 11
15.942482
 21
147.435696
 31
0.0
  0
LINE
  5
112
100
AcDbEntity
  8
outline_corners
 62
7
100
AcDbLine
 10
15.942482
 20
147.435696
 30
0.0
 11
16.158428
 21
147.421952
 31
0.0
  0
LINE
  5
113
100
AcDbEntity
  8
outline_corners
 62
7
100
AcDbLine
 10
16.158428
 20
147.421952
 30
0.0
 11
16.379117
 21
147.406345
 31
0.0
  0
LINE
  5
114
100
AcDbEntity
  8
outline_corners
 62
7
100
AcDbLine
 10
16.379117
 20
147.406345
 30
0.0
 11
16.603727
 21
147.388735
 31
0.0
  0
LINE
  5
115
100
AcDbEntity
  8
outline_corners
 62
7
100
AcDbLine
 10
16.603727
 20
147.388735
 30
0.0
 11
16.831436
 21
147.369007
 31
0.0
  0
LINE
  5
116
100
AcDbEntity
  8
outline_corners
 62
7
100
AcDbLine
 10
16.831436
 20
147.369007
 30
0.0
 11
17.061424
 21
147.347079
 31
0.0
  0
LINE
  5
117
100
AcDbEntity
  8
outline_corners
 62
7
100
AcDbLine
 10
17.061424
 20
147.347079
 30
0.0
 11
17.292868
 21
147.322808
 31
0.0
  0
LINE
  5
118
100
AcDbEntity
  8
outline_corners
 62
7
100
AcDbLine
 10
17.292868
 20
147.322808
 30
0.0
 11
17.524946
 21
147.296081
 31
0.0
  0
LINE
  5
119
100
AcDbEntity
  8
outline_corners
 62
7
100
AcDbLine
 10
17.524946
 20
147.296081
 30
0.0
 11
17.756839
 21
147.266770
 31
0.0
  0
LINE
  5
11a
100
AcDbEntity
  8
outline_corners
 62
7
100
AcDbLine
 10
17.756839
 20
147.266770
 30
0.0
 11
17.987723
 21
147.234768
 31
0.0
  0
LINE
  5
11b
100
AcDbEntity
  8
outline_corners
 62
7
100
AcDbLine
 10
17.987723
 20
147.234768
 30
0.0
 11
18.216778
 21
147.199956
 31
0.0
  0
LINE
  5
11c
100
AcDbEntity
  8
outline_corners
 62
7
100
AcDbLine
 10
18.216778
 20
147.199956
 30
0.0
 11
18.443181
 21
147.162215
 31
0.0
  0
LINE
  5
11d
100
AcDbEntity
  8
outline_corners
 62
7
100
AcDbLine
 10
18.443181
 20
147.162215
 30
0.0
 11
18.666112
 21
147.121431
 31
0.0
  0
LINE
  5
11e
100
AcDbEntity
  8
outline_corners
 62
7
100
AcDbLine
 10
18.666112
 20
147.121431
 30
0.0
 11
18.884748
 21
147.077486
 31
0.0
  0
LINE
  5
11f
100
AcDbEntity
  8
outline_corners
 62
7
100
AcDbLine
 10
18.884748
 20
147.077486
 30
0.0
 11
19.098269
 21
147.030262
 31
0.0
  0
LINE
  5
120
100
AcDbEntity
  8
outline_corners
 62
7
100
AcDbLine
 10
19.098269
 20
147.030262
 30
0.0
 11
19.305853
 21
146.979639
 31
0.0
  0
LINE
  5
121
100
AcDbEntity
  8
outline_corners
 62
7
100
AcDbLine
 10
19.305853
 20
146.979639
 30
0.0
 11
19.576422
 21
146.905906
 31
0.0
  0
LINE
  5
122
100
AcDbEntity
  8
outline_corners
 62
7
100
AcDbLine
 10
19.576422
 20
146.905906
 30
0.0
 11
19.877417
 21
146.815666
 31
0.0
  0
LINE
  5
123
100
AcDbEntity
  8
outline_corners
 62
7
100
AcDbLine
 10
19.877417
 20
146.815666
 30
0.0
 11
20.206437
 21
146.709683
 31
0.0
  0
LINE
  5
124
100
AcDbEntity
  8
outline_corners
 62
7
100
AcDbLine
 10
20.206437
 20
146.709683
 30
0.0
 11
20.561080
 21
146.588722
 31
0.0
  0
LINE
  5
125
100
AcDbEntity
  8
outline_corners
 62
7
100
AcDbLine
 10
20.561080
 20
146.588722
 30
0.0
 11
20.938946
 21
146.453552
 31
0.0
  0
LINE
  5
126
100
AcDbEntity
  8
outline_corners
 62
7
100
AcDbLine
 10
20.938946
 20
146.453552
 30
0.0
 11
21.337633
 21
146.304928
 31
0.0
  0
LINE
  5
127
100
AcDbEntity
  8
outline_corners
 62
7
100
AcDbLine
 10
21.337633
 20
146.304928
 30
0.0
 11
21.754740
 21
146.143624
 31
0.0
  0
LINE
  5
128
100
AcDbEntity
  8
outline_corners
 62
7
100
AcDbLine
 10
21.754740
 20
146.143624
 30
0.0
 11
22.187865
 21
145.970399
 31
0.0
  0
LINE
  5
129
100
AcDbEntity
  8
outline_corners
 62
7
100
AcDbLine
 10
22.187865
 20
145.970399
 30
0.0
 11
22.634609
 21
145.786020
 31
0.0
  0
LINE
  5
12a
100
AcDbEntity
  8
outline_corners
 62
7
100
AcDbLine
 10
22.634609
 20
145.786020
 30
0.0
 11
23.092570
 21
145.591250
 31
0.0
  0
LINE
  5
12b
100
AcDbEntity
  8
outline_corners
 62
7
100
AcDbLine
 10
23.092570
 20
145.591250
 30
0.0
 11
23.559346
 21
145.386853
 31
0.0
  0
LINE
  5
12c
100
AcDbEntity
  8
outline_corners
 62
7
100
AcDbLine
 10
23.559346
 20
145.386853
 30
0.0
 11
24.032536
 21
145.173595
 31
0.0
  0
LINE
  5
12d
100
AcDbEntity
  8
outline_corners
 62
7
100
AcDbLine
 10
24.032536
 20
145.173595
 30
0.0
 11
24.509740
 21
144.952243
 31
0.0
  0
LINE
  5
12e
100
AcDbEntity
  8
outline_corners
 62
7
100
AcDbLine
 10
24.509740
 20
144.952243
 30
0.0
 11
24.988556
 21
144.723555
 31
0.0
  0
LINE
  5
12f
100
AcDbEntity
  8
outline_corners
 62
7
100
AcDbLine
 10
24.988556
 20
144.723555
 30
0.0
 11
25.466583
 21
144.488303
 31
0.0
  0
LINE
  5
130
100
AcDbEntity
  8
outline_corners
 62
7
100
AcDbLine
 10
25.466583
 20
144.488303
 30
0.0
 11
25.941420
 21
144.247246
 31
0.0
  0
LINE
  5
131
100
AcDbEntity
  8
outline_corners
 62
7
100
AcDbLine
 10
25.941420
 20
144.247246
 30
0.0
 11
26.410667
 21
144.001151
 31
0.0
  0
LINE
  5
132
100
AcDbEntity
  8
outline_corners
 62
7
100
AcDbLine
 10
26.410667
 20
144.001151
 30
0.0
 11
26.871920
 21
143.750780
 31
0.0
  0
LINE
  5
133
100
AcDbEntity
  8
outline_corners
 62
7
100
AcDbLine
 10
26.871920
 20
143.750780
 30
0.0
 11
27.322781
 21
143.496902
 31
0.0
  0
LINE
  5
134
100
AcDbEntity
  8
outline_corners
 62
7
100
AcDbLine
 10
27.322781
 20
143.496902
 30
0.0
 11
27.760847
 21
143.240277
 31
0.0
  0
LINE
  5
135
100
AcDbEntity
  8
outline_corners
 62
7
100
AcDbLine
 10
27.760847
 20
143.240277
 30
0.0
 11
28.183717
 21
142.981674
 31
0.0
  0
LINE
  5
136
100
AcDbEntity
  8
outline_corners
 62
7
100
AcDbLine
 10
28.183717
 20
142.981674
 30
0.0
 11
28.588993
 21
142.721854
 31
0.0
  0
LINE
  5
137
100
AcDbEntity
  8
outline_corners
 62
7
100
AcDbLine
 10
28.588993
 20
142.721854
 30
0.0
 11
28.974268
 21
142.461581
 31
0.0
  0
LINE
  5
138
100
AcDbEntity
  8
outline_corners
 62
7
100
AcDbLine
 10
28.974268
 20
142.461581
 30
0.0
 11
29.337144
 21
142.201623
 31
0.0
  0
LINE
  5
139
100
AcDbEntity
  8
outline_corners
 62
7
100
AcDbLine
 10
29.337144
 20
142.201623
 30
0.0
 11
29.675221
 21
141.942743
 31
0.0
  0
LINE
  5
13a
100
AcDbEntity
  8
outline_corners
 62
7
100
AcDbLine
 10
29.675221
 20
141.942743
 30
0.0
 11
29.986097
 21
141.685704
 31
0.0
  0
LINE
  5
13b
100
AcDbEntity
  8
outline_corners
 62
7
100
AcDbLine
 10
29.986097
 20
141.685704
 30
0.0
 11
30.267371
 21
141.431275
 31
0.0
  0
LINE
  5
13c
100
AcDbEntity
  8
outline_corners
 62
7
100
AcDbLine
 10
30.267371
 20
141.431275
 30
0.0
 11
30.516638
 21
141.180213
 31
0.0
  0
LINE
  5
13d
100
AcDbEntity
  8
outline_corners
 62
7
100
AcDbLine
 10
30.516638
 20
141.180213
 30
0.0
 11
30.731505
 21
140.933288
 31
0.0
  0
LINE
  5
13e
100
AcDbEntity
  8
outline_corners
 62
7
100
AcDbLine
 10
30.731505
 20
140.933288
 30
0.0
 11
30.909565
 21
140.691266
 31
0.0
  0
LINE
  5
13f
100
AcDbEntity
  8
outline_corners
 62
7
100
AcDbLine
 10
30.909565
 20
140.691266
 30
0.0
 11
31.048415
 21
140.454907
 31
0.0
  0
LINE
  5
140
100
AcDbEntity
  8
outline_corners
 62
7
100
AcDbLine
 10
31.048415
 20
140.454907
 30
0.0
 11
31.145661
 21
140.224978
 31
0.0
  0
LINE
  5
141
100
AcDbEntity
  8
outline_corners
 62
7
100
AcDbLine
 10
31.145661
 20
140.224978
 30
0.0
 11
31.169142
 21
140.132711
 31
0.0
  0
LINE
  5
142
100
AcDbEntity
  8
outline_corners
 62
7
100
AcDbLine
 10
31.169142
 20
140.132711
 30
0.0
 11
31.181164
 21
140.032692
 31
0.0
  0
LINE
  5
143
100
AcDbEntity
  8
outline_corners
 62
7
100
AcDbLine
 10
31.181164
 20
140.032692
 30
0.0
 11
31.182575
 21
139.925625
 31
0.0
  0
LINE
  5
144
100
AcDbEntity
  8
outline_corners
 62
7
100
AcDbLine
 10
31.182575
 20
139.925625
 30
0.0
 11
31.173798
 21
139.812203
 31
0.0
  0
LINE
  5
145
100
AcDbEntity
  8
outline_corners
 62
7
100
AcDbLine
 10
31.173798
 20
139.812203
 30
0.0
 11
31.155680
 21
139.693133
 31
0.0
  0
LINE
  5
146
100
AcDbEntity
  8
outline_corners
 62
7
100
AcDbLine
 10
31.155680
 20
139.693133
 30
0.0
 11
31.128925
 21
139.569116
 31
0.0
  0
LINE
  5
147
100
AcDbEntity
  8
outline_corners
 62
7
100
AcDbLine
 10
31.128925
 20
139.569116
 30
0.0
 11
31.094234
 21
139.440846
 31
0.0
  0
LINE
  5
148
100
AcDbEntity
  8
outline_corners
 62
7
100
AcDbLine
 10
31.094234
 20
139.440846
 30
0.0
 11
31.052302
 21
139.309029
 31
0.0
  0
LINE
  5
149
100
AcDbEntity
  8
outline_corners
 62
7
100
AcDbLine
 10
31.052302
 20
139.309029
 30
0.0
 11
31.003835
 21
139.174363
 31
0.0
  0
LINE
  5
14a
100
AcDbEntity
  8
outline_corners
 62
7
100
AcDbLine
 10
31.003835
 20
139.174363
 30
0.0
 11
30.949530
 21
139.037551
 31
0.0
  0
LINE
  5
14b
100
AcDbEntity
  8
outline_corners
 62
7
100
AcDbLine
 10
30.949530
 20
139.037551
 30
0.0
 11
30.890094
 21
138.899287
 31
0.0
  0
LINE
  5
14c
100
AcDbEntity
  8
outline_corners
 62
7
100
AcDbLine
 10
30.890094
 20
138.899287
 30
0.0
 11
30.826230
 21
138.760279
 31
0.0
  0
LINE
  5
14d
100
AcDbEntity
  8
outline_corners
 62
7
100
AcDbLine
 10
30.826230
 20
138.760279
 30
0.0
 11
30.758635
 21
138.621225
 31
0.0
  0
LINE
  5
14e
100
AcDbEntity
  8
outline_corners
 62
7
100
AcDbLine
 10
30.758635
 20
138.621225
 30
0.0
 11
30.688012
 21
138.482823
 31
0.0
  0
LINE
  5
14f
100
AcDbEntity
  8
outline_corners
 62
7
100
AcDbLine
 10
30.688012
 20
138.482823
 30
0.0
 11
30.615066
 21
138.345776
 31
0.0
  0
LINE
  5
150
100
AcDbEntity
  8
outline_corners
 62
7
100
AcDbLine
 10
30.615066
 20
138.345776
 30
0.0
 11
30.540500
 21
138.210783
 31
0.0
  0
LINE
  5
151
100
AcDbEntity
  8
outline_corners
 62
7
100
AcDbLine
 10
30.540500
 20
138.210783
 30
0.0
 11
30.465011
 21
138.078545
 31
0.0
  0
LINE
  5
152
100
AcDbEntity
  8
outline_corners
 62
7
100
AcDbLine
 10
30.465011
 20
138.078545
 30
0.0
 11
30.389305
 21
137.949762
 31
0.0
  0
LINE
  5
153
100
AcDbEntity
  8
outline_corners
 62
7
100
AcDbLine
 10
30.389305
 20
137.949762
 30
0.0
 11
30.314082
 21
137.825135
 31
0.0
  0
LINE
  5
154
100
AcDbEntity
  8
outline_corners
 62
7
100
AcDbLine
 10
30.314082
 20
137.825135
 30
0.0
 11
30.240046
 21
137.705366
 31
0.0
  0
LINE
  5
155
100
AcDbEntity
  8
outline_corners
 62
7
100
AcDbLine
 10
30.240046
 20
137.705366
 30
0.0
 11
30.167899
 21
137.591150
 31
0.0
  0
LINE
  5
156
100
AcDbEntity
  8
outline_corners
 62
7
100
AcDbLine
 10
30.167899
 20
137.591150
 30
0.0
 11
30.098340
 21
137.483195
 31
0.0
  0
LINE
  5
157
100
AcDbEntity
  8
outline_corners
 62
7
100
AcDbLine
 10
30.098340
 20
137.483195
 30
0.0
 11
30.032071
 21
137.382193
 31
0.0
  0
LINE
  5
158
100
AcDbEntity
  8
outline_corners
 62
7
100
AcDbLine
 10
30.032071
 20
137.382193
 30
0.0
 11
29.969801
 21
137.288854
 31
0.0
  0
LINE
  5
159
100
AcDbEntity
  8
outline_corners
 62
7
100
AcDbLine
 10
29.969801
 20
137.288854
 30
0.0
 11
29.912225
 21
137.203868
 31
0.0
  0
LINE
  5
15a
100
AcDbEntity
  8
outline_corners
 62
7
100
AcDbLine
 10
29.912225
 20
137.203868
 30
0.0
 11
29.860051
 21
137.127945
 31
0.0
  0
LINE
  5
15b
100
AcDbEntity
  8
outline_corners
 62
7
100
AcDbLine
 10
29.860051
 20
137.127945
 30
0.0
 11
29.813975
 21
137.061778
 31
0.0
  0
LINE
  5
15c
100
AcDbEntity
  8
outline_corners
 62
7
100
AcDbLine
 10
29.813975
 20
137.061778
 30
0.0
 11
29.774704
 21
137.006073
 31
0.0
  0
LINE
  5
15d
100
AcDbEntity
  8
outline_corners
 62
7
100
AcDbLine
 10
29.774704
 20
137.006073
 30
0.0
 11
29.742937
 21
136.961527
 31
0.0
  0
LINE
  5
15e
100
AcDbEntity
  8
outline_corners
 62
7
100
AcDbLine
 10
29.742937
 20
136.961527
 30
0.0
 11
29.719372
 21
136.928840
 31
0.0
  0
LINE
  5
15f
100
AcDbEntity
  8
outline_corners
 62
7
100
AcDbLine
 10
29.719372
 20
136.928840
 30
0.0
 11
29.704724
 21
136.908717
 31
0.0
  0
LINE
  5
160
100
AcDbEntity
  8
outline_corners
 62
7
100
AcDbLine
 10
29.704724
 20
136.908717
 30
0.0
 11
29.699672
 21
136.901859
 31
0.0
  0
LINE
  5
161
100
AcDbEntity
  8
outline_corners
 62
7
100
AcDbLine
 10
29.699672
 20
136.901859
 30
0.0
 11
37.041150
 21
132.257819
 31
0.0
  0
LINE
  5
162
100
AcDbEntity
  8
outline_corners
 62
7
100
AcDbLine
 10
37.041150
 20
132.257819
 30
0.0
 11
37.046851
 21
132.265919
 31
0.0
  0
LINE
  5
163
100
AcDbEntity
  8
outline_corners
 62
7
100
AcDbLine
 10
37.046851
 20
132.265919
 30
0.0
 11
37.063446
 21
132.289654
 31
0.0
  0
LINE
  5
164
100
AcDbEntity
  8
outline_corners
 62
7
100
AcDbLine
 10
37.063446
 20
132.289654
 30
0.0
 11
37.090285
 21
132.328129
 31
0.0
  0
LINE
  5
165
100
AcDbEntity
  8
outline_corners
 62
7
100
AcDbLine
 10
37.090285
 20
132.328129
 30
0.0
 11
37.126680
 21
132.380470
 31
0.0
  0
LINE
  5
166
100
AcDbEntity
  8
outline_corners
 62
7
100
AcDbLine
 10
37.126680
 20
132.380470
 30
0.0
 11
37.171949
 21
132.445802
 31
0.0
  0
LINE
  5
167
100
AcDbEntity
  8
outline_corners
 62
7
100
AcDbLine
 10
37.171949
 20
132.445802
 30
0.0
 11
37.225410
 21
132.523246
 31
0.0
  0
LINE
  5
168
100
AcDbEntity
  8
outline_corners
 62
7
100
AcDbLine
 10
37.225410
 20
132.523246
 30
0.0
 11
37.286373
 21
132.611926
 31
0.0
  0
LINE
  5
169
100
AcDbEntity
  8
outline_corners
 62
7
100
AcDbLine
 10
37.286373
 20
132.611926
 30
0.0
 11
37.354166
 21
132.710961
 31
0.0
  0
LINE
  5
16a
100
AcDbEntity
  8
outline_corners
 62
7
100
AcDbLine
 10
37.354166
 20
132.710961
 30
0.0
 11
37.428105
 21
132.819475
 31
0.0
  0
LINE
  5
16b
100
AcDbEntity
  8
outline_corners
 62
7
100
AcDbLine
 10
37.428105
 20
132.819475
 30
0.0
 11
37.507505
 21
132.936592
 31
0.0
  0
LINE
  5
16c
100
AcDbEntity
  8
outline_corners
 62
7
100
AcDbLine
 10
37.507505
 20
132.936592
 30
0.0
 11
37.591687
 21
133.061433
 31
0.0
  0
LINE
  5
16d
100
AcDbEntity
  8
outline_corners
 62
7
100
AcDbLine
 10
37.591687
 20
133.061433
 30
0.0
 11
37.679969
 21
133.193118
 31
0.0
  0
LINE
  5
16e
100
AcDbEntity
  8
outline_corners
 62
7
100
AcDbLine
 10
37.679969
 20
133.193118
 30
0.0
 11
37.771665
 21
133.330775
 31
0.0
  0
LINE
  5
16f
100
AcDbEntity
  8
outline_corners
 62
7
100
AcDbLine
 10
37.771665
 20
133.330775
 30
0.0
 11
37.866097
 21
133.473517
 31
0.0
  0
LINE
  5
170
100
AcDbEntity
  8
outline_corners
 62
7
100
AcDbLine
 10
37.866097
 20
133.473517
 30
0.0
 11
37.962583
 21
133.620473
 31
0.0
  0
LINE
  5
171
100
AcDbEntity
  8
outline_corners
 62
7
100
AcDbLine
 10
37.962583
 20
133.620473
 30
0.0
 11
38.060438
 21
133.770765
 31
0.0
  0
LINE
  5
172
100
AcDbEntity
  8
outline_corners
 62
7
100
AcDbLine
 10
38.060438
 20
133.770765
 30
0.0
 11
38.158984
 21
133.923515
 31
0.0
  0
LINE
  5
173
100
AcDbEntity
  8
outline_corners
 62
7
100
AcDbLine
 10
38.158984
 20
133.923515
 30
0.0
 11
38.257536
 21
134.077842
 31
0.0
  0
LINE
  5
174
100
AcDbEntity
  8
outline_corners
 62
7
100
AcDbLine
 10
38.257536
 20
134.077842
 30
0.0
 11
38.355414
 21
134.232870
 31
0.0
  0
LINE
  5
175
100
AcDbEntity
  8
outline_corners
 62
7
100
AcDbLine
 10
38.355414
 20
134.232870
 30
0.0
 11
38.451937
 21
134.387722
 31
0.0
  0
LINE
  5
176
100
AcDbEntity
  8
outline_corners
 62
7
100
AcDbLine
 10
38.451937
 20
134.387722
 30
0.0
 11
38.546419
 21
134.541522
 31
0.0
  0
LINE
  5
177
100
AcDbEntity
  8
outline_corners
 62
7
100
AcDbLine
 10
38.546419
 20
134.541522
 30
0.0
 11
38.638181
 21
134.693389
 31
0.0
  0
LINE
  5
178
100
AcDbEntity
  8
outline_corners
 62
7
100
AcDbLine
 10
38.638181
 20
134.693389
 30
0.0
 11
38.726539
 21
134.842444
 31
0.0
  0
LINE
  5
179
100
AcDbEntity
  8
outline_corners
 62
7
100
AcDbLine
 10
38.726539
 20
134.842444
 30
0.0
 11
38.810813
 21
134.987814
 31
0.0
  0
LINE
  5
17a
100
AcDbEntity
  8
outline_corners
 62
7
100
AcDbLine
 10
38.810813
 20
134.987814
 30
0.0
 11
38.890324
 21
135.128618
 31
0.0
  0
LINE
  5
17b
100
AcDbEntity
  8
outline_corners
 62
7
100
AcDbLine
 10
38.890324
 20
135.128618
 30
0.0
 11
38.964385
 21
135.263980
 31
0.0
  0
LINE
  5
17c
100
AcDbEntity
  8
outline_corners
 62
7
100
AcDbLine
 10
38.964385
 20
135.263980
 30
0.0
 11
39.032313
 21
135.393020
 31
0.0
  0
LINE
  5
17d
100
AcDbEntity
  8
outline_corners
 62
7
100
AcDbLine
 10
39.032313
 20
135.393020
 30
0.0
 11
39.093431
 21
135.514861
 31
0.0
  0
LINE
  5
17e
100
AcDbEntity
  8
outline_corners
 62
7
100
AcDbLine
 10
39.093431
 20
135.514861
 30
0.0
 11
39.147056
 21
135.628628
 31
0.0
  0
LINE
  5
17f
100
AcDbEntity
  8
outline_corners
 62
7
100
AcDbLine
 10
39.147056
 20
135.628628
 30
0.0
 11
39.192502
 21
135.733440
 31
0.0
  0
LINE
  5
180
100
AcDbEntity
  8
outline_corners
 62
7
100
AcDbLine
 10
39.192502
 20
135.733440
 30
0.0
 11
39.229092
 21
135.828419
 31
0.0
  0
LINE
  5
181
100
AcDbEntity
  8
outline_corners
 62
7
100
AcDbLine
 10
39.229092
 20
135.828419
 30
0.0
 11
39.256129
 21
135.912687
 31
0.0
  0
LINE
  5
182
100
AcDbEntity
  8
outline_corners
 62
7
100
AcDbLine
 10
39.256129
 20
135.912687
 30
0.0
 11
39.490286
 21
136.708162
 31
0.0
  0
LINE
  5
183
100
AcDbEntity
  8
outline_corners
 62
7
100
AcDbLine
 10
39.490286
 20
136.708162
 30
0.0
 11
39.733389
 21
137.460589
 31
0.0
  0
LINE
  5
184
100
AcDbEntity
  8
outline_corners
 62
7
100
AcDbLine
 10
39.733389
 20
137.460589
 30
0.0
 11
39.984350
 21
138.171823
 31
0.0
  0
LINE
  5
185
100
AcDbEntity
  8
outline_corners
 62
7
100
AcDbLine
 10
39.984350
 20
138.171823
 30
0.0
 11
40.242089
 21
138.843715
 31
0.0
  0
LINE
  5
186
100
AcDbEntity
  8
outline_corners
 62
7
100
AcDbLine
 10
40.242089
 20
138.843715
 30
0.0
 11
40.505524
 21
139.478116
 31
0.0
  0
LINE
  5
187
100
AcDbEntity
  8
outline_corners
 62
7
100
AcDbLine
 10
40.505524
 20
139.478116
 30
0.0
 11
40.773567
 21
140.076879
 31
0.0
  0
LINE
  5
188
100
AcDbEntity
  8
outline_corners
 62
7
100
AcDbLine
 10
40.773567
 20
140.076879
 30
0.0
 11
41.045138
 21
140.641857
 31
0.0
  0
LINE
  5
189
100
AcDbEntity
  8
outline_corners
 62
7
100
AcDbLine
 10
41.045138
 20
140.641857
 30
0.0
 11
41.319154
 21
141.174901
 31
0.0
  0
LINE
  5
18a
100
AcDbEntity
  8
outline_corners
 62
7
100
AcDbLine
 10
41.319154
 20
141.174901
 30
0.0
 11
41.594529
 21
141.677864
 31
0.0
  0
LINE
  5
18b
100
AcDbEntity
  8
outline_corners
 62
7
100
AcDbLine
 10
41.594529
 20
141.677864
 30
0.0
 11
41.870181
 21
142.152598
 31
0.0
  0
LINE
  5
18c
100
AcDbEntity
  8
outline_corners
 62
7
100
AcDbLine
 10
41.870181
 20
142.152598
 30
0.0
 11
42.145026
 21
142.600953
 31
0.0
  0
LINE
  5
18d
100
AcDbEntity
  8
outline_corners
 62
7
100
AcDbLine
 10
42.145026
 20
142.600953
 30
0.0
 11
42.417983
 21
143.024786
 31
0.0
  0
LINE
  5
18e
100
AcDbEntity
  8
outline_corners
 62
7
100
AcDbLine
 10
42.417983
 20
143.024786
 30
0.0
 11
42.687968
 21
143.425942
 31
0.0
  0
LINE
  5
18f
100
AcDbEntity
  8
outline_corners
 62
7
100
AcDbLine
 10
42.687968
 20
143.425942
 30
0.0
 11
42.953895
 21
143.806282
 31
0.0
  0
LINE
  5
190
100
AcDbEntity
  8
outline_corners
 62
7
100
AcDbLine
 10
42.953895
 20
143.806282
 30
0.0
 11
43.214682
 21
144.167651
 31
0.0
  0
LINE
  5
191
100
AcDbEntity
  8
outline_corners
 62
7
100
AcDbLine
 10
43.214682
 20
144.167651
 30
0.0
 11
43.469250
 21
144.511905
 31
0.0
  0
LINE
  5
192
100
AcDbEntity
  8
outline_corners
 62
7
100
AcDbLine
 10
43.469250
 20
144.511905
 30
0.0
 11
43.716507
 21
144.840895
 31
0.0
  0
LINE
  5
193
100
AcDbEntity
  8
outline_corners
 62
7
100
AcDbLine
 10
43.716507
 20
144.840895
 30
0.0
 11
43.955377
 21
145.156473
 31
0.0
  0
LINE
  5
194
100
AcDbEntity
  8
outline_corners
 62
7
100
AcDbLine
 10
43.955377
 20
145.156473
 30
0.0
 11
44.184773
 21
145.460491
 31
0.0
  0
LINE
  5
195
100
AcDbEntity
  8
outline_corners
 62
7
100
AcDbLine
 10
44.184773
 20
145.460491
 30
0.0
 11
44.403614
 21
145.754801
 31
0.0
  0
LINE
  5
196
100
AcDbEntity
  8
outline_corners
 62
7
100
AcDbLine
 10
44.403614
 20
145.754801
 30
0.0
 11
44.610813
 21
146.041256
 31
0.0
  0
LINE
  5
197
100
AcDbEntity
  8
outline_corners
 62
7
100
AcDbLine
 10
44.610813
 20
146.041256
 30
0.0
 11
44.805292
 21
146.321706
 31
0.0
  0
LINE
  5
198
100
AcDbEntity
  8
outline_corners
 62
7
100
AcDbLine
 10
44.805292
 20
146.321706
 30
0.0
 11
44.985963
 21
146.598007
 31
0.0
  0
LINE
  5
199
100
AcDbEntity
  8
outline_corners
 62
7
100
AcDbLine
 10
44.985963
 20
146.598007
 30
0.0
 11
45.151746
 21
146.872008
 31
0.0
  0
LINE
  5
19a
100
AcDbEntity
  8
outline_corners
 62
7
100
AcDbLine
 10
45.151746
 20
146.872008
 30
0.0
 11
45.301555
 21
147.145564
 31
0.0
  0
LINE
  5
19b
100
AcDbEntity
  8
outline_corners
 62
7
100
AcDbLine
 10
45.301555
 20
147.145564
 30
0.0
 11
45.434306
 21
147.420524
 31
0.0
  0
LINE
  5
19c
100
AcDbEntity
  8
outline_corners
 62
7
100
AcDbLine
 10
45.434306
 20
147.420524
 30
0.0
 11
45.548923
 21
147.698742
 31
0.0
  0
LINE
  5
19d
100
AcDbEntity
  8
outline_corners
 62
7
100
AcDbLine
 10
45.548923
 20
147.698742
 30
0.0
 11
45.644311
 21
147.982070
 31
0.0
  0
LINE
  5
19e
100
AcDbEntity
  8
outline_corners
 62
7
100
AcDbLine
 10
45.644311
 20
147.982070
 30
0.0
 11
45.719396
 21
148.272358
 31
0.0
  0
LINE
  5
19f
100
AcDbEntity
  8
outline_corners
 62
7
100
AcDbLine
 10
45.719396
 20
148.272358
 30
0.0
 11
45.773089
 21
148.571463
 31
0.0
  0
LINE
  5
1a0
100
AcDbEntity
  8
outline_corners
 62
7
100
AcDbLine
 10
45.773089
 20
148.571463
 30
0.0
 11
45.804311
 21
148.881233
 31
0.0
  0
LINE
  5
1a1
100
AcDbEntity
  8
outline_corners
 62
7
100
AcDbLine
 10
45.804311
 20
148.881233
 30
0.0
 11
45.811988
 21
149.203522
 31
0.0
  0
LINE
  5
1a2
100
AcDbEntity
  8
outline_corners
 62
7
100
AcDbLine
 10
45.811988
 20
149.203522
 30
0.0
 11
45.770453
 21
149.804839
 31
0.0
  0
LINE
  5
1a3
100
AcDbEntity
  8
outline_corners
 62
7
100
AcDbLine
 10
45.770453
 20
149.804839
 30
0.0
 11
45.741130
 21
150.383807
 31
0.0
  0
LINE
  5
1a4
100
AcDbEntity
  8
outline_corners
 62
7
100
AcDbLine
 10
45.741130
 20
150.383807
 30
0.0
 11
45.723435
 21
150.941879
 31
0.0
  0
LINE
  5
1a5
100
AcDbEntity
  8
outline_corners
 62
7
100
AcDbLine
 10
45.723435
 20
150.941879
 30
0.0
 11
45.716802
 21
151.480505
 31
0.0
  0
LINE
  5
1a6
100
AcDbEntity
  8
outline_corners
 62
7
100
AcDbLine
 10
45.716802
 20
151.480505
 30
0.0
 11
45.720641
 21
152.001146
 31
0.0
  0
LINE
  5
1a7
100
AcDbEntity
  8
outline_corners
 62
7
100
AcDbLine
 10
45.720641
 20
152.001146
 30
0.0
 11
45.734385
 21
152.505251
 31
0.0
  0
LINE
  5
1a8
100
AcDbEntity
  8
outline_corners
 62
7
100
AcDbLine
 10
45.734385
 20
152.505251
 30
0.0
 11
45.757442
 21
152.994278
 31
0.0
  0
LINE
  5
1a9
100
AcDbEntity
  8
outline_corners
 62
7
100
AcDbLine
 10
45.757442
 20
152.994278
 30
0.0
 11
45.789249
 21
153.469675
 31
0.0
  0
LINE
  5
1aa
100
AcDbEntity
  8
outline_corners
 62
7
100
AcDbLine
 10
45.789249
 20
153.469675
 30
0.0
 11
45.829220
 21
153.932901
 31
0.0
  0
LINE
  5
1ab
100
AcDbEntity
  8
outline_corners
 62
7
100
AcDbLine
 10
45.829220
 20
153.932901
 30
0.0
 11
45.876783
 21
154.385407
 31
0.0
  0
LINE
  5
1ac
100
AcDbEntity
  8
outline_corners
 62
7
100
AcDbLine
 10
45.876783
 20
154.385407
 30
0.0
 11
45.931359
 21
154.828652
 31
0.0
  0
LINE
  5
1ad
100
AcDbEntity
  8
outline_corners
 62
7
100
AcDbLine
 10
45.931359
 20
154.828652
 30
0.0
 11
45.992370
 21
155.264081
 31
0.0
  0
LINE
  5
1ae
100
AcDbEntity
  8
outline_corners
 62
7
100
AcDbLine
 10
45.992370
 20
155.264081
 30
0.0
 11
46.059240
 21
155.693155
 31
0.0
  0
LINE
  5
1af
100
AcDbEntity
  8
outline_corners
 62
7
100
AcDbLine
 10
46.059240
 20
155.693155
 30
0.0
 11
46.131393
 21
156.117326
 31
0.0
  0
LINE
  5
1b0
100
AcDbEntity
  8
outline_corners
 62
7
100
AcDbLine
 10
46.131393
 20
156.117326
 30
0.0
 11
46.208247
 21
156.538049
 31
0.0
  0
LINE
  5
1b1
100
AcDbEntity
  8
outline_corners
 62
7
100
AcDbLine
 10
46.208247
 20
156.538049
 30
0.0
 11
46.289231
 21
156.956774
 31
0.0
  0
LINE
  5
1b2
100
AcDbEntity
  8
outline_corners
 62
7
100
AcDbLine
 10
46.289231
 20
156.956774
 30
0.0
 11
46.373765
 21
157.374959
 31
0.0
  0
LINE
  5
1b3
100
AcDbEntity
  8
outline_corners
 62
7
100
AcDbLine
 10
46.373765
 20
157.374959
 30
0.0
 11
46.461271
 21
157.794056
 31
0.0
  0
LINE
  5
1b4
100
AcDbEntity
  8
outline_corners
 62
7
100
AcDbLine
 10
46.461271
 20
157.794056
 30
0.0
 11
46.551170
 21
158.215521
 31
0.0
  0
LINE
  5
1b5
100
AcDbEntity
  8
outline_corners
 62
7
100
AcDbLine
 10
46.551170
 20
158.215521
 30
0.0
 11
46.642889
 21
158.640805
 31
0.0
  0
LINE
  5
1b6
100
AcDbEntity
  8
outline_corners
 62
7
100
AcDbLine
 10
46.642889
 20
158.640805
 30
0.0
 11
46.735850
 21
159.071366
 31
0.0
  0
LINE
  5
1b7
100
AcDbEntity
  8
outline_corners
 62
7
100
AcDbLine
 10
46.735850
 20
159.071366
 30
0.0
 11
46.829475
 21
159.508652
 31
0.0
  0
LINE
  5
1b8
100
AcDbEntity
  8
outline_corners
 62
7
100
AcDbLine
 10
46.829475
 20
159.508652
 30
0.0
 11
46.923187
 21
159.954120
 31
0.0
  0
LINE
  5
1b9
100
AcDbEntity
  8
outline_corners
 62
7
100
AcDbLine
 10
46.923187
 20
159.954120
 30
0.0
 11
47.016405
 21
160.409226
 31
0.0
  0
LINE
  5
1ba
100
AcDbEntity
  8
outline_corners
 62
7
100
AcDbLine
 10
47.016405
 20
160.409226
 30
0.0
 11
47.108556
 21
160.875424
 31
0.0
  0
LINE
  5
1bb
100
AcDbEntity
  8
outline_corners
 62
7
100
AcDbLine
 10
47.108556
 20
160.875424
 30
0.0
 11
47.199065
 21
161.354163
 31
0.0
  0
LINE
  5
1bc
100
AcDbEntity
  8
outline_corners
 62
7
100
AcDbLine
 10
47.199065
 20
161.354163
 30
0.0
 11
47.287349
 21
161.846900
 31
0.0
  0
LINE
  5
1bd
100
AcDbEntity
  8
outline_corners
 62
7
100
AcDbLine
 10
47.287349
 20
161.846900
 30
0.0
 11
47.372834
 21
162.355089
 31
0.0
  0
LINE
  5
1be
100
AcDbEntity
  8
outline_corners
 62
7
100
AcDbLine
 10
47.372834
 20
162.355089
 30
0.0
 11
47.454941
 21
162.880183
 31
0.0
  0
LINE
  5
1bf
100
AcDbEntity
  8
outline_corners
 62
7
100
AcDbLine
 10
47.454941
 20
162.880183
 30
0.0
 11
47.533094
 21
163.423639
 31
0.0
  0
LINE
  5
1c0
100
AcDbEntity
  8
outline_corners
 62
7
100
AcDbLine
 10
47.533094
 20
163.423639
 30
0.0
 11
47.606718
 21
163.986907
 31
0.0
  0
LINE
  5
1c1
100
AcDbEntity
  8
outline_corners
 62
7
100
AcDbLine
 10
47.606718
 20
163.986907
 30
0.0
 11
47.675233
 21
164.571442
 31
0.0
  0
LINE
  5
1c2
100
AcDbEntity
  8
outline_corners
 62
7
100
AcDbLine
 10
47.675233
 20
164.571442
 30
0.0
 11
38.982653
 21
165.955124
 31
0.0
  0
LINE
  5
1c3
100
AcDbEntity
  8
outline_corners
 62
7
100
AcDbLine
 10
38.982653
 20
165.955124
 30
0.0
 11
38.981524
 21
165.940223
 31
0.0
  0
LINE
  5
1c4
100
AcDbEntity
  8
outline_corners
 62
7
100
AcDbLine
 10
38.981524
 20
165.940223
 30
0.0
 11
38.977968
 21
165.896670
 31
0.0
  0
LINE
  5
1c5
100
AcDbEntity
  8
outline_corners
 62
7
100
AcDbLine
 10
38.977968
 20
165.896670
 30
0.0
 11
38.971928
 21
165.826132
 31
0.0
  0
LINE
  5
1c6
100
AcDbEntity
  8
outline_corners
 62
7
100
AcDbLine
 10
38.971928
 20
165.826132
 30
0.0
 11
38.963321
 21
165.730278
 31
0.0
  0
LINE
  5
1c7
100
AcDbEntity
  8
outline_corners
 62
7
100
AcDbLine
 10
38.963321
 20
165.730278
 30
0.0
 11
38.952032
 21
165.610788
 31
0.0
  0
LINE
  5
1c8
100
AcDbEntity
  8
outline_corners
 62
7
100
AcDbLine
 10
38.952032
 20
165.610788
 30
0.0
 11
38.937977
 21
165.469332
 31
0.0
  0
LINE
  5
1c9
100
AcDbEntity
  8
outline_corners
 62
7
100
AcDbLine
 10
38.937977
 20
165.469332
 30
0.0
 11
38.921044
 21
165.307591
 31
0.0
  0
LINE
  5
1ca
100
AcDbEntity
  8
outline_corners
 62
7
100
AcDbLine
 10
38.921044
 20
165.307591
 30
0.0
 11
38.901175
 21
165.127237
 31
0.0
  0
LINE
  5
1cb
100
AcDbEntity
  8
outline_corners
 62
7
100
AcDbLine
 10
38.901175
 20
165.127237
 30
0.0
 11
38.878259
 21
164.929941
 31
0.0
  0
LINE
  5
1cc
100
AcDbEntity
  8
outline_corners
 62
7
100
AcDbLine
 10
38.878259
 20
164.929941
 30
0.0
 11
38.852181
 21
164.717385
 31
0.0
  0
LINE
  5
1cd
100
AcDbEntity
  8
outline_corners
 62
7
100
AcDbLine
 10
38.852181
 20
164.717385
 30
0.0
 11
38.822873
 21
164.491241
 31
0.0
  0
LINE
  5
1ce
100
AcDbEntity
  8
outline_corners
 62
7
100
AcDbLine
 10
38.822873
 20
164.491241
 30
0.0
 11
38.790231
 21
164.253180
 31
0.0
  0
LINE
  5
1cf
100
AcDbEntity
  8
outline_corners
 62
7
100
AcDbLine
 10
38.790231
 20
164.253180
 30
0.0
 11
38.754163
 21
164.004884
 31
0.0
  0
LINE
  5
1d0
100
AcDbEntity
  8
outline_corners
 62
7
100
AcDbLine
 10
38.754163
 20
164.004884
 30
0.0
 11
38.714573
 21
163.748022
 31
0.0
  0
LINE
  5
1d1
100
AcDbEntity
  8
outline_corners
 62
7
100
AcDbLine
 10
38.714573
 20
163.748022
 30
0.0
 11
38.671367
 21
163.484272
 31
0.0
  0
LINE
  5
1d2
100
AcDbEntity
  8
outline_corners
 62
7
100
AcDbLine
 10
38.671367
 20
163.484272
 30
0.0
 11
38.624454
 21
163.215308
 31
0.0
  0
LINE
  5
1d3
100
AcDbEntity
  8
outline_corners
 62
7
100
AcDbLine
 10
38.624454
 20
163.215308
 30
0.0
 11
38.573738
 21
162.942806
 31
0.0
  0
LINE
  5
1d4
100
AcDbEntity
  8
outline_corners
 62
7
100
AcDbLine
 10
38.573738
 20
162.942806
 30
0.0
 11
38.519123
 21
162.668438
 31
0.0
  0
LINE
  5
1d5
100
AcDbEntity
  8
outline_corners
 62
7
100
AcDbLine
 10
38.519123
 20
162.668438
 30
0.0
 11
38.460516
 21
162.393883
 31
0.0
  0
LINE
  5
1d6
100
AcDbEntity
  8
outline_corners
 62
7
100
AcDbLine
 10
38.460516
 20
162.393883
 30
0.0
 11
38.397823
 21
162.120811
 31
0.0
  0
LINE
  5
1d7
100
AcDbEntity
  8
outline_corners
 62
7
100
AcDbLine
 10
38.397823
 20
162.120811
 30
0.0
 11
38.330951
 21
161.850902
 31
0.0
  0
LINE
  5
1d8
100
AcDbEntity
  8
outline_corners
 62
7
100
AcDbLine
 10
38.330951
 20
161.850902
 30
0.0
 11
38.259803
 21
161.585828
 31
0.0
  0
LINE
  5
1d9
100
AcDbEntity
  8
outline_corners
 62
7
100
AcDbLine
 10
38.259803
 20
161.585828
 30
0.0
 11
38.184286
 21
161.327264
 31
0.0
  0
LINE
  5
1da
100
AcDbEntity
  8
outline_corners
 62
7
100
AcDbLine
 10
38.184286
 20
161.327264
 30
0.0
 11
38.104307
 21
161.076888
 31
0.0
  0
LINE
  5
1db
100
AcDbEntity
  8
outline_corners
 62
7
100
AcDbLine
 10
38.104307
 20
161.076888
 30
0.0
 11
38.019773
 21
160.836370
 31
0.0
  0
LINE
  5
1dc
100
AcDbEntity
  8
outline_corners
 62
7
100
AcDbLine
 10
38.019773
 20
160.836370
 30
0.0
 11
37.930585
 21
160.607386
 31
0.0
  0
LINE
  5
1dd
100
AcDbEntity
  8
outline_corners
 62
7
100
AcDbLine
 10
37.930585
 20
160.607386
 30
0.0
 11
37.836653
 21
160.391616
 31
0.0
  0
LINE
  5
1de
100
AcDbEntity
  8
outline_corners
 62
7
100
AcDbLine
 10
37.836653
 20
160.391616
 30
0.0
 11
37.737881
 21
160.190727
 31
0.0
  0
LINE
  5
1df
100
AcDbEntity
  8
outline_corners
 62
7
100
AcDbLine
 10
37.737881
 20
160.190727
 30
0.0
 11
37.634175
 21
160.006399
 31
0.0
  0
LINE
  5
1e0
100
AcDbEntity
  8
outline_corners
 62
7
100
AcDbLine
 10
37.634175
 20
160.006399
 30
0.0
 11
37.525441
 21
159.840309
 31
0.0
  0
LINE
  5
1e1
100
AcDbEntity
  8
outline_corners
 62
7
100
AcDbLine
 10
37.525441
 20
159.840309
 30
0.0
 11
37.411587
 21
159.694126
 31
0.0
  0
LINE
  5
1e2
100
AcDbEntity
  8
outline_corners
 62
7
100
AcDbLine
 10
37.411587
 20
159.694126
 30
0.0
 11
37.292514
 21
159.569528
 31
0.0
  0
LINE
  5
1e3
100
AcDbEntity
  8
outline_corners
 62
7
100
AcDbLine
 10
37.292514
 20
159.569528
 30
0.0
 11
37.016377
 21
159.336946
 31
0.0
  0
LINE
  5
1e4
100
AcDbEntity
  8
outline_corners
 62
7
100
AcDbLine
 10
37.016377
 20
159.336946
 30
0.0
 11
36.700200
 21
159.115023
 31
0.0
  0
LINE
  5
1e5
100
AcDbEntity
  8
outline_corners
 62
7
100
AcDbLine
 10
36.700200
 20
159.115023
 30
0.0
 11
36.345032
 21
158.903537
 31
0.0
  0
LINE
  5
1e6
100
AcDbEntity
  8
outline_corners
 62
7
100
AcDbLine
 10
36.345032
 20
158.903537
 30
0.0
 11
35.951922
 21
158.702279
 31
0.0
  0
LINE
  5
1e7
100
AcDbEntity
  8
outline_corners
 62
7
100
AcDbLine
 10
35.951922
 20
158.702279
 30
0.0
 11
35.521917
 21
158.511028
 31
0.0
  0
LINE
  5
1e8
100
AcDbEntity
  8
outline_corners
 62
7
100
AcDbLine
 10
35.521917
 20
158.511028
 30
0.0
 11
35.056064
 21
158.329567
 31
0.0
  0
LINE
  5
1e9
100
AcDbEntity
  8
outline_corners
 62
7
100
AcDbLine
 10
35.056064
 20
158.329567
 30
0.0
 11
34.555410
 21
158.157683
 31
0.0
  0
LINE
  5
1ea
100
AcDbEntity
  8
outline_corners
 62
7
100
AcDbLine
 10
34.555410
 20
158.157683
 30
0.0
 11
34.021003
 21
157.995157
 31
0.0
  0
LINE
  5
1eb
100
AcDbEntity
  8
outline_corners
 62
7
100
AcDbLine
 10
34.021003
 20
157.995157
 30
0.0
 11
33.453891
 21
157.841777
 31
0.0
  0
LINE
  5
1ec
100
AcDbEntity
  8
outline_corners
 62
7
100
AcDbLine
 10
33.453891
 20
157.841777
 30
0.0
 11
32.855123
 21
157.697322
 31
0.0
  0
LINE
  5
1ed
100
AcDbEntity
  8
outline_corners
 62
7
100
AcDbLine
 10
32.855123
 20
157.697322
 30
0.0
 11
32.225742
 21
157.561576
 31
0.0
  0
LINE
  5
1ee
100
AcDbEntity
  8
outline_corners
 62
7
100
AcDbLine
 10
32.225742
 20
157.561576
 30
0.0
 11
31.566801
 21
157.434327
 31
0.0
  0
LINE
  5
1ef
100
AcDbEntity
  8
outline_corners
 62
7
100
AcDbLine
 10
31.566801
 20
157.434327
 30
0.0
 11
30.879344
 21
157.315354
 31
0.0
  0
LINE
  5
1f0
100
AcDbEntity
  8
outline_corners
 62
7
100
AcDbLine
 10
30.879344
 20
157.315354
 30
0.0
 11
30.164422
 21
157.204443
 31
0.0
  0
LINE
  5
1f1
100
AcDbEntity
  8
outline_corners
 62
7
100
AcDbLine
 10
30.164422
 20
157.204443
 30
0.0
 11
29.423081
 21
157.101379
 31
0.0
  0
LINE
  5
1f2
100
AcDbEntity
  8
outline_corners
 62
7
100
AcDbLine
 10
29.423081
 20
157.101379
 30
0.0
 11
28.656365
 21
157.005942
 31
0.0
  0
LINE
  5
1f3
100
AcDbEntity
  8
outline_corners
 62
7
100
AcDbLine
 10
28.656365
 20
157.005942
 30
0.0
 11
27.865329
 21
156.917920
 31
0.0
  0
LINE
  5
1f4
100
AcDbEntity
  8
outline_corners
 62
7
100
AcDbLine
 10
27.865329
 20
156.917920
 30
0.0
 11
27.051013
 21
156.837094
 31
0.0
  0
LINE
  5
1f5
100
AcDbEntity
  8
outline_corners
 62
7
100
AcDbLine
 10
27.051013
 20
156.837094
 30
0.0
 11
26.214468
 21
156.763248
 31
0.0
  0
LINE
  5
1f6
100
AcDbEntity
  8
outline_corners
 62
7
100
AcDbLine
 10
26.214468
 20
156.763248
 30
0.0
 11
25.356743
 21
156.696167
 31
0.0
  0
LINE
  5
1f7
100
AcDbEntity
  8
outline_corners
 62
7
100
AcDbLine
 10
25.356743
 20
156.696167
 30
0.0
 11
24.478883
 21
156.635633
 31
0.0
  0
LINE
  5
1f8
100
AcDbEntity
  8
outline_corners
 62
7
100
AcDbLine
 10
24.478883
 20
156.635633
 30
0.0
 11
23.581937
 21
156.581432
 31
0.0
  0
LINE
  5
1f9
100
AcDbEntity
  8
outline_corners
 62
7
100
AcDbLine
 10
23.581937
 20
156.581432
 30
0.0
 11
22.666952
 21
156.533347
 31
0.0
  0
LINE
  5
1fa
100
AcDbEntity
  8
outline_corners
 62
7
100
AcDbLine
 10
22.666952
 20
156.533347
 30
0.0
 11
21.734976
 21
156.491158
 31
0.0
  0
LINE
  5
1fb
100
AcDbEntity
  8
outline_corners
 62
7
100
AcDbLine
 10
21.734976
 20
156.491158
 30
0.0
 11
20.787057
 21
156.454655
 31
0.0
  0
LINE
  5
1fc
100
AcDbEntity
  8
outline_corners
 62
7
100
AcDbLine
 10
20.787057
 20
156.454655
 30
0.0
 11
19.824242
 21
156.423616
 31
0.0
  0
LINE
  5
1fd
100
AcDbEntity
  8
outline_corners
 62
7
100
AcDbLine
 10
19.824242
 20
156.423616
 30
0.0
 11
18.847579
 21
156.397821
 31
0.0
  0
LINE
  5
1fe
100
AcDbEntity
  8
outline_corners
 62
7
100
AcDbLine
 10
18.847579
 20
156.397821
 30
0.0
 11
17.858115
 21
156.377078
 31
0.0
  0
LINE
  5
1ff
100
AcDbEntity
  8
outline_corners
 62
7
100
AcDbLine
 10
17.858115
 20
156.377078
 30
0.0
 11
16.856898
 21
156.361132
 31
0.0
  0
LINE
  5
200
100
AcDbEntity
  8
outline_corners
 62
7
100
AcDbLine
 10
16.856898
 20
156.361132
 30
0.0
 11
15.844976
 21
156.349787
 31
0.0
  0
LINE
  5
201
100
AcDbEntity
  8
outline_corners
 62
7
100
AcDbLine
 10
15.844976
 20
156.349787
 30
0.0
 11
14.823395
 21
156.342844
 31
0.0
  0
LINE
  5
202
100
AcDbEntity
  8
outline_corners
 62
7
100
AcDbLine
 10
14.823395
 20
156.342844
 30
0.0
 11
13.793205
 21
156.340022
 31
0.0
  0
LINE
  5
203
100
AcDbEntity
  8
outline_corners
 62
7
100
AcDbLine
 10
13.793205
 20
156.340022
 30
0.0
 11
13.793076
 21
156.340073
 31
0.0
  0
ENDSEC
  0
SECTION
  2
OBJECTS
  0
DICTIONARY
  5
C
330
0
100
AcDbDictionary
  3
ACAD_GROUP
350
D
  3
ACAD_MLINESTYLE
350
17
  0
DICTIONARY
  5
D
330
C
100
AcDbDictionary
  0
DICTIONARY
  5
1A
330
C
100
AcDbDictionary
  0
DICTIONARY
  5
17
330
C
100
AcDbDictionary
  3
STANDARD
350
18
  0
DICTIONARY
  5
19
330
C
100
AcDbDictionary
  0
ENDSEC
  0
EOF
